<svg xmlns="http://www.w3.org/2000/svg" width="700" height="620" viewBox="0 0 700 620">
  <defs>
    <style>
      .header-bg { fill: #4A90D9; }
      .body-bg { fill: #FFFFFF; }
      .border { stroke: #2C3E50; stroke-width: 1.5; fill: none; }
      .header-text { font-family: Arial, Helvetica, sans-serif; font-size: 15px; font-weight: bold; fill: #FFFFFF; }
      .field-text { font-family: 'Courier New', Courier, monospace; font-size: 13px; fill: #2C3E50; }
      .type-text { font-family: 'Courier New', Courier, monospace; font-size: 13px; fill: #4A90D9; }
      .arrow-line { stroke: #2C3E50; stroke-width: 1.2; fill: none; }
      .diamond { fill: #2C3E50; stroke: #2C3E50; stroke-width: 1; }
      .label-text { font-family: Arial, Helvetica, sans-serif; font-size: 11px; fill: #666666; }
    </style>
  </defs>

  <!-- Background -->
  <rect width="700" height="620" fill="#FFFFFF" />

  <!-- Tensor struct box -->
  <g transform="translate(50, 20)">
    <!-- Header -->
    <rect x="0" y="0" width="380" height="30" class="header-bg" rx="3" ry="3" />
    <rect x="0" y="15" width="380" height="15" class="header-bg" />
    <!-- Body -->
    <rect x="0" y="30" width="380" height="270" class="body-bg" />
    <!-- Full border -->
    <rect x="0" y="0" width="380" height="300" class="border" rx="3" ry="3" />
    <!-- Separator -->
    <line x1="0" y1="30" x2="380" y2="30" stroke="#2C3E50" stroke-width="1.5" />

    <!-- Header text -->
    <text x="190" y="21" text-anchor="middle" class="header-text">Tensor</text>

    <!-- Fields -->
    <text x="12" y="55" class="field-text">+ data</text>
    <text x="220" y="55" class="type-text">: SimpleTensor</text>

    <text x="12" y="78" class="field-text">+ columnwise_data</text>
    <text x="220" y="78" class="type-text">: SimpleTensor</text>

    <text x="12" y="101" class="field-text">+ amax</text>
    <text x="220" y="101" class="type-text">: SimpleTensor</text>

    <text x="12" y="124" class="field-text">+ columnwise_amax</text>
    <text x="220" y="124" class="type-text">: SimpleTensor</text>

    <text x="12" y="147" class="field-text">+ scale</text>
    <text x="220" y="147" class="type-text">: SimpleTensor</text>

    <text x="12" y="170" class="field-text">+ scale_inv</text>
    <text x="220" y="170" class="type-text">: SimpleTensor</text>

    <text x="12" y="193" class="field-text">+ columnwise_scale_inv</text>
    <text x="220" y="193" class="type-text">: SimpleTensor</text>

    <!-- Separator for non-SimpleTensor fields -->
    <line x1="10" y1="205" x2="370" y2="205" stroke="#CCCCCC" stroke-width="0.8" stroke-dasharray="4,3" />

    <text x="12" y="227" class="field-text">+ scaling_mode</text>
    <text x="220" y="227" class="type-text">: NVTEScalingMode</text>

    <text x="12" y="250" class="field-text">+ nvte_tensor</text>
    <text x="220" y="250" class="type-text">: NVTETensor</text>

    <text x="12" y="273" class="field-text">+ with_gemm_swizzled_scales</text>
    <text x="220" y="273" class="type-text">: bool</text>
  </g>

  <!-- SimpleTensor struct box -->
  <g transform="translate(160, 440)">
    <!-- Header -->
    <rect x="0" y="0" width="380" height="30" class="header-bg" rx="3" ry="3" />
    <rect x="0" y="15" width="380" height="15" class="header-bg" />
    <!-- Body -->
    <rect x="0" y="30" width="380" height="95" class="body-bg" />
    <!-- Full border -->
    <rect x="0" y="0" width="380" height="125" class="border" rx="3" ry="3" />
    <!-- Separator -->
    <line x1="0" y1="30" x2="380" y2="30" stroke="#2C3E50" stroke-width="1.5" />

    <!-- Header text -->
    <text x="190" y="21" text-anchor="middle" class="header-text">SimpleTensor</text>

    <!-- Fields -->
    <text x="12" y="55" class="field-text">+ dptr</text>
    <text x="200" y="55" class="type-text">: void*</text>

    <text x="12" y="78" class="field-text">+ shape</text>
    <text x="200" y="78" class="type-text">: vector&lt;size_t&gt;</text>

    <text x="12" y="101" class="field-text">+ dtype</text>
    <text x="200" y="101" class="type-text">: DType</text>
  </g>

  <!-- Composition arrows (diamond at Tensor end, arrow at SimpleTensor end) -->
  <!-- Arrow 1: from center of Tensor bottom to SimpleTensor top -->
  <g>
    <!-- Main vertical line -->
    <line x1="240" y1="320" x2="240" y2="370" class="arrow-line" />
    <!-- Horizontal line to SimpleTensor center -->
    <line x1="240" y1="370" x2="350" y2="370" class="arrow-line" />
    <!-- Vertical line down to SimpleTensor -->
    <line x1="350" y1="370" x2="350" y2="440" class="arrow-line" />

    <!-- Filled diamond at Tensor end (composition) -->
    <polygon points="240,320 233,328 240,336 247,328" class="diamond" />

    <!-- Arrowhead at SimpleTensor end -->
    <polygon points="350,440 345,432 355,432" fill="#2C3E50" />

    <!-- Multiplicity label -->
    <text x="360" y="435" class="label-text">7</text>
  </g>
</svg>