<svg xmlns="http://www.w3.org/2000/svg" viewBox="0 0 900 210">
  <defs>
    <style>
      @import url("../_static/css/diagram-colors.css");
      .sign-bit { fill: #9db4d0; stroke: #333; stroke-width: 1; }
      .exponent-bit { fill: #d9a066; stroke: #333; stroke-width: 1; }
      .mantissa-bit { fill: #a8d99c; stroke: #333; stroke-width: 1; }
      .bit-text { fill: #000; text-anchor: middle; dominant-baseline: middle; font-size: 16px; }
      .header-text { fill: #555; font-weight: normal; text-anchor: middle; font-size: 18px; }
      .value-text { fill: #333; font-size: 18px; }
      .format-label { fill: #333; font-size: 20px; font-weight: bold; text-anchor: middle; dominant-baseline: middle; }
    </style>
  </defs>
  
  <!-- Header labels - centered -->
  <text x="79" y="18" class="header-text">sign</text>
  <text x="173" y="18" class="header-text">exponent</text>
  <text x="530" y="18" class="header-text">mantissa</text>
  
  <!-- FP32 Format (32 bits: 1 + 8 + 23) -->
  <text x="30" y="60" class="format-label">FP32</text>
  
  <!-- Sign bit (1) -->
  <rect x="70" y="45" width="18" height="30" class="sign-bit"/>
  <text x="79" y="60" class="bit-text">0</text>
  
  <!-- Exponent bits (8) -->
  <rect x="93" y="45" width="18" height="30" class="exponent-bit"/>
  <text x="102" y="60" class="bit-text">0</text>
  <rect x="116" y="45" width="18" height="30" class="exponent-bit"/>
  <text x="125" y="60" class="bit-text">1</text>
  <rect x="139" y="45" width="18" height="30" class="exponent-bit"/>
  <text x="148" y="60" class="bit-text">1</text>
  <rect x="162" y="45" width="18" height="30" class="exponent-bit"/>
  <text x="171" y="60" class="bit-text">1</text>
  <rect x="185" y="45" width="18" height="30" class="exponent-bit"/>
  <text x="194" y="60" class="bit-text">1</text>
  <rect x="208" y="45" width="18" height="30" class="exponent-bit"/>
  <text x="217" y="60" class="bit-text">1</text>
  <rect x="231" y="45" width="18" height="30" class="exponent-bit"/>
  <text x="240" y="60" class="bit-text">0</text>
  <rect x="254" y="45" width="18" height="30" class="exponent-bit"/>
  <text x="263" y="60" class="bit-text">1</text>
  
  <!-- Mantissa bits (23) -->
  <rect x="277" y="45" width="18" height="30" class="mantissa-bit"/>
  <text x="286" y="60" class="bit-text">1</text>
  <rect x="300" y="45" width="18" height="30" class="mantissa-bit"/>
  <text x="309" y="60" class="bit-text">0</text>
  <rect x="323" y="45" width="18" height="30" class="mantissa-bit"/>
  <text x="332" y="60" class="bit-text">0</text>
  <rect x="346" y="45" width="18" height="30" class="mantissa-bit"/>
  <text x="355" y="60" class="bit-text">1</text>
  <rect x="369" y="45" width="18" height="30" class="mantissa-bit"/>
  <text x="378" y="60" class="bit-text">0</text>
  <rect x="392" y="45" width="18" height="30" class="mantissa-bit"/>
  <text x="401" y="60" class="bit-text">1</text>
  <rect x="415" y="45" width="18" height="30" class="mantissa-bit"/>
  <text x="424" y="60" class="bit-text">0</text>
  <rect x="438" y="45" width="18" height="30" class="mantissa-bit"/>
  <text x="447" y="60" class="bit-text">0</text>
  <rect x="461" y="45" width="18" height="30" class="mantissa-bit"/>
  <text x="470" y="60" class="bit-text">1</text>
  <rect x="484" y="45" width="18" height="30" class="mantissa-bit"/>
  <text x="493" y="60" class="bit-text">0</text>
  <rect x="507" y="45" width="18" height="30" class="mantissa-bit"/>
  <text x="516" y="60" class="bit-text">1</text>
  <rect x="530" y="45" width="18" height="30" class="mantissa-bit"/>
  <text x="539" y="60" class="bit-text">0</text>
  <rect x="553" y="45" width="18" height="30" class="mantissa-bit"/>
  <text x="562" y="60" class="bit-text">1</text>
  <rect x="576" y="45" width="18" height="30" class="mantissa-bit"/>
  <text x="585" y="60" class="bit-text">1</text>
  <rect x="599" y="45" width="18" height="30" class="mantissa-bit"/>
  <text x="608" y="60" class="bit-text">1</text>
  <rect x="622" y="45" width="18" height="30" class="mantissa-bit"/>
  <text x="631" y="60" class="bit-text">1</text>
  <rect x="645" y="45" width="18" height="30" class="mantissa-bit"/>
  <text x="654" y="60" class="bit-text">0</text>
  <rect x="668" y="45" width="18" height="30" class="mantissa-bit"/>
  <text x="677" y="60" class="bit-text">1</text>
  <rect x="691" y="45" width="18" height="30" class="mantissa-bit"/>
  <text x="700" y="60" class="bit-text">0</text>
  <rect x="714" y="45" width="18" height="30" class="mantissa-bit"/>
  <text x="723" y="60" class="bit-text">1</text>
  <rect x="737" y="45" width="18" height="30" class="mantissa-bit"/>
  <text x="746" y="60" class="bit-text">0</text>
  <rect x="760" y="45" width="18" height="30" class="mantissa-bit"/>
  <text x="769" y="60" class="bit-text">0</text>
  <rect x="783" y="45" width="18" height="30" class="mantissa-bit"/>
  <text x="792" y="60" class="bit-text">0</text>
  
  <text x="820" y="60" class="value-text">= 0.3952</text>
  
  
  <!-- BF16 Format (16 bits: 1 + 8 + 7) -->
  <text x="30" y="120" class="format-label">BF16</text>
  
  <!-- Sign bit (1) -->
  <rect x="70" y="105" width="18" height="30" class="sign-bit"/>
  <text x="79" y="120" class="bit-text">0</text>
  
  <!-- Exponent bits (8) -->
  <rect x="93" y="105" width="18" height="30" class="exponent-bit"/>
  <text x="102" y="120" class="bit-text">0</text>
  <rect x="116" y="105" width="18" height="30" class="exponent-bit"/>
  <text x="125" y="120" class="bit-text">1</text>
  <rect x="139" y="105" width="18" height="30" class="exponent-bit"/>
  <text x="148" y="120" class="bit-text">1</text>
  <rect x="162" y="105" width="18" height="30" class="exponent-bit"/>
  <text x="171" y="120" class="bit-text">1</text>
  <rect x="185" y="105" width="18" height="30" class="exponent-bit"/>
  <text x="194" y="120" class="bit-text">1</text>
  <rect x="208" y="105" width="18" height="30" class="exponent-bit"/>
  <text x="217" y="120" class="bit-text">1</text>
  <rect x="231" y="105" width="18" height="30" class="exponent-bit"/>
  <text x="240" y="120" class="bit-text">0</text>
  <rect x="254" y="105" width="18" height="30" class="exponent-bit"/>
  <text x="263" y="120" class="bit-text">1</text>
  
  <!-- Mantissa bits (7) -->
  <rect x="277" y="105" width="18" height="30" class="mantissa-bit"/>
  <text x="286" y="120" class="bit-text">1</text>
  <rect x="300" y="105" width="18" height="30" class="mantissa-bit"/>
  <text x="309" y="120" class="bit-text">0</text>
  <rect x="323" y="105" width="18" height="30" class="mantissa-bit"/>
  <text x="332" y="120" class="bit-text">0</text>
  <rect x="346" y="105" width="18" height="30" class="mantissa-bit"/>
  <text x="355" y="120" class="bit-text">1</text>
  <rect x="369" y="105" width="18" height="30" class="mantissa-bit"/>
  <text x="378" y="120" class="bit-text">0</text>
  <rect x="392" y="105" width="18" height="30" class="mantissa-bit"/>
  <text x="401" y="120" class="bit-text">1</text>
  <rect x="415" y="105" width="18" height="30" class="mantissa-bit"/>
  <text x="424" y="120" class="bit-text">0</text>
  
  <text x="820" y="120" class="value-text">≈ 0.3945</text>
  
  
  <!-- FP16 Format (16 bits: 1 + 5 + 10) -->
  <text x="30" y="180" class="format-label">FP16</text>
  
  <!-- Sign bit (1) -->
  <rect x="70" y="165" width="18" height="30" class="sign-bit"/>
  <text x="79" y="180" class="bit-text">0</text>
  
  <!-- Exponent bits (5) -->
  <rect x="93" y="165" width="18" height="30" class="exponent-bit"/>
  <text x="102" y="180" class="bit-text">0</text>
  <rect x="116" y="165" width="18" height="30" class="exponent-bit"/>
  <text x="125" y="180" class="bit-text">1</text>
  <rect x="139" y="165" width="18" height="30" class="exponent-bit"/>
  <text x="148" y="180" class="bit-text">1</text>
  <rect x="162" y="165" width="18" height="30" class="exponent-bit"/>
  <text x="171" y="180" class="bit-text">0</text>
  <rect x="185" y="165" width="18" height="30" class="exponent-bit"/>
  <text x="194" y="180" class="bit-text">1</text>
  
  <!-- Mantissa bits (10) -->
  <rect x="208" y="165" width="18" height="30" class="mantissa-bit"/>
  <text x="217" y="180" class="bit-text">1</text>
  <rect x="231" y="165" width="18" height="30" class="mantissa-bit"/>
  <text x="240" y="180" class="bit-text">0</text>
  <rect x="254" y="165" width="18" height="30" class="mantissa-bit"/>
  <text x="263" y="180" class="bit-text">0</text>
  <rect x="277" y="165" width="18" height="30" class="mantissa-bit"/>
  <text x="286" y="180" class="bit-text">1</text>
  <rect x="300" y="165" width="18" height="30" class="mantissa-bit"/>
  <text x="309" y="180" class="bit-text">0</text>
  <rect x="323" y="165" width="18" height="30" class="mantissa-bit"/>
  <text x="332" y="180" class="bit-text">1</text>
  <rect x="346" y="165" width="18" height="30" class="mantissa-bit"/>
  <text x="355" y="180" class="bit-text">0</text>
  <rect x="369" y="165" width="18" height="30" class="mantissa-bit"/>
  <text x="378" y="180" class="bit-text">0</text>
  <rect x="392" y="165" width="18" height="30" class="mantissa-bit"/>
  <text x="401" y="180" class="bit-text">1</text>
  <rect x="415" y="165" width="18" height="30" class="mantissa-bit"/>
  <text x="424" y="180" class="bit-text">0</text>
  
  <text x="820" y="180" class="value-text">≈ 0.3950</text>
  
</svg>
