<svg xmlns="http://www.w3.org/2000/svg" viewBox="0 0 920 380" width="100%" style="max-width: 920px;">
  <defs>
    <style>
      .section-title { font: bold 15px sans-serif; fill: #333; text-anchor: middle; }
      .label { font: 12px sans-serif; fill: #333; text-anchor: middle; }
      .small-label { font: 11px sans-serif; fill: #555; text-anchor: middle; }
      .tiny-label { font: 10px sans-serif; fill: #555; text-anchor: middle; }
      .brace-label { font: 13px sans-serif; fill: #333; }
      .expert-e0 { fill: #e3f2fd; stroke: #1976d2; stroke-width: 1.5; }
      .expert-e1 { fill: #e8f5e9; stroke: #388e3c; stroke-width: 1.5; }
      .expert-e2 { fill: #fff3e0; stroke: #f57c00; stroke-width: 1.5; }
      .grouped { fill: #f3e5f5; stroke: #7b1fa2; stroke-width: 2.5; }
      .arrow { stroke: #424242; stroke-width: 2; fill: none; marker-end: url(#arrowhead); }
      .brace { stroke: #666; stroke-width: 1.4; fill: none; }
      .param { fill: #fafafa; stroke: #9e9e9e; stroke-width: 1.4; }
    </style>
    <marker id="arrowhead" markerWidth="8" markerHeight="6" refX="7" refY="3" orient="auto">
      <polygon points="0 0, 8 3, 0 6" fill="#424242"/>
    </marker>
  </defs>

  <text x="460" y="30" class="section-title">Token Dispatch</text>

  <!-- Input tokens (mixed expert order) -->
  <g transform="translate(180, 70)">
    <text x="42" y="-10" class="tiny-label">tokens</text>
    <rect x="0" y="0" width="85" height="38" class="expert-e1"/>
    <text x="42" y="23" class="label">t0</text>
    <rect x="0" y="38" width="85" height="38" class="expert-e2"/>
    <text x="42" y="61" class="label">t1</text>
    <rect x="0" y="76" width="85" height="38" class="expert-e0"/>
    <text x="42" y="99" class="label">t2</text>
    <rect x="0" y="114" width="85" height="38" class="expert-e0"/>
    <text x="42" y="137" class="label">t3</text>
    <rect x="0" y="152" width="85" height="38" class="expert-e1"/>
    <text x="42" y="175" class="label">t4</text>
    <rect x="0" y="190" width="85" height="38" class="expert-e2"/>
    <text x="42" y="213" class="label">t5</text>
  </g>

  <!-- Arrow: tokens -> token dispatch -->
  <path d="M 265 184 L 370 184" class="arrow"/>

  <!-- Token dispatch box -->
  <rect x="370" y="70" width="190" height="228" class="grouped"/>
  <text x="465" y="178" class="label">Token Dispatch</text>
  <text x="465" y="200" class="small-label">group tokens by</text>
  <text x="465" y="216" class="small-label">destination expert</text>

  <!-- Arrow: token dispatch -> permuted tokens -->
  <path d="M 560 184 L 645 184" class="arrow"/>

  <!-- routing_map parameter input -->
  <rect x="416" y="320" width="98" height="26" class="param"/>
  <text x="465" y="337" class="label">routing_map</text>
  <path d="M 465 320 L 465 298" class="arrow"/>

  <!-- row_id_map output -->
  <rect x="616" y="320" width="98" height="26" class="param"/>
  <text x="665" y="337" class="label">row_id_map</text>
  <path d="M 560 268 L 616 320" class="arrow"/>

  <!-- Permuted tokens (expert-contiguous) with expert braces on the right -->
  <g transform="translate(645, 70)">
    <text x="42" y="-10" class="tiny-label">permuted tokens</text>
    <rect x="0" y="0" width="85" height="38" class="expert-e0"/>
    <text x="42" y="23" class="label">t2</text>
    <rect x="0" y="38" width="85" height="38" class="expert-e0"/>
    <text x="42" y="61" class="label">t3</text>
    <rect x="0" y="76" width="85" height="38" class="expert-e1"/>
    <text x="42" y="99" class="label">t0</text>
    <rect x="0" y="114" width="85" height="38" class="expert-e1"/>
    <text x="42" y="137" class="label">t4</text>
    <rect x="0" y="152" width="85" height="38" class="expert-e2"/>
    <text x="42" y="175" class="label">t1</text>
    <rect x="0" y="190" width="85" height="38" class="expert-e2"/>
    <text x="42" y="213" class="label">t5</text>

    <path class="brace" d="M 87 0 Q 91 0 91 5 L 91 33 Q 91 38 95 38 Q 91 38 91 43 L 91 71 Q 91 76 87 76"/>
    <text x="100" y="42" class="brace-label">expert 0</text>
    <path class="brace" d="M 87 76 Q 91 76 91 81 L 91 109 Q 91 114 95 114 Q 91 114 91 119 L 91 147 Q 91 152 87 152"/>
    <text x="100" y="118" class="brace-label">expert 1</text>
    <path class="brace" d="M 87 152 Q 91 152 91 157 L 91 185 Q 91 190 95 190 Q 91 190 91 195 L 91 223 Q 91 228 87 228"/>
    <text x="100" y="194" class="brace-label">expert 2</text>
  </g>
</svg>
