<svg xmlns="http://www.w3.org/2000/svg" width="700" height="520" viewBox="0 0 700 520">
  <defs>
    <filter id="shadow" x="-2%" y="-2%" width="104%" height="104%">
      <feDropShadow dx="1" dy="1" stdDeviation="2" flood-opacity="0.15"/>
    </filter>
    <marker id="arrowGray" markerWidth="8" markerHeight="6" refX="8" refY="3" orient="auto">
      <path d="M0,0 L8,3 L0,6 Z" fill="#78909c"/>
    </marker>
    <marker id="arrowGreen" markerWidth="8" markerHeight="6" refX="8" refY="3" orient="auto">
      <path d="M0,0 L8,3 L0,6 Z" fill="#2e7d32"/>
    </marker>
    <marker id="arrowBlue" markerWidth="8" markerHeight="6" refX="8" refY="3" orient="auto">
      <path d="M0,0 L8,3 L0,6 Z" fill="#1565c0"/>
    </marker>
  </defs>

  <!-- Background -->
  <rect width="700" height="520" fill="#ffffff" rx="4"/>

  <!-- Root node -->
  <rect x="240" y="20" width="220" height="44" rx="8" fill="#1a237e" filter="url(#shadow)"/>
  <text x="350" y="47" text-anchor="middle" font-family="Arial, sans-serif" font-size="16" font-weight="bold" fill="#ffffff">Attention Backends</text>

  <!-- Vertical line from root -->
  <line x1="350" y1="64" x2="350" y2="90" stroke="#546e7a" stroke-width="2"/>

  <!-- Horizontal connector -->
  <line x1="110" y1="90" x2="590" y2="90" stroke="#546e7a" stroke-width="2"/>

  <!-- Vertical drops to branches -->
  <line x1="110" y1="90" x2="110" y2="110" stroke="#78909c" stroke-width="2"/>
  <line x1="350" y1="90" x2="350" y2="110" stroke="#2e7d32" stroke-width="2"/>
  <line x1="590" y1="90" x2="590" y2="110" stroke="#1565c0" stroke-width="2"/>

  <!-- ==================== Branch 1: Unfused ==================== -->
  <rect x="20" y="110" width="180" height="40" rx="8" fill="#78909c" filter="url(#shadow)"/>
  <text x="110" y="135" text-anchor="middle" font-family="Arial, sans-serif" font-size="15" font-weight="bold" fill="#ffffff">Unfused</text>

  <!-- Connector down -->
  <line x1="110" y1="150" x2="110" y2="175" stroke="#78909c" stroke-width="1.5" marker-end="url(#arrowGray)"/>

  <!-- Unfused detail box -->
  <rect x="10" y="180" width="200" height="90" rx="6" fill="#eceff1" stroke="#90a4ae" stroke-width="1.2"/>
  <text x="110" y="202" text-anchor="middle" font-family="Arial, sans-serif" font-size="12" font-weight="bold" fill="#37474f">PyTorch Native</text>
  <text x="110" y="218" text-anchor="middle" font-family="Arial, sans-serif" font-size="11" fill="#546e7a">Manual QK&#x1d40;V matmuls</text>
  <line x1="30" y1="228" x2="190" y2="228" stroke="#b0bec5" stroke-width="0.8"/>
  <text x="110" y="244" text-anchor="middle" font-family="Arial, sans-serif" font-size="11" fill="#546e7a">Any GPU</text>
  <text x="110" y="258" text-anchor="middle" font-family="Arial, sans-serif" font-size="11" fill="#546e7a">BF16 / FP16, fallback path</text>

  <!-- Arch annotation -->
  <rect x="55" y="280" width="110" height="22" rx="4" fill="#fafafa" stroke="#b0bec5" stroke-width="1"/>
  <text x="110" y="295" text-anchor="middle" font-family="Arial, sans-serif" font-size="10" fill="#78909c">SM70+ (any arch)</text>

  <!-- ==================== Branch 2: FlashAttention ==================== -->
  <rect x="260" y="110" width="180" height="40" rx="8" fill="#2e7d32" filter="url(#shadow)"/>
  <text x="350" y="135" text-anchor="middle" font-family="Arial, sans-serif" font-size="15" font-weight="bold" fill="#ffffff">FlashAttention</text>

  <!-- Connector down -->
  <line x1="350" y1="150" x2="350" y2="175" stroke="#2e7d32" stroke-width="1.5" marker-end="url(#arrowGreen)"/>

  <!-- Flash detail box -->
  <rect x="250" y="180" width="200" height="90" rx="6" fill="#e8f5e9" stroke="#66bb6a" stroke-width="1.2"/>
  <text x="350" y="202" text-anchor="middle" font-family="Arial, sans-serif" font-size="12" font-weight="bold" fill="#1b5e20">Tri Dao's FlashAttention</text>
  <text x="350" y="218" text-anchor="middle" font-family="Arial, sans-serif" font-size="11" fill="#2e7d32">Tiled, IO-aware algorithm</text>
  <line x1="270" y1="228" x2="430" y2="228" stroke="#a5d6a7" stroke-width="0.8"/>
  <text x="350" y="244" text-anchor="middle" font-family="Arial, sans-serif" font-size="11" fill="#2e7d32">Ampere+, BF16 / FP16</text>
  <text x="350" y="258" text-anchor="middle" font-family="Arial, sans-serif" font-size="11" fill="#2e7d32">O(N) memory, no materialization</text>

  <!-- Arch annotation -->
  <rect x="295" y="280" width="110" height="22" rx="4" fill="#fafafa" stroke="#a5d6a7" stroke-width="1"/>
  <text x="350" y="295" text-anchor="middle" font-family="Arial, sans-serif" font-size="10" fill="#2e7d32">SM80+ (Ampere)</text>

  <!-- ==================== Branch 3: Fused (cuDNN) ==================== -->
  <rect x="500" y="110" width="180" height="40" rx="8" fill="#1565c0" filter="url(#shadow)"/>
  <text x="590" y="135" text-anchor="middle" font-family="Arial, sans-serif" font-size="15" font-weight="bold" fill="#ffffff">Fused (cuDNN)</text>

  <!-- Connector down -->
  <line x1="590" y1="150" x2="590" y2="175" stroke="#1565c0" stroke-width="1.5" marker-end="url(#arrowBlue)"/>

  <!-- Fused sub-branch connector -->
  <line x1="590" y1="180" x2="590" y2="320" stroke="#64b5f6" stroke-width="1.2"/>

  <!-- Sub-branch 3a: F16 Fused -->
  <line x1="590" y1="200" x2="560" y2="200" stroke="#64b5f6" stroke-width="1.2"/>
  <rect x="420" y="182" width="140" height="36" rx="5" fill="#e3f2fd" stroke="#42a5f5" stroke-width="1.2"/>
  <text x="490" y="204" text-anchor="middle" font-family="Arial, sans-serif" font-size="12" font-weight="bold" fill="#1565c0">F16 Fused</text>

  <!-- F16 details -->
  <rect x="420" y="224" width="140" height="36" rx="4" fill="#fafafa" stroke="#bbdefb" stroke-width="0.8"/>
  <text x="490" y="239" text-anchor="middle" font-family="Arial, sans-serif" font-size="10" fill="#1565c0">Ampere+ | SM80+</text>
  <text x="490" y="253" text-anchor="middle" font-family="Arial, sans-serif" font-size="10" fill="#546e7a">cuDNN graph API</text>

  <!-- Sub-branch 3b: FP8 Fused -->
  <line x1="590" y1="280" x2="560" y2="280" stroke="#64b5f6" stroke-width="1.2"/>
  <rect x="420" y="268" width="140" height="36" rx="5" fill="#e3f2fd" stroke="#42a5f5" stroke-width="1.2"/>
  <text x="490" y="290" text-anchor="middle" font-family="Arial, sans-serif" font-size="12" font-weight="bold" fill="#1565c0">FP8 Fused</text>

  <!-- FP8 details -->
  <rect x="420" y="310" width="140" height="36" rx="4" fill="#fafafa" stroke="#bbdefb" stroke-width="0.8"/>
  <text x="490" y="325" text-anchor="middle" font-family="Arial, sans-serif" font-size="10" fill="#1565c0">Hopper+ | SM90+</text>
  <text x="490" y="339" text-anchor="middle" font-family="Arial, sans-serif" font-size="10" fill="#546e7a">Best FP8 performance</text>

  <!-- Sub-branch 3c: Custom/THD -->
  <line x1="590" y1="370" x2="560" y2="370" stroke="#64b5f6" stroke-width="1.2"/>
  <line x1="590" y1="320" x2="590" y2="370" stroke="#64b5f6" stroke-width="1.2"/>
  <rect x="420" y="354" width="140" height="36" rx="5" fill="#e3f2fd" stroke="#42a5f5" stroke-width="1.2"/>
  <text x="490" y="376" text-anchor="middle" font-family="Arial, sans-serif" font-size="12" font-weight="bold" fill="#1565c0">Custom / THD</text>

  <!-- THD details -->
  <rect x="420" y="396" width="140" height="36" rx="4" fill="#fafafa" stroke="#bbdefb" stroke-width="0.8"/>
  <text x="490" y="411" text-anchor="middle" font-family="Arial, sans-serif" font-size="10" fill="#1565c0">Hopper+ | SM90+</text>
  <text x="490" y="425" text-anchor="middle" font-family="Arial, sans-serif" font-size="10" fill="#546e7a">CP-specific kernels</text>

  <!-- Legend -->
  <rect x="20" y="460" width="660" height="46" rx="6" fill="#f5f5f5" stroke="#e0e0e0" stroke-width="1"/>
  <text x="35" y="480" font-family="Arial, sans-serif" font-size="11" fill="#424242" font-weight="bold">Legend:</text>
  <rect x="95" y="470" width="14" height="14" rx="3" fill="#78909c"/>
  <text x="115" y="482" font-family="Arial, sans-serif" font-size="11" fill="#546e7a">Unfused (fallback)</text>
  <rect x="240" y="470" width="14" height="14" rx="3" fill="#2e7d32"/>
  <text x="260" y="482" font-family="Arial, sans-serif" font-size="11" fill="#546e7a">FlashAttention</text>
  <rect x="380" y="470" width="14" height="14" rx="3" fill="#1565c0"/>
  <text x="400" y="482" font-family="Arial, sans-serif" font-size="11" fill="#546e7a">cuDNN Fused</text>
  <text x="35" y="498" font-family="Arial, sans-serif" font-size="10" fill="#78909c">SM80 = Ampere (A100) | SM90 = Hopper (H100) | SM70 = Volta (V100)</text>
</svg>