<svg xmlns="http://www.w3.org/2000/svg" width="1500" height="760" viewBox="0 0 1500 760" role="img" aria-labelledby="title desc">
  <title id="title">Simplified native JAX and TransformerEngine JAX MoE forward data flow</title>
  <desc id="desc">Side-by-side flow chart comparing native JAX and TransformerEngine JAX MoE blocks at router, dispatch, expert compute, and combine granularity.</desc>
  <defs>
    <marker id="arrow" markerWidth="10" markerHeight="10" refX="7" refY="3" orient="auto" markerUnits="strokeWidth">
      <path d="M0,0 L0,6 L8,3 z" fill="#334155"/>
    </marker>
    <style>
      .canvas { fill: #ffffff; }
      .title { font-family: Arial, Helvetica, sans-serif; font-size: 28px; font-weight: 700; fill: #111827; }
      .subtitle { font-family: Arial, Helvetica, sans-serif; font-size: 15px; fill: #475569; }
      .lane { fill: #f8fafc; stroke: #cbd5e1; stroke-width: 1.5; }
      .lane-title { font-family: Arial, Helvetica, sans-serif; font-size: 23px; font-weight: 700; fill: #0f172a; }
      .lane-subtitle { font-family: Arial, Helvetica, sans-serif; font-size: 14px; fill: #475569; }
      .box-title { font-family: Arial, Helvetica, sans-serif; font-size: 18px; font-weight: 700; fill: #0f172a; }
      .box-text { font-family: Arial, Helvetica, sans-serif; font-size: 14px; fill: #334155; }
      .small { font-family: Arial, Helvetica, sans-serif; font-size: 13px; fill: #475569; }
      .callout { font-family: Arial, Helvetica, sans-serif; font-size: 14px; font-weight: 700; fill: #0f766e; }
      .arrow { stroke: #334155; stroke-width: 2; marker-end: url(#arrow); }
      .diff { stroke: #0f766e; stroke-width: 2; stroke-dasharray: 6 5; marker-end: url(#arrow); }
      .vjp { fill: none; stroke: #0f766e; stroke-width: 2; stroke-dasharray: 8 6; }
      .input { fill: #ffffff; stroke: #64748b; stroke-width: 1.8; }
      .router { fill: #e0f2fe; stroke: #0284c7; stroke-width: 1.8; }
      .dispatch { fill: #fef3c7; stroke: #d97706; stroke-width: 1.8; }
      .compute { fill: #dcfce7; stroke: #16a34a; stroke-width: 1.8; }
      .combine { fill: #fce7f3; stroke: #db2777; stroke-width: 1.8; }
      .te { fill: #ccfbf1; stroke: #0f766e; stroke-width: 1.8; }
      .legend { font-family: Arial, Helvetica, sans-serif; font-size: 13px; fill: #334155; }
    </style>
  </defs>

  <rect class="canvas" width="1500" height="760"/>
  <text class="title" x="750" y="38" text-anchor="middle">JAX MoE forward data flow, native block vs TE block</text>
  <text class="subtitle" x="750" y="62" text-anchor="middle">Simplified view: router -> dispatch -> expert compute -> combine</text>

  <rect class="lane" x="50" y="92" width="655" height="590" rx="10"/>
  <rect class="lane" x="795" y="92" width="655" height="590" rx="10"/>
  <text class="lane-title" x="377.5" y="126" text-anchor="middle">Native JAX BF16 EP MoE</text>
  <text class="lane-subtitle" x="377.5" y="148" text-anchor="middle">JAX router, ragged collectives, fused ragged_dot FFN</text>
  <text class="lane-title" x="1122.5" y="126" text-anchor="middle">TE _MoEBlock BF16</text>
  <text class="lane-subtitle" x="1122.5" y="148" text-anchor="middle">TE router, dispatch/combine, grouped GEMM FFN</text>

  <rect class="vjp" x="825" y="214" width="595" height="444" rx="8"/>
  <text class="callout" x="1122.5" y="674" text-anchor="middle">single TE MoE custom_vjp boundary</text>

  <g>
    <rect class="input" x="92" y="170" width="570" height="62" rx="6"/>
    <text class="box-title" x="377" y="194" text-anchor="middle">Input shard</text>
    <text class="box-text" x="377" y="215" text-anchor="middle">x [B,S,H], expert weights sharded over ep</text>

    <rect class="router" x="92" y="260" width="570" height="72" rx="6"/>
    <text class="box-title" x="377" y="286" text-anchor="middle">Router</text>
    <text class="box-text" x="377" y="307" text-anchor="middle">gate GEMM, softmax, top-k experts and routing weights</text>

    <rect class="dispatch" x="92" y="360" width="570" height="76" rx="6"/>
    <text class="box-title" x="377" y="387" text-anchor="middle">Dispatch</text>
    <text class="box-text" x="377" y="408" text-anchor="middle">sort routes, gather counts, ragged_all_to_all, local reorder</text>

    <rect class="compute" x="92" y="464" width="570" height="76" rx="6"/>
    <text class="box-title" x="377" y="491" text-anchor="middle">Expert FFN</text>
    <text class="box-text" x="377" y="512" text-anchor="middle">ragged_dot(wi_0|wi_1), activation, ragged_dot(wo)</text>

    <rect class="combine" x="92" y="568" width="570" height="76" rx="6"/>
    <text class="box-title" x="377" y="595" text-anchor="middle">Combine</text>
    <text class="box-text" x="377" y="616" text-anchor="middle">reverse reorder, reverse ragged_all_to_all, unsort and weight</text>
  </g>

  <g>
    <rect class="input" x="837" y="170" width="570" height="62" rx="6"/>
    <text class="box-title" x="1122" y="194" text-anchor="middle">Input shard</text>
    <text class="box-text" x="1122" y="215" text-anchor="middle">same x [B,S,H] and same parameter names</text>

    <rect class="te" x="837" y="260" width="570" height="72" rx="6"/>
    <text class="box-title" x="1122" y="286" text-anchor="middle">Router</text>
    <text class="box-text" x="1122" y="307" text-anchor="middle">gate GEMM, tex.fused_topk_with_score_function_fwd</text>

    <rect class="dispatch" x="837" y="360" width="570" height="76" rx="6"/>
    <text class="box-title" x="1122" y="387" text-anchor="middle">Dispatch</text>
    <text class="box-text" x="1122" y="408" text-anchor="middle">token_dispatch, gather counts, ragged_all_to_all, local sort</text>

    <rect class="compute" x="837" y="464" width="570" height="76" rx="6"/>
    <text class="box-title" x="1122" y="491" text-anchor="middle">Expert FFN</text>
    <text class="box-text" x="1122" y="512" text-anchor="middle">grouped_gemm(wi_0|wi_1), activation, grouped_gemm(wo)</text>

    <rect class="combine" x="837" y="568" width="570" height="76" rx="6"/>
    <text class="box-title" x="1122" y="595" text-anchor="middle">Combine</text>
    <text class="box-text" x="1122" y="616" text-anchor="middle">inverse local sort, reverse ragged_all_to_all, token combine</text>
  </g>

  <g>
    <line class="arrow" x1="377" y1="232" x2="377" y2="258"/>
    <line class="arrow" x1="377" y1="332" x2="377" y2="358"/>
    <line class="arrow" x1="377" y1="436" x2="377" y2="462"/>
    <line class="arrow" x1="377" y1="540" x2="377" y2="566"/>
    <line class="arrow" x1="1122" y1="232" x2="1122" y2="258"/>
    <line class="arrow" x1="1122" y1="332" x2="1122" y2="358"/>
    <line class="arrow" x1="1122" y1="436" x2="1122" y2="462"/>
    <line class="arrow" x1="1122" y1="540" x2="1122" y2="566"/>
  </g>

  <g>
    <path class="diff" d="M662 296 C725 296 774 296 837 296" fill="none"/>
    <text class="small" x="750" y="284" text-anchor="middle">fused router</text>
    <path class="diff" d="M662 502 C725 502 774 502 837 502" fill="none"/>
    <text class="small" x="750" y="490" text-anchor="middle">ragged_dot FFN -> grouped GEMM FFN</text>
  </g>

  <g transform="translate(92 708)">
    <rect class="router" x="0" y="0" width="24" height="18" rx="3"/>
    <text class="legend" x="32" y="14">router</text>
    <rect class="dispatch" x="112" y="0" width="24" height="18" rx="3"/>
    <text class="legend" x="144" y="14">dispatch / EP exchange</text>
    <rect class="compute" x="340" y="0" width="24" height="18" rx="3"/>
    <text class="legend" x="372" y="14">expert compute</text>
    <rect class="te" x="520" y="0" width="24" height="18" rx="3"/>
    <text class="legend" x="552" y="14">TE primitive</text>
    <rect class="combine" x="680" y="0" width="24" height="18" rx="3"/>
    <text class="legend" x="712" y="14">combine</text>
  </g>
</svg>
