<svg width="4235" height="2342" xmlns="http://www.w3.org/2000/svg" xmlns:xlink="http://www.w3.org/1999/xlink" xml:space="preserve" overflow="hidden"><g transform="translate(-41 -119)"><g><rect x="46.4999" y="1576.5" width="1564" height="734" stroke="#042433" stroke-width="6.875" stroke-linecap="butt" stroke-linejoin="miter" stroke-miterlimit="8" stroke-opacity="1" fill="#FFFFFF" fill-opacity="1"/><rect x="630.5" y="125.5" width="580" height="151" stroke="#000000" stroke-width="6.875" stroke-linecap="butt" stroke-linejoin="miter" stroke-miterlimit="8" stroke-opacity="1" fill="#FFFFFF" fill-opacity="1"/><text fill="#000000" fill-opacity="1" font-family="Aptos,Aptos_MSFontService,sans-serif" font-style="normal" font-variant="normal" font-weight="400" font-stretch="normal" font-size="73" text-anchor="start" direction="ltr" writing-mode="lr-tb" unicode-bidi="normal" text-decoration="none" transform="matrix(1 0 0 1 786.823 225)">Tensor A</text><rect x="303.5" y="337.5" width="1234" height="106" stroke="#000000" stroke-width="6.875" stroke-linecap="butt" stroke-linejoin="miter" stroke-miterlimit="8" stroke-opacity="1" fill="#DCEAF7" fill-opacity="1"/><text fill="#000000" fill-opacity="1" font-family="Aptos,Aptos_MSFontService,sans-serif" font-style="normal" font-variant="normal" font-weight="400" font-stretch="normal" font-size="73" text-anchor="start" direction="ltr" writing-mode="lr-tb" unicode-bidi="normal" text-decoration="none" transform="matrix(1 0 0 1 684.099 414)">inspect_tensor</text><rect x="1258.5" y="596.5" width="617" height="106" stroke="#000000" stroke-width="6.875" stroke-linecap="butt" stroke-linejoin="miter" stroke-miterlimit="8" stroke-opacity="1" fill="#FFFFFF" fill-opacity="1"/><text fill="#000000" fill-opacity="1" font-family="Aptos,Aptos_MSFontService,sans-serif" font-style="normal" font-variant="normal" font-weight="400" font-stretch="normal" font-size="73" text-anchor="start" direction="ltr" writing-mode="lr-tb" unicode-bidi="normal" text-decoration="none" transform="matrix(1 0 0 1 1440.36 673)">fp8 </text><text fill="#000000" fill-opacity="1" font-family="Aptos,Aptos_MSFontService,sans-serif" font-style="normal" font-variant="normal" font-weight="400" font-stretch="normal" font-size="73" text-anchor="start" direction="ltr" writing-mode="lr-tb" unicode-bidi="normal" text-decoration="none" transform="matrix(1 0 0 1 1557.81 673)">cast</text><rect x="114.5" y="596.5" width="683" height="106" stroke="#000000" stroke-width="6.875" stroke-linecap="butt" stroke-linejoin="miter" stroke-miterlimit="8" stroke-opacity="1" fill="#DCEAF7" fill-opacity="1"/><text fill="#000000" fill-opacity="1" font-family="Aptos,Aptos_MSFontService,sans-serif" font-style="normal" font-variant="normal" font-weight="400" font-stretch="normal" font-size="73" text-anchor="start" direction="ltr" writing-mode="lr-tb" unicode-bidi="normal" text-decoration="none" transform="matrix(1 0 0 1 227.611 673)">modify_tensor</text><rect x="303.5" y="826.5" width="1234" height="106" stroke="#000000" stroke-width="6.875" stroke-linecap="butt" stroke-linejoin="miter" stroke-miterlimit="8" stroke-opacity="1" fill="#DCEAF7" fill-opacity="1"/><text fill="#000000" fill-opacity="1" font-family="Aptos,Aptos_MSFontService,sans-serif" font-style="normal" font-variant="normal" font-weight="400" font-stretch="normal" font-size="73" text-anchor="start" direction="ltr" writing-mode="lr-tb" unicode-bidi="normal" text-decoration="none" transform="matrix(1 0 0 1 460.753 903)">inspect_tensor_postquantize</text><rect x="1583.5" y="1123.5" width="1234" height="106" stroke="#000000" stroke-width="6.875" stroke-linecap="butt" stroke-linejoin="miter" stroke-miterlimit="8" stroke-opacity="1" fill="#FFFFFF" fill-opacity="1"/><text fill="#000000" fill-opacity="1" font-family="Aptos,Aptos_MSFontService,sans-serif" font-style="normal" font-variant="normal" font-weight="400" font-stretch="normal" font-size="73" text-anchor="start" direction="ltr" writing-mode="lr-tb" unicode-bidi="normal" text-decoration="none" transform="matrix(1 0 0 1 2095.73 1200)">GEMM</text><rect x="1583.5" y="1310.5" width="1234" height="106" stroke="#000000" stroke-width="6.875" stroke-linecap="butt" stroke-linejoin="miter" stroke-miterlimit="8" stroke-opacity="1" fill="#DCEAF7" fill-opacity="1"/><text fill="#000000" fill-opacity="1" font-family="Aptos,Aptos_MSFontService,sans-serif" font-style="normal" font-variant="normal" font-weight="400" font-stretch="normal" font-size="73" text-anchor="start" direction="ltr" writing-mode="lr-tb" unicode-bidi="normal" text-decoration="none" transform="matrix(1 0 0 1 1963.85 1387)">inspect_tensor</text><rect x="1859.5" y="1499.5" width="682" height="106" stroke="#000000" stroke-width="6.875" stroke-linecap="butt" stroke-linejoin="miter" stroke-miterlimit="8" stroke-opacity="1" fill="#DCEAF7" fill-opacity="1"/><text fill="#000000" fill-opacity="1" font-family="Aptos,Aptos_MSFontService,sans-serif" font-style="normal" font-variant="normal" font-weight="400" font-stretch="normal" font-size="73" text-anchor="start" direction="ltr" writing-mode="lr-tb" unicode-bidi="normal" text-decoration="none" transform="matrix(1 0 0 1 1972.18 1576)">modify_tensor</text><rect x="115.5" y="1956.5" width="1402" height="106" stroke="#000000" stroke-width="6.875" stroke-linecap="butt" stroke-linejoin="miter" stroke-miterlimit="8" stroke-opacity="1" fill="#DCEAF7" fill-opacity="1"/><text fill="#000000" fill-opacity="1" font-family="Aptos,Aptos_MSFontService,sans-serif" font-style="normal" font-variant="normal" font-weight="400" font-stretch="normal" font-size="73" text-anchor="start" direction="ltr" writing-mode="lr-tb" unicode-bidi="normal" text-decoration="none" transform="matrix(1 0 0 1 434.13 2033)">inspect_tensor_enabled</text><rect x="115.5" y="2103.5" width="1402" height="106" stroke="#000000" stroke-width="6.875" stroke-linecap="butt" stroke-linejoin="miter" stroke-miterlimit="8" stroke-opacity="1" fill="#DCEAF7" fill-opacity="1"/><text fill="#000000" fill-opacity="1" font-family="Aptos,Aptos_MSFontService,sans-serif" font-style="normal" font-variant="normal" font-weight="400" font-stretch="normal" font-size="73" text-anchor="start" direction="ltr" writing-mode="lr-tb" unicode-bidi="normal" text-decoration="none" transform="matrix(1 0 0 1 210.785 2180)">inspect_tensor_postquantize_enabled</text><rect x="115.5" y="1660.5" width="1402" height="106" stroke="#000000" stroke-width="6.875" stroke-linecap="butt" stroke-linejoin="miter" stroke-miterlimit="8" stroke-opacity="1" fill="#DCEAF7" fill-opacity="1"/><text fill="#000000" fill-opacity="1" font-family="Aptos,Aptos_MSFontService,sans-serif" font-style="normal" font-variant="normal" font-weight="400" font-stretch="normal" font-size="73" text-anchor="start" direction="ltr" writing-mode="lr-tb" unicode-bidi="normal" text-decoration="none" transform="matrix(1 0 0 1 502.961 1737)">fp8_gemm_enabled</text><rect x="115.5" y="1808.5" width="1402" height="106" stroke="#000000" stroke-width="6.875" stroke-linecap="butt" stroke-linejoin="miter" stroke-miterlimit="8" stroke-opacity="1" fill="#DCEAF7" fill-opacity="1"/><text fill="#000000" fill-opacity="1" font-family="Aptos,Aptos_MSFontService,sans-serif" font-style="normal" font-variant="normal" font-weight="400" font-stretch="normal" font-size="73" text-anchor="start" direction="ltr" writing-mode="lr-tb" unicode-bidi="normal" text-decoration="none" transform="matrix(1 0 0 1 442.461 1885)">modify_tensor_enabled</text><path d="M1.07643-3.26461 444.129 142.822 441.977 149.351-1.07643 3.26461ZM443.006 131.593 464.817 153.263 434.395 157.71Z" fill="#000000" fill-rule="nonzero" fill-opacity="1" transform="matrix(-1 0 0 1 920.317 443.5)"/><path d="M921.293 440.155 1545.58 588.133 1543.99 594.822 919.707 446.845ZM1543.5 577.041 1567.09 596.763 1537.16 603.8Z" fill="#000000" fill-rule="nonzero" fill-opacity="1"/><path d="M923.938 443.5 923.938 803.572 917.063 803.572 917.063 443.5ZM934.25 798.988 920.5 826.488 906.75 798.988Z" fill="#000000" fill-rule="nonzero" fill-opacity="1"/><path d="M456.384 699.178 899.056 817.032 897.288 823.676 454.616 705.822ZM897.281 805.888 920.317 826.25 890.206 832.462Z" fill="#000000" fill-rule="nonzero" fill-opacity="1"/><path d="M0.646175-3.37622 624.723 116.066 623.431 122.818-0.646175 3.37622ZM622.16 105.076 646.585 123.75 616.991 132.085Z" fill="#000000" fill-rule="nonzero" fill-opacity="1" transform="matrix(-1 0 0 1 1567.09 702.5)"/><rect x="2945.5" y="125.5" width="579" height="151" stroke="#000000" stroke-width="6.875" stroke-linecap="butt" stroke-linejoin="miter" stroke-miterlimit="8" stroke-opacity="1" fill="#FFFFFF" fill-opacity="1"/><text fill="#000000" fill-opacity="1" font-family="Aptos,Aptos_MSFontService,sans-serif" font-style="normal" font-variant="normal" font-weight="400" font-stretch="normal" font-size="73" text-anchor="start" direction="ltr" writing-mode="lr-tb" unicode-bidi="normal" text-decoration="none" transform="matrix(1 0 0 1 3100.27 225)">Tensor B</text><rect x="2617.5" y="337.5" width="1234" height="106" stroke="#000000" stroke-width="6.875" stroke-linecap="butt" stroke-linejoin="miter" stroke-miterlimit="8" stroke-opacity="1" fill="#DCEAF7" fill-opacity="1"/><text fill="#000000" fill-opacity="1" font-family="Aptos,Aptos_MSFontService,sans-serif" font-style="normal" font-variant="normal" font-weight="400" font-stretch="normal" font-size="73" text-anchor="start" direction="ltr" writing-mode="lr-tb" unicode-bidi="normal" text-decoration="none" transform="matrix(1 0 0 1 2998.12 414)">inspect_tensor</text><rect x="3572.5" y="596.5" width="617" height="106" stroke="#000000" stroke-width="6.875" stroke-linecap="butt" stroke-linejoin="miter" stroke-miterlimit="8" stroke-opacity="1" fill="#FFFFFF" fill-opacity="1"/><text fill="#000000" fill-opacity="1" font-family="Aptos,Aptos_MSFontService,sans-serif" font-style="normal" font-variant="normal" font-weight="400" font-stretch="normal" font-size="73" text-anchor="start" direction="ltr" writing-mode="lr-tb" unicode-bidi="normal" text-decoration="none" transform="matrix(1 0 0 1 3754.39 673)">fp8 </text><text fill="#000000" fill-opacity="1" font-family="Aptos,Aptos_MSFontService,sans-serif" font-style="normal" font-variant="normal" font-weight="400" font-stretch="normal" font-size="73" text-anchor="start" direction="ltr" writing-mode="lr-tb" unicode-bidi="normal" text-decoration="none" transform="matrix(1 0 0 1 3871.84 673)">cast</text><rect x="2428.5" y="596.5" width="683" height="106" stroke="#000000" stroke-width="6.875" stroke-linecap="butt" stroke-linejoin="miter" stroke-miterlimit="8" stroke-opacity="1" fill="#DCEAF7" fill-opacity="1"/><text fill="#000000" fill-opacity="1" font-family="Aptos,Aptos_MSFontService,sans-serif" font-style="normal" font-variant="normal" font-weight="400" font-stretch="normal" font-size="73" text-anchor="start" direction="ltr" writing-mode="lr-tb" unicode-bidi="normal" text-decoration="none" transform="matrix(1 0 0 1 2541.64 673)">modify_tensor</text><rect x="2617.5" y="826.5" width="1234" height="106" stroke="#000000" stroke-width="6.875" stroke-linecap="butt" stroke-linejoin="miter" stroke-miterlimit="8" stroke-opacity="1" fill="#DCEAF7" fill-opacity="1"/><text fill="#000000" fill-opacity="1" font-family="Aptos,Aptos_MSFontService,sans-serif" font-style="normal" font-variant="normal" font-weight="400" font-stretch="normal" font-size="73" text-anchor="start" direction="ltr" writing-mode="lr-tb" unicode-bidi="normal" text-decoration="none" transform="matrix(1 0 0 1 2774.78 903)">inspect_tensor_postquantize</text><path d="M1.07643-3.26461 444.129 142.822 441.976 149.351-1.07643 3.26461ZM443.006 131.593 464.817 153.263 434.394 157.71Z" fill="#000000" fill-rule="nonzero" fill-opacity="1" transform="matrix(-1 0 0 1 3234.32 443.5)"/><path d="M3235.29 440.155 3859.58 588.133 3857.99 594.822 3233.71 446.845ZM3857.5 577.041 3881.09 596.763 3851.16 603.8Z" fill="#000000" fill-rule="nonzero" fill-opacity="1"/><path d="M3237.94 443.5 3237.94 803.572 3231.06 803.572 3231.06 443.5ZM3248.25 798.988 3234.5 826.488 3220.75 798.988Z" fill="#000000" fill-rule="nonzero" fill-opacity="1"/><path d="M2770.38 699.178 3213.06 817.032 3211.29 823.676 2768.62 705.822ZM3211.28 805.888 3234.32 826.25 3204.21 832.462Z" fill="#000000" fill-rule="nonzero" fill-opacity="1"/><path d="M0.646175-3.37622 624.723 116.066 623.431 122.818-0.646175 3.37622ZM622.16 105.076 646.585 123.75 616.991 132.085Z" fill="#000000" fill-rule="nonzero" fill-opacity="1" transform="matrix(-1 0 0 1 3881.09 702.5)"/><path d="M921.009 929.1 2178.11 1117.2 2177.09 1124 919.991 935.9ZM2175.09 1106.33 2200.26 1123.99 2171.02 1133.52Z" fill="#000000" fill-rule="nonzero" fill-opacity="1"/><path d="M0.625813-3.38005 1012.36 183.941 1011.11 190.702-0.625813 3.38005ZM1009.73 172.967 1034.27 191.493 1004.72 200.007Z" fill="#000000" fill-rule="nonzero" fill-opacity="1" transform="matrix(-1 0 0 1 3234.77 932.5)"/><path d="M3.4375-1.54131e-05 3.43776 57.5713-3.43724 57.5714-3.4375 1.54131e-05ZM13.7502 52.988 0.000360892 80.488-13.7498 52.9881Z" fill="#000000" fill-rule="nonzero" fill-opacity="1" transform="matrix(-1 0 0 1 2200.5 1229.5)"/><path d="M3.4375-1.54131e-05 3.43776 57.5713-3.43724 57.5714-3.4375 1.54131e-05ZM13.7502 52.988 0.000360892 80.488-13.7498 52.9881Z" fill="#000000" fill-rule="nonzero" fill-opacity="1" transform="matrix(-1 0 0 1 2200.5 1418.5)"/><text fill="#000000" fill-opacity="1" font-family="Aptos,Aptos_MSFontService,sans-serif" font-style="normal" font-variant="normal" font-weight="400" font-stretch="normal" font-size="73" text-anchor="start" direction="ltr" writing-mode="lr-tb" unicode-bidi="normal" text-decoration="none" transform="matrix(1 0 0 1 623.083 2394)">Routing </text><text fill="#000000" fill-opacity="1" font-family="Aptos,Aptos_MSFontService,sans-serif" font-style="normal" font-variant="normal" font-weight="400" font-stretch="normal" font-size="73" text-anchor="start" direction="ltr" writing-mode="lr-tb" unicode-bidi="normal" text-decoration="none" transform="matrix(1 0 0 1 882.041 2394)">calls</text><text fill="#000000" fill-opacity="1" font-family="Aptos,Aptos_MSFontService,sans-serif" font-style="normal" font-variant="normal" font-weight="400" font-stretch="normal" font-size="73" text-anchor="start" direction="ltr" writing-mode="lr-tb" unicode-bidi="normal" text-decoration="none" transform="matrix(1 0 0 1 3298.55 1286)">GEMM  </text><text fill="#000000" fill-opacity="1" font-family="Aptos,Aptos_MSFontService,sans-serif" font-style="normal" font-variant="normal" font-weight="400" font-stretch="normal" font-size="73" text-anchor="start" direction="ltr" writing-mode="lr-tb" unicode-bidi="normal" text-decoration="none" transform="matrix(1 0 0 1 3536.88 1286)">calls</text><path d="M923.938 276.5 923.938 314.619 917.063 314.62 917.063 276.5ZM934.25 310.036 920.5 337.536 906.75 310.036Z" fill="#000000" fill-rule="nonzero" fill-opacity="1"/><path d="M3237.94 276.5 3237.94 314.619 3231.06 314.62 3231.06 276.5ZM3248.25 310.036 3234.5 337.536 3220.75 310.036Z" fill="#000000" fill-rule="nonzero" fill-opacity="1"/></g></g></svg>