<svg width="4111" height="1434" xmlns="http://www.w3.org/2000/svg" xmlns:xlink="http://www.w3.org/1999/xlink" xml:space="preserve" overflow="hidden"><g transform="translate(-91 -426)"><g><rect x="986" y="1109" width="330" height="221" fill="#DCEAF7" fill-opacity="1"/><text fill="#000000" fill-opacity="1" font-family="Aptos,Aptos_MSFontService,sans-serif" font-style="normal" font-variant="normal" font-weight="400" font-stretch="normal" font-size="60" text-anchor="start" direction="ltr" writing-mode="lr-tb" unicode-bidi="normal" text-decoration="none" transform="matrix(1 0 0 1 1102.43 1203)">FP8 </text><text fill="#000000" fill-opacity="1" font-family="Aptos,Aptos_MSFontService,sans-serif" font-style="normal" font-variant="normal" font-weight="400" font-stretch="normal" font-size="60" text-anchor="start" direction="ltr" writing-mode="lr-tb" unicode-bidi="normal" text-decoration="none" transform="matrix(1 0 0 1 1066.64 1274)">GEMM</text><rect x="941" y="429" width="420" height="334" fill="#DCEAF7" fill-opacity="1"/><text fill="#000000" fill-opacity="1" font-family="Aptos,Aptos_MSFontService,sans-serif" font-style="normal" font-variant="normal" font-weight="400" font-stretch="normal" font-size="60" text-anchor="start" direction="ltr" writing-mode="lr-tb" unicode-bidi="normal" text-decoration="none" transform="matrix(1 0 0 1 1085.53 580)">BF16</text><text fill="#000000" fill-opacity="1" font-family="Aptos,Aptos_MSFontService,sans-serif" font-style="normal" font-variant="normal" font-weight="400" font-stretch="normal" font-size="60" text-anchor="start" direction="ltr" writing-mode="lr-tb" unicode-bidi="normal" text-decoration="none" transform="matrix(1 0 0 1 1066.92 651)">weight</text><rect x="95.9999" y="1052" width="420" height="334" fill="#DCEAF7" fill-opacity="1"/><text fill="#000000" fill-opacity="1" font-family="Aptos,Aptos_MSFontService,sans-serif" font-style="normal" font-variant="normal" font-weight="400" font-stretch="normal" font-size="60" text-anchor="start" direction="ltr" writing-mode="lr-tb" unicode-bidi="normal" text-decoration="none" transform="matrix(1 0 0 1 239.829 1203)">BF16</text><text fill="#000000" fill-opacity="1" font-family="Aptos,Aptos_MSFontService,sans-serif" font-style="normal" font-variant="normal" font-weight="400" font-stretch="normal" font-size="60" text-anchor="start" direction="ltr" writing-mode="lr-tb" unicode-bidi="normal" text-decoration="none" transform="matrix(1 0 0 1 239.256 1274)">input</text><rect x="600" y="1109" width="305" height="221" fill="#D9F2D0" fill-opacity="1"/><text fill="#000000" fill-opacity="1" font-family="Aptos,Aptos_MSFontService,sans-serif" font-style="normal" font-variant="normal" font-weight="400" font-stretch="normal" font-size="60" text-anchor="start" direction="ltr" writing-mode="lr-tb" unicode-bidi="normal" text-decoration="none" transform="matrix(1 0 0 1 703.883 1203)">FP8</text><text fill="#000000" fill-opacity="1" font-family="Aptos,Aptos_MSFontService,sans-serif" font-style="normal" font-variant="normal" font-weight="400" font-stretch="normal" font-size="60" text-anchor="start" direction="ltr" writing-mode="lr-tb" unicode-bidi="normal" text-decoration="none" transform="matrix(1 0 0 1 686.397 1274)">input</text><rect x="999" y="831" width="305" height="221" fill="#DCEAF7" fill-opacity="1"/><text fill="#000000" fill-opacity="1" font-family="Aptos,Aptos_MSFontService,sans-serif" font-style="normal" font-variant="normal" font-weight="400" font-stretch="normal" font-size="60" text-anchor="start" direction="ltr" writing-mode="lr-tb" unicode-bidi="normal" text-decoration="none" transform="matrix(1 0 0 1 1102.44 925)">FP8</text><text fill="#000000" fill-opacity="1" font-family="Aptos,Aptos_MSFontService,sans-serif" font-style="normal" font-variant="normal" font-weight="400" font-stretch="normal" font-size="60" text-anchor="start" direction="ltr" writing-mode="lr-tb" unicode-bidi="normal" text-decoration="none" transform="matrix(1 0 0 1 1066.92 996)">weight</text><rect x="1510" y="1052" width="420" height="334" fill="#DCEAF7" fill-opacity="1"/><text fill="#000000" fill-opacity="1" font-family="Aptos,Aptos_MSFontService,sans-serif" font-style="normal" font-variant="normal" font-weight="400" font-stretch="normal" font-size="60" text-anchor="start" direction="ltr" writing-mode="lr-tb" unicode-bidi="normal" text-decoration="none" transform="matrix(1 0 0 1 1653.85 1203)">BF16</text><text fill="#000000" fill-opacity="1" font-family="Aptos,Aptos_MSFontService,sans-serif" font-style="normal" font-variant="normal" font-weight="400" font-stretch="normal" font-size="60" text-anchor="start" direction="ltr" writing-mode="lr-tb" unicode-bidi="normal" text-decoration="none" transform="matrix(1 0 0 1 1592.91 1274)">activation</text><path d="M1154.94 763.5 1154.94 808.797 1148.06 808.797 1148.06 763.5ZM1165.25 804.214 1151.5 831.714 1137.75 804.214Z" fill="#156082" fill-rule="nonzero" fill-opacity="1"/><path d="M1154.94 1046.5 1154.94 1091.8 1148.06 1091.8 1148.06 1046.5ZM1165.25 1087.21 1151.5 1114.71 1137.75 1087.21Z" fill="#156082" fill-rule="nonzero" fill-opacity="1"/><path d="M1.46568e-05-3.4375 61.7245-3.43724 61.7245 3.43776-1.46568e-05 3.4375ZM57.1412-13.7498 84.6412 0.000360892 57.1411 13.7502Z" fill="#156082" fill-rule="nonzero" fill-opacity="1" transform="matrix(1 0 0 -1 516.5 1219.5)"/><path d="M1.46568e-05-3.4375 61.7245-3.43724 61.7245 3.43776-1.46568e-05 3.4375ZM57.1412-13.7498 84.6412 0.000360892 57.1411 13.7502Z" fill="#156082" fill-rule="nonzero" fill-opacity="1" transform="matrix(1 0 0 -1 904.5 1219.5)"/><path d="M1316.5 1216.06 1486.89 1216.06 1486.89 1222.94 1316.5 1222.94ZM1482.31 1205.75 1509.81 1219.5 1482.31 1233.25Z" fill="#156082" fill-rule="nonzero" fill-opacity="1"/><rect x="3270" y="1052" width="332" height="334" fill="#DCEAF7" fill-opacity="1"/><text fill="#000000" fill-opacity="1" font-family="Aptos,Aptos_MSFontService,sans-serif" font-style="normal" font-variant="normal" font-weight="400" font-stretch="normal" font-size="60" text-anchor="start" direction="ltr" writing-mode="lr-tb" unicode-bidi="normal" text-decoration="none" transform="matrix(1 0 0 1 3370.09 1203)">BF16 </text><text fill="#000000" fill-opacity="1" font-family="Aptos,Aptos_MSFontService,sans-serif" font-style="normal" font-variant="normal" font-weight="400" font-stretch="normal" font-size="60" text-anchor="start" direction="ltr" writing-mode="lr-tb" unicode-bidi="normal" text-decoration="none" transform="matrix(1 0 0 1 3351.19 1274)">GEMM</text><rect x="3226" y="429" width="420" height="334" fill="#DCEAF7" fill-opacity="1"/><text fill="#000000" fill-opacity="1" font-family="Aptos,Aptos_MSFontService,sans-serif" font-style="normal" font-variant="normal" font-weight="400" font-stretch="normal" font-size="60" text-anchor="start" direction="ltr" writing-mode="lr-tb" unicode-bidi="normal" text-decoration="none" transform="matrix(1 0 0 1 3370.08 580)">BF16</text><text fill="#000000" fill-opacity="1" font-family="Aptos,Aptos_MSFontService,sans-serif" font-style="normal" font-variant="normal" font-weight="400" font-stretch="normal" font-size="60" text-anchor="start" direction="ltr" writing-mode="lr-tb" unicode-bidi="normal" text-decoration="none" transform="matrix(1 0 0 1 3351.48 651)">weight</text><rect x="2228" y="1052" width="420" height="334" fill="#DCEAF7" fill-opacity="1"/><text fill="#000000" fill-opacity="1" font-family="Aptos,Aptos_MSFontService,sans-serif" font-style="normal" font-variant="normal" font-weight="400" font-stretch="normal" font-size="60" text-anchor="start" direction="ltr" writing-mode="lr-tb" unicode-bidi="normal" text-decoration="none" transform="matrix(1 0 0 1 2371.88 1203)">BF16</text><text fill="#000000" fill-opacity="1" font-family="Aptos,Aptos_MSFontService,sans-serif" font-style="normal" font-variant="normal" font-weight="400" font-stretch="normal" font-size="60" text-anchor="start" direction="ltr" writing-mode="lr-tb" unicode-bidi="normal" text-decoration="none" transform="matrix(1 0 0 1 2371.31 1274)">input</text><rect x="3780" y="1052" width="420" height="334" fill="#DCEAF7" fill-opacity="1"/><text fill="#000000" fill-opacity="1" font-family="Aptos,Aptos_MSFontService,sans-serif" font-style="normal" font-variant="normal" font-weight="400" font-stretch="normal" font-size="60" text-anchor="start" direction="ltr" writing-mode="lr-tb" unicode-bidi="normal" text-decoration="none" transform="matrix(1 0 0 1 3924.02 1203)">BF16</text><text fill="#000000" fill-opacity="1" font-family="Aptos,Aptos_MSFontService,sans-serif" font-style="normal" font-variant="normal" font-weight="400" font-stretch="normal" font-size="60" text-anchor="start" direction="ltr" writing-mode="lr-tb" unicode-bidi="normal" text-decoration="none" transform="matrix(1 0 0 1 3863.09 1274)">activation</text><path d="M3439.94 763.5 3439.94 1029.51 3433.06 1029.51 3433.06 763.5ZM3450.25 1024.93 3436.5 1052.43 3422.75 1024.93Z" fill="#156082" fill-rule="nonzero" fill-opacity="1"/><path d="M2648.5 1216.06 2736.92 1216.06 2736.92 1222.94 2648.5 1222.94ZM2732.33 1205.75 2759.83 1219.5 2732.33 1233.25Z" fill="#156082" fill-rule="nonzero" fill-opacity="1"/><path d="M1.46568e-05-3.4375 61.7245-3.43724 61.7245 3.43776-1.46568e-05 3.4375ZM57.1412-13.7498 84.6412 0.000360892 57.1411 13.7502Z" fill="#156082" fill-rule="nonzero" fill-opacity="1" transform="matrix(1 0 0 -1 3185.5 1219.5)"/><path d="M3602.5 1216.06 3757.44 1216.06 3757.44 1222.94 3602.5 1222.94ZM3752.86 1205.75 3780.36 1219.5 3752.86 1233.25Z" fill="#156082" fill-rule="nonzero" fill-opacity="1"/><rect x="2759" y="1052" width="420" height="334" fill="#D9F2D0" fill-opacity="1"/><text fill="#000000" fill-opacity="1" font-family="Aptos,Aptos_MSFontService,sans-serif" font-style="normal" font-variant="normal" font-weight="400" font-stretch="normal" font-size="60" text-anchor="start" direction="ltr" writing-mode="lr-tb" unicode-bidi="normal" text-decoration="none" transform="matrix(1 0 0 1 2903.22 1142)">BF16 </text><text fill="#000000" fill-opacity="1" font-family="Aptos,Aptos_MSFontService,sans-serif" font-style="normal" font-variant="normal" font-weight="400" font-stretch="normal" font-size="60" text-anchor="start" direction="ltr" writing-mode="lr-tb" unicode-bidi="normal" text-decoration="none" transform="matrix(1 0 0 1 2902.07 1213)">Input</text><text fill="#000000" fill-opacity="1" font-family="Aptos,Aptos_MSFontService,sans-serif" font-style="normal" font-variant="normal" font-weight="400" font-stretch="normal" font-size="50" text-anchor="start" direction="ltr" writing-mode="lr-tb" unicode-bidi="normal" text-decoration="none" transform="matrix(1 0 0 1 2809.26 1277)">fake quantized</text><text fill="#000000" fill-opacity="1" font-family="Aptos,Aptos_MSFontService,sans-serif" font-style="normal" font-variant="normal" font-weight="400" font-stretch="normal" font-size="50" text-anchor="start" direction="ltr" writing-mode="lr-tb" unicode-bidi="normal" text-decoration="none" transform="matrix(1 0 0 1 2900.65 1337)">to FP8</text><rect x="1628" y="1600" width="305" height="220" fill="#D9F2D0" fill-opacity="1"/><text fill="#000000" fill-opacity="1" font-family="Aptos,Aptos_MSFontService,sans-serif" font-style="normal" font-variant="normal" font-weight="400" font-stretch="normal" font-size="60" text-anchor="start" direction="ltr" writing-mode="lr-tb" unicode-bidi="normal" text-decoration="none" transform="matrix(1 0 0 1 1731.92 1693)">FP8</text><text fill="#000000" fill-opacity="1" font-family="Aptos,Aptos_MSFontService,sans-serif" font-style="normal" font-variant="normal" font-weight="400" font-stretch="normal" font-size="60" text-anchor="start" direction="ltr" writing-mode="lr-tb" unicode-bidi="normal" text-decoration="none" transform="matrix(1 0 0 1 1714.44 1764)">input</text><rect x="2228" y="1523" width="420" height="334" fill="#D9F2D0" fill-opacity="1"/><text fill="#000000" fill-opacity="1" font-family="Aptos,Aptos_MSFontService,sans-serif" font-style="normal" font-variant="normal" font-weight="400" font-stretch="normal" font-size="60" text-anchor="start" direction="ltr" writing-mode="lr-tb" unicode-bidi="normal" text-decoration="none" transform="matrix(1 0 0 1 2371.88 1613)">BF16 </text><text fill="#000000" fill-opacity="1" font-family="Aptos,Aptos_MSFontService,sans-serif" font-style="normal" font-variant="normal" font-weight="400" font-stretch="normal" font-size="60" text-anchor="start" direction="ltr" writing-mode="lr-tb" unicode-bidi="normal" text-decoration="none" transform="matrix(1 0 0 1 2370.74 1684)">Input</text><text fill="#000000" fill-opacity="1" font-family="Aptos,Aptos_MSFontService,sans-serif" font-style="normal" font-variant="normal" font-weight="400" font-stretch="normal" font-size="50" text-anchor="start" direction="ltr" writing-mode="lr-tb" unicode-bidi="normal" text-decoration="none" transform="matrix(1 0 0 1 2277.92 1748)">fake quantized</text><text fill="#000000" fill-opacity="1" font-family="Aptos,Aptos_MSFontService,sans-serif" font-style="normal" font-variant="normal" font-weight="400" font-stretch="normal" font-size="50" text-anchor="start" direction="ltr" writing-mode="lr-tb" unicode-bidi="normal" text-decoration="none" transform="matrix(1 0 0 1 2369.31 1808)">to FP8</text><path d="M2020.39 1673.54 2155.61 1673.54 2155.61 1702.71 2020.39 1702.71ZM2020.39 1717.29 2155.61 1717.29 2155.61 1746.46 2020.39 1746.46Z" fill="#000000" fill-rule="evenodd" fill-opacity="1"/></g></g></svg>