<svg width="3250" height="1773" xmlns="http://www.w3.org/2000/svg" xmlns:xlink="http://www.w3.org/1999/xlink" xml:space="preserve" overflow="hidden"><g transform="translate(-499 -449)"><g><rect x="594.5" y="829.5" width="497" height="577" stroke="#042433" stroke-width="6.875" stroke-linecap="butt" stroke-linejoin="miter" stroke-miterlimit="8" stroke-opacity="1" fill="none"/><rect x="1258.5" y="829.5" width="496" height="577" stroke="#042433" stroke-width="6.875" stroke-linecap="butt" stroke-linejoin="miter" stroke-miterlimit="8" stroke-opacity="1" fill="none"/><path d="M1430.5 1186.5 1582.5 1186.5 1582.5 1363.5 1430.5 1363.5 1430.5 1312.05C1450.75 1312.05 1467.17 1296.82 1467.17 1278.04 1467.17 1259.25 1450.75 1244.02 1430.5 1244.02Z" stroke="#042433" stroke-width="6.875" stroke-linecap="butt" stroke-linejoin="miter" stroke-miterlimit="8" stroke-opacity="1" fill="#D9F2D0" fill-rule="evenodd" fill-opacity="1"/><path d="M1430.5 895.5 1582.77 895.5 1582.77 949.68C1603.05 949.68 1619.5 964.821 1619.5 983.5 1619.5 1002.18 1603.05 1017.32 1582.77 1017.32L1582.77 1071.5 1430.5 1071.5 1430.5 1017 1443.06 1014.66C1456.24 1009.53 1465.49 997.509 1465.49 983.5 1465.49 969.491 1456.24 957.472 1443.06 952.338L1430.5 950.003Z" stroke="#000000" stroke-width="6.875" stroke-linecap="butt" stroke-linejoin="miter" stroke-miterlimit="8" stroke-opacity="1" fill="#FBE3D6" fill-rule="evenodd" fill-opacity="1"/><path d="M748.5 895.5 900.768 895.5 900.768 949.68C921.055 949.68 937.5 964.821 937.5 983.5 937.5 1002.18 921.055 1017.32 900.768 1017.32L900.768 1071.5 748.5 1071.5Z" stroke="#000000" stroke-width="6.875" stroke-linecap="butt" stroke-linejoin="miter" stroke-miterlimit="8" stroke-opacity="1" fill="#FBE3D6" fill-rule="evenodd" fill-opacity="1"/><path d="M748.5 1186.5 900.768 1186.5 900.768 1240.99C921.055 1240.99 937.5 1256.22 937.5 1275 937.5 1293.78 921.055 1309.01 900.768 1309.01L900.768 1363.5 748.5 1363.5Z" stroke="#000000" stroke-width="6.875" stroke-linecap="butt" stroke-linejoin="miter" stroke-miterlimit="8" stroke-opacity="1" fill="#D9F2D0" fill-rule="evenodd" fill-opacity="1"/><rect x="1876.5" y="829.5" width="496" height="577" stroke="#042433" stroke-width="6.875" stroke-linecap="butt" stroke-linejoin="miter" stroke-miterlimit="8" stroke-opacity="1" fill="none"/><rect x="2539.5" y="829.5" width="497" height="577" stroke="#042433" stroke-width="6.875" stroke-linecap="butt" stroke-linejoin="miter" stroke-miterlimit="8" stroke-opacity="1" fill="none"/><path d="M2711.5 1186.5 2864.5 1186.5 2864.5 1363.5 2711.5 1363.5 2711.5 1312.05C2731.88 1312.05 2748.41 1296.82 2748.41 1278.04 2748.41 1259.25 2731.88 1244.02 2711.5 1244.02Z" stroke="#042433" stroke-width="6.875" stroke-linecap="butt" stroke-linejoin="miter" stroke-miterlimit="8" stroke-opacity="1" fill="#D9F2D0" fill-rule="evenodd" fill-opacity="1"/><path d="M2030.5 1186.5 2182.77 1186.5 2182.77 1240.99C2203.05 1240.99 2219.5 1256.22 2219.5 1275 2219.5 1293.78 2203.05 1309.01 2182.77 1309.01L2182.77 1363.5 2030.5 1363.5Z" stroke="#000000" stroke-width="6.875" stroke-linecap="butt" stroke-linejoin="miter" stroke-miterlimit="8" stroke-opacity="1" fill="#D9F2D0" fill-rule="evenodd" fill-opacity="1"/><path d="M2711.5 895.5 2864.5 895.5 2864.5 1071.5 2711.5 1071.5 2711.5 1020.34C2731.88 1020.34 2748.41 1005.2 2748.41 986.519 2748.41 967.841 2731.88 952.699 2711.5 952.699Z" stroke="#042433" stroke-width="6.875" stroke-linecap="butt" stroke-linejoin="miter" stroke-miterlimit="8" stroke-opacity="1" fill="#FBE3D6" fill-rule="evenodd" fill-opacity="1"/><path d="M2030.5 895.5 2182.77 895.5 2182.77 949.68C2203.05 949.68 2219.5 964.821 2219.5 983.5 2219.5 1002.18 2203.05 1017.32 2182.77 1017.32L2182.77 1071.5 2030.5 1071.5 2030.5 1017 2043.06 1014.66C2056.24 1009.53 2065.49 997.509 2065.49 983.5 2065.49 969.491 2056.24 957.472 2043.06 952.338L2030.5 950.003Z" stroke="#000000" stroke-width="6.875" stroke-linecap="butt" stroke-linejoin="miter" stroke-miterlimit="8" stroke-opacity="1" fill="#FBE3D6" fill-rule="evenodd" fill-opacity="1"/><path d="M784.5 1617.5 878.762 1617.5 878.762 1655.36C891.32 1655.36 901.5 1665.95 901.5 1679 901.5 1692.05 891.32 1702.64 878.762 1702.64L878.762 1740.5 784.5 1740.5Z" stroke="#000000" stroke-width="6.875" stroke-linecap="butt" stroke-linejoin="miter" stroke-miterlimit="8" stroke-opacity="1" fill="#FBE3D6" fill-rule="evenodd" fill-opacity="1"/><path d="M818.5 1788.5 945.5 1788.5 945.5 1911.5 818.5 1911.5 818.5 1875.75C835.42 1875.75 849.136 1865.16 849.136 1852.11 849.136 1839.06 835.42 1828.47 818.5 1828.47Z" stroke="#042433" stroke-width="6.875" stroke-linecap="butt" stroke-linejoin="miter" stroke-miterlimit="8" stroke-opacity="1" fill="#D9F2D0" fill-rule="evenodd" fill-opacity="1"/><path d="M740.5 1788.5 835.567 1788.5 835.567 1826.36C848.233 1826.36 858.5 1836.95 858.5 1850 858.5 1863.05 848.233 1873.64 835.567 1873.64L835.567 1911.5 740.5 1911.5Z" stroke="#000000" stroke-width="6.875" stroke-linecap="butt" stroke-linejoin="miter" stroke-miterlimit="8" stroke-opacity="1" fill="#D9F2D0" fill-rule="evenodd" fill-opacity="1"/><path d="M1445.5 1614.5 1543.79 1614.5 1543.79 1652.36C1556.88 1652.36 1567.5 1662.95 1567.5 1676 1567.5 1689.05 1556.88 1699.64 1543.79 1699.64L1543.79 1737.5 1445.5 1737.5 1445.5 1699.41 1453.61 1697.78C1462.12 1694.19 1468.09 1685.79 1468.09 1676 1468.09 1666.21 1462.12 1657.81 1453.61 1654.22L1445.5 1652.59Z" stroke="#000000" stroke-width="6.875" stroke-linecap="butt" stroke-linejoin="miter" stroke-miterlimit="8" stroke-opacity="1" fill="#FBE3D6" fill-rule="evenodd" fill-opacity="1"/><path d="M1473.5 1789.5 1599.5 1789.5 1599.5 1911.5 1473.5 1911.5 1473.5 1876.04C1490.29 1876.04 1503.89 1865.54 1503.89 1852.59 1503.89 1839.65 1490.29 1829.15 1473.5 1829.15Z" stroke="#042433" stroke-width="6.875" stroke-linecap="butt" stroke-linejoin="miter" stroke-miterlimit="8" stroke-opacity="1" fill="#D9F2D0" fill-rule="evenodd" fill-opacity="1"/><path d="M1395.5 1789.5 1489.76 1789.5 1489.76 1827.06C1502.32 1827.06 1512.5 1837.55 1512.5 1850.5 1512.5 1863.45 1502.32 1873.94 1489.76 1873.94L1489.76 1911.5 1395.5 1911.5Z" stroke="#000000" stroke-width="6.875" stroke-linecap="butt" stroke-linejoin="miter" stroke-miterlimit="8" stroke-opacity="1" fill="#D9F2D0" fill-rule="evenodd" fill-opacity="1"/><path d="M2063.5 1611.5 2161.79 1611.5 2161.79 1649.36C2174.88 1649.36 2185.5 1659.95 2185.5 1673 2185.5 1686.05 2174.88 1696.64 2161.79 1696.64L2161.79 1734.5 2063.5 1734.5 2063.5 1696.41 2071.61 1694.78C2080.12 1691.19 2086.09 1682.79 2086.09 1673 2086.09 1663.21 2080.12 1654.81 2071.61 1651.22L2063.5 1649.59Z" stroke="#000000" stroke-width="6.875" stroke-linecap="butt" stroke-linejoin="miter" stroke-miterlimit="8" stroke-opacity="1" fill="#FBE3D6" fill-rule="evenodd" fill-opacity="1"/><path d="M2088.5 1788.5 2214.5 1788.5 2214.5 1911.5 2088.5 1911.5 2088.5 1875.75C2105.29 1875.75 2118.89 1865.16 2118.89 1852.11 2118.89 1839.06 2105.29 1828.47 2088.5 1828.47Z" stroke="#042433" stroke-width="6.875" stroke-linecap="butt" stroke-linejoin="miter" stroke-miterlimit="8" stroke-opacity="1" fill="#D9F2D0" fill-rule="evenodd" fill-opacity="1"/><path d="M2010.5 1788.5 2104.76 1788.5 2104.76 1826.36C2117.32 1826.36 2127.5 1836.95 2127.5 1850 2127.5 1863.05 2117.32 1873.64 2104.76 1873.64L2104.76 1911.5 2010.5 1911.5Z" stroke="#000000" stroke-width="6.875" stroke-linecap="butt" stroke-linejoin="miter" stroke-miterlimit="8" stroke-opacity="1" fill="#D9F2D0" fill-rule="evenodd" fill-opacity="1"/><path d="M2733.5 1617.5 2842.5 1617.5 2842.5 1740.5 2733.5 1740.5 2733.5 1704.7 2743.5 1702.89C2752.96 1699.3 2759.6 1690.9 2759.6 1681.11L2759.49 1680.63 2759.86 1679C2759.86 1665.95 2748.06 1655.36 2733.5 1655.36Z" stroke="#042433" stroke-width="6.875" stroke-linecap="butt" stroke-linejoin="miter" stroke-miterlimit="8" stroke-opacity="1" fill="#FBE3D6" fill-rule="evenodd" fill-opacity="1"/><path d="M2767.5 1788.5 2893.5 1788.5 2893.5 1911.5 2767.5 1911.5 2767.5 1875.75C2784.29 1875.75 2797.89 1865.16 2797.89 1852.11 2797.89 1839.06 2784.29 1828.47 2767.5 1828.47Z" stroke="#042433" stroke-width="6.875" stroke-linecap="butt" stroke-linejoin="miter" stroke-miterlimit="8" stroke-opacity="1" fill="#D9F2D0" fill-rule="evenodd" fill-opacity="1"/><path d="M2689.5 1788.5 2783.76 1788.5 2783.76 1826.36C2796.32 1826.36 2806.5 1836.95 2806.5 1850 2806.5 1863.05 2796.32 1873.64 2783.76 1873.64L2783.76 1911.5 2689.5 1911.5Z" stroke="#000000" stroke-width="6.875" stroke-linecap="butt" stroke-linejoin="miter" stroke-miterlimit="8" stroke-opacity="1" fill="#D9F2D0" fill-rule="evenodd" fill-opacity="1"/><path d="M577.5 655.5C577.5 630.923 580.82 611 584.917 611L827.083 611C831.179 611 834.5 591.077 834.5 566.5 834.5 591.077 837.82 611 841.917 611L1084.08 611C1088.18 611 1091.5 630.923 1091.5 655.5" stroke="#000000" stroke-width="6.875" stroke-linecap="butt" stroke-linejoin="miter" stroke-miterlimit="8" stroke-opacity="1" fill="none" fill-rule="evenodd"/><text fill="#000000" fill-opacity="1" font-family="Aptos,Aptos_MSFontService,sans-serif" font-style="normal" font-variant="normal" font-weight="400" font-stretch="normal" font-size="64" text-anchor="start" direction="ltr" writing-mode="lr-tb" unicode-bidi="normal" text-decoration="none" transform="matrix(1 0 0 1 1031.56 731)">TP group 1</text><text fill="#000000" fill-opacity="1" font-family="Aptos,Aptos_MSFontService,sans-serif" font-style="normal" font-variant="normal" font-weight="400" font-stretch="normal" font-size="64" text-anchor="start" direction="ltr" writing-mode="lr-tb" unicode-bidi="normal" text-decoration="none" transform="matrix(1 0 0 1 3175.14 1003)">activation/gradient </text><text fill="#000000" fill-opacity="1" font-family="Aptos,Aptos_MSFontService,sans-serif" font-style="normal" font-variant="normal" font-weight="400" font-stretch="normal" font-size="64" text-anchor="start" direction="ltr" writing-mode="lr-tb" unicode-bidi="normal" text-decoration="none" transform="matrix(1 0 0 1 3330.42 1080)">tensors</text><text fill="#000000" fill-opacity="1" font-family="Aptos,Aptos_MSFontService,sans-serif" font-style="normal" font-variant="normal" font-weight="400" font-stretch="normal" font-size="64" text-anchor="start" direction="ltr" writing-mode="lr-tb" unicode-bidi="normal" text-decoration="none" transform="matrix(1 0 0 1 3215.24 1294)">weight tensors</text><text fill="#000000" fill-opacity="1" font-family="Aptos,Aptos_MSFontService,sans-serif" font-style="normal" font-variant="normal" font-weight="400" font-stretch="normal" font-size="55" text-anchor="start" direction="ltr" writing-mode="lr-tb" unicode-bidi="normal" text-decoration="none" transform="matrix(1 0 0 1 584.658 519)">Tensor reduction group</text><path d="M577.5 838.5C577.5 813.923 580.82 793.999 584.917 793.999L1175.08 793.999C1179.18 793.999 1182.5 774.076 1182.5 749.499 1182.5 774.076 1185.82 793.999 1189.92 793.999L1780.08 793.999C1784.18 793.999 1787.5 813.923 1787.5 838.5" stroke="#000000" stroke-width="6.875" stroke-linecap="butt" stroke-linejoin="miter" stroke-miterlimit="8" stroke-opacity="1" fill="none" fill-rule="evenodd"/><path d="M1848.5 836.5C1848.5 811.923 1851.82 791.999 1855.92 791.999L2446.08 791.999C2450.18 791.999 2453.5 772.076 2453.5 747.499 2453.5 772.076 2456.82 791.999 2460.92 791.999L3051.08 791.999C3055.18 791.999 3058.5 811.923 3058.5 836.5" stroke="#000000" stroke-width="6.875" stroke-linecap="butt" stroke-linejoin="miter" stroke-miterlimit="8" stroke-opacity="1" fill="none" fill-rule="evenodd"/><text fill="#000000" fill-opacity="1" font-family="Aptos,Aptos_MSFontService,sans-serif" font-style="normal" font-variant="normal" font-weight="400" font-stretch="normal" font-size="64" text-anchor="start" direction="ltr" writing-mode="lr-tb" unicode-bidi="normal" text-decoration="none" transform="matrix(1 0 0 1 2285.23 713)">TP group 2</text><path d="M841.937 1945.5 841.938 2033.56 835.063 2033.56 835.062 1945.5ZM852.25 2028.97 838.5 2056.47 824.75 2028.97Z" fill="#000000" fill-rule="nonzero" fill-opacity="1"/><text fill="#000000" fill-opacity="1" font-family="Aptos,Aptos_MSFontService,sans-serif" font-style="normal" font-variant="normal" font-weight="400" font-stretch="normal" font-size="64" text-anchor="start" direction="ltr" writing-mode="lr-tb" unicode-bidi="normal" text-decoration="none" transform="matrix(1 0 0 1 771.787 2164)">Stats</text><path d="M1491.94 1945.5 1491.94 2033.56 1485.06 2033.56 1485.06 1945.5ZM1502.25 2028.97 1488.5 2056.47 1474.75 2028.97Z" fill="#000000" fill-rule="nonzero" fill-opacity="1"/><text fill="#000000" fill-opacity="1" font-family="Aptos,Aptos_MSFontService,sans-serif" font-style="normal" font-variant="normal" font-weight="400" font-stretch="normal" font-size="64" text-anchor="start" direction="ltr" writing-mode="lr-tb" unicode-bidi="normal" text-decoration="none" transform="matrix(1 0 0 1 1421.78 2164)">Stats</text><path d="M2106.94 1945.5 2106.94 2033.56 2100.06 2033.56 2100.06 1945.5ZM2117.25 2028.97 2103.5 2056.47 2089.75 2028.97Z" fill="#000000" fill-rule="nonzero" fill-opacity="1"/><text fill="#000000" fill-opacity="1" font-family="Aptos,Aptos_MSFontService,sans-serif" font-style="normal" font-variant="normal" font-weight="400" font-stretch="normal" font-size="64" text-anchor="start" direction="ltr" writing-mode="lr-tb" unicode-bidi="normal" text-decoration="none" transform="matrix(1 0 0 1 2036.58 2164)">Stats</text><path d="M2786.94 1945.5 2786.94 2033.56 2780.06 2033.56 2780.06 1945.5ZM2797.25 2028.97 2783.5 2056.47 2769.75 2028.97Z" fill="#000000" fill-rule="nonzero" fill-opacity="1"/><text fill="#000000" fill-opacity="1" font-family="Aptos,Aptos_MSFontService,sans-serif" font-style="normal" font-variant="normal" font-weight="400" font-stretch="normal" font-size="64" text-anchor="start" direction="ltr" writing-mode="lr-tb" unicode-bidi="normal" text-decoration="none" transform="matrix(1 0 0 1 2716.75 2164)">Stats</text><path d="M1237.5 655.5C1237.5 630.923 1240.82 611 1244.92 611L1487.08 611C1491.18 611 1494.5 591.077 1494.5 566.5 1494.5 591.077 1497.82 611 1501.92 611L1744.08 611C1748.18 611 1751.5 630.923 1751.5 655.5" stroke="#000000" stroke-width="6.875" stroke-linecap="butt" stroke-linejoin="miter" stroke-miterlimit="8" stroke-opacity="1" fill="none" fill-rule="evenodd"/><text fill="#000000" fill-opacity="1" font-family="Aptos,Aptos_MSFontService,sans-serif" font-style="normal" font-variant="normal" font-weight="400" font-stretch="normal" font-size="55" text-anchor="start" direction="ltr" writing-mode="lr-tb" unicode-bidi="normal" text-decoration="none" transform="matrix(1 0 0 1 1245.05 519)">Tensor reduction group</text><path d="M1846.5 656.5C1846.5 631.923 1849.82 612 1853.92 612L2096.08 612C2100.18 612 2103.5 592.077 2103.5 567.5 2103.5 592.077 2106.82 612 2110.92 612L2353.08 612C2357.18 612 2360.5 631.923 2360.5 656.5" stroke="#000000" stroke-width="6.875" stroke-linecap="butt" stroke-linejoin="miter" stroke-miterlimit="8" stroke-opacity="1" fill="none" fill-rule="evenodd"/><text fill="#000000" fill-opacity="1" font-family="Aptos,Aptos_MSFontService,sans-serif" font-style="normal" font-variant="normal" font-weight="400" font-stretch="normal" font-size="55" text-anchor="start" direction="ltr" writing-mode="lr-tb" unicode-bidi="normal" text-decoration="none" transform="matrix(1 0 0 1 1853.18 520)">Tensor reduction group</text><path d="M2531.5 656.5C2531.5 631.647 2534.86 611.5 2539 611.5L2781 611.5C2785.14 611.5 2788.5 591.353 2788.5 566.5 2788.5 591.353 2791.86 611.5 2796 611.5L3038 611.5C3042.14 611.5 3045.5 631.647 3045.5 656.5" stroke="#000000" stroke-width="6.875" stroke-linecap="butt" stroke-linejoin="miter" stroke-miterlimit="8" stroke-opacity="1" fill="none" fill-rule="evenodd"/><text fill="#000000" fill-opacity="1" font-family="Aptos,Aptos_MSFontService,sans-serif" font-style="normal" font-variant="normal" font-weight="400" font-stretch="normal" font-size="55" text-anchor="start" direction="ltr" writing-mode="lr-tb" unicode-bidi="normal" text-decoration="none" transform="matrix(1 0 0 1 2538.46 520)">Tensor reduction group</text><text fill="#000000" fill-opacity="1" font-family="Aptos,Aptos_MSFontService,sans-serif" font-style="normal" font-variant="normal" font-weight="400" font-stretch="normal" font-size="64" text-anchor="start" direction="ltr" writing-mode="lr-tb" unicode-bidi="normal" text-decoration="none" transform="matrix(1 0 0 1 743.462 1529)">Node </text><text fill="#000000" fill-opacity="1" font-family="Aptos,Aptos_MSFontService,sans-serif" font-style="normal" font-variant="normal" font-weight="400" font-stretch="normal" font-size="64" text-anchor="start" direction="ltr" writing-mode="lr-tb" unicode-bidi="normal" text-decoration="none" transform="matrix(1 0 0 1 907.316 1529)">1</text><text fill="#000000" fill-opacity="1" font-family="Aptos,Aptos_MSFontService,sans-serif" font-style="normal" font-variant="normal" font-weight="400" font-stretch="normal" font-size="64" text-anchor="start" direction="ltr" writing-mode="lr-tb" unicode-bidi="normal" text-decoration="none" transform="matrix(1 0 0 1 1393.45 1529)">Node </text><text fill="#000000" fill-opacity="1" font-family="Aptos,Aptos_MSFontService,sans-serif" font-style="normal" font-variant="normal" font-weight="400" font-stretch="normal" font-size="64" text-anchor="start" direction="ltr" writing-mode="lr-tb" unicode-bidi="normal" text-decoration="none" transform="matrix(1 0 0 1 1557.31 1529)">2</text><text fill="#000000" fill-opacity="1" font-family="Aptos,Aptos_MSFontService,sans-serif" font-style="normal" font-variant="normal" font-weight="400" font-stretch="normal" font-size="64" text-anchor="start" direction="ltr" writing-mode="lr-tb" unicode-bidi="normal" text-decoration="none" transform="matrix(1 0 0 1 2008.25 1529)">Node </text><text fill="#000000" fill-opacity="1" font-family="Aptos,Aptos_MSFontService,sans-serif" font-style="normal" font-variant="normal" font-weight="400" font-stretch="normal" font-size="64" text-anchor="start" direction="ltr" writing-mode="lr-tb" unicode-bidi="normal" text-decoration="none" transform="matrix(1 0 0 1 2172.11 1529)">3</text><text fill="#000000" fill-opacity="1" font-family="Aptos,Aptos_MSFontService,sans-serif" font-style="normal" font-variant="normal" font-weight="400" font-stretch="normal" font-size="64" text-anchor="start" direction="ltr" writing-mode="lr-tb" unicode-bidi="normal" text-decoration="none" transform="matrix(1 0 0 1 2688.42 1530)">Node </text><text fill="#000000" fill-opacity="1" font-family="Aptos,Aptos_MSFontService,sans-serif" font-style="normal" font-variant="normal" font-weight="400" font-stretch="normal" font-size="64" text-anchor="start" direction="ltr" writing-mode="lr-tb" unicode-bidi="normal" text-decoration="none" transform="matrix(1 0 0 1 2852.28 1530)">4</text></g></g></svg>