<svg width="3177" height="1801" xmlns="http://www.w3.org/2000/svg" xmlns:xlink="http://www.w3.org/1999/xlink" xml:space="preserve" overflow="hidden"><g transform="translate(-572 -421)"><g><rect x="594.5" y="829.5" width="497" height="577" stroke="#042433" stroke-width="6.875" stroke-linecap="butt" stroke-linejoin="miter" stroke-miterlimit="8" stroke-opacity="1" fill="none"/><rect x="1258.5" y="829.5" width="496" height="577" stroke="#042433" stroke-width="6.875" stroke-linecap="butt" stroke-linejoin="miter" stroke-miterlimit="8" stroke-opacity="1" fill="none"/><path d="M1430.5 1186.5 1582.5 1186.5 1582.5 1363.5 1430.5 1363.5 1430.5 1312.05C1450.75 1312.05 1467.17 1296.82 1467.17 1278.04 1467.17 1259.25 1450.75 1244.02 1430.5 1244.02Z" stroke="#042433" stroke-width="6.875" stroke-linecap="butt" stroke-linejoin="miter" stroke-miterlimit="8" stroke-opacity="1" fill="#D9F2D0" fill-rule="evenodd" fill-opacity="1"/><path d="M1430.5 895.5 1582.77 895.5 1582.77 949.68C1603.05 949.68 1619.5 964.821 1619.5 983.5 1619.5 1002.18 1603.05 1017.32 1582.77 1017.32L1582.77 1071.5 1430.5 1071.5 1430.5 1017 1443.06 1014.66C1456.24 1009.53 1465.49 997.509 1465.49 983.5 1465.49 969.491 1456.24 957.472 1443.06 952.338L1430.5 950.003Z" stroke="#000000" stroke-width="6.875" stroke-linecap="butt" stroke-linejoin="miter" stroke-miterlimit="8" stroke-opacity="1" fill="#FBE3D6" fill-rule="evenodd" fill-opacity="1"/><path d="M748.5 895.5 900.768 895.5 900.768 949.68C921.055 949.68 937.5 964.821 937.5 983.5 937.5 1002.18 921.055 1017.32 900.768 1017.32L900.768 1071.5 748.5 1071.5Z" stroke="#000000" stroke-width="6.875" stroke-linecap="butt" stroke-linejoin="miter" stroke-miterlimit="8" stroke-opacity="1" fill="#FBE3D6" fill-rule="evenodd" fill-opacity="1"/><path d="M748.5 1186.5 900.768 1186.5 900.768 1240.99C921.055 1240.99 937.5 1256.22 937.5 1275 937.5 1293.78 921.055 1309.01 900.768 1309.01L900.768 1363.5 748.5 1363.5Z" stroke="#000000" stroke-width="6.875" stroke-linecap="butt" stroke-linejoin="miter" stroke-miterlimit="8" stroke-opacity="1" fill="#D9F2D0" fill-rule="evenodd" fill-opacity="1"/><rect x="1876.5" y="829.5" width="496" height="577" stroke="#042433" stroke-width="6.875" stroke-linecap="butt" stroke-linejoin="miter" stroke-miterlimit="8" stroke-opacity="1" fill="none"/><rect x="2539.5" y="829.5" width="497" height="577" stroke="#042433" stroke-width="6.875" stroke-linecap="butt" stroke-linejoin="miter" stroke-miterlimit="8" stroke-opacity="1" fill="none"/><path d="M2711.5 1186.5 2864.5 1186.5 2864.5 1363.5 2711.5 1363.5 2711.5 1312.05C2731.88 1312.05 2748.41 1296.82 2748.41 1278.04 2748.41 1259.25 2731.88 1244.02 2711.5 1244.02Z" stroke="#042433" stroke-width="6.875" stroke-linecap="butt" stroke-linejoin="miter" stroke-miterlimit="8" stroke-opacity="1" fill="#D9F2D0" fill-rule="evenodd" fill-opacity="1"/><path d="M2030.5 1186.5 2182.77 1186.5 2182.77 1240.99C2203.05 1240.99 2219.5 1256.22 2219.5 1275 2219.5 1293.78 2203.05 1309.01 2182.77 1309.01L2182.77 1363.5 2030.5 1363.5Z" stroke="#000000" stroke-width="6.875" stroke-linecap="butt" stroke-linejoin="miter" stroke-miterlimit="8" stroke-opacity="1" fill="#D9F2D0" fill-rule="evenodd" fill-opacity="1"/><path d="M2711.5 895.5 2864.5 895.5 2864.5 1071.5 2711.5 1071.5 2711.5 1020.34C2731.88 1020.34 2748.41 1005.2 2748.41 986.519 2748.41 967.841 2731.88 952.699 2711.5 952.699Z" stroke="#042433" stroke-width="6.875" stroke-linecap="butt" stroke-linejoin="miter" stroke-miterlimit="8" stroke-opacity="1" fill="#FBE3D6" fill-rule="evenodd" fill-opacity="1"/><path d="M2030.5 895.5 2182.77 895.5 2182.77 949.68C2203.05 949.68 2219.5 964.821 2219.5 983.5 2219.5 1002.18 2203.05 1017.32 2182.77 1017.32L2182.77 1071.5 2030.5 1071.5 2030.5 1017 2043.06 1014.66C2056.24 1009.53 2065.49 997.509 2065.49 983.5 2065.49 969.491 2056.24 957.472 2043.06 952.338L2030.5 950.003Z" stroke="#000000" stroke-width="6.875" stroke-linecap="butt" stroke-linejoin="miter" stroke-miterlimit="8" stroke-opacity="1" fill="#FBE3D6" fill-rule="evenodd" fill-opacity="1"/><path d="M743.5 1611.5 841.79 1611.5 841.79 1649.36C854.885 1649.36 865.5 1659.95 865.5 1673 865.5 1686.05 854.885 1696.64 841.79 1696.64L841.79 1734.5 743.5 1734.5 743.5 1696.41 751.607 1694.78C760.117 1691.19 766.088 1682.79 766.088 1673 766.088 1663.21 760.117 1654.81 751.607 1651.22L743.5 1649.59Z" stroke="#000000" stroke-width="6.875" stroke-linecap="butt" stroke-linejoin="miter" stroke-miterlimit="8" stroke-opacity="1" fill="#FBE3D6" fill-rule="evenodd" fill-opacity="1"/><path d="M653.5 1611.5 748.567 1611.5 748.567 1649.36C761.233 1649.36 771.5 1659.95 771.5 1673 771.5 1686.05 761.233 1696.64 748.567 1696.64L748.567 1734.5 653.5 1734.5Z" stroke="#000000" stroke-width="6.875" stroke-linecap="butt" stroke-linejoin="miter" stroke-miterlimit="8" stroke-opacity="1" fill="#FBE3D6" fill-rule="evenodd" fill-opacity="1"/><path d="M897.5 1611.5 1032.5 1611.5 1032.5 1734.5 897.5 1734.5 897.5 1698.7 909.883 1696.89C921.6 1693.3 929.821 1684.9 929.821 1675.11L929.688 1674.63 930.144 1673C930.144 1659.95 915.529 1649.36 897.5 1649.36Z" stroke="#042433" stroke-width="6.875" stroke-linecap="butt" stroke-linejoin="miter" stroke-miterlimit="8" stroke-opacity="1" fill="#FBE3D6" fill-rule="evenodd" fill-opacity="1"/><path d="M838.5 1611.5 936.79 1611.5 936.79 1649.36C949.885 1649.36 960.5 1659.95 960.5 1673 960.5 1686.05 949.885 1696.64 936.79 1696.64L936.79 1734.5 838.5 1734.5 838.5 1696.41 846.607 1694.78C855.117 1691.19 861.088 1682.79 861.088 1673 861.088 1663.21 855.117 1654.81 846.607 1651.22L838.5 1649.59Z" stroke="#000000" stroke-width="6.875" stroke-linecap="butt" stroke-linejoin="miter" stroke-miterlimit="8" stroke-opacity="1" fill="#FBE3D6" fill-rule="evenodd" fill-opacity="1"/><path d="M794.5 1789.5 888.762 1789.5 888.762 1827.36C901.32 1827.36 911.5 1837.95 911.5 1851 911.5 1864.05 901.32 1874.64 888.762 1874.64L888.762 1912.5 794.5 1912.5Z" stroke="#000000" stroke-width="6.875" stroke-linecap="butt" stroke-linejoin="miter" stroke-miterlimit="8" stroke-opacity="1" fill="#D9F2D0" fill-rule="evenodd" fill-opacity="1"/><path d="M1398.5 1612.5 1496.79 1612.5 1496.79 1650.36C1509.88 1650.36 1520.5 1660.95 1520.5 1674 1520.5 1687.05 1509.88 1697.64 1496.79 1697.64L1496.79 1735.5 1398.5 1735.5 1398.5 1697.41 1406.61 1695.78C1415.12 1692.19 1421.09 1683.79 1421.09 1674 1421.09 1664.21 1415.12 1655.81 1406.61 1652.22L1398.5 1650.59Z" stroke="#000000" stroke-width="6.875" stroke-linecap="butt" stroke-linejoin="miter" stroke-miterlimit="8" stroke-opacity="1" fill="#FBE3D6" fill-rule="evenodd" fill-opacity="1"/><path d="M1308.5 1612.5 1402.76 1612.5 1402.76 1650.36C1415.32 1650.36 1425.5 1660.95 1425.5 1674 1425.5 1687.05 1415.32 1697.64 1402.76 1697.64L1402.76 1735.5 1308.5 1735.5Z" stroke="#000000" stroke-width="6.875" stroke-linecap="butt" stroke-linejoin="miter" stroke-miterlimit="8" stroke-opacity="1" fill="#FBE3D6" fill-rule="evenodd" fill-opacity="1"/><path d="M1552.5 1612.5 1686.5 1612.5 1686.5 1735.5 1552.5 1735.5 1552.5 1699.7 1564.79 1697.89C1576.42 1694.3 1584.58 1685.9 1584.58 1676.11L1584.45 1675.63 1584.9 1674C1584.9 1660.95 1570.4 1650.36 1552.5 1650.36Z" stroke="#042433" stroke-width="6.875" stroke-linecap="butt" stroke-linejoin="miter" stroke-miterlimit="8" stroke-opacity="1" fill="#FBE3D6" fill-rule="evenodd" fill-opacity="1"/><path d="M1493.5 1612.5 1590.98 1612.5 1590.98 1650.36C1603.97 1650.36 1614.5 1660.95 1614.5 1674 1614.5 1687.05 1603.97 1697.64 1590.98 1697.64L1590.98 1735.5 1493.5 1735.5 1493.5 1697.41 1501.54 1695.78C1509.98 1692.19 1515.9 1683.79 1515.9 1674 1515.9 1664.21 1509.98 1655.81 1501.54 1652.22L1493.5 1650.59Z" stroke="#000000" stroke-width="6.875" stroke-linecap="butt" stroke-linejoin="miter" stroke-miterlimit="8" stroke-opacity="1" fill="#FBE3D6" fill-rule="evenodd" fill-opacity="1"/><path d="M1433.5 1788.5 1550.5 1788.5 1550.5 1911.5 1433.5 1911.5 1433.5 1875.75C1449.09 1875.75 1461.72 1865.16 1461.72 1852.11 1461.72 1839.06 1449.09 1828.47 1433.5 1828.47Z" stroke="#042433" stroke-width="6.875" stroke-linecap="butt" stroke-linejoin="miter" stroke-miterlimit="8" stroke-opacity="1" fill="#D9F2D0" fill-rule="evenodd" fill-opacity="1"/><path d="M2013.5 1611.5 2111.79 1611.5 2111.79 1649.36C2124.88 1649.36 2135.5 1659.95 2135.5 1673 2135.5 1686.05 2124.88 1696.64 2111.79 1696.64L2111.79 1734.5 2013.5 1734.5 2013.5 1696.41 2021.61 1694.78C2030.12 1691.19 2036.09 1682.79 2036.09 1673 2036.09 1663.21 2030.12 1654.81 2021.61 1651.22L2013.5 1649.59Z" stroke="#000000" stroke-width="6.875" stroke-linecap="butt" stroke-linejoin="miter" stroke-miterlimit="8" stroke-opacity="1" fill="#FBE3D6" fill-rule="evenodd" fill-opacity="1"/><path d="M1923.5 1611.5 2017.76 1611.5 2017.76 1649.36C2030.32 1649.36 2040.5 1659.95 2040.5 1673 2040.5 1686.05 2030.32 1696.64 2017.76 1696.64L2017.76 1734.5 1923.5 1734.5Z" stroke="#000000" stroke-width="6.875" stroke-linecap="butt" stroke-linejoin="miter" stroke-miterlimit="8" stroke-opacity="1" fill="#FBE3D6" fill-rule="evenodd" fill-opacity="1"/><path d="M2167.5 1611.5 2301.5 1611.5 2301.5 1734.5 2167.5 1734.5 2167.5 1698.7 2179.79 1696.89C2191.42 1693.3 2199.58 1684.9 2199.58 1675.11L2199.45 1674.63 2199.9 1673C2199.9 1659.95 2185.39 1649.36 2167.5 1649.36Z" stroke="#042433" stroke-width="6.875" stroke-linecap="butt" stroke-linejoin="miter" stroke-miterlimit="8" stroke-opacity="1" fill="#FBE3D6" fill-rule="evenodd" fill-opacity="1"/><path d="M2107.5 1611.5 2205.79 1611.5 2205.79 1649.36C2218.88 1649.36 2229.5 1659.95 2229.5 1673 2229.5 1686.05 2218.88 1696.64 2205.79 1696.64L2205.79 1734.5 2107.5 1734.5 2107.5 1696.41 2115.61 1694.78C2124.12 1691.19 2130.09 1682.79 2130.09 1673 2130.09 1663.21 2124.12 1654.81 2115.61 1651.22L2107.5 1649.59Z" stroke="#000000" stroke-width="6.875" stroke-linecap="butt" stroke-linejoin="miter" stroke-miterlimit="8" stroke-opacity="1" fill="#FBE3D6" fill-rule="evenodd" fill-opacity="1"/><path d="M2063.5 1789.5 2157.76 1789.5 2157.76 1827.36C2170.32 1827.36 2180.5 1837.95 2180.5 1851 2180.5 1864.05 2170.32 1874.64 2157.76 1874.64L2157.76 1912.5 2063.5 1912.5Z" stroke="#000000" stroke-width="6.875" stroke-linecap="butt" stroke-linejoin="miter" stroke-miterlimit="8" stroke-opacity="1" fill="#D9F2D0" fill-rule="evenodd" fill-opacity="1"/><path d="M2692.5 1611.5 2790.79 1611.5 2790.79 1649.36C2803.88 1649.36 2814.5 1659.95 2814.5 1673 2814.5 1686.05 2803.88 1696.64 2790.79 1696.64L2790.79 1734.5 2692.5 1734.5 2692.5 1696.41 2700.61 1694.78C2709.12 1691.19 2715.09 1682.79 2715.09 1673 2715.09 1663.21 2709.12 1654.81 2700.61 1651.22L2692.5 1649.59Z" stroke="#000000" stroke-width="6.875" stroke-linecap="butt" stroke-linejoin="miter" stroke-miterlimit="8" stroke-opacity="1" fill="#FBE3D6" fill-rule="evenodd" fill-opacity="1"/><path d="M2602.5 1611.5 2696.76 1611.5 2696.76 1649.36C2709.32 1649.36 2719.5 1659.95 2719.5 1673 2719.5 1686.05 2709.32 1696.64 2696.76 1696.64L2696.76 1734.5 2602.5 1734.5Z" stroke="#000000" stroke-width="6.875" stroke-linecap="butt" stroke-linejoin="miter" stroke-miterlimit="8" stroke-opacity="1" fill="#FBE3D6" fill-rule="evenodd" fill-opacity="1"/><path d="M2846.5 1611.5 2980.5 1611.5 2980.5 1734.5 2846.5 1734.5 2846.5 1698.7 2858.79 1696.89C2870.42 1693.3 2878.58 1684.9 2878.58 1675.11L2878.45 1674.63 2878.9 1673C2878.9 1659.95 2864.4 1649.36 2846.5 1649.36Z" stroke="#042433" stroke-width="6.875" stroke-linecap="butt" stroke-linejoin="miter" stroke-miterlimit="8" stroke-opacity="1" fill="#FBE3D6" fill-rule="evenodd" fill-opacity="1"/><path d="M2787.5 1611.5 2884.98 1611.5 2884.98 1649.36C2897.97 1649.36 2908.5 1659.95 2908.5 1673 2908.5 1686.05 2897.97 1696.64 2884.98 1696.64L2884.98 1734.5 2787.5 1734.5 2787.5 1696.41 2795.54 1694.78C2803.98 1691.19 2809.9 1682.79 2809.9 1673 2809.9 1663.21 2803.98 1654.81 2795.54 1651.22L2787.5 1649.59Z" stroke="#000000" stroke-width="6.875" stroke-linecap="butt" stroke-linejoin="miter" stroke-miterlimit="8" stroke-opacity="1" fill="#FBE3D6" fill-rule="evenodd" fill-opacity="1"/><path d="M2719.5 1789.5 2837.5 1789.5 2837.5 1912.5 2719.5 1912.5 2719.5 1876.75C2735.22 1876.75 2747.96 1866.16 2747.96 1853.11 2747.96 1840.06 2735.22 1829.47 2719.5 1829.47Z" stroke="#042433" stroke-width="6.875" stroke-linecap="butt" stroke-linejoin="miter" stroke-miterlimit="8" stroke-opacity="1" fill="#D9F2D0" fill-rule="evenodd" fill-opacity="1"/><path d="M577.5 655.5C577.5 630.923 580.82 610.999 584.915 610.999L1810.58 610.999C1814.68 610.999 1818 591.075 1818 566.497 1818 591.075 1821.32 610.999 1825.42 610.999L3051.08 610.999C3055.18 610.999 3058.5 630.923 3058.5 655.5" stroke="#000000" stroke-width="6.875" stroke-linecap="butt" stroke-linejoin="miter" stroke-miterlimit="8" stroke-opacity="1" fill="none" fill-rule="evenodd"/><text fill="#000000" fill-opacity="1" font-family="Aptos,Aptos_MSFontService,sans-serif" font-style="normal" font-variant="normal" font-weight="400" font-stretch="normal" font-size="64" text-anchor="start" direction="ltr" writing-mode="lr-tb" unicode-bidi="normal" text-decoration="none" transform="matrix(1 0 0 1 1036.2 713)">TP group 1</text><text fill="#000000" fill-opacity="1" font-family="Aptos,Aptos_MSFontService,sans-serif" font-style="normal" font-variant="normal" font-weight="400" font-stretch="normal" font-size="64" text-anchor="start" direction="ltr" writing-mode="lr-tb" unicode-bidi="normal" text-decoration="none" transform="matrix(1 0 0 1 3175.14 1003)">activation/gradient </text><text fill="#000000" fill-opacity="1" font-family="Aptos,Aptos_MSFontService,sans-serif" font-style="normal" font-variant="normal" font-weight="400" font-stretch="normal" font-size="64" text-anchor="start" direction="ltr" writing-mode="lr-tb" unicode-bidi="normal" text-decoration="none" transform="matrix(1 0 0 1 3330.42 1080)">tensors</text><text fill="#000000" fill-opacity="1" font-family="Aptos,Aptos_MSFontService,sans-serif" font-style="normal" font-variant="normal" font-weight="400" font-stretch="normal" font-size="64" text-anchor="start" direction="ltr" writing-mode="lr-tb" unicode-bidi="normal" text-decoration="none" transform="matrix(1 0 0 1 3215.24 1294)">weight tensors</text><text fill="#000000" fill-opacity="1" font-family="Aptos,Aptos_MSFontService,sans-serif" font-style="normal" font-variant="normal" font-weight="400" font-stretch="normal" font-size="64" text-anchor="start" direction="ltr" writing-mode="lr-tb" unicode-bidi="normal" text-decoration="none" transform="matrix(1 0 0 1 1483.27 505)">Tensor reduction group</text><path d="M577.5 838.5C577.5 813.923 580.82 793.999 584.917 793.999L1175.08 793.999C1179.18 793.999 1182.5 774.076 1182.5 749.499 1182.5 774.076 1185.82 793.999 1189.92 793.999L1780.08 793.999C1784.18 793.999 1787.5 813.923 1787.5 838.5" stroke="#000000" stroke-width="6.875" stroke-linecap="butt" stroke-linejoin="miter" stroke-miterlimit="8" stroke-opacity="1" fill="none" fill-rule="evenodd"/><path d="M1848.5 836.5C1848.5 811.923 1851.82 791.999 1855.92 791.999L2446.08 791.999C2450.18 791.999 2453.5 772.076 2453.5 747.499 2453.5 772.076 2456.82 791.999 2460.92 791.999L3051.08 791.999C3055.18 791.999 3058.5 811.923 3058.5 836.5" stroke="#000000" stroke-width="6.875" stroke-linecap="butt" stroke-linejoin="miter" stroke-miterlimit="8" stroke-opacity="1" fill="none" fill-rule="evenodd"/><text fill="#000000" fill-opacity="1" font-family="Aptos,Aptos_MSFontService,sans-serif" font-style="normal" font-variant="normal" font-weight="400" font-stretch="normal" font-size="64" text-anchor="start" direction="ltr" writing-mode="lr-tb" unicode-bidi="normal" text-decoration="none" transform="matrix(1 0 0 1 2285.23 713)">TP group 2</text><path d="M841.937 1945.5 841.938 2033.56 835.063 2033.56 835.062 1945.5ZM852.25 2028.97 838.5 2056.47 824.75 2028.97Z" fill="#000000" fill-rule="nonzero" fill-opacity="1"/><text fill="#000000" fill-opacity="1" font-family="Aptos,Aptos_MSFontService,sans-serif" font-style="normal" font-variant="normal" font-weight="400" font-stretch="normal" font-size="64" text-anchor="start" direction="ltr" writing-mode="lr-tb" unicode-bidi="normal" text-decoration="none" transform="matrix(1 0 0 1 771.787 2164)">Stats</text><path d="M1491.94 1945.5 1491.94 2033.56 1485.06 2033.56 1485.06 1945.5ZM1502.25 2028.97 1488.5 2056.47 1474.75 2028.97Z" fill="#000000" fill-rule="nonzero" fill-opacity="1"/><text fill="#000000" fill-opacity="1" font-family="Aptos,Aptos_MSFontService,sans-serif" font-style="normal" font-variant="normal" font-weight="400" font-stretch="normal" font-size="64" text-anchor="start" direction="ltr" writing-mode="lr-tb" unicode-bidi="normal" text-decoration="none" transform="matrix(1 0 0 1 1421.78 2164)">Stats</text><path d="M2106.94 1945.5 2106.94 2033.56 2100.06 2033.56 2100.06 1945.5ZM2117.25 2028.97 2103.5 2056.47 2089.75 2028.97Z" fill="#000000" fill-rule="nonzero" fill-opacity="1"/><text fill="#000000" fill-opacity="1" font-family="Aptos,Aptos_MSFontService,sans-serif" font-style="normal" font-variant="normal" font-weight="400" font-stretch="normal" font-size="64" text-anchor="start" direction="ltr" writing-mode="lr-tb" unicode-bidi="normal" text-decoration="none" transform="matrix(1 0 0 1 2036.58 2164)">Stats</text><path d="M2786.94 1945.5 2786.94 2033.56 2780.06 2033.56 2780.06 1945.5ZM2797.25 2028.97 2783.5 2056.47 2769.75 2028.97Z" fill="#000000" fill-rule="nonzero" fill-opacity="1"/><text fill="#000000" fill-opacity="1" font-family="Aptos,Aptos_MSFontService,sans-serif" font-style="normal" font-variant="normal" font-weight="400" font-stretch="normal" font-size="64" text-anchor="start" direction="ltr" writing-mode="lr-tb" unicode-bidi="normal" text-decoration="none" transform="matrix(1 0 0 1 2716.75 2164)">Stats</text><text fill="#000000" fill-opacity="1" font-family="Aptos,Aptos_MSFontService,sans-serif" font-style="normal" font-variant="normal" font-weight="400" font-stretch="normal" font-size="64" text-anchor="start" direction="ltr" writing-mode="lr-tb" unicode-bidi="normal" text-decoration="none" transform="matrix(1 0 0 1 743.462 1507)">Node </text><text fill="#000000" fill-opacity="1" font-family="Aptos,Aptos_MSFontService,sans-serif" font-style="normal" font-variant="normal" font-weight="400" font-stretch="normal" font-size="64" text-anchor="start" direction="ltr" writing-mode="lr-tb" unicode-bidi="normal" text-decoration="none" transform="matrix(1 0 0 1 907.316 1507)">1</text><text fill="#000000" fill-opacity="1" font-family="Aptos,Aptos_MSFontService,sans-serif" font-style="normal" font-variant="normal" font-weight="400" font-stretch="normal" font-size="64" text-anchor="start" direction="ltr" writing-mode="lr-tb" unicode-bidi="normal" text-decoration="none" transform="matrix(1 0 0 1 1393.45 1507)">Node </text><text fill="#000000" fill-opacity="1" font-family="Aptos,Aptos_MSFontService,sans-serif" font-style="normal" font-variant="normal" font-weight="400" font-stretch="normal" font-size="64" text-anchor="start" direction="ltr" writing-mode="lr-tb" unicode-bidi="normal" text-decoration="none" transform="matrix(1 0 0 1 1557.31 1507)">2</text><text fill="#000000" fill-opacity="1" font-family="Aptos,Aptos_MSFontService,sans-serif" font-style="normal" font-variant="normal" font-weight="400" font-stretch="normal" font-size="64" text-anchor="start" direction="ltr" writing-mode="lr-tb" unicode-bidi="normal" text-decoration="none" transform="matrix(1 0 0 1 2008.25 1507)">Node </text><text fill="#000000" fill-opacity="1" font-family="Aptos,Aptos_MSFontService,sans-serif" font-style="normal" font-variant="normal" font-weight="400" font-stretch="normal" font-size="64" text-anchor="start" direction="ltr" writing-mode="lr-tb" unicode-bidi="normal" text-decoration="none" transform="matrix(1 0 0 1 2172.11 1507)">3</text><text fill="#000000" fill-opacity="1" font-family="Aptos,Aptos_MSFontService,sans-serif" font-style="normal" font-variant="normal" font-weight="400" font-stretch="normal" font-size="64" text-anchor="start" direction="ltr" writing-mode="lr-tb" unicode-bidi="normal" text-decoration="none" transform="matrix(1 0 0 1 2688.42 1508)">Node </text><text fill="#000000" fill-opacity="1" font-family="Aptos,Aptos_MSFontService,sans-serif" font-style="normal" font-variant="normal" font-weight="400" font-stretch="normal" font-size="64" text-anchor="start" direction="ltr" writing-mode="lr-tb" unicode-bidi="normal" text-decoration="none" transform="matrix(1 0 0 1 2852.28 1508)">4</text></g></g></svg>