<svg width="3350" height="1050" xmlns="http://www.w3.org/2000/svg" xmlns:xlink="http://www.w3.org/1999/xlink" xml:space="preserve" overflow="hidden"><g transform="translate(-252 -728)"><g><rect x="1012.5" y="1003.5" width="497" height="577" stroke="#042433" stroke-width="6.875" stroke-linecap="butt" stroke-linejoin="miter" stroke-miterlimit="8" stroke-opacity="1" fill="none"/><rect x="1622.5" y="1003.5" width="497" height="577" stroke="#042433" stroke-width="6.875" stroke-linecap="butt" stroke-linejoin="miter" stroke-miterlimit="8" stroke-opacity="1" fill="none"/><rect x="277.5" y="1003.5" width="497" height="577" stroke="#042433" stroke-width="6.875" stroke-linecap="butt" stroke-linejoin="miter" stroke-miterlimit="8" stroke-opacity="1" fill="none"/><path d="M507.5 1222.5 633.5 1222.5 633.5 1345.5 507.5 1345.5 507.5 1309.75C524.286 1309.75 537.895 1299.16 537.895 1286.11 537.895 1273.06 524.286 1262.47 507.5 1262.47Z" stroke="#042433" stroke-width="6.875" stroke-linecap="butt" stroke-linejoin="miter" stroke-miterlimit="8" stroke-opacity="1" fill="#FBE3D6" fill-rule="evenodd" fill-opacity="1"/><path d="M429.5 1222.5 523.762 1222.5 523.762 1260.36C536.32 1260.36 546.5 1270.95 546.5 1284 546.5 1297.05 536.32 1307.64 523.762 1307.64L523.762 1345.5 429.5 1345.5Z" stroke="#000000" stroke-width="6.875" stroke-linecap="butt" stroke-linejoin="miter" stroke-miterlimit="8" stroke-opacity="1" fill="#FBE3D6" fill-rule="evenodd" fill-opacity="1"/><path d="M1202.5 1237.5 1296.76 1237.5 1296.76 1275.36C1309.32 1275.36 1319.5 1285.95 1319.5 1299 1319.5 1312.05 1309.32 1322.64 1296.76 1322.64L1296.76 1360.5 1202.5 1360.5Z" stroke="#000000" stroke-width="6.875" stroke-linecap="butt" stroke-linejoin="miter" stroke-miterlimit="8" stroke-opacity="1" fill="#FBE3D6" fill-rule="evenodd" fill-opacity="1"/><path d="M1807.5 1233.5 1934.5 1233.5 1934.5 1356.5 1807.5 1356.5 1807.5 1320.75C1824.42 1320.75 1838.14 1310.16 1838.14 1297.11 1838.14 1284.06 1824.42 1273.47 1807.5 1273.47Z" stroke="#042433" stroke-width="6.875" stroke-linecap="butt" stroke-linejoin="miter" stroke-miterlimit="8" stroke-opacity="1" fill="#FBE3D6" fill-rule="evenodd" fill-opacity="1"/><path d="M532.937 1360.5 532.938 1460.54 526.063 1460.54 526.062 1360.5ZM543.25 1455.95 529.5 1483.45 515.75 1455.95Z" fill="#156082" fill-rule="nonzero" fill-opacity="1"/><text fill="#000000" fill-opacity="1" font-family="Aptos,Aptos_MSFontService,sans-serif" font-style="normal" font-variant="normal" font-weight="400" font-stretch="normal" font-size="50" text-anchor="start" direction="ltr" writing-mode="lr-tb" unicode-bidi="normal" text-decoration="none" transform="matrix(1 0 0 1 322.919 1547)">One Scaling Factor</text><text fill="#000000" fill-opacity="1" font-family="Aptos,Aptos_MSFontService,sans-serif" font-style="normal" font-variant="normal" font-weight="400" font-stretch="normal" font-size="50" text-anchor="start" direction="ltr" writing-mode="lr-tb" unicode-bidi="normal" text-decoration="none" transform="matrix(1 0 0 1 1037.68 1547)">Scaling Factor No. 1</text><text fill="#000000" fill-opacity="1" font-family="Aptos,Aptos_MSFontService,sans-serif" font-style="normal" font-variant="normal" font-weight="400" font-stretch="normal" font-size="50" text-anchor="start" direction="ltr" writing-mode="lr-tb" unicode-bidi="normal" text-decoration="none" transform="matrix(1 0 0 1 1643.02 1548)">Scaling Factor No. 2</text><path d="M1870.94 1371.5 1870.94 1464.58 1864.06 1464.58 1864.06 1371.5ZM1881.25 1460 1867.5 1487.5 1853.75 1460Z" fill="#156082" fill-rule="nonzero" fill-opacity="1"/><path d="M1249.94 1378.5 1249.94 1471.58 1243.06 1471.58 1243.06 1378.5ZM1260.25 1467 1246.5 1494.5 1232.75 1467Z" fill="#156082" fill-rule="nonzero" fill-opacity="1"/><text fill="#000000" fill-opacity="1" font-family="Aptos,Aptos_MSFontService,sans-serif" font-style="normal" font-variant="normal" font-weight="400" font-stretch="normal" font-size="64" text-anchor="start" direction="ltr" writing-mode="lr-tb" unicode-bidi="normal" text-decoration="none" transform="matrix(1 0 0 1 1170.72 975)">Node 1</text><text fill="#000000" fill-opacity="1" font-family="Aptos,Aptos_MSFontService,sans-serif" font-style="normal" font-variant="normal" font-weight="400" font-stretch="normal" font-size="64" text-anchor="start" direction="ltr" writing-mode="lr-tb" unicode-bidi="normal" text-decoration="none" transform="matrix(1 0 0 1 1757.09 975)">Node 2</text><text fill="#000000" fill-opacity="1" font-family="Aptos,Aptos_MSFontService,sans-serif" font-style="normal" font-variant="normal" font-weight="400" font-stretch="normal" font-size="64" text-anchor="start" direction="ltr" writing-mode="lr-tb" unicode-bidi="normal" text-decoration="none" transform="matrix(1 0 0 1 453.544 975)">Node</text><path d="M2282.5 730.5 2282.5 1770.26" stroke="#000000" stroke-width="6.875" stroke-linecap="butt" stroke-linejoin="miter" stroke-miterlimit="8" stroke-opacity="1" fill="none" fill-rule="evenodd"/><path d="M899.5 730.5 899.5 1770.26" stroke="#000000" stroke-width="6.875" stroke-linecap="butt" stroke-linejoin="miter" stroke-miterlimit="8" stroke-opacity="1" fill="none" fill-rule="evenodd"/><rect x="2371.5" y="1003.5" width="497" height="577" stroke="#042433" stroke-width="6.875" stroke-linecap="butt" stroke-linejoin="miter" stroke-miterlimit="8" stroke-opacity="1" fill="none"/><rect x="2981.5" y="1003.5" width="497" height="577" stroke="#042433" stroke-width="6.875" stroke-linecap="butt" stroke-linejoin="miter" stroke-miterlimit="8" stroke-opacity="1" fill="none"/><path d="M2561.5 1237.5 2655.76 1237.5 2655.76 1275.36C2668.32 1275.36 2678.5 1285.95 2678.5 1299 2678.5 1312.05 2668.32 1322.64 2655.76 1322.64L2655.76 1360.5 2561.5 1360.5Z" stroke="#000000" stroke-width="6.875" stroke-linecap="butt" stroke-linejoin="miter" stroke-miterlimit="8" stroke-opacity="1" fill="#FBE3D6" fill-rule="evenodd" fill-opacity="1"/><path d="M3166.5 1233.5 3293.5 1233.5 3293.5 1356.5 3166.5 1356.5 3166.5 1320.75C3183.42 1320.75 3197.14 1310.16 3197.14 1297.11 3197.14 1284.06 3183.42 1273.47 3166.5 1273.47Z" stroke="#042433" stroke-width="6.875" stroke-linecap="butt" stroke-linejoin="miter" stroke-miterlimit="8" stroke-opacity="1" fill="#FBE3D6" fill-rule="evenodd" fill-opacity="1"/><text fill="#000000" fill-opacity="1" font-family="Aptos,Aptos_MSFontService,sans-serif" font-style="normal" font-variant="normal" font-weight="400" font-stretch="normal" font-size="50" text-anchor="start" direction="ltr" writing-mode="lr-tb" unicode-bidi="normal" text-decoration="none" transform="matrix(1 0 0 1 2426.08 1547)">One Scaling Factor</text><text fill="#000000" fill-opacity="1" font-family="Aptos,Aptos_MSFontService,sans-serif" font-style="normal" font-variant="normal" font-weight="400" font-stretch="normal" font-size="50" text-anchor="start" direction="ltr" writing-mode="lr-tb" unicode-bidi="normal" text-decoration="none" transform="matrix(1 0 0 1 3023.31 1548)">One Scaling Factor</text><path d="M3228.94 1371.5 3228.94 1464.58 3222.06 1464.58 3222.06 1371.5ZM3239.25 1460 3225.5 1487.5 3211.75 1460Z" fill="#156082" fill-rule="nonzero" fill-opacity="1"/><path d="M2607.94 1378.5 2607.94 1471.58 2601.06 1471.58 2601.06 1378.5ZM2618.25 1467 2604.5 1494.5 2590.75 1467Z" fill="#156082" fill-rule="nonzero" fill-opacity="1"/><text fill="#000000" fill-opacity="1" font-family="Aptos,Aptos_MSFontService,sans-serif" font-style="normal" font-variant="normal" font-weight="400" font-stretch="normal" font-size="64" text-anchor="start" direction="ltr" writing-mode="lr-tb" unicode-bidi="normal" text-decoration="none" transform="matrix(1 0 0 1 2529.3 975)">Node 1</text><text fill="#000000" fill-opacity="1" font-family="Aptos,Aptos_MSFontService,sans-serif" font-style="normal" font-variant="normal" font-weight="400" font-stretch="normal" font-size="64" text-anchor="start" direction="ltr" writing-mode="lr-tb" unicode-bidi="normal" text-decoration="none" transform="matrix(1 0 0 1 3115.67 975)">Node 2</text><text fill="#404040" fill-opacity="1" font-family="NVIDIA Sans,NVIDIA Sans_MSFontService,sans-serif" font-style="normal" font-variant="normal" font-weight="700" font-stretch="normal" font-size="73" text-anchor="start" direction="ltr" writing-mode="lr-tb" unicode-bidi="normal" text-decoration="none" transform="matrix(1 0 0 1 959.215 839)">PerTensorScaling</text><text fill="#404040" fill-opacity="1" font-family="NVIDIA Sans,NVIDIA Sans_MSFontService,sans-serif" font-style="normal" font-variant="normal" font-weight="400" font-stretch="normal" font-size="73" text-anchor="start" direction="ltr" writing-mode="lr-tb" unicode-bidi="normal" text-decoration="none" transform="matrix(1 0 0 1 1585.12 839)">and</text><text fill="#404040" fill-opacity="1" font-family="NVIDIA Sans,NVIDIA Sans_MSFontService,sans-serif" font-style="normal" font-variant="normal" font-weight="700" font-stretch="normal" font-size="73" text-anchor="start" direction="ltr" writing-mode="lr-tb" unicode-bidi="normal" text-decoration="none" transform="matrix(1 0 0 1 1732.35 839)">FakeQuant</text><text fill="#404040" fill-opacity="1" font-family="NVIDIA Sans,NVIDIA Sans_MSFontService,sans-serif" font-style="normal" font-variant="normal" font-weight="400" font-stretch="normal" font-size="73" text-anchor="start" direction="ltr" writing-mode="lr-tb" unicode-bidi="normal" text-decoration="none" transform="matrix(1 0 0 1 2610.45 839)">FP8 Delayed Scaling</text></g></g></svg>