<svg version="1.1" viewBox="0.0 0.0 960.0 540.0" fill="none" stroke="none" stroke-linecap="square" stroke-miterlimit="10" xmlns:xlink="http://www.w3.org/1999/xlink" xmlns="http://www.w3.org/2000/svg"><clipPath id="g2bd7db51fc4_0_0.0"><path d="m0 0l960.0 0l0 540.0l-960.0 0l0 -540.0z" clip-rule="nonzero"/></clipPath><g clip-path="url(#g2bd7db51fc4_0_0.0)"><path fill="#ffffff" d="m0 0l960.0 0l0 540.0l-960.0 0z" fill-rule="evenodd"/><path fill="#000000" fill-opacity="0.0" d="m394.6475 57.26734l504.09445 0l0 434.17325l-504.09445 0z" fill-rule="evenodd"/><path stroke="#000000" stroke-width="1.0" stroke-linejoin="round" stroke-linecap="butt" stroke-dasharray="1.0,3.0" d="m394.6475 57.26734l504.09445 0l0 434.17325l-504.09445 0z" fill-rule="evenodd"/><path fill="#b4a7d6" d="m61.258568 245.14372l0 0c0 -6.024521 4.883835 -10.908356 10.908356 -10.908356l167.60062 0c2.8930817 0 5.6676636 1.1492767 7.713379 3.194992c2.0457153 2.0457153 3.1949768 4.8202972 3.1949768 7.7133636l0 43.632126c0 6.0245056 -4.883835 10.908356 -10.908356 10.908356l-167.60062 0c-6.024521 0 -10.908356 -4.88385 -10.908356 -10.908356z" fill-rule="evenodd"/><path stroke="#595959" stroke-width="1.0" stroke-linejoin="round" stroke-linecap="butt" d="m61.258568 245.14372l0 0c0 -6.024521 4.883835 -10.908356 10.908356 -10.908356l167.60062 0c2.8930817 0 5.6676636 1.1492767 7.713379 3.194992c2.0457153 2.0457153 3.1949768 4.8202972 3.1949768 7.7133636l0 43.632126c0 6.0245056 -4.883835 10.908356 -10.908356 10.908356l-167.60062 0c-6.024521 0 -10.908356 -4.88385 -10.908356 -10.908356z" fill-rule="evenodd"/><path fill="#000000" d="m87.313446 261.7198l0 -16.218765l10.9375 0l0 1.921875l-8.796875 0l0 5.015625l7.609375 0l0 1.90625l-7.609375 0l0 7.3750153l-2.140625 0zm21.511215 -3.78125l2.0625 0.25q-0.484375 1.8125 -1.8125 2.8125q-1.3125 0.984375 -3.359375 0.984375q-2.578125 0 -4.09375 -1.578125q-1.5 -1.59375 -1.5 -4.4687653q0 -2.953125 1.53125 -4.59375q1.53125 -1.640625 3.953125 -1.640625q2.359375 0 3.84375 1.609375q1.5 1.59375 1.5 4.515625q0 0.17189026 0 0.53126526l-8.765625 0q0.109375 1.9375 1.09375 2.96875q0.984375 1.015625 2.453125 1.015625q1.09375 0 1.859375 -0.5625q0.78125 -0.578125 1.234375 -1.84375zm-6.53125 -3.2187653l6.5625 0q-0.140625 -1.484375 -0.75 -2.21875q-0.953125 -1.15625 -2.46875 -1.15625q-1.375 0 -2.3125 0.921875q-0.9375 0.90625 -1.03125 2.453125zm19.131577 3.2187653l2.0625 0.25q-0.484375 1.8125 -1.8125 2.8125q-1.3125 0.984375 -3.359375 0.984375q-2.578125 0 -4.09375 -1.578125q-1.5 -1.59375 -1.5 -4.4687653q0 -2.953125 1.53125 -4.59375q1.53125 -1.640625 3.953125 -1.640625q2.359375 0 3.84375 1.609375q1.5 1.59375 1.5 4.515625q0 0.17189026 0 0.53126526l-8.765625 0q0.109375 1.9375 1.09375 2.96875q0.984375 1.015625 2.453125 1.015625q1.09375 0 1.859375 -0.5625q0.78125 -0.578125 1.234375 -1.84375zm-6.53125 -3.2187653l6.5625 0q-0.140625 -1.484375 -0.75 -2.21875q-0.953125 -1.15625 -2.46875 -1.15625q-1.375 0 -2.3125 0.921875q-0.9375 0.90625 -1.03125 2.453125zm18.709702 7.0000153l0 -1.484375q-1.109375 1.75 -3.28125 1.75q-1.40625 0 -2.59375 -0.765625q-1.171875 -0.78125 -1.8125 -2.171875q-0.640625 -1.390625 -0.640625 -3.1875153q0 -1.765625 0.578125 -3.1875q0.59375 -1.4375 1.765625 -2.203125q1.171875 -0.765625 2.609375 -0.765625q1.0625 0 1.890625 0.453125q0.84375 0.4375 1.359375 1.15625l0 -5.8125l1.984375 0l0 16.218765l-1.859375 0zm-6.28125 -5.8593903q0 2.2500153 0.9375 3.3750153q0.953125 1.109375 2.25 1.109375q1.3125 0 2.21875 -1.0625q0.921875 -1.0625 0.921875 -3.265625q0 -2.4062653 -0.9375 -3.5312653q-0.921875 -1.125 -2.296875 -1.125q-1.3125 0 -2.203125 1.078125q-0.890625 1.078125 -0.890625 3.421875zm17.926208 5.8593903l0 -16.218765l10.9375 0l0 1.921875l-8.796875 0l0 5.015625l7.609375 0l0 1.90625l-7.609375 0l0 7.3750153l-2.140625 0zm12.729965 -5.8750153q0 -3.265625 1.8125 -4.828125q1.515625 -1.3125 3.703125 -1.3125q2.421875 0 3.953125 1.59375q1.546875 1.578125 1.546875 4.375q0 2.2812653 -0.6875 3.5781403q-0.671875 1.296875 -1.984375 2.015625q-1.296875 0.71875 -2.828125 0.71875q-2.46875 0 -4.0 -1.578125q-1.515625 -1.578125 -1.515625 -4.5625153zm2.046875 0q0 2.2500153 0.984375 3.3750153q0.984375 1.125 2.484375 1.125q1.484375 0 2.46875 -1.125q0.984375 -1.125 0.984375 -3.4375153q0 -2.1875 -1.0 -3.296875q-0.984375 -1.125 -2.453125 -1.125q-1.5 0 -2.484375 1.125q-0.984375 1.109375 -0.984375 3.359375zm11.272202 5.8750153l0 -11.750015l1.796875 0l0 1.78125q0.6875 -1.25 1.265625 -1.640625q0.578125 -0.40625 1.28125 -0.40625q1.0 0 2.046875 0.640625l-0.6875 1.84375q-0.734375 -0.421875 -1.46875 -0.421875q-0.640625 0 -1.171875 0.390625q-0.515625 0.390625 -0.734375 1.09375q-0.328125 1.0625 -0.328125 2.3125l0 6.1562653l-2.0 0zm9.732208 0l-3.59375 -11.750015l2.0625 0l1.875 6.7812653l0.6875 2.53125q0.046875 -0.203125 0.609375 -2.4375l1.875 -6.8750153l2.046875 0l1.75 6.8125153l0.59375 2.25l0.671875 -2.265625l2.015625 -6.7968903l1.9375153 0l-3.6718903 11.750015l-2.078125 0l-1.859375 -7.0312653l-0.453125 -2.0l-2.390625 9.031265l-2.078125 0zm21.861618 -1.453125q-1.109375 0.9375 -2.140625 1.328125q-1.015625 0.390625 -2.1875 0.390625q-1.9375 0 -2.984375 -0.9375q-1.03125 -0.953125 -1.03125 -2.421875q0 -0.859375 0.390625 -1.578125q0.40625 -0.71875 1.03125 -1.1406403q0.640625 -0.4375 1.4375 -0.65625q0.59375 -0.15625 1.765625 -0.296875q2.421875 -0.296875 3.5625 -0.6875q0 -0.40625 0 -0.515625q0 -1.21875 -0.5625 -1.71875q-0.765625 -0.671875 -2.265625 -0.671875q-1.40625 0 -2.078125 0.5q-0.671875 0.484375 -0.984375 1.734375l-1.953125 -0.265625q0.265625 -1.25 0.875 -2.015625q0.609375 -0.78125 1.75 -1.1875q1.15625 -0.421875 2.671875 -0.421875q1.515625 0 2.453125 0.359375q0.9375 0.34375 1.375 0.890625q0.453125 0.53125 0.625 1.34375q0.09375 0.515625 0.09375 1.84375l0 2.6562653q0 2.78125 0.125 3.515625q0.140625 0.734375 0.515625 1.40625l-2.078125 0q-0.3125 -0.625 -0.40625 -1.453125zm-0.15625 -4.4375153q-1.09375 0.43751526 -3.265625 0.75001526q-1.21875 0.171875 -1.734375 0.390625q-0.5 0.21875 -0.78125 0.65625q-0.28125 0.421875 -0.28125 0.9375q0 0.796875 0.609375 1.328125q0.609375 0.53125 1.765625 0.53125q1.140625 0 2.03125 -0.5q0.90625 -0.5 1.328125 -1.375q0.328125 -0.671875 0.328125 -2.0l0 -0.71876526zm5.069092 5.8906403l0 -11.750015l1.796875 0l0 1.78125q0.6875 -1.25 1.265625 -1.640625q0.578125 -0.40625 1.28125 -0.40625q1.0 0 2.046875 0.640625l-0.6875 1.84375q-0.734375 -0.421875 -1.46875 -0.421875q-0.640625 0 -1.171875 0.390625q-0.515625 0.390625 -0.734375 1.09375q-0.328125 1.0625 -0.328125 2.3125l0 6.1562653l-2.0 0zm15.185333 0l0 -1.484375q-1.109375 1.75 -3.28125 1.75q-1.40625 0 -2.59375 -0.765625q-1.171875 -0.78125 -1.8125 -2.171875q-0.640625 -1.390625 -0.640625 -3.1875153q0 -1.765625 0.578125 -3.1875q0.59375 -1.4375 1.765625 -2.203125q1.171875 -0.765625 2.609375 -0.765625q1.0625 0 1.890625 0.453125q0.84375 0.4375 1.359375 1.15625l0 -5.8125l1.984375 0l0 16.218765l-1.859375 0zm-6.28125 -5.8593903q0 2.2500153 0.9375 3.3750153q0.953125 1.109375 2.25 1.109375q1.3125 0 2.21875 -1.0625q0.921875 -1.0625 0.921875 -3.265625q0 -2.4062653 -0.9375 -3.5312653q-0.921875 -1.125 -2.296875 -1.125q-1.3125 0 -2.203125 1.078125q-0.890625 1.078125 -0.890625 3.421875z" fill-rule="nonzero"/><path fill="#000000" d="m115.43717 283.51666l2.03125 -0.1875q0.140625 1.21875 0.65625 2.0q0.53125 0.78125 1.640625 1.265625q1.109375 0.484375 2.484375 0.484375q1.234375 0 2.171875 -0.359375q0.9375 -0.375 1.390625 -1.015625q0.46875 -0.640625 0.46875 -1.390625q0 -0.765625 -0.453125 -1.328125q-0.4375 -0.578125 -1.453125 -0.953125q-0.65625 -0.265625 -2.890625 -0.796875q-2.234375 -0.53125 -3.125 -1.015625q-1.15625 -0.609375 -1.734375 -1.5q-0.5625 -0.90625 -0.5625 -2.03125q0 -1.21875 0.6875 -2.28125q0.703125 -1.078125 2.03125 -1.625q1.34375 -0.5625 2.984375 -0.5625q1.8125 0 3.1875 0.59375q1.375 0.578125 2.109375 1.703125q0.75 1.125 0.796875 2.546875l-2.046875 0.15625q-0.171875 -1.53125 -1.140625 -2.3125q-0.953125 -0.796875 -2.8125 -0.796875q-1.953125 0 -2.84375 0.71875q-0.890625 0.71875 -0.890625 1.71875q0 0.875 0.640625 1.4375q0.609375 0.5625 3.21875 1.15625q2.625 0.59375 3.59375 1.03125q1.421875 0.65625 2.09375 1.65625q0.6718826 1.0 0.6718826 2.3125q0 1.296875 -0.7343826 2.4375q-0.734375 1.140625 -2.125 1.78125q-1.390625 0.640625 -3.125 0.640625q-2.203125 0 -3.703125 -0.640625q-1.484375 -0.640625 -2.328125 -1.921875q-0.84375 -1.296875 -0.890625 -2.921875zm17.752174 5.203125l-3.59375 -11.75l2.0625 0l1.875 6.78125l0.6875 2.53125q0.046875 -0.203125 0.609375 -2.4375l1.875 -6.875l2.046875 0l1.75 6.8125l0.59375 2.25l0.671875 -2.265625l2.015625 -6.796875l1.9375 0l-3.671875 11.75l-2.078125 0l-1.859375 -7.03125l-0.453125 -2.0l-2.390625 9.03125l-2.078125 0zm14.205368 -13.921875l0 -2.296875l2.0 0l0 2.296875l-2.0 0zm0 13.921875l0 -11.75l2.0 0l0 11.75l-2.0 0zm12.877243 -6.359375l0 -1.90625l6.859375 -0.015625l0 6.03125q-1.578125 1.25 -3.265625 1.890625q-1.671875 0.640625 -3.453125 0.640625q-2.375 0 -4.328125 -1.015625q-1.953125 -1.03125 -2.953125 -2.96875q-1.0 -1.9375 -1.0 -4.328125q0 -2.375 0.984375 -4.421875q1.0 -2.046875 2.859375 -3.046875q1.859375 -1.0 4.28125 -1.0q1.75 0 3.171875 0.578125q1.421875 0.5625 2.234375 1.59375q0.8125 1.015625 1.234375 2.640625l-1.9375 0.53125q-0.375 -1.234375 -0.921875 -1.9375q-0.53125 -0.71875 -1.546875 -1.140625q-1.0 -0.421875 -2.21875 -0.421875q-1.484375 0 -2.5625 0.453125q-1.0625 0.4375 -1.71875 1.171875q-0.65625 0.734375 -1.03125 1.609375q-0.609375 1.5 -0.609375 3.25q0 2.171875 0.734375 3.640625q0.75 1.453125 2.171875 2.171875q1.4375 0.703125 3.046875 0.703125q1.390625 0 2.71875 -0.53125q1.328125 -0.546875 2.015625 -1.15625l0 -3.015625l-4.765625 0zm9.935257 6.359375l0 -16.21875l2.15625 0l0 14.3125l7.984375 0l0 1.90625l-10.140625 0zm23.334702 -16.21875l2.140625 0l0 9.375q0 2.4375 -0.546875 3.875q-0.546875 1.4375 -2.0 2.34375q-1.4375 0.90625 -3.78125 0.90625q-2.28125 0 -3.734375 -0.78125q-1.453125 -0.796875 -2.078125 -2.28125q-0.609375 -1.484375 -0.609375 -4.0625l0 -9.375l2.140625 0l0 9.359375q0 2.109375 0.390625 3.109375q0.40625 1.0 1.359375 1.546875q0.953125 0.546875 2.34375 0.546875q2.359375 0 3.359375 -1.078125q1.015625 -1.078125 1.015625 -4.125l0 -9.359375z" fill-rule="nonzero"/><path fill="#9fc5e8" d="m410.6297 348.0681l0 0c0 -6.024536 4.88385 -10.908356 10.908356 -10.908356l182.93918 0c2.8930664 0 5.6676636 1.1492615 7.713379 3.1949768c2.0457153 2.0457153 3.1950073 4.820282 3.1950073 7.713379l0 43.63211c0 6.0245056 -4.88385 10.908356 -10.908386 10.908356l-182.93918 0c-6.0245056 0 -10.908356 -4.88385 -10.908356 -10.908356z" fill-rule="evenodd"/><path stroke="#595959" stroke-width="1.0" stroke-linejoin="round" stroke-linecap="butt" d="m410.6297 348.0681l0 0c0 -6.024536 4.88385 -10.908356 10.908356 -10.908356l182.93918 0c2.8930664 0 5.6676636 1.1492615 7.713379 3.1949768c2.0457153 2.0457153 3.1950073 4.820282 3.1950073 7.713379l0 43.63211c0 6.0245056 -4.88385 10.908356 -10.908386 10.908356l-182.93918 0c-6.0245056 0 -10.908356 -4.88385 -10.908356 -10.908356z" fill-rule="evenodd"/><path fill="#000000" d="m434.6922 378.14417l0 -16.21875l2.15625 0l0 14.3125l7.984375 0l0 1.90625l-10.140625 0zm12.444092 -13.921875l0 -2.296875l2.0 0l0 2.296875l-2.0 0zm0 13.921875l0 -11.75l2.0 0l0 11.75l-2.0 0zm5.033478 0l0 -11.75l1.78125 0l0 1.671875q1.296875 -1.9375 3.75 -1.9375q1.0625 0 1.953125 0.390625q0.890625 0.375 1.328125 1.0q0.4375 0.609375 0.625 1.46875q0.109375 0.546875 0.109375 1.9375l0 7.21875l-2.0 0l0 -7.140625q0 -1.21875 -0.234375 -1.8125q-0.234375 -0.609375 -0.828125 -0.96875q-0.578125 -0.359375 -1.375 -0.359375q-1.28125 0 -2.203125 0.8125q-0.921875 0.796875 -0.921875 3.046875l0 6.421875l-1.984375 0zm20.631592 -3.78125l2.0625 0.25q-0.484375 1.8125 -1.8125 2.8125q-1.3125 0.984375 -3.359375 0.984375q-2.578125 0 -4.09375 -1.578125q-1.5 -1.59375 -1.5 -4.46875q0 -2.953125 1.53125 -4.59375q1.53125 -1.640625 3.953125 -1.640625q2.359375 0 3.84375 1.609375q1.5 1.59375 1.5 4.515625q0 0.171875 0 0.53125l-8.765625 0q0.109375 1.9375 1.09375 2.96875q0.984375 1.015625 2.453125 1.015625q1.09375 0 1.859375 -0.5625q0.78125 -0.578125 1.234375 -1.84375zm-6.53125 -3.21875l6.5625 0q-0.140625 -1.484375 -0.75 -2.21875q-0.953125 -1.15625 -2.46875 -1.15625q-1.375 0 -2.3125 0.921875q-0.9375 0.90625 -1.03125 2.453125zm18.756561 5.546875q-1.109375 0.9375 -2.140625 1.328125q-1.015625 0.390625 -2.1875 0.390625q-1.9375 0 -2.984375 -0.9375q-1.03125 -0.953125 -1.03125 -2.421875q0 -0.859375 0.390625 -1.578125q0.40625 -0.71875 1.03125 -1.140625q0.640625 -0.4375 1.4375 -0.65625q0.59375 -0.15625 1.765625 -0.296875q2.421875 -0.296875 3.5625 -0.6875q0 -0.40625 0 -0.515625q0 -1.21875 -0.5625 -1.71875q-0.765625 -0.671875 -2.265625 -0.671875q-1.40625 0 -2.078125 0.5q-0.671875 0.484375 -0.984375 1.734375l-1.953125 -0.265625q0.265625 -1.25 0.875 -2.015625q0.609375 -0.78125 1.75 -1.1875q1.15625 -0.421875 2.671875 -0.421875q1.515625 0 2.453125 0.359375q0.9375 0.34375 1.375 0.890625q0.453125 0.53125 0.625 1.34375q0.09375 0.515625 0.09375 1.84375l0 2.65625q0 2.78125 0.125 3.515625q0.140625 0.734375 0.515625 1.40625l-2.078125 0q-0.3125 -0.625 -0.40625 -1.453125zm-0.15625 -4.4375q-1.09375 0.4375 -3.265625 0.75q-1.21875 0.171875 -1.734375 0.390625q-0.5 0.21875 -0.78125 0.65625q-0.28125 0.421875 -0.28125 0.9375q0 0.796875 0.609375 1.328125q0.609375 0.53125 1.765625 0.53125q1.140625 0 2.03125 -0.5q0.90625 -0.5 1.328125 -1.375q0.328125 -0.671875 0.328125 -2.0l0 -0.71875zm5.069092 5.890625l0 -11.75l1.796875 0l0 1.78125q0.6875 -1.25 1.265625 -1.640625q0.578125 -0.40625 1.28125 -0.40625q1.0 0 2.046875 0.640625l-0.6875 1.84375q-0.734375 -0.421875 -1.46875 -0.421875q-0.640625 0 -1.171875 0.390625q-0.515625 0.390625 -0.734375 1.09375q-0.328125 1.0625 -0.328125 2.3125l0 6.15625l-2.0 0zm17.66745 4.765625q-1.640625 -2.078125 -2.78125 -4.859375q-1.140625 -2.796875 -1.140625 -5.78125q0 -2.625 0.84375 -5.046875q1.0 -2.796875 3.078125 -5.578125l1.421875 0q-1.328125 2.3125 -1.765625 3.296875q-0.671875 1.515625 -1.0625 3.1875q-0.46875 2.0625 -0.46875 4.15625q0 5.3125 3.296875 10.625l-1.421875 0zm11.435333 -4.765625l0 -1.71875q-1.359375 1.984375 -3.71875 1.984375q-1.046875 0 -1.953125 -0.390625q-0.890625 -0.40625 -1.328125 -1.0q-0.4375 -0.609375 -0.609375 -1.484375q-0.125 -0.59375 -0.125 -1.859375l0 -7.28125l1.984375 0l0 6.515625q0 1.5625 0.125 2.109375q0.1875 0.78125 0.796875 1.234375q0.609375 0.4375 1.5 0.4375q0.90625 0 1.6875 -0.453125q0.78125 -0.46875 1.109375 -1.25q0.328125 -0.796875 0.328125 -2.296875l0 -6.296875l1.984375 0l0 11.75l-1.78125 0zm4.912842 4.5l0 -16.25l1.8125 0l0 1.53125q0.640625 -0.90625 1.4375 -1.34375q0.8125 -0.453125 1.96875 -0.453125q1.5 0 2.640625 0.78125q1.15625 0.765625 1.734375 2.1875q0.59375 1.40625 0.59375 3.078125q0 1.8125 -0.640625 3.265625q-0.640625 1.4375 -1.875 2.203125q-1.234375 0.765625 -2.59375 0.765625q-1.0 0 -1.796875 -0.421875q-0.78125 -0.421875 -1.296875 -1.0625l0 5.71875l-1.984375 0zm1.796875 -10.3125q0 2.265625 0.921875 3.359375q0.921875 1.078125 2.21875 1.078125q1.328125 0 2.265625 -1.125q0.953125 -1.125 0.953125 -3.46875q0 -2.25 -0.921875 -3.359375q-0.921875 -1.125 -2.203125 -1.125q-1.28125 0 -2.265625 1.1875q-0.96875 1.1875 -0.96875 3.453125zm8.959717 10.3125l0 -1.4375l13.203125 0l0 1.4375l-13.203125 0zm14.444092 0l0 -16.25l1.8125 0l0 1.53125q0.640625 -0.90625 1.4375 -1.34375q0.8125 -0.453125 1.96875 -0.453125q1.5 0 2.640625 0.78125q1.15625 0.765625 1.734375 2.1875q0.59375 1.40625 0.59375 3.078125q0 1.8125 -0.640625 3.265625q-0.640625 1.4375 -1.875 2.203125q-1.234375 0.765625 -2.59375 0.765625q-1.0 0 -1.796875 -0.421875q-0.78125 -0.421875 -1.296875 -1.0625l0 5.71875l-1.984375 0zm1.796875 -10.3125q0 2.265625 0.921875 3.359375q0.921875 1.078125 2.21875 1.078125q1.328125 0 2.265625 -1.125q0.953125 -1.125 0.953125 -3.46875q0 -2.25 -0.921875 -3.359375q-0.921875 -1.125 -2.203125 -1.125q-1.28125 0 -2.265625 1.1875q-0.96875 1.1875 -0.96875 3.453125zm10.772156 5.8125l0 -11.75l1.796875 0l0 1.78125q0.6875 -1.25 1.265625 -1.640625q0.578125 -0.40625 1.28125 -0.40625q1.0 0 2.046875 0.640625l-0.6875 1.84375q-0.734375 -0.421875 -1.46875 -0.421875q-0.640625 0 -1.171875 0.390625q-0.515625 0.390625 -0.734375 1.09375q-0.328125 1.0625 -0.328125 2.3125l0 6.15625l-2.0 0zm6.825989 -5.875q0 -3.265625 1.8125 -4.828125q1.515625 -1.3125 3.703125 -1.3125q2.421875 0 3.953125 1.59375q1.546875 1.578125 1.546875 4.375q0 2.28125 -0.6875 3.578125q-0.671875 1.296875 -1.984375 2.015625q-1.296875 0.71875 -2.828125 0.71875q-2.46875 0 -4.0 -1.578125q-1.515625 -1.578125 -1.515625 -4.5625zm2.046875 0q0 2.25 0.984375 3.375q0.984375 1.125 2.484375 1.125q1.484375 0 2.46875 -1.125q0.984375 -1.125 0.984375 -3.4375q0 -2.1875 -1.0 -3.296875q-0.984375 -1.125 -2.453125 -1.125q-1.5 0 -2.484375 1.125q-0.984375 1.109375 -0.984375 3.359375zm11.287842 -8.03125l0 -2.3125l1.984375 0l0 2.3125l-1.984375 0zm-2.53125 18.46875l0.390625 -1.703125q0.59375 0.15625 0.9375 0.15625q0.609375 0 0.90625 -0.40625q0.296875 -0.390625 0.296875 -2.015625l0 -12.34375l1.984375 0l0 12.390625q0 2.171875 -0.5625 3.015625q-0.71875 1.109375 -2.390625 1.109375q-0.796875 0 -1.5625 -0.203125zm8.877197 0.203125l-1.421875 0q3.296875 -5.3125 3.296875 -10.625q0 -2.078125 -0.46875 -4.125q-0.375 -1.671875 -1.046875 -3.1875q-0.4375 -1.0 -1.78125 -3.328125l1.421875 0q2.078125 2.78125 3.078125 5.578125q0.84375 2.421875 0.84375 5.046875q0 2.984375 -1.140625 5.78125q-1.140625 2.78125 -2.78125 4.859375z" fill-rule="nonzero"/><path fill="#9fc5e8" d="m680.5169 348.0681l0 0c0 -6.024536 4.88385 -10.908356 10.908325 -10.908356l182.93921 0c2.8930664 0 5.6676636 1.1492615 7.713379 3.1949768c2.0457153 2.0457153 3.1950073 4.820282 3.1950073 7.713379l0 43.63211c0 6.0245056 -4.88385 10.908356 -10.908386 10.908356l-182.93921 0c-6.024475 0 -10.908325 -4.88385 -10.908325 -10.908356z" fill-rule="evenodd"/><path stroke="#595959" stroke-width="1.0" stroke-linejoin="round" stroke-linecap="butt" d="m680.5169 348.0681l0 0c0 -6.024536 4.88385 -10.908356 10.908325 -10.908356l182.93921 0c2.8930664 0 5.6676636 1.1492615 7.713379 3.1949768c2.0457153 2.0457153 3.1950073 4.820282 3.1950073 7.713379l0 43.63211c0 6.0245056 -4.88385 10.908356 -10.908386 10.908356l-182.93921 0c-6.024475 0 -10.908325 -4.88385 -10.908325 -10.908356z" fill-rule="evenodd"/><path fill="#000000" d="m695.1319 378.14417l0 -16.21875l2.15625 0l0 14.3125l7.984375 0l0 1.90625l-10.140625 0zm12.444092 -13.921875l0 -2.296875l2.0 0l0 2.296875l-2.0 0zm0 13.921875l0 -11.75l2.0 0l0 11.75l-2.0 0zm5.0335083 0l0 -11.75l1.78125 0l0 1.671875q1.296875 -1.9375 3.75 -1.9375q1.0625 0 1.953125 0.390625q0.890625 0.375 1.328125 1.0q0.4375 0.609375 0.625 1.46875q0.109375 0.546875 0.109375 1.9375l0 7.21875l-2.0 0l0 -7.140625q0 -1.21875 -0.234375 -1.8125q-0.234375 -0.609375 -0.828125 -0.96875q-0.578125 -0.359375 -1.375 -0.359375q-1.28125 0 -2.203125 0.8125q-0.921875 0.796875 -0.921875 3.046875l0 6.421875l-1.984375 0zm20.631592 -3.78125l2.0625 0.25q-0.484375 1.8125 -1.8125 2.8125q-1.3125 0.984375 -3.359375 0.984375q-2.578125 0 -4.09375 -1.578125q-1.5 -1.59375 -1.5 -4.46875q0 -2.953125 1.53125 -4.59375q1.53125 -1.640625 3.953125 -1.640625q2.359375 0 3.84375 1.609375q1.5 1.59375 1.5 4.515625q0 0.171875 0 0.53125l-8.765625 0q0.109375 1.9375 1.09375 2.96875q0.984375 1.015625 2.453125 1.015625q1.09375 0 1.859375 -0.5625q0.78125 -0.578125 1.234375 -1.84375zm-6.53125 -3.21875l6.5625 0q-0.140625 -1.484375 -0.75 -2.21875q-0.953125 -1.15625 -2.46875 -1.15625q-1.375 0 -2.3125 0.921875q-0.9375 0.90625 -1.03125 2.453125zm18.75653 5.546875q-1.109375 0.9375 -2.140625 1.328125q-1.015625 0.390625 -2.1875 0.390625q-1.9375 0 -2.984375 -0.9375q-1.03125 -0.953125 -1.03125 -2.421875q0 -0.859375 0.390625 -1.578125q0.40625 -0.71875 1.03125 -1.140625q0.640625 -0.4375 1.4375 -0.65625q0.59375 -0.15625 1.765625 -0.296875q2.421875 -0.296875 3.5625 -0.6875q0 -0.40625 0 -0.515625q0 -1.21875 -0.5625 -1.71875q-0.765625 -0.671875 -2.265625 -0.671875q-1.40625 0 -2.078125 0.5q-0.671875 0.484375 -0.984375 1.734375l-1.953125 -0.265625q0.265625 -1.25 0.875 -2.015625q0.609375 -0.78125 1.75 -1.1875q1.15625 -0.421875 2.671875 -0.421875q1.515625 0 2.453125 0.359375q0.9375 0.34375 1.375 0.890625q0.453125 0.53125 0.625 1.34375q0.09375 0.515625 0.09375 1.84375l0 2.65625q0 2.78125 0.125 3.515625q0.140625 0.734375 0.515625 1.40625l-2.078125 0q-0.3125 -0.625 -0.40625 -1.453125zm-0.15625 -4.4375q-1.09375 0.4375 -3.265625 0.75q-1.21875 0.171875 -1.734375 0.390625q-0.5 0.21875 -0.78125 0.65625q-0.28125 0.421875 -0.28125 0.9375q0 0.796875 0.609375 1.328125q0.609375 0.53125 1.765625 0.53125q1.140625 0 2.03125 -0.5q0.90625 -0.5 1.328125 -1.375q0.328125 -0.671875 0.328125 -2.0l0 -0.71875zm5.069092 5.890625l0 -11.75l1.796875 0l0 1.78125q0.6875 -1.25 1.265625 -1.640625q0.578125 -0.40625 1.28125 -0.40625q1.0 0 2.046875 0.640625l-0.6875 1.84375q-0.734375 -0.421875 -1.46875 -0.421875q-0.640625 0 -1.171875 0.390625q-0.515625 0.390625 -0.734375 1.09375q-0.328125 1.0625 -0.328125 2.3125l0 6.15625l-2.0 0zm17.66748 4.765625q-1.640625 -2.078125 -2.78125 -4.859375q-1.140625 -2.796875 -1.140625 -5.78125q0 -2.625 0.84375 -5.046875q1.0 -2.796875 3.078125 -5.578125l1.421875 0q-1.328125 2.3125 -1.765625 3.296875q-0.671875 1.515625 -1.0625 3.1875q-0.46875 2.0625 -0.46875 4.15625q0 5.3125 3.296875 10.625l-1.421875 0zm3.3728027 -3.796875l1.9375 0.296875q0.125 0.890625 0.671875 1.296875q0.75 0.5625 2.03125 0.5625q1.375 0 2.125 -0.5625q0.765625 -0.546875 1.03125 -1.546875q0.15625 -0.609375 0.140625 -2.546875q-1.3125 1.53125 -3.25 1.53125q-2.421875 0 -3.75 -1.75q-1.328125 -1.75 -1.328125 -4.1875q0 -1.6875 0.609375 -3.109375q0.609375 -1.421875 1.765625 -2.1875q1.15625 -0.78125 2.703125 -0.78125q2.09375 0 3.4375 1.6875l0 -1.421875l1.828125 0l0 10.15625q0 2.75 -0.5625 3.890625q-0.546875 1.140625 -1.765625 1.796875q-1.203125 0.671875 -2.96875 0.671875q-2.109375 0 -3.40625 -0.953125q-1.296875 -0.9375 -1.25 -2.84375zm1.65625 -7.046875q0 2.3125 0.90625 3.375q0.921875 1.0625 2.3125 1.0625q1.375 0 2.296875 -1.0625q0.921875 -1.0625 0.921875 -3.3125q0 -2.15625 -0.953125 -3.25q-0.953125 -1.09375 -2.296875 -1.09375q-1.328125 0 -2.265625 1.078125q-0.921875 1.078125 -0.921875 3.203125zm18.975342 4.625q-1.109375 0.9375 -2.140625 1.328125q-1.015625 0.390625 -2.1875 0.390625q-1.9375 0 -2.984375 -0.9375q-1.03125 -0.953125 -1.03125 -2.421875q0 -0.859375 0.390625 -1.578125q0.40625 -0.71875 1.03125 -1.140625q0.640625 -0.4375 1.4375 -0.65625q0.59375 -0.15625 1.765625 -0.296875q2.421875 -0.296875 3.5625 -0.6875q0 -0.40625 0 -0.515625q0 -1.21875 -0.5625 -1.71875q-0.765625 -0.671875 -2.265625 -0.671875q-1.40625 0 -2.078125 0.5q-0.671875 0.484375 -0.984375 1.734375l-1.953125 -0.265625q0.265625 -1.25 0.875 -2.015625q0.609375 -0.78125 1.75 -1.1875q1.15625 -0.421875 2.671875 -0.421875q1.515625 0 2.453125 0.359375q0.9375 0.34375 1.375 0.890625q0.453125 0.53125 0.625 1.34375q0.09375 0.515625 0.09375 1.84375l0 2.65625q0 2.78125 0.125 3.515625q0.140625 0.734375 0.515625 1.40625l-2.078125 0q-0.3125 -0.625 -0.40625 -1.453125zm-0.15625 -4.4375q-1.09375 0.4375 -3.265625 0.75q-1.21875 0.171875 -1.734375 0.390625q-0.5 0.21875 -0.78125 0.65625q-0.28125 0.421875 -0.28125 0.9375q0 0.796875 0.609375 1.328125q0.609375 0.53125 1.765625 0.53125q1.140625 0 2.03125 -0.5q0.90625 -0.5 1.328125 -1.375q0.328125 -0.671875 0.328125 -2.0l0 -0.71875zm9.444092 4.109375l0.28125 1.765625q-0.84375 0.171875 -1.5 0.171875q-1.078125 0 -1.6875 -0.34375q-0.59375 -0.34375 -0.84375 -0.890625q-0.234375 -0.5625 -0.234375 -2.359375l0 -6.765625l-1.46875 0l0 -1.546875l1.46875 0l0 -2.90625l1.984375 -1.203125l0 4.109375l2.0 0l0 1.546875l-2.0 0l0 6.875q0 0.84375 0.09375 1.09375q0.109375 0.25 0.34375 0.390625q0.25 0.140625 0.6875 0.140625q0.328125 0 0.875 -0.078125zm9.982117 -2.0l2.0625 0.25q-0.484375 1.8125 -1.8125 2.8125q-1.3125 0.984375 -3.359375 0.984375q-2.578125 0 -4.09375 -1.578125q-1.5 -1.59375 -1.5 -4.46875q0 -2.953125 1.53125 -4.59375q1.53125 -1.640625 3.953125 -1.640625q2.359375 0 3.84375 1.609375q1.5 1.59375 1.5 4.515625q0 0.171875 0 0.53125l-8.765625 0q0.109375 1.9375 1.09375 2.96875q0.984375 1.015625 2.453125 1.015625q1.09375 0 1.859375 -0.5625q0.78125 -0.578125 1.234375 -1.84375zm-6.53125 -3.21875l6.5625 0q-0.140625 -1.484375 -0.75 -2.21875q-0.953125 -1.15625 -2.46875 -1.15625q-1.375 0 -2.3125 0.921875q-0.9375 0.90625 -1.03125 2.453125zm9.256592 11.5l0 -1.4375l13.203125 0l0 1.4375l-13.203125 0zm14.444092 0l0 -16.25l1.8125 0l0 1.53125q0.640625 -0.90625 1.4375 -1.34375q0.8125 -0.453125 1.96875 -0.453125q1.5 0 2.640625 0.78125q1.15625 0.765625 1.734375 2.1875q0.59375 1.40625 0.59375 3.078125q0 1.8125 -0.640625 3.265625q-0.640625 1.4375 -1.875 2.203125q-1.234375 0.765625 -2.59375 0.765625q-1.0 0 -1.796875 -0.421875q-0.78125 -0.421875 -1.296875 -1.0625l0 5.71875l-1.984375 0zm1.796875 -10.3125q0 2.265625 0.921875 3.359375q0.921875 1.078125 2.21875 1.078125q1.328125 0 2.265625 -1.125q0.953125 -1.125 0.953125 -3.46875q0 -2.25 -0.921875 -3.359375q-0.921875 -1.125 -2.203125 -1.125q-1.28125 0 -2.265625 1.1875q-0.96875 1.1875 -0.96875 3.453125zm10.772156 5.8125l0 -11.75l1.796875 0l0 1.78125q0.6875 -1.25 1.265625 -1.640625q0.578125 -0.40625 1.28125 -0.40625q1.0 0 2.046875 0.640625l-0.6875 1.84375q-0.734375 -0.421875 -1.46875 -0.421875q-0.640625 0 -1.171875 0.390625q-0.515625 0.390625 -0.734375 1.09375q-0.328125 1.0625 -0.328125 2.3125l0 6.15625l-2.0 0zm6.825989 -5.875q0 -3.265625 1.8125 -4.828125q1.515625 -1.3125 3.703125 -1.3125q2.421875 0 3.953125 1.59375q1.546875 1.578125 1.546875 4.375q0 2.28125 -0.6875 3.578125q-0.671875 1.296875 -1.984375 2.015625q-1.296875 0.71875 -2.828125 0.71875q-2.46875 0 -4.0 -1.578125q-1.515625 -1.578125 -1.515625 -4.5625zm2.046875 0q0 2.25 0.984375 3.375q0.984375 1.125 2.484375 1.125q1.484375 0 2.46875 -1.125q0.984375 -1.125 0.984375 -3.4375q0 -2.1875 -1.0 -3.296875q-0.984375 -1.125 -2.453125 -1.125q-1.5 0 -2.484375 1.125q-0.984375 1.109375 -0.984375 3.359375zm11.287842 -8.03125l0 -2.3125l1.984375 0l0 2.3125l-1.984375 0zm-2.53125 18.46875l0.390625 -1.703125q0.59375 0.15625 0.9375 0.15625q0.609375 0 0.90625 -0.40625q0.296875 -0.390625 0.296875 -2.015625l0 -12.34375l1.984375 0l0 12.390625q0 2.171875 -0.5625 3.015625q-0.71875 1.109375 -2.390625 1.109375q-0.796875 0 -1.5625 -0.203125zm8.877197 0.203125l-1.421875 0q3.296875 -5.3125 3.296875 -10.625q0 -2.078125 -0.46875 -4.125q-0.375 -1.671875 -1.046875 -3.1875q-0.4375 -1.0 -1.78125 -3.328125l1.421875 0q2.078125 2.78125 3.078125 5.578125q0.84375 2.421875 0.84375 5.046875q0 2.984375 -1.140625 5.78125q-1.140625 2.78125 -2.78125 4.859375z" fill-rule="nonzero"/><path fill="#9fc5e8" d="m407.79172 79.893456l0 0c0 -6.024521 4.88385 -10.908356 10.908356 -10.908356l196.07306 0c2.8930664 0 5.6676636 1.1492691 7.713379 3.1949844c2.0457153 2.0457077 3.1949463 4.8202972 3.1949463 7.7133713l0 43.63211c0 6.0245132 -4.883789 10.908348 -10.908325 10.908348l-196.07306 0c-6.0245056 0 -10.908356 -4.883835 -10.908356 -10.908348z" fill-rule="evenodd"/><path stroke="#595959" stroke-width="1.0" stroke-linejoin="round" stroke-linecap="butt" d="m407.79172 79.893456l0 0c0 -6.024521 4.88385 -10.908356 10.908356 -10.908356l196.07306 0c2.8930664 0 5.6676636 1.1492691 7.713379 3.1949844c2.0457153 2.0457077 3.1949463 4.8202972 3.1949463 7.7133713l0 43.63211c0 6.0245132 -4.883789 10.908348 -10.908325 10.908348l-196.07306 0c-6.0245056 0 -10.908356 -4.883835 -10.908356 -10.908348z" fill-rule="evenodd"/><path fill="#000000" d="m423.9402 109.969505l0 -16.21875l2.15625 0l0 14.3125l7.984375 0l0 1.90625l-10.140625 0zm12.444061 -13.921875l0 -2.296875l2.0 0l0 2.296875l-2.0 0zm0 13.921875l0 -11.75l2.0 0l0 11.75l-2.0 0zm5.0335083 0l0 -11.75l1.78125 0l0 1.671875q1.296875 -1.9375 3.75 -1.9375q1.0625 0 1.953125 0.390625q0.890625 0.375 1.328125 1.0q0.4375 0.609375 0.625 1.46875q0.109375 0.546875 0.109375 1.9375l0 7.21875l-2.0 0l0 -7.140625q0 -1.21875 -0.234375 -1.8125q-0.234375 -0.609375 -0.828125 -0.96875q-0.578125 -0.359375 -1.375 -0.359375q-1.28125 0 -2.203125 0.8125q-0.921875 0.796875 -0.921875 3.046875l0 6.421875l-1.984375 0zm20.631561 -3.78125l2.0625 0.25q-0.484375 1.8125 -1.8125 2.8125q-1.3125 0.984375 -3.359375 0.984375q-2.578125 0 -4.09375 -1.578125q-1.5 -1.59375 -1.5 -4.46875q0 -2.953125 1.53125 -4.59375q1.53125 -1.640625 3.953125 -1.640625q2.359375 0 3.84375 1.609375q1.5 1.59375 1.5 4.515625q0 0.171875 0 0.53125l-8.765625 0q0.109375 1.9375 1.09375 2.96875q0.984375 1.015625 2.453125 1.015625q1.09375 0 1.859375 -0.5625q0.78125 -0.578125 1.234375 -1.84375zm-6.53125 -3.21875l6.5625 0q-0.140625 -1.484375 -0.75 -2.21875q-0.953125 -1.15625 -2.46875 -1.15625q-1.375 0 -2.3125 0.921875q-0.9375 0.90625 -1.03125 2.453125zm18.756592 5.546875q-1.109375 0.9375 -2.140625 1.328125q-1.015625 0.390625 -2.1875 0.390625q-1.9375 0 -2.984375 -0.9375q-1.03125 -0.953125 -1.03125 -2.421875q0 -0.859375 0.390625 -1.578125q0.40625 -0.71875 1.03125 -1.140625q0.640625 -0.4375 1.4375 -0.65625q0.59375 -0.15625 1.765625 -0.296875q2.421875 -0.296875 3.5625 -0.6875q0 -0.40625 0 -0.515625q0 -1.21875 -0.5625 -1.71875q-0.765625 -0.671875 -2.265625 -0.671875q-1.40625 0 -2.078125 0.5q-0.671875 0.484375 -0.984375 1.734375l-1.953125 -0.265625q0.265625 -1.25 0.875 -2.015625q0.609375 -0.78125 1.75 -1.1875q1.15625 -0.421875 2.671875 -0.421875q1.515625 0 2.453125 0.359375q0.9375 0.34375 1.375 0.890625q0.453125 0.53125 0.625 1.34375q0.09375 0.515625 0.09375 1.84375l0 2.65625q0 2.78125 0.125 3.515625q0.140625 0.734375 0.515625 1.40625l-2.078125 0q-0.3125 -0.625 -0.40625 -1.453125zm-0.15625 -4.4375q-1.09375 0.4375 -3.265625 0.75q-1.21875 0.171875 -1.734375 0.390625q-0.5 0.21875 -0.78125 0.65625q-0.28125 0.421875 -0.28125 0.9375q0 0.796875 0.609375 1.328125q0.609375 0.53125 1.765625 0.53125q1.140625 0 2.03125 -0.5q0.90625 -0.5 1.328125 -1.375q0.328125 -0.671875 0.328125 -2.0l0 -0.71875zm5.0690613 5.890625l0 -11.75l1.796875 0l0 1.78125q0.6875 -1.25 1.265625 -1.640625q0.578125 -0.40625 1.28125 -0.40625q1.0 0 2.046875 0.640625l-0.6875 1.84375q-0.734375 -0.421875 -1.46875 -0.421875q-0.640625 0 -1.171875 0.390625q-0.515625 0.390625 -0.734375 1.09375q-0.328125 1.0625 -0.328125 2.3125l0 6.15625l-2.0 0zm17.66748 4.765625q-1.640625 -2.078125 -2.78125 -4.859375q-1.140625 -2.796875 -1.140625 -5.78125q0 -2.625 0.84375 -5.046875q1.0 -2.796875 3.078125 -5.578125l1.421875 0q-1.328125 2.3125 -1.765625 3.296875q-0.671875 1.515625 -1.0625 3.1875q-0.46875 2.0625 -0.46875 4.15625q0 5.3125 3.296875 10.625l-1.421875 0zm11.357208 -4.765625l0 -1.484375q-1.109375 1.75 -3.28125 1.75q-1.40625 0 -2.59375 -0.765625q-1.171875 -0.78125 -1.8125 -2.171875q-0.640625 -1.390625 -0.640625 -3.1875q0 -1.765625 0.578125 -3.1875q0.59375 -1.4375 1.765625 -2.203125q1.171875 -0.765625 2.609375 -0.765625q1.0625 0 1.890625 0.453125q0.84375 0.4375 1.359375 1.15625l0 -5.8125l1.984375 0l0 16.21875l-1.859375 0zm-6.28125 -5.859375q0 2.25 0.9375 3.375q0.953125 1.109375 2.25 1.109375q1.3125 0 2.21875 -1.0625q0.921875 -1.0625 0.921875 -3.265625q0 -2.40625 -0.9375 -3.53125q-0.921875 -1.125 -2.296875 -1.125q-1.3125 0 -2.203125 1.078125q-0.890625 1.078125 -0.890625 3.421875zm10.522217 -0.015625q0 -3.265625 1.8125 -4.828125q1.515625 -1.3125 3.703125 -1.3125q2.421875 0 3.953125 1.59375q1.546875 1.578125 1.546875 4.375q0 2.28125 -0.6875 3.578125q-0.671875 1.296875 -1.984375 2.015625q-1.296875 0.71875 -2.828125 0.71875q-2.46875 0 -4.0 -1.578125q-1.515625 -1.578125 -1.515625 -4.5625zm2.046875 0q0 2.25 0.984375 3.375q0.984375 1.125 2.484375 1.125q1.484375 0 2.46875 -1.125q0.984375 -1.125 0.984375 -3.4375q0 -2.1875 -1.0 -3.296875q-0.984375 -1.125 -2.453125 -1.125q-1.5 0 -2.484375 1.125q-0.984375 1.109375 -0.984375 3.359375zm13.459656 5.875l-3.59375 -11.75l2.0625 0l1.875 6.78125l0.6875 2.53125q0.046875 -0.203125 0.609375 -2.4375l1.875 -6.875l2.046875 0l1.75 6.8125l0.59375 2.25l0.671875 -2.265625l2.015625 -6.796875l1.937561 0l-3.671936 11.75l-2.078125 0l-1.859375 -7.03125l-0.453125 -2.0l-2.390625 9.03125l-2.078125 0zm14.205383 0l0 -11.75l1.78125 0l0 1.671875q1.296875 -1.9375 3.75 -1.9375q1.0625 0 1.953125 0.390625q0.890625 0.375 1.328125 1.0q0.4375 0.609375 0.625 1.46875q0.109375 0.546875 0.109375 1.9375l0 7.21875l-2.0 0l0 -7.140625q0 -1.21875 -0.234375 -1.8125q-0.234375 -0.609375 -0.828125 -0.96875q-0.578125 -0.359375 -1.375 -0.359375q-1.28125 0 -2.203125 0.8125q-0.921875 0.796875 -0.921875 3.046875l0 6.421875l-1.984375 0zm10.756592 4.5l0 -1.4375l13.203125 0l0 1.4375l-13.203125 0zm14.444092 0l0 -16.25l1.8125 0l0 1.53125q0.640625 -0.90625 1.4375 -1.34375q0.8125 -0.453125 1.96875 -0.453125q1.5 0 2.640625 0.78125q1.15625 0.765625 1.734375 2.1875q0.59375 1.40625 0.59375 3.078125q0 1.8125 -0.640625 3.265625q-0.640625 1.4375 -1.875 2.203125q-1.234375 0.765625 -2.59375 0.765625q-1.0 0 -1.796875 -0.421875q-0.78125 -0.421875 -1.296875 -1.0625l0 5.71875l-1.984375 0zm1.796875 -10.3125q0 2.265625 0.921875 3.359375q0.921875 1.078125 2.21875 1.078125q1.328125 0 2.265625 -1.125q0.953125 -1.125 0.953125 -3.46875q0 -2.25 -0.921875 -3.359375q-0.921875 -1.125 -2.203125 -1.125q-1.28125 0 -2.265625 1.1875q-0.96875 1.1875 -0.96875 3.453125zm10.772217 5.8125l0 -11.75l1.796875 0l0 1.78125q0.6875 -1.25 1.265625 -1.640625q0.578125 -0.40625 1.28125 -0.40625q1.0 0 2.046875 0.640625l-0.6875 1.84375q-0.734375 -0.421875 -1.46875 -0.421875q-0.640625 0 -1.171875 0.390625q-0.515625 0.390625 -0.734375 1.09375q-0.328125 1.0625 -0.328125 2.3125l0 6.15625l-2.0 0zm6.8259277 -5.875q0 -3.265625 1.8125 -4.828125q1.515625 -1.3125 3.703125 -1.3125q2.421875 0 3.953125 1.59375q1.546875 1.578125 1.546875 4.375q0 2.28125 -0.6875 3.578125q-0.671875 1.296875 -1.984375 2.015625q-1.296875 0.71875 -2.828125 0.71875q-2.46875 0 -4.0 -1.578125q-1.515625 -1.578125 -1.515625 -4.5625zm2.046875 0q0 2.25 0.984375 3.375q0.984375 1.125 2.484375 1.125q1.484375 0 2.46875 -1.125q0.984375 -1.125 0.984375 -3.4375q0 -2.1875 -1.0 -3.296875q-0.984375 -1.125 -2.453125 -1.125q-1.5 0 -2.484375 1.125q-0.984375 1.109375 -0.984375 3.359375zm11.287842 -8.03125l0 -2.3125l1.984375 0l0 2.3125l-1.984375 0zm-2.53125 18.46875l0.390625 -1.703125q0.59375 0.15625 0.9375 0.15625q0.609375 0 0.90625 -0.40625q0.296875 -0.390625 0.296875 -2.015625l0 -12.34375l1.984375 0l0 12.390625q0 2.171875 -0.5625 3.015625q-0.71875 1.109375 -2.390625 1.109375q-0.796875 0 -1.5625 -0.203125zm8.877258 0.203125l-1.421875 0q3.296875 -5.3125 3.296875 -10.625q0 -2.078125 -0.46875 -4.125q-0.375 -1.671875 -1.046875 -3.1875q-0.4375 -1.0 -1.78125 -3.328125l1.421875 0q2.078125 2.78125 3.078125 5.578125q0.84375 2.421875 0.84375 5.046875q0 2.984375 -1.140625 5.78125q-1.140625 2.78125 -2.78125 4.859375z" fill-rule="nonzero"/><path fill="#000000" fill-opacity="0.0" d="m512.85016 483.64795l0.1574707 -81.03937" fill-rule="evenodd"/><path stroke="#595959" stroke-width="1.0" stroke-linejoin="round" stroke-linecap="butt" d="m512.85016 483.64792l0.14587402 -75.03937" fill-rule="evenodd"/><path fill="#595959" stroke="#595959" stroke-width="1.0" stroke-linecap="butt" d="m514.64777 408.61176l-1.6429443 -4.5412903l-1.660553 4.5348816z" fill-rule="evenodd"/><path fill="#000000" fill-opacity="0.0" d="m517.36316 443.90985l266.96527 0.805542l0 -42.121704" fill-rule="evenodd"/><path stroke="#595959" stroke-width="1.0" stroke-linejoin="round" stroke-linecap="butt" d="m517.36316 443.90985l266.96527 0.805542l0 -36.121674" fill-rule="evenodd"/><path fill="#595959" stroke="#595959" stroke-width="1.0" stroke-linecap="butt" d="m785.98016 408.59372l-1.6517334 -4.5381165l-1.6517334 4.5381165z" fill-rule="evenodd"/><path fill="#000000" fill-opacity="0.0" d="m513.0076 337.15976l0.03149414 -130.61418" fill-rule="evenodd"/><path stroke="#595959" stroke-width="1.0" stroke-linejoin="round" stroke-linecap="butt" d="m513.0077 337.15976l0.030029297 -124.61418" fill-rule="evenodd"/><path fill="#595959" stroke="#595959" stroke-width="1.0" stroke-linecap="butt" d="m514.68945 212.54597l-1.6506348 -4.5384827l-1.652832 4.537689z" fill-rule="evenodd"/><path fill="#9fc5e8" d="m720.78656 245.60371l0 0c0 -5.0764923 4.1152954 -9.191788 9.191772 -9.191788l105.836914 0c2.4378052 0 4.775757 0.9684143 6.4995728 2.692215c1.7237549 1.7237854 2.6921997 4.0617523 2.6921997 6.4995728l0 36.766037c0 5.076477 -4.1152954 9.191772 -9.191772 9.191772l-105.836914 0c-5.076477 0 -9.191772 -4.1152954 -9.191772 -9.191772z" fill-rule="evenodd"/><path stroke="#595959" stroke-width="1.0" stroke-linejoin="round" stroke-linecap="butt" d="m720.78656 245.60371l0 0c0 -5.0764923 4.1152954 -9.191788 9.191772 -9.191788l105.836914 0c2.4378052 0 4.775757 0.9684143 6.4995728 2.692215c1.7237549 1.7237854 2.6921997 4.0617523 2.6921997 6.4995728l0 36.766037c0 5.076477 -4.1152954 9.191772 -9.191772 9.191772l-105.836914 0c-5.076477 0 -9.191772 -4.1152954 -9.191772 -9.191772z" fill-rule="evenodd"/><path fill="#000000" d="m757.12823 254.59297l1.78125 -0.15625q0.125 1.0625 0.578125 1.7500153q0.46875 0.6875 1.4375 1.125q0.984375 0.421875 2.21875 0.421875q1.078125 0 1.90625 -0.3125q0.828125 -0.328125 1.234375 -0.890625q0.40625 -0.56251526 0.40625 -1.2343903q0 -0.671875 -0.390625 -1.171875q-0.390625 -0.5 -1.28125 -0.84375q-0.578125 -0.234375 -2.5625 -0.703125q-1.96875 -0.46875 -2.75 -0.890625q-1.03125 -0.53125 -1.53125 -1.328125q-0.5 -0.796875 -0.5 -1.78125q0 -1.09375 0.609375 -2.03125q0.609375 -0.9375 1.796875 -1.421875q1.1875 -0.5 2.625 -0.5q1.59375 0 2.8125 0.515625q1.21875 0.515625 1.859375 1.515625q0.65625 0.984375 0.703125 2.25l-1.8125 0.140625q-0.140625 -1.359375 -0.984375 -2.046875q-0.84375 -0.703125 -2.5 -0.703125q-1.71875 0 -2.515625 0.640625q-0.78125 0.625 -0.78125 1.5q0 0.78125 0.5625 1.28125q0.546875 0.5 2.859375 1.015625q2.3125 0.515625 3.171875 0.90625q1.25 0.578125 1.84375 1.46875q0.59375 0.875 0.59375 2.03125q0 1.1406403 -0.65625 2.1562653q-0.65625 1.015625 -1.890625 1.578125q-1.21875 0.5625 -2.75 0.5625q-1.9375 0 -3.25 -0.5625q-1.3125 -0.578125 -2.0625 -1.71875q-0.75 -1.140625 -0.78125 -2.5625153zm15.667969 4.5937653l-3.171875 -10.375015l1.8125 0l1.65625 5.984375l0.609375 2.2343903q0.046875 -0.171875 0.53125 -2.1406403l1.65625 -6.078125l1.8125 0l1.546875 6.015625l0.515625 1.9843903l0.59375 -2.0000153l1.78125 -6.0l1.703125 0l-3.234375 10.375015l-1.828125 0l-1.65625 -6.2187653l-0.390625 -1.765625l-2.109375 7.9843903l-1.828125 0zm12.537109 -12.29689l0 -2.015625l1.765625 0l0 2.015625l-1.765625 0zm0 12.29689l0 -10.375015l1.765625 0l0 10.375015l-1.765625 0zm3.7246094 -3.09375l1.75 -0.28126526q0.140625 1.0468903 0.8125 1.6093903q0.671875 0.546875 1.875 0.546875q1.203125 0 1.78125 -0.484375q0.59375 -0.5 0.59375 -1.15625q0 -0.59376526 -0.515625 -0.93751526q-0.359375 -0.234375 -1.796875 -0.59375q-1.9375 -0.5 -2.6875 -0.84375q-0.734375 -0.359375 -1.125 -0.984375q-0.390625 -0.640625 -0.390625 -1.40625q0 -0.6875 0.3125 -1.28125q0.328125 -0.59375 0.875 -0.984375q0.40625 -0.296875 1.109375 -0.5q0.71875 -0.21875 1.53125 -0.21875q1.21875 0 2.140625 0.359375q0.921875 0.34375 1.359375 0.953125q0.4375 0.59375 0.609375 1.59375l-1.71875 0.234375q-0.125 -0.796875 -0.6875 -1.234375q-0.5625 -0.453125 -1.578125 -0.453125q-1.21875 0 -1.734375 0.40625q-0.515625 0.390625 -0.515625 0.921875q0 0.34375 0.21875 0.625q0.203125 0.28125 0.671875 0.46875q0.265625 0.09375 1.546875 0.4375q1.875 0.5 2.609375 0.828125q0.734375 0.3125 1.15625 0.921875q0.421875 0.59375 0.421875 1.5000153q0 0.875 -0.515625 1.65625q-0.515625 0.78125 -1.484375 1.203125q-0.96875 0.421875 -2.1875 0.421875q-2.015625 0 -3.078125 -0.84375q-1.0625 -0.84375 -1.359375 -2.484375zm10.703125 3.09375l0 -14.312515l1.765625 0l0 5.125q1.234375 -1.421875 3.109375 -1.421875q1.140625 0 1.984375 0.453125q0.859375 0.453125 1.21875 1.265625q0.375 0.796875 0.375 2.3125l0 6.5781403l-1.75 0l0 -6.5781403q0 -1.3125 -0.578125 -1.90625q-0.578125 -0.609375 -1.609375 -0.609375q-0.78125 0 -1.484375 0.40625q-0.6875 0.40625 -0.984375 1.109375q-0.28125 0.6875 -0.28125 1.90625l0 5.6718903l-1.765625 0z" fill-rule="nonzero"/><path fill="#000000" d="m739.51105 283.18674l5.5 -14.3125l2.046875 0l5.859375 14.3125l-2.15625 0l-1.671875 -4.34375l-5.984375 0l-1.578125 4.34375l-2.015625 0zm4.140625 -5.875l4.84375 0l-1.484375 -3.96875q-0.6875 -1.8125 -1.015625 -2.96875q-0.28125 1.375 -0.78125 2.734375l-1.5625 4.203125zm17.324219 2.078125l1.71875 0.21875q-0.28125 1.796875 -1.453125 2.8125q-1.15625 1.0 -2.859375 1.0q-2.125 0 -3.421875 -1.390625q-1.296875 -1.390625 -1.296875 -3.984375q0 -1.6875 0.546875 -2.9375q0.5625 -1.265625 1.703125 -1.890625q1.140625 -0.640625 2.484375 -0.640625q1.6875 0 2.75 0.859375q1.078125 0.859375 1.390625 2.421875l-1.71875 0.265625q-0.234375 -1.046875 -0.859375 -1.5625q-0.625 -0.53125 -1.5 -0.53125q-1.328125 0 -2.15625 0.953125q-0.828125 0.953125 -0.828125 3.0q0 2.09375 0.796875 3.046875q0.796875 0.9375 2.09375 0.9375q1.03125 0 1.71875 -0.625q0.703125 -0.640625 0.890625 -1.953125zm7.0625 2.21875l0.25 1.5625q-0.734375 0.15625 -1.328125 0.15625q-0.953125 0 -1.484375 -0.296875q-0.515625 -0.3125 -0.734375 -0.796875q-0.21875 -0.5 -0.21875 -2.078125l0 -5.96875l-1.28125 0l0 -1.375l1.28125 0l0 -2.5625l1.75 -1.0625l0 3.625l1.765625 0l0 1.375l-1.765625 0l0 6.0625q0 0.75 0.09375 0.96875q0.09375 0.203125 0.296875 0.34375q0.21875 0.125 0.609375 0.125q0.28125 0 0.765625 -0.078125zm1.7285156 -10.71875l0 -2.015625l1.765625 0l0 2.015625l-1.765625 0zm0 12.296875l0 -10.375l1.765625 0l0 10.375l-1.765625 0zm7.3183594 0l-3.953125 -10.375l1.859375 0l2.234375 6.21875q0.359375 1.0 0.65625 2.078125q0.234375 -0.8125 0.65625 -1.96875l2.296875 -6.328125l1.8125 0l-3.921875 10.375l-1.640625 0zm13.890625 -1.28125q-0.984375 0.828125 -1.890625 1.171875q-0.90625 0.34375 -1.9375 0.34375q-1.703125 0 -2.625 -0.828125q-0.921875 -0.84375 -0.921875 -2.140625q0 -0.765625 0.34375 -1.390625q0.359375 -0.625 0.921875 -1.0q0.5625 -0.390625 1.265625 -0.59375q0.515625 -0.125 1.5625 -0.265625q2.125 -0.25 3.125 -0.59375q0.015625 -0.359375 0.015625 -0.46875q0 -1.0625 -0.5 -1.515625q-0.671875 -0.59375 -2.0 -0.59375q-1.25 0 -1.84375 0.4375q-0.578125 0.4375 -0.859375 1.546875l-1.71875 -0.234375q0.234375 -1.109375 0.765625 -1.78125q0.53125 -0.6875 1.546875 -1.046875q1.015625 -0.375 2.359375 -0.375q1.328125 0 2.15625 0.3125q0.828125 0.3125 1.21875 0.796875q0.390625 0.46875 0.546875 1.1875q0.09375 0.453125 0.09375 1.625l0 2.34375q0 2.453125 0.109375 3.109375q0.109375 0.640625 0.453125 1.234375l-1.84375 0q-0.265625 -0.546875 -0.34375 -1.28125zm-0.15625 -3.921875q-0.953125 0.390625 -2.875 0.65625q-1.078125 0.15625 -1.53125 0.359375q-0.4375 0.1875 -0.6875 0.5625q-0.25 0.375 -0.25 0.84375q0 0.703125 0.53125 1.171875q0.53125 0.46875 1.5625 0.46875q1.015625 0 1.796875 -0.4375q0.796875 -0.453125 1.171875 -1.21875q0.28125 -0.609375 0.28125 -1.765625l0 -0.640625zm8.341797 3.625l0.25 1.5625q-0.734375 0.15625 -1.328125 0.15625q-0.953125 0 -1.484375 -0.296875q-0.515625 -0.3125 -0.734375 -0.796875q-0.21875 -0.5 -0.21875 -2.078125l0 -5.96875l-1.28125 0l0 -1.375l1.28125 0l0 -2.5625l1.75 -1.0625l0 3.625l1.765625 0l0 1.375l-1.765625 0l0 6.0625q0 0.75 0.09375 0.96875q0.09375 0.203125 0.296875 0.34375q0.21875 0.125 0.609375 0.125q0.28125 0 0.765625 -0.078125zm1.7285156 -10.71875l0 -2.015625l1.765625 0l0 2.015625l-1.765625 0zm0 12.296875l0 -10.375l1.765625 0l0 10.375l-1.765625 0zm3.7871094 -5.1875q0 -2.875 1.59375 -4.265625q1.34375 -1.15625 3.265625 -1.15625q2.140625 0 3.484375 1.40625q1.359375 1.40625 1.359375 3.875q0 2.0 -0.59375 3.15625q-0.59375 1.140625 -1.75 1.78125q-1.140625 0.625 -2.5 0.625q-2.1875 0 -3.53125 -1.390625q-1.328125 -1.40625 -1.328125 -4.03125zm1.796875 0q0 2.0 0.859375 2.984375q0.875 0.984375 2.203125 0.984375q1.3125 0 2.171875 -0.984375q0.875 -1.0 0.875 -3.046875q0 -1.921875 -0.875 -2.90625q-0.875 -1.0 -2.171875 -1.0q-1.328125 0 -2.203125 1.0q-0.859375 0.984375 -0.859375 2.96875zm9.966797 5.1875l0 -10.375l1.59375 0l0 1.484375q1.140625 -1.71875 3.296875 -1.71875q0.9375 0 1.71875 0.34375q0.796875 0.328125 1.1875 0.875q0.390625 0.546875 0.546875 1.296875q0.09375 0.5 0.09375 1.71875l0 6.375l-1.765625 0l0 -6.3125q0 -1.078125 -0.203125 -1.609375q-0.203125 -0.53125 -0.734375 -0.84375q-0.515625 -0.3125 -1.21875 -0.3125q-1.125 0 -1.9375 0.71875q-0.8125 0.703125 -0.8125 2.6875l0 5.671875l-1.765625 0z" fill-rule="nonzero"/><path fill="#000000" fill-opacity="0.0" d="m782.89484 337.15976l0 -45.606293" fill-rule="evenodd"/><path stroke="#595959" stroke-width="1.0" stroke-linejoin="round" stroke-linecap="butt" d="m782.89484 337.15976l0 -39.606293" fill-rule="evenodd"/><path fill="#595959" stroke="#595959" stroke-width="1.0" stroke-linecap="butt" d="m784.5466 297.55347l-1.6517334 -4.5381165l-1.6517334 4.5381165z" fill-rule="evenodd"/><path fill="#000000" fill-opacity="0.0" d="m513.03937 171.90552l-0.06298828 -37.480316" fill-rule="evenodd"/><path stroke="#595959" stroke-width="1.0" stroke-linejoin="round" stroke-linecap="butt" d="m513.03937 171.90552l-0.05291748 -31.480331" fill-rule="evenodd"/><path fill="#595959" stroke="#595959" stroke-width="1.0" stroke-linecap="butt" d="m514.6382 140.42241l-1.6593628 -4.535309l-1.644104 4.540863z" fill-rule="evenodd"/><path fill="#000000" fill-opacity="0.0" d="m782.9182 237.0679l-0.36297607 -48.841293l-251.57867 0" fill-rule="evenodd"/><path stroke="#595959" stroke-width="1.0" stroke-linejoin="round" stroke-linecap="butt" d="m782.9182 237.06792l-0.36291504 -48.84131l-245.57874 0" fill-rule="evenodd"/><path fill="#595959" stroke="#595959" stroke-width="1.0" stroke-linecap="butt" d="m536.97656 186.57487l-4.538147 1.6517334l4.538147 1.6517334z" fill-rule="evenodd"/><path fill="#000000" fill-opacity="0.0" d="m257.23578 226.33786l124.97638 -180.72441" fill-rule="evenodd"/><path stroke="#595959" stroke-width="1.0" stroke-linejoin="round" stroke-linecap="butt" stroke-dasharray="4.0,3.0" d="m257.23578 226.33786l124.97638 -180.72441" fill-rule="evenodd"/><path fill="#000000" fill-opacity="0.0" d="m257.23578 307.58392l123.33856 186.80313" fill-rule="evenodd"/><path stroke="#595959" stroke-width="1.0" stroke-linejoin="round" stroke-linecap="butt" stroke-dasharray="4.0,3.0" d="m257.23578 307.58392l123.33856 186.80313" fill-rule="evenodd"/><path fill="#000000" fill-opacity="0.0" d="m495.11813 189.22835l0 0c0 -9.567139 8.023621 -17.32283 17.921234 -17.32283l0 0c4.7530518 0 9.311401 1.8250732 12.672241 5.0737305c3.3609009 3.2486725 5.2490234 7.6548004 5.2490234 12.2491l0 0c0 9.567139 -8.023621 17.32283 -17.921265 17.32283l0 0c-9.897614 0 -17.921234 -7.7556915 -17.921234 -17.32283z" fill-rule="evenodd"/><path stroke="#595959" stroke-width="1.0" stroke-linejoin="round" stroke-linecap="butt" d="m495.11813 189.22835l0 0c0 -9.567139 8.023621 -17.32283 17.921234 -17.32283l0 0c4.7530518 0 9.311401 1.8250732 12.672241 5.0737305c3.3609009 3.2486725 5.2490234 7.6548004 5.2490234 12.2491l0 0c0 9.567139 -8.023621 17.32283 -17.921265 17.32283l0 0c-9.897614 0 -17.921234 -7.7556915 -17.921234 -17.32283z" fill-rule="evenodd"/><path fill="#000000" fill-opacity="0.0" d="m500.36713 201.47745l25.35437 -24.503937" fill-rule="evenodd"/><path stroke="#595959" stroke-width="1.0" stroke-linejoin="round" stroke-linecap="butt" d="m500.36713 201.47745l25.35437 -24.503937" fill-rule="evenodd"/><path fill="#000000" fill-opacity="0.0" d="m500.36713 176.97925l25.35437 24.503937" fill-rule="evenodd"/><path stroke="#595959" stroke-width="1.0" stroke-linejoin="round" stroke-linecap="butt" d="m500.36713 176.97925l25.35437 24.503937" fill-rule="evenodd"/></g></svg>