<svg version="1.1" viewBox="0.0 0.0 960.0 540.0" fill="none" stroke="none" stroke-linecap="square" stroke-miterlimit="10" xmlns:xlink="http://www.w3.org/1999/xlink" xmlns="http://www.w3.org/2000/svg"><clipPath id="g2be4f0f543d_0_183.0"><path d="m0 0l960.0 0l0 540.0l-960.0 0l0 -540.0z" clip-rule="nonzero"/></clipPath><g clip-path="url(#g2be4f0f543d_0_183.0)"><path fill="#ffffff" d="m0 0l960.0 0l0 540.0l-960.0 0z" fill-rule="evenodd"/><path fill="#b6d7a8" d="m335.98294 28.837708l288.03146 0l0 419.2126l-288.03146 0z" fill-rule="evenodd"/><path stroke="#595959" stroke-width="1.0" stroke-linejoin="round" stroke-linecap="butt" d="m335.98294 28.837708l288.03146 0l0 419.2126l-288.03146 0z" fill-rule="evenodd"/><path fill="#c9daf8" d="m366.6373 46.47433l226.74014 0l0 213.66928l-226.74014 0z" fill-rule="evenodd"/><path stroke="#595959" stroke-width="1.0" stroke-linejoin="round" stroke-linecap="butt" d="m366.6373 46.47433l226.74014 0l0 213.66928l-226.74014 0z" fill-rule="evenodd"/><path fill="#000000" d="m376.16855 76.709595l3.125 -0.46875q0.1875 0.90625 0.796875 1.375q0.609375 0.46875 1.703125 0.46875q1.21875 0 1.8125 -0.4375q0.421875 -0.3125 0.421875 -0.828125q0 -0.359375 -0.21875 -0.59375q-0.234375 -0.21875 -1.046875 -0.40625q-3.765625 -0.828125 -4.765625 -1.515625q-1.390625 -0.953125 -1.390625 -2.640625q0 -1.53125 1.203125 -2.5625q1.203125 -1.046875 3.734375 -1.046875q2.40625 0 3.578125 0.796875q1.1875 0.78125 1.625 2.3125l-2.9375 0.546875q-0.1875 -0.6875 -0.71875 -1.046875q-0.515625 -0.375 -1.484375 -0.375q-1.234375 0 -1.765625 0.34375q-0.359375 0.25 -0.359375 0.625q0 0.34375 0.3125 0.578125q0.421875 0.296875 2.90625 0.875q2.484375 0.5625 3.46875 1.375q0.96875 0.828125 0.96875 2.3125q0 1.609375 -1.34375 2.78125q-1.34375 1.15625 -4.0 1.15625q-2.390625 0 -3.796875 -0.96875q-1.390625 -0.984375 -1.828125 -2.65625zm20.506561 -0.375l3.09375 0.515625q-0.59375 1.703125 -1.890625 2.59375q-1.28125 0.890625 -3.21875 0.890625q-3.0625 0 -4.546875 -2.0q-1.15625 -1.609375 -1.15625 -4.046875q0 -2.921875 1.515625 -4.578125q1.53125 -1.65625 3.875 -1.65625q2.625 0 4.140625 1.734375q1.515625 1.734375 1.4375 5.296875l-7.78125 0q0.03125 1.390625 0.75 2.15625q0.71875 0.765625 1.796875 0.765625q0.71875 0 1.21875 -0.390625q0.5 -0.40625 0.765625 -1.28125zm0.171875 -3.140625q-0.03125 -1.359375 -0.703125 -2.0625q-0.65625 -0.703125 -1.609375 -0.703125q-1.015625 0 -1.6875 0.75q-0.65625 0.734375 -0.65625 2.015625l4.65625 0zm5.615967 6.875l0 -16.218746l3.109375 0l0 16.218746l-3.109375 0zm4.9352417 -11.75l1.71875 0l0 -0.890625q0 -1.46875 0.3125 -2.203125q0.328125 -0.734375 1.171875 -1.1875q0.84375 -0.4687462 2.140625 -0.4687462q1.328125 0 2.59375 0.40625l-0.421875 2.1718712q-0.734375 -0.1875 -1.421875 -0.1875q-0.671875 0 -0.96875 0.328125q-0.296875 0.3125 -0.296875 1.203125l0 0.828125l2.328125 0l0 2.453125l-2.328125 0l0 9.296875l-3.109375 0l0 -9.296875l-1.71875 0l0 -2.453125zm7.0759583 16.234375l0 -2.015625l12.921875 0l0 2.015625l-12.921875 0zm16.756592 -12.65625l-2.828125 -0.5q0.484375 -1.703125 1.640625 -2.515625q1.15625 -0.828125 3.453125 -0.828125q2.078125 0 3.09375 0.5q1.015625 0.484375 1.421875 1.25q0.421875 0.75 0.421875 2.78125l-0.03125 3.625q0 1.546875 0.140625 2.28125q0.15625 0.734375 0.578125 1.578125l-3.078125 0q-0.125 -0.3125 -0.296875 -0.921875q-0.078125 -0.265625 -0.109375 -0.359375q-0.796875 0.765625 -1.71875 1.15625q-0.90625 0.390625 -1.921875 0.390625q-1.828125 0 -2.875 -0.984375q-1.03125 -0.984375 -1.03125 -2.484375q0 -1.0 0.46875 -1.78125q0.484375 -0.78125 1.328125 -1.1875q0.859375 -0.421875 2.484375 -0.734375q2.171875 -0.40625 3.015625 -0.765625l0 -0.296875q0 -0.90625 -0.453125 -1.28125q-0.4375 -0.390625 -1.65625 -0.390625q-0.828125 0 -1.296875 0.328125q-0.46875 0.328125 -0.75 1.140625zm4.15625 2.53125q-0.59375 0.203125 -1.890625 0.484375q-1.296875 0.265625 -1.6875 0.53125q-0.609375 0.4375 -0.609375 1.09375q0 0.65625 0.484375 1.140625q0.484375 0.46875 1.234375 0.46875q0.84375 0 1.609375 -0.5625q0.5625 -0.40625 0.734375 -1.015625q0.125 -0.40625 0.125 -1.515625l0 -0.625zm11.506561 -6.109375l0 2.484375l-2.125 0l0 4.734375q0 1.4375 0.0625 1.671875q0.0625 0.234375 0.265625 0.390625q0.21875 0.15625 0.53125 0.15625q0.4375 0 1.25 -0.296875l0.265625 2.40625q-1.078125 0.46875 -2.453125 0.46875q-0.84375 0 -1.515625 -0.28125q-0.671875 -0.28125 -1.0 -0.71875q-0.3125 -0.453125 -0.421875 -1.21875q-0.109375 -0.546875 -0.109375 -2.203125l0 -5.109375l-1.421875 0l0 -2.484375l1.421875 0l0 -2.328125l3.125 -1.8125l0 4.140625l2.125 0zm7.5447083 0l0 2.484375l-2.125 0l0 4.734375q0 1.4375 0.0625 1.671875q0.0625 0.234375 0.265625 0.390625q0.21875 0.15625 0.53125 0.15625q0.4375 0 1.25 -0.296875l0.265625 2.40625q-1.078125 0.46875 -2.453125 0.46875q-0.84375 0 -1.515625 -0.28125q-0.671875 -0.28125 -1.0 -0.71875q-0.3125 -0.453125 -0.421875 -1.21875q-0.109375 -0.546875 -0.109375 -2.203125l0 -5.109375l-1.421875 0l0 -2.484375l1.421875 0l0 -2.328125l3.125 -1.8125l0 4.140625l2.125 0zm12.841583 11.75l-3.109375 0l0 -6.0q0 -1.90625 -0.203125 -2.453125q-0.1875 -0.5625 -0.640625 -0.875q-0.453125 -0.3125 -1.078125 -0.3125q-0.8125 0 -1.453125 0.453125q-0.640625 0.4375 -0.875 1.171875q-0.234375 0.71875 -0.234375 2.6875l0 5.328125l-3.109375 0l0 -11.75l2.875 0l0 1.734375q1.546875 -2.0 3.875 -2.0q1.03125 0 1.875 0.375q0.859375 0.375 1.296875 0.953125q0.4375 0.5625 0.609375 1.296875q0.171875 0.734375 0.171875 2.09375l0 7.296875z" fill-rule="nonzero"/><path fill="#000000" d="m395.95868 107.06897l0 -14.3125l2.75 0l0 14.3125l-2.75 0zm7.6035156 -7.203125l-2.484375 -0.453125q0.421875 -1.5 1.4375 -2.21875q1.03125 -0.734375 3.046875 -0.734375q1.84375 0 2.734375 0.4375q0.90625 0.4375 1.265625 1.109375q0.375 0.65625 0.375 2.453125l-0.03125 3.203125q0 1.359375 0.125 2.015625q0.140625 0.640625 0.5 1.390625l-2.71875 0q-0.109375 -0.28125 -0.265625 -0.8125q-0.0625 -0.25 -0.09375 -0.328125q-0.703125 0.6875 -1.515625 1.03125q-0.796875 0.34375 -1.703125 0.34375q-1.59375 0 -2.515625 -0.859375q-0.921875 -0.875 -0.921875 -2.203125q0 -0.890625 0.40625 -1.578125q0.421875 -0.6875 1.171875 -1.046875q0.765625 -0.375 2.203125 -0.640625q1.921875 -0.359375 2.65625 -0.671875l0 -0.28125q0 -0.78125 -0.390625 -1.109375q-0.390625 -0.34375 -1.46875 -0.34375q-0.734375 0 -1.15625 0.28125q-0.40625 0.28125 -0.65625 1.015625zm3.671875 2.21875q-0.53125 0.171875 -1.671875 0.421875q-1.140625 0.25 -1.484375 0.484375q-0.546875 0.375 -0.546875 0.96875q0 0.5625 0.421875 0.984375q0.4375 0.421875 1.109375 0.421875q0.734375 0 1.40625 -0.484375q0.5 -0.375 0.65625 -0.90625q0.109375 -0.359375 0.109375 -1.34375l0 -0.546875zm4.107422 -5.390625l2.921875 0l2.46875 7.359375l2.421875 -7.359375l2.84375 0l-3.65625 9.984375l-0.65625 1.8125q-0.359375 0.90625 -0.6875 1.375q-0.328125 0.484375 -0.75 0.78125q-0.421875 0.296875 -1.046875 0.453125q-0.625 0.171875 -1.40625 0.171875q-0.78125 0 -1.546875 -0.15625l-0.25 -2.15625q0.65625 0.125 1.171875 0.125q0.953125 0 1.40625 -0.5625q0.46875 -0.546875 0.703125 -1.421875l-3.9375 -10.40625zm18.419922 7.078125l2.734375 0.453125q-0.515625 1.5 -1.65625 2.296875q-1.140625 0.78125 -2.84375 0.78125q-2.71875 0 -4.015625 -1.765625q-1.015625 -1.421875 -1.015625 -3.578125q0 -2.578125 1.34375 -4.03125q1.34375 -1.46875 3.40625 -1.46875q2.3125 0 3.640625 1.53125q1.34375 1.53125 1.296875 4.6875l-6.875 0q0.03125 1.21875 0.65625 1.90625q0.640625 0.671875 1.578125 0.671875q0.65625 0 1.09375 -0.34375q0.4375 -0.359375 0.65625 -1.140625zm0.15625 -2.78125q-0.03125 -1.1875 -0.625 -1.796875q-0.578125 -0.625 -1.40625 -0.625q-0.90625 0 -1.484375 0.640625q-0.59375 0.65625 -0.578125 1.78125l4.09375 0zm7.591797 6.078125l-2.75 0l0 -10.375l2.5625 0l0 1.484375q0.640625 -1.046875 1.15625 -1.375q0.53125 -0.34375 1.203125 -0.34375q0.9375 0 1.796875 0.515625l-0.84375 2.390625q-0.6875 -0.4375 -1.28125 -0.4375q-0.578125 0 -0.984375 0.3125q-0.40625 0.3125 -0.640625 1.15625q-0.21875 0.828125 -0.21875 3.46875l0 3.203125zm14.595703 0l-2.75 0l0 -5.296875q0 -1.671875 -0.171875 -2.15625q-0.171875 -0.5 -0.578125 -0.765625q-0.390625 -0.28125 -0.953125 -0.28125q-0.703125 0 -1.28125 0.390625q-0.5625 0.390625 -0.78125 1.03125q-0.203125 0.640625 -0.203125 2.375l0 4.703125l-2.734375 0l0 -10.375l2.546875 0l0 1.53125q1.359375 -1.765625 3.421875 -1.765625q0.90625 0 1.65625 0.328125q0.75 0.328125 1.125 0.84375q0.390625 0.5 0.546875 1.15625q0.15625 0.640625 0.15625 1.828125l0 6.453125zm2.1386719 -5.328125q0 -1.375 0.671875 -2.65625q0.6875 -1.28125 1.921875 -1.953125q1.234375 -0.671875 2.75 -0.671875q2.359375 0 3.859375 1.53125q1.5 1.53125 1.5 3.859375q0 2.359375 -1.515625 3.90625q-1.515625 1.546875 -3.828125 1.546875q-1.421875 0 -2.71875 -0.640625q-1.28125 -0.65625 -1.96875 -1.890625q-0.671875 -1.25 -0.671875 -3.03125zm2.8125 0.140625q0 1.546875 0.734375 2.375q0.734375 0.8125 1.8125 0.8125q1.078125 0 1.796875 -0.8125q0.734375 -0.828125 0.734375 -2.390625q0 -1.53125 -0.734375 -2.34375q-0.71875 -0.828125 -1.796875 -0.828125q-1.078125 0 -1.8125 0.828125q-0.734375 0.8125 -0.734375 2.359375zm12.669922 5.1875l-2.75 0l0 -10.375l2.5625 0l0 1.484375q0.640625 -1.046875 1.15625 -1.375q0.53125 -0.34375 1.203125 -0.34375q0.9375 0 1.796875 0.515625l-0.84375 2.390625q-0.6875 -0.4375 -1.28125 -0.4375q-0.578125 0 -0.984375 0.3125q-0.40625 0.3125 -0.640625 1.15625q-0.21875 0.828125 -0.21875 3.46875l0 3.203125zm4.955078 -10.375l2.53125 0l0 1.421875q1.359375 -1.65625 3.234375 -1.65625q0.984375 0 1.71875 0.421875q0.734375 0.40625 1.203125 1.234375q0.6875 -0.828125 1.46875 -1.234375q0.796875 -0.421875 1.703125 -0.421875q1.140625 0 1.921875 0.46875q0.796875 0.46875 1.1875 1.359375q0.28125 0.671875 0.28125 2.15625l0 6.625l-2.75 0l0 -5.921875q0 -1.546875 -0.28125 -2.0q-0.375 -0.578125 -1.171875 -0.578125q-0.578125 0 -1.09375 0.359375q-0.5 0.34375 -0.71875 1.015625q-0.21875 0.671875 -0.21875 2.140625l0 4.984375l-2.75 0l0 -5.6875q0 -1.515625 -0.15625 -1.953125q-0.140625 -0.4375 -0.453125 -0.640625q-0.296875 -0.21875 -0.828125 -0.21875q-0.625 0 -1.140625 0.34375q-0.5 0.328125 -0.734375 0.984375q-0.21875 0.640625 -0.21875 2.125l0 5.046875l-2.734375 0l0 -10.375zm16.361328 14.328125l0 -1.78125l11.40625 0l0 1.78125l-11.40625 0zm19.529297 0l0 -5.21875q-0.546875 0.6875 -1.34375 1.09375q-0.796875 0.40625 -1.734375 0.40625q-1.765625 0 -2.90625 -1.328125q-1.34375 -1.546875 -1.34375 -4.203125q0 -2.5 1.265625 -3.90625q1.265625 -1.40625 3.140625 -1.40625q1.03125 0 1.78125 0.4375q0.765625 0.4375 1.34375 1.328125l0 -1.53125l2.53125 0l0 14.328125l-2.734375 0zm0.078125 -9.265625q0 -1.59375 -0.65625 -2.359375q-0.640625 -0.78125 -1.609375 -0.78125q-1.0 0 -1.671875 0.796875q-0.671875 0.78125 -0.671875 2.5q0 1.703125 0.640625 2.46875q0.65625 0.75 1.59375 0.75q0.953125 0 1.65625 -0.84375q0.71875 -0.859375 0.71875 -2.53125zm5.263672 5.3125l0 -14.3125l2.734375 0l0 7.59375l3.21875 -3.65625l3.375 0l-3.546875 3.796875l3.796875 6.578125l-2.953125 0l-2.609375 -4.65625l-1.28125 1.328125l0 3.328125l-2.734375 0zm14.060547 0l-4.171875 -10.375l2.875 0l1.953125 5.296875l0.578125 1.765625q0.21875 -0.671875 0.28125 -0.890625q0.125 -0.4375 0.28125 -0.875l1.984375 -5.296875l2.8125 0l-4.109375 10.375l-2.484375 0z" fill-rule="nonzero"/><path fill="#000000" d="m418.29123 130.22897l0 -13.359383l1.640625 0l0 13.359383l-1.640625 0zm10.504181 -1.1875q-0.921875 0.765625 -1.765625 1.09375q-0.828125 0.3125 -1.796875 0.3125q-1.59375 0 -2.453125 -0.78125q-0.859375 -0.78125 -0.859375 -1.9843826q0 -0.71875 0.328125 -1.296875q0.328125 -0.59375 0.84375 -0.9375q0.53125 -0.359375 1.1875 -0.546875q0.46875 -0.125 1.453125 -0.25q1.984375 -0.234375 2.921875 -0.5625q0.015625 -0.34375 0.015625 -0.421875q0 -1.0 -0.46875 -1.421875q-0.625 -0.546875 -1.875 -0.546875q-1.15625 0 -1.703125 0.40625q-0.546875 0.40625 -0.8125 1.421875l-1.609375 -0.21875q0.21875 -1.015625 0.71875 -1.640625q0.5 -0.640625 1.453125 -0.984375q0.953125 -0.34375 2.1875 -0.34375q1.25 0 2.015625 0.296875q0.78125 0.28125 1.140625 0.734375q0.375 0.4375 0.515625 1.109375q0.078125 0.421875 0.078125 1.515625l0 2.1875q0 2.2812576 0.109375 2.8906326q0.109375 0.59375 0.40625 1.15625l-1.703125 0q-0.265625 -0.515625 -0.328125 -1.1875zm-0.140625 -3.6718826q-0.890625 0.375 -2.671875 0.625q-1.015625 0.140625 -1.4375 0.328125q-0.421875 0.1875 -0.65625 0.53125q-0.21875 0.34375 -0.21875 0.78125q0 0.6562576 0.5 1.0937576q0.5 0.4375 1.453125 0.4375q0.9375 0 1.671875 -0.40625q0.75 -0.421875 1.09375 -1.1406326q0.265625 -0.5625 0.265625 -1.640625l0 -0.609375zm4.1257324 8.578133l-0.1875 -1.53125q0.546875 0.140625 0.9375 0.140625q0.546875 0 0.875 -0.1875q0.328125 -0.171875 0.546875 -0.5q0.15625 -0.25 0.5 -1.21875q0.046875 -0.140625 0.140625 -0.40625l-3.671875 -9.687508l1.765625 0l2.015625 5.59375q0.390625 1.078125 0.703125 2.2500076q0.28125 -1.1250076 0.671875 -2.2031326l2.078125 -5.640625l1.640625 0l-3.6875 9.828133q-0.59375 1.609375 -0.921875 2.203125q-0.4375 0.8125 -1.0 1.1875q-0.5625 0.375 -1.34375 0.375q-0.484375 0 -1.0625 -0.203125zm16.03125 -6.8281326l1.6875 0.203125q-0.40625 1.4843826 -1.484375 2.3125076q-1.078125 0.8125 -2.765625 0.8125q-2.125 0 -3.375 -1.296875q-1.234375 -1.3125076 -1.234375 -3.6718826q0 -2.453125 1.25 -3.796875q1.265625 -1.34375 3.265625 -1.34375q1.9375 0 3.15625 1.328125q1.234375 1.3125 1.234375 3.703125q0 0.15625 0 0.4375l-7.21875 0q0.09375 1.59375 0.90625 2.4531326q0.8125 0.84375 2.015625 0.84375q0.90625 0 1.546875 -0.46875q0.640625 -0.484375 1.015625 -1.5156326zm-5.390625 -2.65625l5.40625 0q-0.109375 -1.21875 -0.625 -1.828125q-0.78125 -0.953125 -2.03125 -0.953125q-1.125 0 -1.90625 0.765625q-0.765625 0.75 -0.84375 2.015625zm9.125702 5.7656326l0 -9.671883l1.46875 0l0 1.46875q0.5625 -1.03125 1.03125 -1.359375q0.484375 -0.328125 1.0625 -0.328125q0.828125 0 1.6875 0.53125l-0.5625 1.515625q-0.609375 -0.359375 -1.203125 -0.359375q-0.546875 0 -0.96875 0.328125q-0.421875 0.328125 -0.609375 0.890625q-0.28125 0.875 -0.28125 1.921875l0 5.0625076l-1.625 0zm4.712677 3.703125l0 -1.1875l10.859375 0l0 1.1875l-10.859375 0zm11.891357 -3.703125l0 -9.671883l1.46875 0l0 1.375q1.0625 -1.59375 3.078125 -1.59375q0.875 0 1.609375 0.3125q0.734375 0.3125 1.09375 0.828125q0.375 0.5 0.515625 1.203125q0.09375 0.453125 0.09375 1.59375l0 5.9531326l-1.640625 0l0 -5.8906326q0 -1.0 -0.203125 -1.484375q-0.1875 -0.5 -0.671875 -0.796875q-0.484375 -0.296875 -1.140625 -0.296875q-1.046875 0 -1.8125 0.671875q-0.75 0.65625 -0.75 2.515625l0 5.2812576l-1.640625 0zm9.766327 -4.8437576q0 -2.6875 1.484375 -3.96875q1.25 -1.078125 3.046875 -1.078125q2.0 0 3.265625 1.3125q1.265625 1.296875 1.265625 3.609375q0 1.859375 -0.5625 2.9375076q-0.5625 1.0625 -1.640625 1.65625q-1.0625 0.59375 -2.328125 0.59375q-2.03125 0 -3.28125 -1.296875q-1.25 -1.3125076 -1.25 -3.7656326zm1.6875 0q0 1.859375 0.796875 2.7968826q0.8125 0.921875 2.046875 0.921875q1.21875 0 2.03125 -0.921875q0.8125 -0.9375076 0.8125 -2.8437576q0 -1.796875 -0.8125 -2.71875q-0.8125 -0.921875 -2.03125 -0.921875q-1.234375 0 -2.046875 0.921875q-0.796875 0.90625 -0.796875 2.765625zm9.281982 4.8437576l0 -9.671883l1.46875 0l0 1.46875q0.5625 -1.03125 1.03125 -1.359375q0.484375 -0.328125 1.0625 -0.328125q0.828125 0 1.6875 0.53125l-0.5625 1.515625q-0.609375 -0.359375 -1.203125 -0.359375q-0.546875 0 -0.96875 0.328125q-0.421875 0.328125 -0.609375 0.890625q-0.28125 0.875 -0.28125 1.921875l0 5.0625076l-1.625 0zm6.228302 0l0 -9.671883l1.46875 0l0 1.359375q0.453125 -0.71875 1.203125 -1.140625q0.765625 -0.4375 1.71875 -0.4375q1.078125 0 1.765625 0.453125q0.6875 0.4375 0.96875 1.234375q1.15625 -1.6875 2.984375 -1.6875q1.453125 0 2.21875 0.796875q0.78125 0.796875 0.78125 2.453125l0 6.6406326l-1.640625 0l0 -6.0937576q0 -0.984375 -0.15625 -1.40625q-0.15625 -0.4375 -0.578125 -0.703125q-0.421875 -0.265625 -0.984375 -0.265625q-1.015625 0 -1.6875 0.6875q-0.671875 0.671875 -0.671875 2.15625l0 5.6250076l-1.640625 0l0 -6.2812576q0 -1.09375 -0.40625 -1.640625q-0.40625 -0.546875 -1.3125 -0.546875q-0.6875 0 -1.28125 0.359375q-0.59375 0.359375 -0.859375 1.0625q-0.25 0.703125 -0.25 2.03125l0 5.0156326l-1.640625 0zm14.025177 3.703125l0 -1.1875l10.8593445 0l0 1.1875l-10.8593445 0zm13.672577 -3.703125l-2.96875 -9.671883l1.703125 0l1.53125 5.578125l0.578125 2.0781326q0.046875 -0.15625 0.5 -2.0000076l1.546875 -5.65625l1.6875 0l1.4375 5.609375l0.484375 1.8437576l0.5625 -1.8593826l1.65625 -5.59375l1.59375 0l-3.03125 9.671883l-1.703125 0l-1.53125 -5.7968826l-0.375 -1.640625l-1.953125 7.4375076l-1.71875 0zm18.316711 -3.1093826l1.6875 0.203125q-0.40625 1.4843826 -1.484375 2.3125076q-1.078125 0.8125 -2.765625 0.8125q-2.125 0 -3.375 -1.296875q-1.234375 -1.3125076 -1.234375 -3.6718826q0 -2.453125 1.25 -3.796875q1.265625 -1.34375 3.265625 -1.34375q1.9375 0 3.15625 1.328125q1.234375 1.3125 1.234375 3.703125q0 0.15625 0 0.4375l-7.21875 0q0.09375 1.59375 0.90625 2.4531326q0.8125 0.84375 2.015625 0.84375q0.90625 0 1.546875 -0.46875q0.640625 -0.484375 1.015625 -1.5156326zm-5.390625 -2.65625l5.40625 0q-0.109375 -1.21875 -0.625 -1.828125q-0.78125 -0.953125 -2.03125 -0.953125q-1.125 0 -1.90625 0.765625q-0.765625 0.75 -0.84375 2.015625zm9.141357 -5.703125l0 -1.890625l1.640625 0l0 1.890625l-1.640625 0zm0 11.468758l0 -9.671883l1.640625 0l0 9.671883l-1.640625 0zm3.8322754 0.796875l1.59375 0.234375q0.109375 0.75 0.5625 1.078125q0.609375 0.453125 1.671875 0.453125q1.140625 0 1.75 -0.453125q0.625 -0.453125 0.84375 -1.265625q0.125 -0.5 0.109375 -2.109375q-1.0625 1.265625 -2.671875 1.265625q-2.0 0 -3.09375 -1.4375q-1.09375 -1.4375076 -1.09375 -3.4531326q0 -1.390625 0.5 -2.5625q0.515625 -1.171875 1.453125 -1.796875q0.953125 -0.640625 2.25 -0.640625q1.703125 0 2.8125 1.375l0 -1.15625l1.515625 0l0 8.359383q0 2.265625 -0.46875 3.203125q-0.453125 0.9375 -1.453125 1.484375q-0.984375 0.546875 -2.453125 0.546875q-1.71875 0 -2.796875 -0.78125q-1.0625 -0.765625 -1.03125 -2.34375zm1.359375 -5.8125076q0 1.90625 0.75 2.78125q0.765625 0.8750076 1.90625 0.8750076q1.125 0 1.890625 -0.859375q0.765625 -0.8750076 0.765625 -2.7343826q0 -1.78125 -0.796875 -2.671875q-0.78125 -0.90625 -1.890625 -0.90625q-1.09375 0 -1.859375 0.890625q-0.765625 0.875 -0.765625 2.625zm9.328857 5.0156326l0 -13.359383l1.640625 0l0 4.796875q1.140625 -1.328125 2.890625 -1.328125q1.078125 0 1.859375 0.421875q0.796875 0.421875 1.140625 1.171875q0.34375 0.75 0.34375 2.171875l0 6.1250076l-1.640625 0l0 -6.1250076q0 -1.234375 -0.53125 -1.796875q-0.53125 -0.5625 -1.515625 -0.5625q-0.71875 0 -1.359375 0.390625q-0.640625 0.375 -0.921875 1.015625q-0.265625 0.640625 -0.265625 1.78125l0 5.2968826l-1.640625 0zm13.953857 -1.46875l0.234375 1.453125q-0.6875 0.140625 -1.234375 0.140625q-0.890625 0 -1.390625 -0.28125q-0.484375 -0.28125 -0.6875 -0.734375q-0.203125 -0.46875 -0.203125 -1.9375076l0 -5.578125l-1.203125 0l0 -1.265625l1.203125 0l0 -2.390625l1.625 -0.984375l0 3.375l1.65625 0l0 1.265625l-1.65625 0l0 5.671875q0 0.6875076 0.078125 0.8906326q0.09375 0.203125 0.28125 0.328125q0.203125 0.109375 0.578125 0.109375q0.265625 0 0.71875 -0.0625z" fill-rule="nonzero"/><path fill="#000000" d="m424.49435 155.9321l0 -4.734375q-0.375 0.546875 -1.0625 0.90625q-0.6875 0.34375 -1.46875 0.34375q-1.71875 0 -2.96875 -1.375q-1.234375 -1.375 -1.234375 -3.765625q0 -1.46875 0.5 -2.625q0.515625 -1.15625 1.46875 -1.75q0.96875 -0.59375 2.109375 -0.59375q1.796875 0 2.828125 1.515625l0 -1.296875l1.46875 0l0 13.375l-1.640625 0zm-5.046875 -8.5625q0 1.859375 0.78125 2.796875q0.78125 0.9375 1.875 0.9375q1.046875 0 1.796875 -0.890625q0.765625 -0.890625 0.765625 -2.703125q0 -1.9375 -0.796875 -2.90625q-0.796875 -0.96875 -1.875 -0.96875q-1.0625 0 -1.8125 0.90625q-0.734375 0.90625 -0.734375 2.828125zm15.594452 4.859375l0 -1.421875q-1.125 1.640625 -3.0625 1.640625q-0.859375 0 -1.609375 -0.328125q-0.734375 -0.328125 -1.09375 -0.828125q-0.359375 -0.5 -0.5 -1.21875q-0.109375 -0.46875 -0.109375 -1.53125l0 -5.984375l1.640625 0l0 5.359375q0 1.28125 0.109375 1.734375q0.15625 0.640625 0.65625 1.015625q0.5 0.375 1.234375 0.375q0.734375 0 1.375 -0.375q0.65625 -0.390625 0.921875 -1.03125q0.265625 -0.65625 0.265625 -1.890625l0 -5.1875l1.640625 0l0 9.671875l-1.46875 0zm10.672607 -3.109375l1.6875 0.203125q-0.40625 1.484375 -1.484375 2.3125q-1.078125 0.8125 -2.765625 0.8125q-2.125 0 -3.375 -1.296875q-1.234375 -1.3125 -1.234375 -3.671875q0 -2.453125 1.25 -3.796875q1.265625 -1.34375 3.265625 -1.34375q1.9375 0 3.15625 1.328125q1.234375 1.3125 1.234375 3.703125q0 0.15625 0 0.4375l-7.21875 0q0.09375 1.59375 0.90625 2.453125q0.8125 0.84375 2.015625 0.84375q0.90625 0 1.546875 -0.46875q0.640625 -0.484375 1.015625 -1.515625zm-5.390625 -2.65625l5.40625 0q-0.109375 -1.21875 -0.625 -1.828125q-0.78125 -0.953125 -2.03125 -0.953125q-1.125 0 -1.90625 0.765625q-0.765625 0.75 -0.84375 2.015625zm9.125702 5.765625l0 -9.671875l1.46875 0l0 1.46875q0.5625 -1.03125 1.03125 -1.359375q0.484375 -0.328125 1.0625 -0.328125q0.828125 0 1.6875 0.53125l-0.5625 1.515625q-0.609375 -0.359375 -1.203125 -0.359375q-0.546875 0 -0.96875 0.328125q-0.421875 0.328125 -0.609375 0.890625q-0.28125 0.875 -0.28125 1.921875l0 5.0625l-1.625 0zm6.150177 3.71875l-0.1875 -1.53125q0.546875 0.140625 0.9375 0.140625q0.546875 0 0.875 -0.1875q0.328125 -0.171875 0.546875 -0.5q0.15625 -0.25 0.5 -1.21875q0.046875 -0.140625 0.140625 -0.40625l-3.671875 -9.6875l1.765625 0l2.015625 5.59375q0.390625 1.078125 0.703125 2.25q0.28125 -1.125 0.671875 -2.203125l2.078125 -5.640625l1.640625 0l-3.6875 9.828125q-0.59375 1.609375 -0.921875 2.203125q-0.4375 0.8125 -1.0 1.1875q-0.5625 0.375 -1.34375 0.375q-0.484375 0 -1.0625 -0.203125zm7.890625 -0.015625l0 -1.1875l10.859375 0l0 1.1875l-10.859375 0zm13.672607 -3.703125l-2.96875 -9.671875l1.703125 0l1.53125 5.578125l0.578125 2.078125q0.046875 -0.15625 0.5 -2.0l1.546875 -5.65625l1.6875 0l1.4375 5.609375l0.484375 1.84375l0.5625 -1.859375l1.65625 -5.59375l1.59375 0l-3.03125 9.671875l-1.703125 0l-1.53125 -5.796875l-0.375 -1.640625l-1.953125 7.4375l-1.71875 0zm18.31668 -3.109375l1.6875 0.203125q-0.40625 1.484375 -1.484375 2.3125q-1.078125 0.8125 -2.765625 0.8125q-2.125 0 -3.375 -1.296875q-1.234375 -1.3125 -1.234375 -3.671875q0 -2.453125 1.25 -3.796875q1.265625 -1.34375 3.265625 -1.34375q1.9375 0 3.15625 1.328125q1.234375 1.3125 1.234375 3.703125q0 0.15625 0 0.4375l-7.21875 0q0.09375 1.59375 0.90625 2.453125q0.8125 0.84375 2.015625 0.84375q0.90625 0 1.546875 -0.46875q0.640625 -0.484375 1.015625 -1.515625zm-5.390625 -2.65625l5.40625 0q-0.109375 -1.21875 -0.625 -1.828125q-0.78125 -0.953125 -2.03125 -0.953125q-1.125 0 -1.90625 0.765625q-0.765625 0.75 -0.84375 2.015625zm9.141357 -5.703125l0 -1.890625l1.640625 0l0 1.890625l-1.640625 0zm0 11.46875l0 -9.671875l1.640625 0l0 9.671875l-1.640625 0zm3.832306 0.796875l1.59375 0.234375q0.109375 0.75 0.5625 1.078125q0.609375 0.453125 1.671875 0.453125q1.140625 0 1.75 -0.453125q0.625 -0.453125 0.84375 -1.265625q0.125 -0.5 0.109375 -2.109375q-1.0625 1.265625 -2.671875 1.265625q-2.0 0 -3.09375 -1.4375q-1.09375 -1.4375 -1.09375 -3.453125q0 -1.390625 0.5 -2.5625q0.515625 -1.171875 1.453125 -1.796875q0.953125 -0.640625 2.25 -0.640625q1.703125 0 2.8125 1.375l0 -1.15625l1.515625 0l0 8.359375q0 2.265625 -0.46875 3.203125q-0.453125 0.9375 -1.453125 1.484375q-0.984375 0.546875 -2.453125 0.546875q-1.71875 0 -2.796875 -0.78125q-1.0625 -0.765625 -1.03125 -2.34375zm1.359375 -5.8125q0 1.90625 0.75 2.78125q0.765625 0.875 1.90625 0.875q1.125 0 1.890625 -0.859375q0.765625 -0.875 0.765625 -2.734375q0 -1.78125 -0.796875 -2.671875q-0.78125 -0.90625 -1.890625 -0.90625q-1.09375 0 -1.859375 0.890625q-0.765625 0.875 -0.765625 2.625zm9.328857 5.015625l0 -13.359375l1.640625 0l0 4.796875q1.140625 -1.328125 2.890625 -1.328125q1.078125 0 1.859375 0.421875q0.796875 0.421875 1.140625 1.171875q0.34375 0.75 0.34375 2.171875l0 6.125l-1.640625 0l0 -6.125q0 -1.234375 -0.53125 -1.796875q-0.53125 -0.5625 -1.515625 -0.5625q-0.71875 0 -1.359375 0.390625q-0.640625 0.375 -0.921875 1.015625q-0.265625 0.640625 -0.265625 1.78125l0 5.296875l-1.640625 0zm13.953857 -1.46875l0.234375 1.453125q-0.6875 0.140625 -1.234375 0.140625q-0.890625 0 -1.390625 -0.28125q-0.484375 -0.28125 -0.6875 -0.734375q-0.203125 -0.46875 -0.203125 -1.9375l0 -5.578125l-1.203125 0l0 -1.265625l1.203125 0l0 -2.390625l1.625 -0.984375l0 3.375l1.65625 0l0 1.265625l-1.65625 0l0 5.671875q0 0.6875 0.078125 0.890625q0.09375 0.203125 0.28125 0.328125q0.203125 0.109375 0.578125 0.109375q0.265625 0 0.71875 -0.0625z" fill-rule="nonzero"/><path fill="#000000" d="m418.3381 174.22897l0 -13.359375l1.640625 0l0 7.625l3.890625 -3.9375l2.109375 0l-3.6875 3.59375l4.0625 6.078125l-2.015625 0l-3.203125 -4.953125l-1.15625 1.125l0 3.828125l-1.640625 0zm15.953125 -3.109375l1.6875 0.203125q-0.40625 1.484375 -1.484375 2.3125q-1.078125 0.8125 -2.765625 0.8125q-2.125 0 -3.375 -1.296875q-1.234375 -1.3125 -1.234375 -3.671875q0 -2.453125 1.25 -3.796875q1.265625 -1.34375 3.265625 -1.34375q1.9375 0 3.15625 1.328125q1.234375 1.3125 1.234375 3.703125q0 0.15625 0 0.4375l-7.21875 0q0.09375 1.59375 0.90625 2.453125q0.8125 0.84375 2.015625 0.84375q0.90625 0 1.546875 -0.46875q0.640625 -0.484375 1.015625 -1.515625zm-5.390625 -2.65625l5.40625 0q-0.109375 -1.21875 -0.625 -1.828125q-0.78125 -0.953125 -2.03125 -0.953125q-1.125 0 -1.90625 0.765625q-0.765625 0.75 -0.84375 2.015625zm9.063202 9.484375l-0.1875 -1.53125q0.546875 0.140625 0.9375 0.140625q0.546875 0 0.875 -0.1875q0.328125 -0.171875 0.546875 -0.5q0.15625 -0.25 0.5 -1.21875q0.046875 -0.140625 0.140625 -0.40625l-3.671875 -9.6875l1.765625 0l2.015625 5.59375q0.390625 1.078125 0.703125 2.25q0.28125 -1.125 0.671875 -2.203125l2.078125 -5.640625l1.640625 0l-3.6875 9.828125q-0.59375 1.609375 -0.921875 2.203125q-0.4375 0.8125 -1.0 1.1875q-0.5625 0.375 -1.34375 0.375q-0.484375 0 -1.0625 -0.203125zm7.890625 -0.015625l0 -1.1875l10.859375 0l0 1.1875l-10.859375 0zm13.672607 -3.703125l-2.96875 -9.671875l1.703125 0l1.53125 5.578125l0.578125 2.078125q0.046875 -0.15625 0.5 -2.0l1.546875 -5.65625l1.6875 0l1.4375 5.609375l0.484375 1.84375l0.5625 -1.859375l1.65625 -5.59375l1.59375 0l-3.03125 9.671875l-1.703125 0l-1.53125 -5.796875l-0.375 -1.640625l-1.953125 7.4375l-1.71875 0zm18.31668 -3.109375l1.6875 0.203125q-0.40625 1.484375 -1.484375 2.3125q-1.078125 0.8125 -2.765625 0.8125q-2.125 0 -3.375 -1.296875q-1.234375 -1.3125 -1.234375 -3.671875q0 -2.453125 1.25 -3.796875q1.265625 -1.34375 3.265625 -1.34375q1.9375 0 3.15625 1.328125q1.234375 1.3125 1.234375 3.703125q0 0.15625 0 0.4375l-7.21875 0q0.09375 1.59375 0.90625 2.453125q0.8125 0.84375 2.015625 0.84375q0.90625 0 1.546875 -0.46875q0.640625 -0.484375 1.015625 -1.515625zm-5.390625 -2.65625l5.40625 0q-0.109375 -1.21875 -0.625 -1.828125q-0.78125 -0.953125 -2.03125 -0.953125q-1.125 0 -1.90625 0.765625q-0.765625 0.75 -0.84375 2.015625zm9.141357 -5.703125l0 -1.890625l1.640625 0l0 1.890625l-1.640625 0zm0 11.46875l0 -9.671875l1.640625 0l0 9.671875l-1.640625 0zm3.832306 0.796875l1.59375 0.234375q0.109375 0.75 0.5625 1.078125q0.609375 0.453125 1.671875 0.453125q1.140625 0 1.75 -0.453125q0.625 -0.453125 0.84375 -1.265625q0.125 -0.5 0.109375 -2.109375q-1.0625 1.265625 -2.671875 1.265625q-2.0 0 -3.09375 -1.4375q-1.09375 -1.4375 -1.09375 -3.453125q0 -1.390625 0.5 -2.5625q0.515625 -1.171875 1.453125 -1.796875q0.953125 -0.640625 2.25 -0.640625q1.703125 0 2.8125 1.375l0 -1.15625l1.515625 0l0 8.359375q0 2.265625 -0.46875 3.203125q-0.453125 0.9375 -1.453125 1.484375q-0.984375 0.546875 -2.453125 0.546875q-1.71875 0 -2.796875 -0.78125q-1.0625 -0.765625 -1.03125 -2.34375zm1.359375 -5.8125q0 1.90625 0.75 2.78125q0.765625 0.875 1.90625 0.875q1.125 0 1.890625 -0.859375q0.765625 -0.875 0.765625 -2.734375q0 -1.78125 -0.796875 -2.671875q-0.78125 -0.90625 -1.890625 -0.90625q-1.09375 0 -1.859375 0.890625q-0.765625 0.875 -0.765625 2.625zm9.328857 5.015625l0 -13.359375l1.640625 0l0 4.796875q1.140625 -1.328125 2.890625 -1.328125q1.078125 0 1.859375 0.421875q0.796875 0.421875 1.140625 1.171875q0.34375 0.75 0.34375 2.171875l0 6.125l-1.640625 0l0 -6.125q0 -1.234375 -0.53125 -1.796875q-0.53125 -0.5625 -1.515625 -0.5625q-0.71875 0 -1.359375 0.390625q-0.640625 0.375 -0.921875 1.015625q-0.265625 0.640625 -0.265625 1.78125l0 5.296875l-1.640625 0zm13.953827 -1.46875l0.234375 1.453125q-0.6875 0.140625 -1.234375 0.140625q-0.890625 0 -1.390625 -0.28125q-0.484375 -0.28125 -0.6875 -0.734375q-0.203125 -0.46875 -0.203125 -1.9375l0 -5.578125l-1.203125 0l0 -1.265625l1.203125 0l0 -2.390625l1.625 -0.984375l0 3.375l1.65625 0l0 1.265625l-1.65625 0l0 5.671875q0 0.6875 0.078125 0.890625q0.09375 0.203125 0.28125 0.328125q0.203125 0.109375 0.578125 0.109375q0.265625 0 0.71875 -0.0625z" fill-rule="nonzero"/><path fill="#000000" d="m421.0256 196.22897l-3.6875 -9.671875l1.734375 0l2.078125 5.796875q0.328125 0.9375 0.625 1.9375q0.203125 -0.765625 0.609375 -1.828125l2.140625 -5.90625l1.6875 0l-3.65625 9.671875l-1.53125 0zm12.953125 -1.1875q-0.921875 0.765625 -1.765625 1.09375q-0.828125 0.3125 -1.796875 0.3125q-1.59375 0 -2.453125 -0.78125q-0.859375 -0.78125 -0.859375 -1.984375q0 -0.71875 0.328125 -1.296875q0.328125 -0.59375 0.84375 -0.9375q0.53125 -0.359375 1.1875 -0.546875q0.46875 -0.125 1.453125 -0.25q1.984375 -0.234375 2.921875 -0.5625q0.015625 -0.34375 0.015625 -0.421875q0 -1.0 -0.46875 -1.421875q-0.625 -0.546875 -1.875 -0.546875q-1.15625 0 -1.703125 0.40625q-0.546875 0.40625 -0.8125 1.421875l-1.609375 -0.21875q0.21875 -1.015625 0.71875 -1.640625q0.5 -0.640625 1.453125 -0.984375q0.953125 -0.34375 2.1875 -0.34375q1.25 0 2.015625 0.296875q0.78125 0.28125 1.140625 0.734375q0.375 0.4375 0.515625 1.109375q0.078125 0.421875 0.078125 1.515625l0 2.1875q0 2.28125 0.109375 2.890625q0.109375 0.59375 0.40625 1.15625l-1.703125 0q-0.265625 -0.515625 -0.328125 -1.1875zm-0.140625 -3.671875q-0.890625 0.375 -2.671875 0.625q-1.015625 0.140625 -1.4375 0.328125q-0.421875 0.1875 -0.65625 0.53125q-0.21875 0.34375 -0.21875 0.78125q0 0.65625 0.5 1.09375q0.5 0.4375 1.453125 0.4375q0.9375 0 1.671875 -0.40625q0.75 -0.421875 1.09375 -1.140625q0.265625 -0.5625 0.265625 -1.640625l0 -0.609375zm4.156952 4.859375l0 -13.359375l1.640625 0l0 13.359375l-1.640625 0zm10.519836 0l0 -1.421875q-1.125 1.640625 -3.0625 1.640625q-0.859375 0 -1.609375 -0.328125q-0.734375 -0.328125 -1.09375 -0.828125q-0.359375 -0.5 -0.5 -1.21875q-0.109375 -0.46875 -0.109375 -1.53125l0 -5.984375l1.640625 0l0 5.359375q0 1.28125 0.109375 1.734375q0.15625 0.640625 0.65625 1.015625q0.5 0.375 1.234375 0.375q0.734375 0 1.375 -0.375q0.65625 -0.390625 0.921875 -1.03125q0.265625 -0.65625 0.265625 -1.890625l0 -5.1875l1.640625 0l0 9.671875l-1.46875 0zm10.672577 -3.109375l1.6875 0.203125q-0.40625 1.484375 -1.484375 2.3125q-1.078125 0.8125 -2.765625 0.8125q-2.125 0 -3.375 -1.296875q-1.234375 -1.3125 -1.234375 -3.671875q0 -2.453125 1.25 -3.796875q1.265625 -1.34375 3.265625 -1.34375q1.9375 0 3.15625 1.328125q1.234375 1.3125 1.234375 3.703125q0 0.15625 0 0.4375l-7.21875 0q0.09375 1.59375 0.90625 2.453125q0.8125 0.84375 2.015625 0.84375q0.90625 0 1.546875 -0.46875q0.640625 -0.484375 1.015625 -1.515625zm-5.390625 -2.65625l5.40625 0q-0.109375 -1.21875 -0.625 -1.828125q-0.78125 -0.953125 -2.03125 -0.953125q-1.125 0 -1.90625 0.765625q-0.765625 0.75 -0.84375 2.015625zm7.6257324 9.46875l0 -1.1875l10.859375 0l0 1.1875l-10.859375 0zm13.672577 -3.703125l-2.96875 -9.671875l1.703125 0l1.53125 5.578125l0.578125 2.078125q0.046875 -0.15625 0.5 -2.0l1.546875 -5.65625l1.6875 0l1.4375 5.609375l0.484375 1.84375l0.5625 -1.859375l1.65625 -5.59375l1.59375 0l-3.03125 9.671875l-1.703125 0l-1.53125 -5.796875l-0.375 -1.640625l-1.953125 7.4375l-1.71875 0zm18.316711 -3.109375l1.6875 0.203125q-0.40625 1.484375 -1.484375 2.3125q-1.078125 0.8125 -2.765625 0.8125q-2.125 0 -3.375 -1.296875q-1.234375 -1.3125 -1.234375 -3.671875q0 -2.453125 1.25 -3.796875q1.265625 -1.34375 3.265625 -1.34375q1.9375 0 3.15625 1.328125q1.234375 1.3125 1.234375 3.703125q0 0.15625 0 0.4375l-7.21875 0q0.09375 1.59375 0.90625 2.453125q0.8125 0.84375 2.015625 0.84375q0.90625 0 1.546875 -0.46875q0.640625 -0.484375 1.015625 -1.515625zm-5.390625 -2.65625l5.40625 0q-0.109375 -1.21875 -0.625 -1.828125q-0.78125 -0.953125 -2.03125 -0.953125q-1.125 0 -1.90625 0.765625q-0.765625 0.75 -0.84375 2.015625zm9.141327 -5.703125l0 -1.890625l1.640625 0l0 1.890625l-1.640625 0zm0 11.46875l0 -9.671875l1.640625 0l0 9.671875l-1.640625 0zm3.8323364 0.796875l1.59375 0.234375q0.109375 0.75 0.5625 1.078125q0.609375 0.453125 1.671875 0.453125q1.140625 0 1.75 -0.453125q0.625 -0.453125 0.84375 -1.265625q0.125 -0.5 0.109375 -2.109375q-1.0625 1.265625 -2.671875 1.265625q-2.0 0 -3.09375 -1.4375q-1.09375 -1.4375 -1.09375 -3.453125q0 -1.390625 0.5 -2.5625q0.515625 -1.171875 1.453125 -1.796875q0.953125 -0.640625 2.25 -0.640625q1.703125 0 2.8125 1.375l0 -1.15625l1.515625 0l0 8.359375q0 2.265625 -0.46875 3.203125q-0.453125 0.9375 -1.453125 1.484375q-0.984375 0.546875 -2.453125 0.546875q-1.71875 0 -2.796875 -0.78125q-1.0625 -0.765625 -1.03125 -2.34375zm1.359375 -5.8125q0 1.90625 0.75 2.78125q0.765625 0.875 1.90625 0.875q1.125 0 1.890625 -0.859375q0.765625 -0.875 0.765625 -2.734375q0 -1.78125 -0.796875 -2.671875q-0.78125 -0.90625 -1.890625 -0.90625q-1.09375 0 -1.859375 0.890625q-0.765625 0.875 -0.765625 2.625zm9.328827 5.015625l0 -13.359375l1.640625 0l0 4.796875q1.140625 -1.328125 2.890625 -1.328125q1.078125 0 1.859375 0.421875q0.796875 0.421875 1.140625 1.171875q0.34375 0.75 0.34375 2.171875l0 6.125l-1.640625 0l0 -6.125q0 -1.234375 -0.53125 -1.796875q-0.53125 -0.5625 -1.515625 -0.5625q-0.71875 0 -1.359375 0.390625q-0.640625 0.375 -0.921875 1.015625q-0.265625 0.640625 -0.265625 1.78125l0 5.296875l-1.640625 0zm13.953857 -1.46875l0.234375 1.453125q-0.6875 0.140625 -1.234375 0.140625q-0.890625 0 -1.390625 -0.28125q-0.484375 -0.28125 -0.6875 -0.734375q-0.203125 -0.46875 -0.203125 -1.9375l0 -5.578125l-1.203125 0l0 -1.265625l1.203125 0l0 -2.390625l1.625 -0.984375l0 3.375l1.65625 0l0 1.265625l-1.65625 0l0 5.671875q0 0.6875 0.078125 0.890625q0.09375 0.203125 0.28125 0.328125q0.203125 0.109375 0.578125 0.109375q0.265625 0 0.71875 -0.0625z" fill-rule="nonzero"/><path fill="#000000" d="m397.7299 209.13397l2.5625 0l0 1.53125q0.5 -0.78125 1.34375 -1.265625q0.84375 -0.5 1.890625 -0.5q1.796875 0 3.046875 1.421875q1.265625 1.40625 1.265625 3.9375q0 2.609375 -1.265625 4.046875q-1.265625 1.4375 -3.078125 1.4375q-0.859375 0 -1.5625 -0.34375q-0.6875 -0.34375 -1.453125 -1.171875l0 5.234375l-2.75 0l0 -14.328125zm2.71875 5.015625q0 1.75 0.6875 2.59375q0.6875 0.828125 1.6875 0.828125q0.953125 0 1.59375 -0.765625q0.640625 -0.78125 0.640625 -2.515625q0 -1.640625 -0.65625 -2.421875q-0.65625 -0.796875 -1.625 -0.796875q-1.0 0 -1.671875 0.78125q-0.65625 0.765625 -0.65625 2.296875zm12.201172 5.359375l-2.75 0l0 -10.375l2.5625 0l0 1.484375q0.640625 -1.046875 1.15625 -1.375q0.53125 -0.34375 1.203125 -0.34375q0.9375 0 1.796875 0.515625l-0.84375 2.390625q-0.6875 -0.4375 -1.28125 -0.4375q-0.578125 0 -0.984375 0.3125q-0.40625 0.3125 -0.640625 1.15625q-0.21875 0.828125 -0.21875 3.46875l0 3.203125zm4.517578 -5.328125q0 -1.375 0.671875 -2.65625q0.6875 -1.28125 1.921875 -1.953125q1.234375 -0.671875 2.75 -0.671875q2.359375 0 3.859375 1.53125q1.5 1.53125 1.5 3.859375q0 2.359375 -1.515625 3.90625q-1.515625 1.546875 -3.828125 1.546875q-1.421875 0 -2.71875 -0.640625q-1.28125 -0.65625 -1.96875 -1.890625q-0.671875 -1.25 -0.671875 -3.03125zm2.8125 0.140625q0 1.546875 0.734375 2.375q0.734375 0.8125 1.8125 0.8125q1.078125 0 1.796875 -0.8125q0.734375 -0.828125 0.734375 -2.390625q0 -1.53125 -0.734375 -2.34375q-0.71875 -0.828125 -1.796875 -0.828125q-1.078125 0 -1.8125 0.828125q-0.734375 0.8125 -0.734375 2.359375zm9.982422 -6.59375l0 -2.53125l2.75 0l0 2.53125l-2.75 0zm2.75 1.40625l0 10.046875q0 1.984375 -0.265625 2.796875q-0.25 0.828125 -1.0 1.28125q-0.734375 0.453125 -1.875 0.453125q-0.40625 0 -0.890625 -0.078125q-0.46875 -0.0625 -1.015625 -0.203125l0.484375 -2.34375q0.1875 0.03125 0.359375 0.046875q0.171875 0.03125 0.328125 0.03125q0.421875 0 0.6875 -0.1875q0.265625 -0.171875 0.34375 -0.421875q0.09375 -0.25 0.09375 -1.53125l0 -9.890625l2.75 0z" fill-rule="nonzero"/><path fill="#000000" d="m417.5494 243.50897l-2.96875 -9.671875l1.703125 0l1.53125 5.578125l0.578125 2.078125q0.046875 -0.15625 0.5 -2.0l1.546875 -5.65625l1.6875 0l1.4375 5.609375l0.484375 1.84375l0.5625 -1.859375l1.65625 -5.59375l1.59375 0l-3.03125 9.671875l-1.703125 0l-1.53125 -5.796875l-0.375 -1.640625l-1.953125 7.4375l-1.71875 0zm18.31668 -3.109375l1.6875 0.203125q-0.40625 1.484375 -1.484375 2.3125q-1.078125 0.8125 -2.765625 0.8125q-2.125 0 -3.375 -1.296875q-1.234375 -1.3125 -1.234375 -3.671875q0 -2.453125 1.25 -3.796875q1.265625 -1.34375 3.265625 -1.34375q1.9375 0 3.15625 1.328125q1.234375 1.3125 1.234375 3.703125q0 0.15625 0 0.4375l-7.21875 0q0.09375 1.59375 0.90625 2.453125q0.8125 0.84375 2.015625 0.84375q0.90625 0 1.546875 -0.46875q0.640625 -0.484375 1.015625 -1.515625zm-5.390625 -2.65625l5.40625 0q-0.109375 -1.21875 -0.625 -1.828125q-0.78125 -0.953125 -2.03125 -0.953125q-1.125 0 -1.90625 0.765625q-0.765625 0.75 -0.84375 2.015625zm9.141357 -5.703125l0 -1.890625l1.640625 0l0 1.890625l-1.640625 0zm0 11.46875l0 -9.671875l1.640625 0l0 9.671875l-1.640625 0zm3.832306 0.796875l1.59375 0.234375q0.109375 0.75 0.5625 1.078125q0.609375 0.453125 1.671875 0.453125q1.140625 0 1.75 -0.453125q0.625 -0.453125 0.84375 -1.265625q0.125 -0.5 0.109375 -2.109375q-1.0625 1.265625 -2.671875 1.265625q-2.0 0 -3.09375 -1.4375q-1.09375 -1.4375 -1.09375 -3.453125q0 -1.390625 0.5 -2.5625q0.515625 -1.171875 1.453125 -1.796875q0.953125 -0.640625 2.25 -0.640625q1.703125 0 2.8125 1.375l0 -1.15625l1.515625 0l0 8.359375q0 2.265625 -0.46875 3.203125q-0.453125 0.9375 -1.453125 1.484375q-0.984375 0.546875 -2.453125 0.546875q-1.71875 0 -2.796875 -0.78125q-1.0625 -0.765625 -1.03125 -2.34375zm1.359375 -5.8125q0 1.90625 0.75 2.78125q0.765625 0.875 1.90625 0.875q1.125 0 1.890625 -0.859375q0.765625 -0.875 0.765625 -2.734375q0 -1.78125 -0.796875 -2.671875q-0.78125 -0.90625 -1.890625 -0.90625q-1.09375 0 -1.859375 0.890625q-0.765625 0.875 -0.765625 2.625zm9.328857 5.015625l0 -13.359375l1.640625 0l0 4.796875q1.140625 -1.328125 2.890625 -1.328125q1.078125 0 1.859375 0.421875q0.796875 0.421875 1.140625 1.171875q0.34375 0.75 0.34375 2.171875l0 6.125l-1.640625 0l0 -6.125q0 -1.234375 -0.53125 -1.796875q-0.53125 -0.5625 -1.515625 -0.5625q-0.71875 0 -1.359375 0.390625q-0.640625 0.375 -0.921875 1.015625q-0.265625 0.640625 -0.265625 1.78125l0 5.296875l-1.640625 0zm13.953827 -1.46875l0.234375 1.453125q-0.6875 0.140625 -1.234375 0.140625q-0.890625 0 -1.390625 -0.28125q-0.484375 -0.28125 -0.6875 -0.734375q-0.203125 -0.46875 -0.203125 -1.9375l0 -5.578125l-1.203125 0l0 -1.265625l1.203125 0l0 -2.390625l1.625 -0.984375l0 3.375l1.65625 0l0 1.265625l-1.65625 0l0 5.671875q0 0.6875 0.078125 0.890625q0.09375 0.203125 0.28125 0.328125q0.203125 0.109375 0.578125 0.109375q0.265625 0 0.71875 -0.0625z" fill-rule="nonzero"/><path fill="#ead1dc" d="m366.63647 294.58768l226.74017 0l0 134.89764l-226.74017 0z" fill-rule="evenodd"/><path stroke="#595959" stroke-width="1.0" stroke-linejoin="round" stroke-linecap="butt" d="m366.63647 294.58768l226.74017 0l0 134.89764l-226.74017 0z" fill-rule="evenodd"/><path fill="#000000" d="m377.26147 337.29648l0 -16.21875l3.109375 0l0 16.21875l-3.109375 0zm8.622742 -8.171875l-2.828125 -0.5q0.484375 -1.703125 1.640625 -2.515625q1.15625 -0.828125 3.453125 -0.828125q2.078125 0 3.09375 0.5q1.015625 0.484375 1.421875 1.25q0.421875 0.75 0.421875 2.78125l-0.03125 3.625q0 1.546875 0.140625 2.28125q0.15625 0.734375 0.578125 1.578125l-3.078125 0q-0.125 -0.3125 -0.296875 -0.921875q-0.078125 -0.265625 -0.109375 -0.359375q-0.796875 0.765625 -1.71875 1.15625q-0.90625 0.390625 -1.921875 0.390625q-1.828125 0 -2.875 -0.984375q-1.03125 -0.984375 -1.03125 -2.484375q0 -1.0 0.46875 -1.78125q0.484375 -0.78125 1.328125 -1.1875q0.859375 -0.421875 2.484375 -0.734375q2.171875 -0.40625 3.015625 -0.765625l0 -0.296875q0 -0.90625 -0.453125 -1.28125q-0.4375 -0.390625 -1.65625 -0.390625q-0.828125 0 -1.296875 0.328125q-0.46875 0.328125 -0.75 1.140625zm4.15625 2.53125q-0.59375 0.203125 -1.890625 0.484375q-1.296875 0.265625 -1.6875 0.53125q-0.609375 0.4375 -0.609375 1.09375q0 0.65625 0.484375 1.140625q0.484375 0.46875 1.234375 0.46875q0.84375 0 1.609375 -0.5625q0.5625 -0.40625 0.734375 -1.015625q0.125 -0.40625 0.125 -1.515625l0 -0.625zm4.647217 -6.109375l3.3125 0l2.796875 8.34375l2.75 -8.34375l3.21875 0l-4.140625 11.3125l-0.75 2.046875q-0.40625 1.03125 -0.78125 1.5625q-0.375 0.546875 -0.859375 0.875q-0.46875 0.34375 -1.171875 0.53125q-0.703125 0.1875 -1.59375 0.1875q-0.890625 0 -1.75 -0.1875l-0.28125 -2.4375q0.734375 0.15625 1.3125 0.15625q1.09375 0 1.609375 -0.640625q0.515625 -0.640625 0.796875 -1.625l-4.46875 -11.78125zm20.881561 8.015625l3.09375 0.515625q-0.59375 1.703125 -1.890625 2.59375q-1.28125 0.890625 -3.21875 0.890625q-3.0625 0 -4.546875 -2.0q-1.15625 -1.609375 -1.15625 -4.046875q0 -2.921875 1.515625 -4.578125q1.53125 -1.65625 3.875 -1.65625q2.625 0 4.140625 1.734375q1.515625 1.734375 1.4375 5.296875l-7.78125 0q0.03125 1.390625 0.75 2.15625q0.71875 0.765625 1.796875 0.765625q0.71875 0 1.21875 -0.390625q0.5 -0.40625 0.765625 -1.28125zm0.171875 -3.140625q-0.03125 -1.359375 -0.703125 -2.0625q-0.65625 -0.703125 -1.609375 -0.703125q-1.015625 0 -1.6875 0.75q-0.65625 0.734375 -0.65625 2.015625l4.65625 0zm8.600342 6.875l-3.109375 0l0 -11.75l2.875 0l0 1.671875q0.75 -1.1875 1.34375 -1.5625q0.59375 -0.375 1.34375 -0.375q1.0625 0 2.046875 0.59375l-0.96875 2.703125q-0.78125 -0.5 -1.453125 -0.5q-0.65625 0 -1.109375 0.359375q-0.453125 0.359375 -0.71875 1.296875q-0.25 0.9375 -0.25 3.9375l0 3.625zm16.52002 0l-3.109375 0l0 -6.0q0 -1.90625 -0.203125 -2.453125q-0.1875 -0.5625 -0.640625 -0.875q-0.453125 -0.3125 -1.078125 -0.3125q-0.8125 0 -1.453125 0.453125q-0.640625 0.4375 -0.875 1.171875q-0.234375 0.71875 -0.234375 2.6875l0 5.328125l-3.109375 0l0 -11.75l2.875 0l0 1.734375q1.546875 -2.0 3.875 -2.0q1.03125 0 1.875 0.375q0.859375 0.375 1.296875 0.953125q0.4375 0.5625 0.609375 1.296875q0.171875 0.734375 0.171875 2.09375l0 7.296875zm2.4331055 -6.046875q0 -1.546875 0.765625 -2.984375q0.765625 -1.453125 2.15625 -2.21875q1.40625 -0.765625 3.125 -0.765625q2.671875 0 4.375 1.734375q1.703125 1.734375 1.703125 4.375q0 2.671875 -1.71875 4.421875q-1.71875 1.75 -4.328125 1.75q-1.625 0 -3.09375 -0.71875q-1.453125 -0.734375 -2.21875 -2.140625q-0.765625 -1.421875 -0.765625 -3.453125zm3.1875 0.171875q0 1.75 0.828125 2.6875q0.828125 0.921875 2.046875 0.921875q1.21875 0 2.03125 -0.921875q0.828125 -0.9375 0.828125 -2.703125q0 -1.734375 -0.828125 -2.65625q-0.8125 -0.9375 -2.03125 -0.9375q-1.21875 0 -2.046875 0.9375q-0.828125 0.921875 -0.828125 2.671875zm14.35495 5.875l-3.109375 0l0 -11.75l2.875 0l0 1.671875q0.75 -1.1875 1.34375 -1.5625q0.59375 -0.375 1.34375 -0.375q1.0625 0 2.046875 0.59375l-0.96875 2.703125q-0.78125 -0.5 -1.453125 -0.5q-0.65625 0 -1.109375 0.359375q-0.453125 0.359375 -0.71875 1.296875q-0.25 0.9375 -0.25 3.9375l0 3.625zm5.598175 -11.75l2.875 0l0 1.609375q1.53125 -1.875 3.65625 -1.875q1.125 0 1.953125 0.46875q0.828125 0.46875 1.359375 1.40625q0.78125 -0.9375 1.671875 -1.40625q0.90625 -0.46875 1.921875 -0.46875q1.296875 0 2.1875 0.53125q0.890625 0.515625 1.34375 1.546875q0.3125 0.75 0.3125 2.421875l0 7.515625l-3.109375 0l0 -6.71875q0 -1.75 -0.3125 -2.25q-0.4375 -0.671875 -1.328125 -0.671875q-0.65625 0 -1.234375 0.40625q-0.578125 0.390625 -0.828125 1.171875q-0.25 0.765625 -0.25 2.421875l0 5.640625l-3.109375 0l0 -6.4375q0 -1.71875 -0.171875 -2.21875q-0.15625 -0.5 -0.515625 -0.734375q-0.34375 -0.25 -0.9375 -0.25q-0.71875 0 -1.296875 0.390625q-0.578125 0.390625 -0.828125 1.125q-0.25 0.71875 -0.25 2.421875l0 5.703125l-3.109375 0l0 -11.75zm18.55127 16.234375l0 -2.015625l12.921875 0l0 2.015625l-12.921875 0zm14.194092 -16.234375l2.875 0l0 1.609375q1.53125 -1.875 3.65625 -1.875q1.125 0 1.953125 0.46875q0.828125 0.46875 1.359375 1.40625q0.78125 -0.9375 1.671875 -1.40625q0.90625 -0.46875 1.9218445 -0.46875q1.296875 0 2.1875 0.53125q0.890625 0.515625 1.34375 1.546875q0.3125 0.75 0.3125 2.421875l0 7.515625l-3.109375 0l0 -6.71875q0 -1.75 -0.3125 -2.25q-0.4375 -0.671875 -1.3280945 -0.671875q-0.65625 0 -1.234375 0.40625q-0.578125 0.390625 -0.828125 1.171875q-0.25 0.765625 -0.25 2.421875l0 5.640625l-3.109375 0l0 -6.4375q0 -1.71875 -0.171875 -2.21875q-0.15625 -0.5 -0.515625 -0.734375q-0.34375 -0.25 -0.9375 -0.25q-0.71875 0 -1.296875 0.390625q-0.578125 0.390625 -0.828125 1.125q-0.25 0.71875 -0.25 2.421875l0 5.703125l-3.109375 0l0 -11.75zm20.379425 11.75l0 -16.21875l3.109375 0l0 16.21875l-3.109375 0zm6.2008667 -11.75l2.90625 0l0 1.734375q0.5625 -0.890625 1.515625 -1.4375q0.96875 -0.5625 2.140625 -0.5625q2.046875 0 3.46875 1.609375q1.4375 1.59375 1.4375 4.46875q0 2.9375 -1.4375 4.578125q-1.4375 1.625 -3.484375 1.625q-0.96875 0 -1.765625 -0.390625q-0.796875 -0.390625 -1.671875 -1.328125l0 5.921875l-3.109375 0l0 -16.21875zm3.078125 5.671875q0 1.984375 0.78125 2.9375q0.796875 0.9375 1.921875 0.9375q1.078125 0 1.796875 -0.859375q0.71875 -0.875 0.71875 -2.859375q0 -1.84375 -0.734375 -2.734375q-0.734375 -0.90625 -1.84375 -0.90625q-1.125 0 -1.890625 0.890625q-0.75 0.875 -0.75 2.59375z" fill-rule="nonzero"/><path fill="#000000" d="m397.5572 360.45648l0 -13.359375l1.640625 0l0 13.359375l-1.640625 0zm10.504181 -1.1875q-0.921875 0.765625 -1.765625 1.09375q-0.828125 0.3125 -1.796875 0.3125q-1.59375 0 -2.453125 -0.78125q-0.859375 -0.78125 -0.859375 -1.984375q0 -0.71875 0.328125 -1.296875q0.328125 -0.59375 0.84375 -0.9375q0.53125 -0.359375 1.1875 -0.546875q0.46875 -0.125 1.453125 -0.25q1.984375 -0.234375 2.921875 -0.5625q0.015625 -0.34375 0.015625 -0.421875q0 -1.0 -0.46875 -1.421875q-0.625 -0.546875 -1.875 -0.546875q-1.15625 0 -1.703125 0.40625q-0.546875 0.40625 -0.8125 1.421875l-1.609375 -0.21875q0.21875 -1.015625 0.71875 -1.640625q0.5 -0.640625 1.453125 -0.984375q0.953125 -0.34375 2.1875 -0.34375q1.25 0 2.015625 0.296875q0.78125 0.28125 1.140625 0.734375q0.375 0.4375 0.515625 1.109375q0.078125 0.421875 0.078125 1.515625l0 2.1875q0 2.28125 0.109375 2.890625q0.109375 0.59375 0.40625 1.15625l-1.703125 0q-0.265625 -0.515625 -0.328125 -1.1875zm-0.140625 -3.671875q-0.890625 0.375 -2.671875 0.625q-1.015625 0.140625 -1.4375 0.328125q-0.421875 0.1875 -0.65625 0.53125q-0.21875 0.34375 -0.21875 0.78125q0 0.65625 0.5 1.09375q0.5 0.4375 1.453125 0.4375q0.9375 0 1.671875 -0.40625q0.75 -0.421875 1.09375 -1.140625q0.265625 -0.5625 0.265625 -1.640625l0 -0.609375zm4.1257324 8.578125l-0.1875 -1.53125q0.546875 0.140625 0.9375 0.140625q0.546875 0 0.875 -0.1875q0.328125 -0.171875 0.546875 -0.5q0.15625 -0.25 0.5 -1.21875q0.046875 -0.140625 0.140625 -0.40625l-3.671875 -9.6875l1.765625 0l2.015625 5.59375q0.390625 1.078125 0.703125 2.25q0.28125 -1.125 0.671875 -2.203125l2.078125 -5.640625l1.640625 0l-3.6875 9.828125q-0.59375 1.609375 -0.921875 2.203125q-0.4375 0.8125 -1.0 1.1875q-0.5625 0.375 -1.34375 0.375q-0.484375 0 -1.0625 -0.203125zm16.03125 -6.828125l1.6875 0.203125q-0.40625 1.484375 -1.484375 2.3125q-1.078125 0.8125 -2.765625 0.8125q-2.125 0 -3.375 -1.296875q-1.234375 -1.3125 -1.234375 -3.671875q0 -2.453125 1.25 -3.796875q1.265625 -1.34375 3.265625 -1.34375q1.9375 0 3.15625 1.328125q1.234375 1.3125 1.234375 3.703125q0 0.15625 0 0.4375l-7.21875 0q0.09375 1.59375 0.90625 2.453125q0.8125 0.84375 2.015625 0.84375q0.90625 0 1.546875 -0.46875q0.640625 -0.484375 1.015625 -1.515625zm-5.390625 -2.65625l5.40625 0q-0.109375 -1.21875 -0.625 -1.828125q-0.78125 -0.953125 -2.03125 -0.953125q-1.125 0 -1.90625 0.765625q-0.765625 0.75 -0.84375 2.015625zm9.125702 5.765625l0 -9.671875l1.46875 0l0 1.46875q0.5625 -1.03125 1.03125 -1.359375q0.484375 -0.328125 1.0625 -0.328125q0.828125 0 1.6875 0.53125l-0.5625 1.515625q-0.609375 -0.359375 -1.203125 -0.359375q-0.546875 0 -0.96875 0.328125q-0.421875 0.328125 -0.609375 0.890625q-0.28125 0.875 -0.28125 1.921875l0 5.0625l-1.625 0zm4.712677 3.703125l0 -1.1875l10.859375 0l0 1.1875l-10.859375 0zm11.891357 -3.703125l0 -9.671875l1.46875 0l0 1.375q1.0625 -1.59375 3.078125 -1.59375q0.875 0 1.609375 0.3125q0.734375 0.3125 1.09375 0.828125q0.375 0.5 0.515625 1.203125q0.09375 0.453125 0.09375 1.59375l0 5.953125l-1.640625 0l0 -5.890625q0 -1.0 -0.203125 -1.484375q-0.1875 -0.5 -0.671875 -0.796875q-0.484375 -0.296875 -1.140625 -0.296875q-1.046875 0 -1.8125 0.671875q-0.75 0.65625 -0.75 2.515625l0 5.28125l-1.640625 0zm9.766327 -4.84375q0 -2.6875 1.484375 -3.96875q1.25 -1.078125 3.046875 -1.078125q2.0 0 3.265625 1.3125q1.265625 1.296875 1.265625 3.609375q0 1.859375 -0.5625 2.9375q-0.5625 1.0625 -1.640625 1.65625q-1.0625 0.59375 -2.328125 0.59375q-2.03125 0 -3.28125 -1.296875q-1.25 -1.3125 -1.25 -3.765625zm1.6875 0q0 1.859375 0.796875 2.796875q0.8125 0.921875 2.046875 0.921875q1.21875 0 2.03125 -0.921875q0.8125 -0.9375 0.8125 -2.84375q0 -1.796875 -0.8125 -2.71875q-0.8125 -0.921875 -2.03125 -0.921875q-1.234375 0 -2.046875 0.921875q-0.796875 0.90625 -0.796875 2.765625zm9.281982 4.84375l0 -9.671875l1.46875 0l0 1.46875q0.5625 -1.03125 1.03125 -1.359375q0.484375 -0.328125 1.0625 -0.328125q0.828125 0 1.6875 0.53125l-0.5625 1.515625q-0.609375 -0.359375 -1.203125 -0.359375q-0.546875 0 -0.96875 0.328125q-0.421875 0.328125 -0.609375 0.890625q-0.28125 0.875 -0.28125 1.921875l0 5.0625l-1.625 0zm6.228302 0l0 -9.671875l1.46875 0l0 1.359375q0.453125 -0.71875 1.203125 -1.140625q0.765625 -0.4375 1.71875 -0.4375q1.078125 0 1.765625 0.453125q0.6875 0.4375 0.96875 1.234375q1.15625 -1.6875 2.984375 -1.6875q1.453125 0 2.21875 0.796875q0.78125 0.796875 0.78125 2.453125l0 6.640625l-1.640625 0l0 -6.09375q0 -0.984375 -0.15625 -1.40625q-0.15625 -0.4375 -0.578125 -0.703125q-0.421875 -0.265625 -0.984375 -0.265625q-1.015625 0 -1.6875 0.6875q-0.671875 0.671875 -0.671875 2.15625l0 5.625l-1.640625 0l0 -6.28125q0 -1.09375 -0.40625 -1.640625q-0.40625 -0.546875 -1.3125 -0.546875q-0.6875 0 -1.28125 0.359375q-0.59375 0.359375 -0.859375 1.0625q-0.25 0.703125 -0.25 2.03125l0 5.015625l-1.640625 0zm14.025177 3.703125l0 -1.1875l10.859375 0l0 1.1875l-10.859375 0zm13.672577 -3.703125l-2.96875 -9.671875l1.703125 0l1.53125 5.578125l0.578125 2.078125q0.046875 -0.15625 0.5 -2.0l1.546875 -5.65625l1.6875 0l1.4375 5.609375l0.484375 1.84375l0.5625 -1.859375l1.65625 -5.59375l1.5937805 0l-3.0312805 9.671875l-1.703125 0l-1.53125 -5.796875l-0.375 -1.640625l-1.953125 7.4375l-1.71875 0zm18.31668 -3.109375l1.6875 0.203125q-0.40625 1.484375 -1.484375 2.3125q-1.078125 0.8125 -2.765625 0.8125q-2.125 0 -3.375 -1.296875q-1.234375 -1.3125 -1.234375 -3.671875q0 -2.453125 1.25 -3.796875q1.265625 -1.34375 3.265625 -1.34375q1.9375 0 3.15625 1.328125q1.234375 1.3125 1.234375 3.703125q0 0.15625 0 0.4375l-7.21875 0q0.09375 1.59375 0.90625 2.453125q0.8125 0.84375 2.015625 0.84375q0.90625 0 1.546875 -0.46875q0.640625 -0.484375 1.015625 -1.515625zm-5.390625 -2.65625l5.40625 0q-0.109375 -1.21875 -0.625 -1.828125q-0.78125 -0.953125 -2.03125 -0.953125q-1.125 0 -1.90625 0.765625q-0.765625 0.75 -0.84375 2.015625zm9.141357 -5.703125l0 -1.890625l1.640625 0l0 1.890625l-1.640625 0zm0 11.46875l0 -9.671875l1.640625 0l0 9.671875l-1.640625 0zm3.8323364 0.796875l1.59375 0.234375q0.109375 0.75 0.5625 1.078125q0.609375 0.453125 1.671875 0.453125q1.140625 0 1.75 -0.453125q0.625 -0.453125 0.84375 -1.265625q0.125 -0.5 0.109375 -2.109375q-1.0625 1.265625 -2.671875 1.265625q-2.0 0 -3.09375 -1.4375q-1.09375 -1.4375 -1.09375 -3.453125q0 -1.390625 0.5 -2.5625q0.515625 -1.171875 1.453125 -1.796875q0.953125 -0.640625 2.25 -0.640625q1.703125 0 2.8125 1.375l0 -1.15625l1.515625 0l0 8.359375q0 2.265625 -0.46875 3.203125q-0.453125 0.9375 -1.453125 1.484375q-0.984375 0.546875 -2.453125 0.546875q-1.71875 0 -2.796875 -0.78125q-1.0625 -0.765625 -1.03125 -2.34375zm1.359375 -5.8125q0 1.90625 0.75 2.78125q0.765625 0.875 1.90625 0.875q1.125 0 1.890625 -0.859375q0.765625 -0.875 0.765625 -2.734375q0 -1.78125 -0.796875 -2.671875q-0.78125 -0.90625 -1.890625 -0.90625q-1.09375 0 -1.859375 0.890625q-0.765625 0.875 -0.765625 2.625zm9.328857 5.015625l0 -13.359375l1.640625 0l0 4.796875q1.140625 -1.328125 2.890625 -1.328125q1.078125 0 1.859375 0.421875q0.796875 0.421875 1.140625 1.171875q0.34375 0.75 0.34375 2.171875l0 6.125l-1.640625 0l0 -6.125q0 -1.234375 -0.53125 -1.796875q-0.53125 -0.5625 -1.515625 -0.5625q-0.71875 0 -1.359375 0.390625q-0.640625 0.375 -0.921875 1.015625q-0.265625 0.640625 -0.265625 1.78125l0 5.296875l-1.640625 0zm13.953796 -1.46875l0.234375 1.453125q-0.6875 0.140625 -1.234375 0.140625q-0.890625 0 -1.390625 -0.28125q-0.484375 -0.28125 -0.6875 -0.734375q-0.203125 -0.46875 -0.203125 -1.9375l0 -5.578125l-1.203125 0l0 -1.265625l1.203125 0l0 -2.390625l1.625 -0.984375l0 3.375l1.65625 0l0 1.265625l-1.65625 0l0 5.671875q0 0.6875 0.078125 0.890625q0.09375 0.203125 0.28125 0.328125q0.203125 0.109375 0.578125 0.109375q0.265625 0 0.71875 -0.0625z" fill-rule="nonzero"/><path fill="#000000" d="m397.9947 382.45648l0 -8.40625l-1.453125 0l0 -1.265625l1.453125 0l0 -1.03125q0 -0.96875 0.171875 -1.453125q0.234375 -0.640625 0.828125 -1.03125q0.59375 -0.390625 1.671875 -0.390625q0.6875 0 1.53125 0.15625l-0.25 1.4375q-0.5 -0.09375 -0.953125 -0.09375q-0.75 0 -1.0625 0.328125q-0.3125 0.3125 -0.3125 1.1875l0 0.890625l1.890625 0l0 1.265625l-1.890625 0l0 8.40625l-1.625 0zm11.105164 -3.546875l1.609375 0.21875q-0.265625 1.65625 -1.359375 2.609375q-1.078125 0.9375 -2.671875 0.9375q-1.984375 0 -3.1875 -1.296875q-1.203125 -1.296875 -1.203125 -3.71875q0 -1.578125 0.515625 -2.75q0.515625 -1.171875 1.578125 -1.75q1.0625 -0.59375 2.3125 -0.59375q1.578125 0 2.578125 0.796875q1.0 0.796875 1.28125 2.265625l-1.59375 0.234375q-0.234375 -0.96875 -0.8125 -1.453125q-0.578125 -0.5 -1.390625 -0.5q-1.234375 0 -2.015625 0.890625q-0.78125 0.890625 -0.78125 2.8125q0 1.953125 0.75 2.84375q0.75 0.875 1.953125 0.875q0.96875 0 1.609375 -0.59375q0.65625 -0.59375 0.828125 -1.828125zm8.734375 3.546875l-1.640625 0l0 -10.453125q-0.59375 0.5625 -1.5625 1.140625q-0.953125 0.5625 -1.71875 0.84375l0 -1.59375q1.375 -0.640625 2.40625 -1.5625q1.03125 -0.921875 1.453125 -1.78125l1.0625 0l0 13.40625zm3.1413574 3.703125l0 -1.1875l10.859375 0l0 1.1875l-10.859375 0zm13.672577 -3.703125l-2.96875 -9.671875l1.703125 0l1.53125 5.578125l0.578125 2.078125q0.046875 -0.15625 0.5 -2.0l1.546875 -5.65625l1.6875 0l1.4375 5.609375l0.484375 1.84375l0.5625 -1.859375l1.65625 -5.59375l1.59375 0l-3.03125 9.671875l-1.703125 0l-1.53125 -5.796875l-0.375 -1.640625l-1.953125 7.4375l-1.71875 0zm18.316711 -3.109375l1.6875 0.203125q-0.40625 1.484375 -1.484375 2.3125q-1.078125 0.8125 -2.765625 0.8125q-2.125 0 -3.375 -1.296875q-1.234375 -1.3125 -1.234375 -3.671875q0 -2.453125 1.25 -3.796875q1.265625 -1.34375 3.265625 -1.34375q1.9375 0 3.15625 1.328125q1.234375 1.3125 1.234375 3.703125q0 0.15625 0 0.4375l-7.21875 0q0.09375 1.59375 0.90625 2.453125q0.8125 0.84375 2.015625 0.84375q0.90625 0 1.546875 -0.46875q0.640625 -0.484375 1.015625 -1.515625zm-5.390625 -2.65625l5.40625 0q-0.109375 -1.21875 -0.625 -1.828125q-0.78125 -0.953125 -2.03125 -0.953125q-1.125 0 -1.90625 0.765625q-0.765625 0.75 -0.84375 2.015625zm9.141327 -5.703125l0 -1.890625l1.640625 0l0 1.890625l-1.640625 0zm0 11.46875l0 -9.671875l1.640625 0l0 9.671875l-1.640625 0zm3.8323364 0.796875l1.59375 0.234375q0.109375 0.75 0.5625 1.078125q0.609375 0.453125 1.671875 0.453125q1.140625 0 1.75 -0.453125q0.625 -0.453125 0.84375 -1.265625q0.125 -0.5 0.109375 -2.109375q-1.0625 1.265625 -2.671875 1.265625q-2.0 0 -3.09375 -1.4375q-1.09375 -1.4375 -1.09375 -3.453125q0 -1.390625 0.5 -2.5625q0.515625 -1.171875 1.453125 -1.796875q0.953125 -0.640625 2.25 -0.640625q1.703125 0 2.8125 1.375l0 -1.15625l1.515625 0l0 8.359375q0 2.265625 -0.46875 3.203125q-0.453125 0.9375 -1.453125 1.484375q-0.984375 0.546875 -2.453125 0.546875q-1.71875 0 -2.796875 -0.78125q-1.0625 -0.765625 -1.03125 -2.34375zm1.359375 -5.8125q0 1.90625 0.75 2.78125q0.765625 0.875 1.90625 0.875q1.125 0 1.890625 -0.859375q0.765625 -0.875 0.765625 -2.734375q0 -1.78125 -0.796875 -2.671875q-0.78125 -0.90625 -1.890625 -0.90625q-1.09375 0 -1.859375 0.890625q-0.765625 0.875 -0.765625 2.625zm9.328827 5.015625l0 -13.359375l1.640625 0l0 4.796875q1.140625 -1.328125 2.890625 -1.328125q1.078125 0 1.859375 0.421875q0.796875 0.421875 1.140625 1.171875q0.34375 0.75 0.34375 2.171875l0 6.125l-1.640625 0l0 -6.125q0 -1.234375 -0.53125 -1.796875q-0.53125 -0.5625 -1.515625 -0.5625q-0.71875 0 -1.359375 0.390625q-0.640625 0.375 -0.921875 1.015625q-0.265625 0.640625 -0.265625 1.78125l0 5.296875l-1.640625 0zm13.953857 -1.46875l0.234375 1.453125q-0.6875 0.140625 -1.234375 0.140625q-0.890625 0 -1.390625 -0.28125q-0.484375 -0.28125 -0.6875 -0.734375q-0.203125 -0.46875 -0.203125 -1.9375l0 -5.578125l-1.203125 0l0 -1.265625l1.203125 0l0 -2.390625l1.625 -0.984375l0 3.375l1.65625 0l0 1.265625l-1.65625 0l0 5.671875q0 0.6875 0.078125 0.890625q0.09375 0.203125 0.28125 0.328125q0.203125 0.109375 0.578125 0.109375q0.265625 0 0.71875 -0.0625z" fill-rule="nonzero"/><path fill="#000000" d="m397.9947 404.45648l0 -8.40625l-1.453125 0l0 -1.265625l1.453125 0l0 -1.03125q0 -0.96875 0.171875 -1.453125q0.234375 -0.640625 0.828125 -1.03125q0.59375 -0.390625 1.671875 -0.390625q0.6875 0 1.53125 0.15625l-0.25 1.4375q-0.5 -0.09375 -0.953125 -0.09375q-0.75 0 -1.0625 0.328125q-0.3125 0.3125 -0.3125 1.1875l0 0.890625l1.890625 0l0 1.265625l-1.890625 0l0 8.40625l-1.625 0zm11.105164 -3.546875l1.609375 0.21875q-0.265625 1.65625 -1.359375 2.609375q-1.078125 0.9375 -2.671875 0.9375q-1.984375 0 -3.1875 -1.296875q-1.203125 -1.296875 -1.203125 -3.71875q0 -1.578125 0.515625 -2.75q0.515625 -1.171875 1.578125 -1.75q1.0625 -0.59375 2.3125 -0.59375q1.578125 0 2.578125 0.796875q1.0 0.796875 1.28125 2.265625l-1.59375 0.234375q-0.234375 -0.96875 -0.8125 -1.453125q-0.578125 -0.5 -1.390625 -0.5q-1.234375 0 -2.015625 0.890625q-0.78125 0.890625 -0.78125 2.8125q0 1.953125 0.75 2.84375q0.75 0.875 1.953125 0.875q0.96875 0 1.609375 -0.59375q0.65625 -0.59375 0.828125 -1.828125zm11.171875 1.96875l0 1.578125l-8.828125 0q-0.015625 -0.59375 0.1875 -1.140625q0.34375 -0.90625 1.078125 -1.78125q0.75 -0.875 2.15625 -2.015625q2.171875 -1.78125 2.9375 -2.828125q0.765625 -1.046875 0.765625 -1.96875q0 -0.984375 -0.703125 -1.640625q-0.6875 -0.671875 -1.8125 -0.671875q-1.1875 0 -1.90625 0.71875q-0.703125 0.703125 -0.703125 1.953125l-1.6875 -0.171875q0.171875 -1.890625 1.296875 -2.875q1.140625 -0.984375 3.03125 -0.984375q1.921875 0 3.046875 1.0625q1.125 1.0625 1.125 2.640625q0 0.796875 -0.328125 1.578125q-0.328125 0.78125 -1.09375 1.640625q-0.75 0.84375 -2.53125 2.34375q-1.46875 1.234375 -1.890625 1.6875q-0.421875 0.4375 -0.6875 0.875l6.546875 0zm0.7038574 5.28125l0 -1.1875l10.859375 0l0 1.1875l-10.859375 0zm13.672577 -3.703125l-2.96875 -9.671875l1.703125 0l1.53125 5.578125l0.578125 2.078125q0.046875 -0.15625 0.5 -2.0l1.546875 -5.65625l1.6875 0l1.4375 5.609375l0.484375 1.84375l0.5625 -1.859375l1.65625 -5.59375l1.59375 0l-3.03125 9.671875l-1.703125 0l-1.53125 -5.796875l-0.375 -1.640625l-1.953125 7.4375l-1.71875 0zm18.316711 -3.109375l1.6875 0.203125q-0.40625 1.484375 -1.484375 2.3125q-1.078125 0.8125 -2.765625 0.8125q-2.125 0 -3.375 -1.296875q-1.234375 -1.3125 -1.234375 -3.671875q0 -2.453125 1.25 -3.796875q1.265625 -1.34375 3.265625 -1.34375q1.9375 0 3.15625 1.328125q1.234375 1.3125 1.234375 3.703125q0 0.15625 0 0.4375l-7.21875 0q0.09375 1.59375 0.90625 2.453125q0.8125 0.84375 2.015625 0.84375q0.90625 0 1.546875 -0.46875q0.640625 -0.484375 1.015625 -1.515625zm-5.390625 -2.65625l5.40625 0q-0.109375 -1.21875 -0.625 -1.828125q-0.78125 -0.953125 -2.03125 -0.953125q-1.125 0 -1.90625 0.765625q-0.765625 0.75 -0.84375 2.015625zm9.141327 -5.703125l0 -1.890625l1.640625 0l0 1.890625l-1.640625 0zm0 11.46875l0 -9.671875l1.640625 0l0 9.671875l-1.640625 0zm3.8323364 0.796875l1.59375 0.234375q0.109375 0.75 0.5625 1.078125q0.609375 0.453125 1.671875 0.453125q1.140625 0 1.75 -0.453125q0.625 -0.453125 0.84375 -1.265625q0.125 -0.5 0.109375 -2.109375q-1.0625 1.265625 -2.671875 1.265625q-2.0 0 -3.09375 -1.4375q-1.09375 -1.4375 -1.09375 -3.453125q0 -1.390625 0.5 -2.5625q0.515625 -1.171875 1.453125 -1.796875q0.953125 -0.640625 2.25 -0.640625q1.703125 0 2.8125 1.375l0 -1.15625l1.515625 0l0 8.359375q0 2.265625 -0.46875 3.203125q-0.453125 0.9375 -1.453125 1.484375q-0.984375 0.546875 -2.453125 0.546875q-1.71875 0 -2.796875 -0.78125q-1.0625 -0.765625 -1.03125 -2.34375zm1.359375 -5.8125q0 1.90625 0.75 2.78125q0.765625 0.875 1.90625 0.875q1.125 0 1.890625 -0.859375q0.765625 -0.875 0.765625 -2.734375q0 -1.78125 -0.796875 -2.671875q-0.78125 -0.90625 -1.890625 -0.90625q-1.09375 0 -1.859375 0.890625q-0.765625 0.875 -0.765625 2.625zm9.328827 5.015625l0 -13.359375l1.640625 0l0 4.796875q1.140625 -1.328125 2.890625 -1.328125q1.078125 0 1.859375 0.421875q0.796875 0.421875 1.140625 1.171875q0.34375 0.75 0.34375 2.171875l0 6.125l-1.640625 0l0 -6.125q0 -1.234375 -0.53125 -1.796875q-0.53125 -0.5625 -1.515625 -0.5625q-0.71875 0 -1.359375 0.390625q-0.640625 0.375 -0.921875 1.015625q-0.265625 0.640625 -0.265625 1.78125l0 5.296875l-1.640625 0zm13.953857 -1.46875l0.234375 1.453125q-0.6875 0.140625 -1.234375 0.140625q-0.890625 0 -1.390625 -0.28125q-0.484375 -0.28125 -0.6875 -0.734375q-0.203125 -0.46875 -0.203125 -1.9375l0 -5.578125l-1.203125 0l0 -1.265625l1.203125 0l0 -2.390625l1.625 -0.984375l0 3.375l1.65625 0l0 1.265625l-1.65625 0l0 5.671875q0 0.6875 0.078125 0.890625q0.09375 0.203125 0.28125 0.328125q0.203125 0.109375 0.578125 0.109375q0.265625 0 0.71875 -0.0625z" fill-rule="nonzero"/><path fill="#d9ead3" d="m335.98663 463.94955l288.0315 0l0 47.212616l-288.0315 0z" fill-rule="evenodd"/><path fill="#595959" d="m406.0932 494.75586l0 -12.625l-4.71875 0l0 -1.6875l11.34375 0l0 1.6875l-4.734375 0l0 12.625l-1.890625 0zm7.5839844 0l0 -10.375l1.578125 0l0 1.578125q0.609375 -1.109375 1.125 -1.453125q0.515625 -0.359375 1.125 -0.359375q0.890625 0 1.8125 0.5625l-0.609375 1.640625q-0.640625 -0.390625 -1.28125 -0.390625q-0.578125 0 -1.046875 0.359375q-0.453125 0.34375 -0.65625 0.953125q-0.28125 0.9375 -0.28125 2.046875l0 5.4375l-1.765625 0zm13.457031 -1.28125q-0.984375 0.828125 -1.890625 1.171875q-0.90625 0.34375 -1.9375 0.34375q-1.703125 0 -2.625 -0.828125q-0.921875 -0.84375 -0.921875 -2.140625q0 -0.765625 0.34375 -1.390625q0.359375 -0.625 0.921875 -1.0q0.5625 -0.390625 1.265625 -0.59375q0.515625 -0.125 1.5625 -0.265625q2.125 -0.25 3.125 -0.59375q0.015625 -0.359375 0.015625 -0.46875q0 -1.0625 -0.5 -1.515625q-0.671875 -0.59375 -2.0 -0.59375q-1.25 0 -1.84375 0.4375q-0.578125 0.4375 -0.859375 1.546875l-1.71875 -0.234375q0.234375 -1.109375 0.765625 -1.78125q0.53125 -0.6875 1.546875 -1.046875q1.015625 -0.375 2.359375 -0.375q1.328125 0 2.15625 0.3125q0.828125 0.3125 1.21875 0.796875q0.390625 0.46875 0.546875 1.1875q0.09375 0.453125 0.09375 1.625l0 2.34375q0 2.453125 0.109375 3.109375q0.109375 0.640625 0.453125 1.234375l-1.84375 0q-0.265625 -0.546875 -0.34375 -1.28125zm-0.15625 -3.921875q-0.953125 0.390625 -2.875 0.65625q-1.078125 0.15625 -1.53125 0.359375q-0.4375 0.1875 -0.6875 0.5625q-0.25 0.375 -0.25 0.84375q0 0.703125 0.53125 1.171875q0.53125 0.46875 1.5625 0.46875q1.015625 0 1.796875 -0.4375q0.796875 -0.453125 1.171875 -1.21875q0.28125 -0.609375 0.28125 -1.765625l0 -0.640625zm4.498047 5.203125l0 -10.375l1.59375 0l0 1.484375q1.140625 -1.71875 3.296875 -1.71875q0.9375 0 1.71875 0.34375q0.796875 0.328125 1.1875 0.875q0.390625 0.546875 0.546875 1.296875q0.09375 0.5 0.09375 1.71875l0 6.375l-1.765625 0l0 -6.3125q0 -1.078125 -0.203125 -1.609375q-0.203125 -0.53125 -0.734375 -0.84375q-0.515625 -0.3125 -1.21875 -0.3125q-1.125 0 -1.9375 0.71875q-0.8125 0.703125 -0.8125 2.6875l0 5.671875l-1.765625 0zm10.419922 -3.09375l1.75 -0.28125q0.140625 1.046875 0.8125 1.609375q0.671875 0.546875 1.875 0.546875q1.203125 0 1.78125 -0.484375q0.59375 -0.5 0.59375 -1.15625q0 -0.59375 -0.515625 -0.9375q-0.359375 -0.234375 -1.796875 -0.59375q-1.9375 -0.5 -2.6875 -0.84375q-0.734375 -0.359375 -1.125 -0.984375q-0.390625 -0.640625 -0.390625 -1.40625q0 -0.6875 0.3125 -1.28125q0.328125 -0.59375 0.875 -0.984375q0.40625 -0.296875 1.109375 -0.5q0.71875 -0.21875 1.53125 -0.21875q1.21875 0 2.140625 0.359375q0.921875 0.34375 1.359375 0.953125q0.4375 0.59375 0.609375 1.59375l-1.71875 0.234375q-0.125 -0.796875 -0.6875 -1.234375q-0.5625 -0.453125 -1.578125 -0.453125q-1.21875 0 -1.734375 0.40625q-0.515625 0.390625 -0.515625 0.921875q0 0.34375 0.21875 0.625q0.203125 0.28125 0.671875 0.46875q0.265625 0.09375 1.546875 0.4375q1.875 0.5 2.609375 0.828125q0.734375 0.3125 1.15625 0.921875q0.421875 0.59375 0.421875 1.5q0 0.875 -0.515625 1.65625q-0.515625 0.78125 -1.484375 1.203125q-0.96875 0.421875 -2.1875 0.421875q-2.015625 0 -3.078125 -0.84375q-1.0625 -0.84375 -1.359375 -2.484375zm11.125 3.09375l0 -9.0l-1.546875 0l0 -1.375l1.546875 0l0 -1.09375q0 -1.046875 0.1875 -1.5625q0.25 -0.6875 0.890625 -1.109375q0.640625 -0.421875 1.796875 -0.421875q0.75 0 1.640625 0.171875l-0.265625 1.53125q-0.546875 -0.09375 -1.03125 -0.09375q-0.796875 0 -1.140625 0.34375q-0.328125 0.34375 -0.328125 1.28125l0 0.953125l2.03125 0l0 1.375l-2.03125 0l0 9.0l-1.75 0zm4.4941406 -5.1875q0 -2.875 1.59375 -4.265625q1.34375 -1.15625 3.265625 -1.15625q2.140625 0 3.484375 1.40625q1.359375 1.40625 1.359375 3.875q0 2.0 -0.59375 3.15625q-0.59375 1.140625 -1.75 1.78125q-1.140625 0.625 -2.5 0.625q-2.1875 0 -3.53125 -1.390625q-1.328125 -1.40625 -1.328125 -4.03125zm1.796875 0q0 2.0 0.859375 2.984375q0.875 0.984375 2.203125 0.984375q1.3125 0 2.171875 -0.984375q0.875 -1.0 0.875 -3.046875q0 -1.921875 -0.875 -2.90625q-0.875 -1.0 -2.171875 -1.0q-1.328125 0 -2.203125 1.0q-0.859375 0.984375 -0.859375 2.96875zm9.951172 5.1875l0 -10.375l1.578125 0l0 1.578125q0.609375 -1.109375 1.125 -1.453125q0.515625 -0.359375 1.125 -0.359375q0.890625 0 1.8125 0.5625l-0.609375 1.640625q-0.640625 -0.390625 -1.28125 -0.390625q-0.578125 0 -1.046875 0.359375q-0.453125 0.34375 -0.65625 0.953125q-0.28125 0.9375 -0.28125 2.046875l0 5.4375l-1.765625 0zm6.6757812 0l0 -10.375l1.578125 0l0 1.453125q0.484375 -0.75 1.296875 -1.21875q0.8125 -0.46875 1.84375 -0.46875q1.15625 0 1.890625 0.484375q0.734375 0.46875 1.046875 1.328125q1.234375 -1.8125 3.203125 -1.8125q1.546875 0 2.375 0.859375q0.828125 0.859375 0.828125 2.625l0 7.125l-1.75 0l0 -6.53125q0 -1.0625 -0.171875 -1.515625q-0.171875 -0.46875 -0.625 -0.75q-0.4375 -0.28125 -1.046875 -0.28125q-1.09375 0 -1.828125 0.734375q-0.71875 0.71875 -0.71875 2.3125l0 6.03125l-1.75 0l0 -6.734375q0 -1.171875 -0.4375 -1.75q-0.421875 -0.59375 -1.40625 -0.59375q-0.734375 0 -1.375 0.390625q-0.625 0.390625 -0.90625 1.140625q-0.28125 0.75 -0.28125 2.171875l0 5.375l-1.765625 0zm23.769531 -3.34375l1.8125 0.234375q-0.421875 1.578125 -1.59375 2.46875q-1.15625 0.875 -2.96875 0.875q-2.265625 0 -3.609375 -1.390625q-1.328125 -1.40625 -1.328125 -3.9375q0 -2.625 1.34375 -4.0625q1.34375 -1.453125 3.5 -1.453125q2.078125 0 3.390625 1.421875q1.328125 1.40625 1.328125 3.984375q0 0.15625 -0.015625 0.46875l-7.734375 0q0.09375 1.703125 0.96875 2.609375q0.875 0.90625 2.171875 0.90625q0.96875 0 1.640625 -0.5q0.6875 -0.515625 1.09375 -1.625zm-5.78125 -2.84375l5.796875 0q-0.109375 -1.296875 -0.65625 -1.953125q-0.84375 -1.015625 -2.1875 -1.015625q-1.203125 0 -2.03125 0.8125q-0.828125 0.796875 -0.921875 2.15625zm9.779297 6.1875l0 -10.375l1.578125 0l0 1.578125q0.609375 -1.109375 1.125 -1.453125q0.515625 -0.359375 1.125 -0.359375q0.890625 0 1.8125 0.5625l-0.609375 1.640625q-0.640625 -0.390625 -1.28125 -0.390625q-0.578125 0 -1.046875 0.359375q-0.453125 0.34375 -0.65625 0.953125q-0.28125 0.9375 -0.28125 2.046875l0 5.4375l-1.765625 0zm6.8320312 0l0 -14.3125l1.890625 0l0 12.625l7.046875 0l0 1.6875l-8.9375 0zm17.748047 -1.28125q-0.984375 0.828125 -1.890625 1.171875q-0.90625 0.34375 -1.9375 0.34375q-1.703125 0 -2.625 -0.828125q-0.921875 -0.84375 -0.921875 -2.140625q0 -0.765625 0.34375 -1.390625q0.359375 -0.625 0.921875 -1.0q0.5625 -0.390625 1.265625 -0.59375q0.515625 -0.125 1.5625 -0.265625q2.125 -0.25 3.125 -0.59375q0.015625 -0.359375 0.015625 -0.46875q0 -1.0625 -0.5 -1.515625q-0.671875 -0.59375 -2.0 -0.59375q-1.25 0 -1.84375 0.4375q-0.578125 0.4375 -0.859375 1.546875l-1.71875 -0.234375q0.234375 -1.109375 0.765625 -1.78125q0.53125 -0.6875 1.546875 -1.046875q1.015625 -0.375 2.359375 -0.375q1.328125 0 2.15625 0.3125q0.828125 0.3125 1.21875 0.796875q0.390625 0.46875 0.546875 1.1875q0.09375 0.453125 0.09375 1.625l0 2.34375q0 2.453125 0.109375 3.109375q0.109375 0.640625 0.453125 1.234375l-1.84375 0q-0.265625 -0.546875 -0.34375 -1.28125zm-0.15625 -3.921875q-0.953125 0.390625 -2.875 0.65625q-1.078125 0.15625 -1.53125 0.359375q-0.4375 0.1875 -0.6875 0.5625q-0.25 0.375 -0.25 0.84375q0 0.703125 0.53125 1.171875q0.53125 0.46875 1.5625 0.46875q1.015625 0 1.796875 -0.4375q0.796875 -0.453125 1.171875 -1.21875q0.28125 -0.609375 0.28125 -1.765625l0 -0.640625zm4.419922 9.203125l-0.1875 -1.65625q0.578125 0.15625 1.0 0.15625q0.59375 0 0.9375 -0.203125q0.359375 -0.1875 0.578125 -0.53125q0.171875 -0.265625 0.546875 -1.3125q0.046875 -0.15625 0.15625 -0.4375l-3.9375 -10.390625l1.890625 0l2.15625 6.015625q0.421875 1.140625 0.75 2.390625q0.3125 -1.203125 0.71875 -2.359375l2.21875 -6.046875l1.765625 0l-3.953125 10.546875q-0.625 1.71875 -0.984375 2.359375q-0.46875 0.875 -1.078125 1.265625q-0.59375 0.40625 -1.4375 0.40625q-0.515625 0 -1.140625 -0.203125zm17.1875 -7.34375l1.8125 0.234375q-0.421875 1.578125 -1.59375 2.46875q-1.15625 0.875 -2.96875 0.875q-2.265625 0 -3.609375 -1.390625q-1.328125 -1.40625 -1.328125 -3.9375q0 -2.625 1.34375 -4.0625q1.34375 -1.453125 3.5 -1.453125q2.078125 0 3.390625 1.421875q1.328125 1.40625 1.328125 3.984375q0 0.15625 -0.015625 0.46875l-7.734375 0q0.09375 1.703125 0.96875 2.609375q0.875 0.90625 2.171875 0.90625q0.96875 0 1.640625 -0.5q0.6875 -0.515625 1.09375 -1.625zm-5.78125 -2.84375l5.796875 0q-0.109375 -1.296875 -0.65625 -1.953125q-0.84375 -1.015625 -2.1875 -1.015625q-1.203125 0 -2.03125 0.8125q-0.828125 0.796875 -0.921875 2.15625zm9.779297 6.1875l0 -10.375l1.578125 0l0 1.578125q0.609375 -1.109375 1.125 -1.453125q0.515625 -0.359375 1.125 -0.359375q0.890625 0 1.8125 0.5625l-0.609375 1.640625q-0.640625 -0.390625 -1.28125 -0.390625q-0.578125 0 -1.046875 0.359375q-0.453125 0.34375 -0.65625 0.953125q-0.28125 0.9375 -0.28125 2.046875l0 5.4375l-1.765625 0z" fill-rule="nonzero"/></g></svg>