<svg width="960" height="480" xmlns="http://www.w3.org/2000/svg" xmlns:xlink="http://www.w3.org/1999/xlink" overflow="hidden"><g><rect x="0" y="0" width="960" height="480" fill="#FFFFFF"/><rect x="81" y="206" width="129" height="164" stroke="#042433" stroke-width="2" stroke-miterlimit="8" fill="#E8E8E8"/><rect x="96" y="231" width="103" height="71" stroke="#000000" stroke-width="2" stroke-linejoin="round" stroke-miterlimit="10" fill="#D9F2D0"/><text font-family="NVIDIA Sans,NVIDIA Sans_MSFontService,sans-serif" font-weight="400" font-size="13" transform="translate(133.202 254)">High</text><text font-family="NVIDIA Sans,NVIDIA Sans_MSFontService,sans-serif" font-weight="400" font-size="13" transform="translate(119.448 270)">precision</text><text font-family="NVIDIA Sans,NVIDIA Sans_MSFontService,sans-serif" font-weight="400" font-size="13" transform="translate(126.448 286)">weight</text><rect x="96" y="313" width="103" height="48" stroke="#000000" stroke-width="2" stroke-linejoin="round" stroke-miterlimit="10" fill="#F7CBCB"/><text font-family="NVIDIA Sans,NVIDIA Sans_MSFontService,sans-serif" font-weight="400" font-size="13" transform="translate(130.702 325)">Initial</text><text font-family="NVIDIA Sans,NVIDIA Sans_MSFontService,sans-serif" font-weight="400" font-size="13" transform="translate(112.115 341)">FP8 scaling</text><text font-family="NVIDIA Sans,NVIDIA Sans_MSFontService,sans-serif" font-weight="400" font-size="13" transform="translate(125.035 357)">factors</text><rect x="240" y="243" width="82" height="45" stroke="#000000" stroke-width="2" stroke-linejoin="round" stroke-miterlimit="10" fill="#FBE3D6"/><text font-family="NVIDIA Sans,NVIDIA Sans_MSFontService,sans-serif" font-weight="400" font-size="13" transform="translate(268.651 262)">FP8</text><text font-family="NVIDIA Sans,NVIDIA Sans_MSFontService,sans-serif" font-weight="400" font-size="13" transform="translate(258.151 278)">Weight</text><rect x="344" y="187" width="82" height="44" stroke="#000000" stroke-width="2" stroke-linejoin="round" stroke-miterlimit="10" fill="#FBE3D6"/><text font-family="NVIDIA Sans,NVIDIA Sans_MSFontService,sans-serif" font-weight="400" font-size="13" transform="translate(373.003 205)">FP8</text><text font-family="NVIDIA Sans,NVIDIA Sans_MSFontService,sans-serif" font-weight="400" font-size="13" transform="translate(368.583 221)">Input</text><rect x="334" y="104" width="103" height="71" stroke="#000000" stroke-width="2" stroke-linejoin="round" stroke-miterlimit="10" fill="#D9F2D0"/><text font-family="NVIDIA Sans,NVIDIA Sans_MSFontService,sans-serif" font-weight="400" font-size="13" transform="translate(370.67 127)">High</text><text font-family="NVIDIA Sans,NVIDIA Sans_MSFontService,sans-serif" font-weight="400" font-size="13" transform="translate(356.917 143)">precision</text><text font-family="NVIDIA Sans,NVIDIA Sans_MSFontService,sans-serif" font-weight="400" font-size="13" transform="translate(368.837 159)">input</text><rect x="344" y="243" width="82" height="45" stroke="#000000" stroke-width="2" stroke-linejoin="round" stroke-miterlimit="10" fill="#C1E5F5"/><text font-family="NVIDIA Sans,NVIDIA Sans_MSFontService,sans-serif" font-weight="400" font-size="13" transform="translate(373 262)">FP8</text><text font-family="NVIDIA Sans,NVIDIA Sans_MSFontService,sans-serif" font-weight="400" font-size="13" transform="translate(364.333 278)">GEMM</text><path d="M0.015735-0.999876 34.0184-0.464776 33.987 1.53498-0.015735 0.999876ZM32.7325-3.48538 40.6686 0.64 32.6066 4.51362Z" transform="matrix(1 0 0 -1 199 266.64)"/><path d="M322 265 337.791 265 337.791 267 322 267ZM336.458 262 344.458 266 336.458 270Z"/><path d="M386 231 386 236.349 384 236.349 384 231ZM389 235.016 385 243.016 381 235.016Z"/><path d="M386 175 386 180.349 384 180.349 384 175ZM389 179.016 385 187.016 381 179.016Z"/><path d="M302.844 247 306.907 252.911 305.231 253.608 310.349 258.673 308.673 259.519 315 268 304.27 261.501 306.317 260.598 299.65 256.435 302.039 255.149 295 250.782Z" fill="#FF0000" fill-rule="evenodd"/><path d="M408.452 190 412.312 195.63 410.72 196.294 415.582 201.118 413.99 201.923 420 210 409.807 203.81 411.751 202.951 405.418 198.986 407.687 197.761 401 193.602Z" fill="#FF0000" fill-rule="evenodd"/><path d="M409.452 247 413.312 252.63 411.72 253.294 416.582 258.118 414.99 258.923 421 267 410.807 260.81 412.751 259.951 406.418 255.986 408.687 254.761 402 250.602Z" fill="#FF0000" fill-rule="evenodd"/><path d="M0.0369111-0.999319 6.03282-0.777852 5.959 1.22079-0.0369111 0.999319ZM8.10061-0.673792 14.0656-0.0265058 13.8498 1.96182 7.88485 1.31454ZM16.1141 0.247765 22.0214 1.2984 21.6712 3.2675 15.7639 2.21686ZM24.0392 1.73603 29.8647 3.17232 29.386 5.11418 23.5604 3.67789ZM31.84 3.77104 37.3437 5.51189 37.6161 5.61786 36.8909 7.48175 36.6487 7.38751 36.7097 7.40901 31.2368 5.67792ZM39.48 6.34307 44.1494 8.15988 45.1058 8.60687 44.259 10.4188 43.3326 9.98577 43.3934 10.0118 38.7547 8.20696ZM46.9177 9.45367 50.5967 11.1731 52.3529 12.1468 51.3831 13.896 49.6571 12.939 49.7186 12.9703 46.0709 11.2656ZM54.1021 13.1167 56.6269 14.5166 59.2925 16.2633 58.1963 17.9361 55.5616 16.2097 55.6248 16.2478 53.1322 14.8658ZM60.9653 17.3595 62.181 18.1561 65.8342 20.9962 64.6067 22.5752 60.9853 19.7599 61.051 19.8068 59.8691 19.0323ZM67.4635 22.304 71.6245 26.1896 71.8939 26.499 70.3854 27.8122 70.15 27.5418 70.2217 27.6161 66.0985 23.7658ZM73.2071 28.0075 75.3941 30.5196 76.9604 32.8279 75.3055 33.9509 73.7729 31.6924 73.8461 31.7875 71.6986 29.3207ZM78.0834 34.4828 78.4463 35.0176 80.7274 39.6775 80.8507 40.1892 78.9063 40.6576 78.8087 40.2527 78.8828 40.4582 76.681 35.9603 76.7517 36.0821 76.4285 35.6058ZM81.3191 42.1336 81.384 42.4029 79.4396 42.8713 79.3747 42.602ZM84.1057 40.6042 81.6141 49.1944 76.2369 42.047Z" transform="matrix(1 0 0 -1 199 337.194)"/><path d="M0.0162082-0.999869 6.01542-0.902619 5.983 1.09712-0.0162082 0.999869ZM8.01516-0.870203 14.0144-0.772953 13.982 1.22678 7.98274 1.12953ZM16.0141-0.740537 17.4432-0.717371 22.0401-0.498449 21.945 1.49929 17.3637 1.28111 17.3951 1.28211 15.9817 1.2592ZM24.0378-0.403308 30.031-0.117888 29.9359 1.87985 23.9427 1.59443ZM32.0288-0.0227477 34.7491 0.106806 38.046 0.364142 37.8903 2.35808 34.6086 2.10192 34.6388 2.10382 31.9336 1.97499ZM40.0399 0.519778 46.0217 0.986688 45.8661 2.98062 39.8843 2.51371ZM48.0156 1.14232 51.7818 1.43629 54.021 1.67858 53.8059 3.66698 51.5815 3.42629 51.6113 3.42907 47.86 3.13626ZM56.0094 1.89373 61.9746 2.53919 61.7594 4.52759 55.7943 3.88213ZM63.963 2.75434 68.4058 3.23507 69.9524 3.44977 69.6774 5.43077 68.1457 5.21815 68.1756 5.22184 63.7478 4.74274ZM71.9334 3.72477 77.8764 4.54976 77.6014 6.53077 71.6584 5.70577ZM79.8574 4.82476 84.4854 5.46721 85.8248 5.69593 85.4882 7.66739 84.1641 7.4413 84.195 7.44607 79.5824 6.80576ZM87.7963 6.03257 93.7107 7.0425 93.374 9.01397 87.4596 8.00403ZM95.6821 7.37915 99.8854 8.09689 101.618 8.45235 101.217 10.4116 99.4998 10.0594 99.5324 10.0656 95.3455 9.35061ZM103.578 8.8542 109.455 10.0598 109.053 12.019 103.176 10.8134ZM111.414 10.4616 114.471 11.0885 117.305 11.7781 116.832 13.7214 114.015 13.0361 114.051 13.044 111.013 12.4208ZM119.248 12.251 125.078 13.6696 124.605 15.6129 118.775 14.1943ZM127.021 14.1425 128.106 14.4065 132.839 15.7676 132.286 17.6897 127.573 16.3343 127.613 16.3449 126.548 16.0858ZM134.761 16.3204 140.527 17.9787 139.974 19.9008 134.208 18.2425ZM142.468 18.6339 148.147 20.5714 147.501 22.4643 141.822 20.5268ZM150.04 21.2172 151.991 21.883 155.691 23.3992 154.932 25.2498 151.26 23.745 151.317 23.7661 149.394 23.1101ZM157.541 24.1577 161.965 25.9705 163.116 26.5198 162.255 28.3249 161.129 27.7877 161.18 27.8105 156.783 26.0083ZM164.921 27.3811 166.417 28.0949 170.288 30.1608 169.346 31.9252 165.496 29.8699 165.536 29.8903 164.06 29.1862ZM172.051 31.2128 174.133 32.4706 177.115 34.5432 175.973 36.1855 173.017 34.1311 173.071 34.1659 171.017 32.9246ZM178.738 35.8386 180.177 37.0144 182.575 39.3924 183.152 40.3284 181.449 41.3778 180.935 40.5432 181.082 40.7285 178.803 38.4683 178.875 38.5326 177.473 37.3872ZM184.201 42.0309 184.451 42.436 182.748 43.4854 182.499 43.0804ZM186.867 40.296 185.963 49.1944 179.387 43.1319Z" transform="matrix(1 0 0 -1 199 337.194)"/><path d="M0.0156214-0.999878 6.01489-0.90615 5.98365 1.09361-0.0156214 0.999878ZM8.01465-0.874907 14.0139-0.781179 13.9827 1.21858 7.9834 1.12485ZM16.0137-0.749936 22.0129-0.656208 21.9817 1.34355 15.9824 1.24982ZM24.0425-0.610275 30.0362-0.33517 29.9445 1.66273 23.9508 1.38762ZM32.0341-0.243468 38.0278 0.0316382 37.9361 2.02953 31.9424 1.75443ZM40.0257 0.12334 46.0194 0.398446 45.9277 2.39634 39.934 2.12124ZM48.0445 0.523202 54.0276 0.973298 53.8776 2.96766 47.8945 2.51757ZM56.022 1.12333 62.0051 1.57343 61.855 3.56779 55.872 3.1177ZM63.9994 1.72346 69.9786 2.17326 70.0112 2.17666 69.8037 4.16587 69.7855 4.16396 69.8142 4.16654 63.8494 3.71782ZM72.0004 2.3841 77.968 3.00644 77.7606 4.99565 71.793 4.37332ZM79.9573 3.21389 85.9249 3.83622 85.7175 5.82544 79.7498 5.2031ZM87.9141 4.04367 92.4444 4.51611 93.9056 4.71161 93.6404 6.69394 92.1936 6.50038 92.2225 6.50382 87.7067 6.03288ZM95.8879 4.97682 101.835 5.77248 101.57 7.75481 95.6227 6.95916ZM103.817 6.03769 109.764 6.83334 109.499 8.81568 103.552 8.02003ZM111.747 7.09856 114.174 7.42333 117.708 8.00485 117.383 9.97831 113.864 9.39923 113.894 9.40367 111.481 9.0809ZM119.681 8.32963 125.601 9.30397 125.277 11.2774 119.356 10.3031ZM127.575 9.62875 133.495 10.6031 133.17 12.5765 127.25 11.6022ZM135.497 10.9496 141.383 12.1131 140.996 14.0752 135.109 12.9116ZM143.345 12.501 149.232 13.6646 148.844 15.6266 142.958 14.463ZM151.194 14.0524 154.692 14.744 157.096 15.3078 156.639 17.255 154.252 16.6952 154.287 16.7026 150.806 16.0145ZM159.043 15.7645 164.885 17.1344 164.428 19.0816 158.586 17.7116ZM166.832 17.5911 172.673 18.9611 172.217 20.9083 166.375 19.5383ZM174.638 19.4697 180.436 21.011 179.923 22.9439 174.124 21.4025ZM182.386 21.5434 188.15 23.2095 187.595 25.1309 181.831 23.4647ZM190.094 23.7721 195.817 25.5738 195.217 27.4815 189.494 25.6798ZM197.725 26.1743 197.937 26.241 203.426 28.1274 202.776 30.0188 197.299 28.1367 197.324 28.1448 197.125 28.082ZM205.317 28.7775 205.372 28.7962 210.96 30.9008 210.255 32.7724 204.681 30.673 204.708 30.6829 204.667 30.6689ZM212.856 31.6341 218.398 33.9327 217.632 35.7801 212.09 33.4815ZM220.257 34.7672 224.842 36.8757 225.729 37.3319 224.814 39.1104 223.947 38.6643 223.987 38.6836 219.421 36.5843ZM227.508 38.2468 230.314 39.6905 232.817 41.1479 231.81 42.8763 229.33 41.432 229.376 41.457 226.593 40.0253ZM234.545 42.1544 235.24 42.5592 239.599 45.4789 239.669 45.5339 238.432 47.1052 238.392 47.074 238.454 47.1192 234.153 44.2384 234.207 44.2717 233.539 43.8827ZM241.24 46.7714 243.37 48.4484 245.817 50.7879 244.435 52.2335 242.022 49.9271 242.095 49.9899 240.003 48.3426ZM247.249 52.3466 249.052 54.5432 250.739 57.3923 249.018 58.4114 247.37 55.6281 247.457 55.7529 245.703 53.6153ZM251.537 59.4264 252.056 60.8708 252.444 64.0697 252.369 65.7033 250.371 65.6112 250.443 64.0611 250.449 64.2276 250.085 61.2235 250.136 61.4415 249.655 60.1032ZM252.277 67.7012 252.001 73.6948 250.003 73.6028 250.279 67.6091ZM251.909 75.6927 251.888 76.1544 251.138 81.7297 249.156 81.4632 249.9 75.9313 249.892 76.0185 249.911 75.6006ZM250.871 83.7119 250.319 87.8223 249.896 89.7144 247.944 89.2783 248.357 87.4283 248.342 87.5131 248.889 83.4453ZM249.46 91.6663 248.152 97.5219 246.2 97.0858 247.508 91.2302ZM247.645 99.5265 246.377 103.802 245.848 105.302 243.962 104.638 244.482 103.161 244.466 103.209 245.728 98.9575ZM245.184 107.189 244.709 108.539 242.933 112.808 241.086 112.04 242.852 107.796 242.832 107.849 243.298 106.524ZM242.025 114.662 240.941 116.859 239.091 119.979 237.371 118.959 239.201 115.872 239.165 115.939 240.232 113.777ZM237.891 121.694 236.653 123.392 233.529 126.024 232.24 124.494 235.272 121.94 235.109 122.116 236.275 120.516ZM235.853 128.254 226.908 128.214 232.307 121.083Z" transform="matrix(1 0 0 -1 199 337.214)"/><rect x="518" y="206" width="129" height="164" stroke="#042433" stroke-width="2" stroke-miterlimit="8" fill="#E8E8E8"/><rect x="533" y="231" width="103" height="71" stroke="#000000" stroke-width="2" stroke-linejoin="round" stroke-miterlimit="10" fill="#D9F2D0"/><text font-family="NVIDIA Sans,NVIDIA Sans_MSFontService,sans-serif" font-weight="400" font-size="13" transform="translate(569.617 254)">High</text><text font-family="NVIDIA Sans,NVIDIA Sans_MSFontService,sans-serif" font-weight="400" font-size="13" transform="translate(555.863 270)">precision</text><text font-family="NVIDIA Sans,NVIDIA Sans_MSFontService,sans-serif" font-weight="400" font-size="13" transform="translate(562.863 286)">weight</text><rect x="533" y="313" width="103" height="48" stroke="#000000" stroke-width="2" stroke-linejoin="round" stroke-miterlimit="10" fill="#FFFFFF"/><text font-family="NVIDIA Sans,NVIDIA Sans_MSFontService,sans-serif" font-weight="400" font-size="13" transform="translate(550.28 333)">FP8 scaling</text><text font-family="NVIDIA Sans,NVIDIA Sans_MSFontService,sans-serif" font-weight="400" font-size="13" transform="translate(561.447 349)">factors</text><rect x="735" y="104" width="103" height="71" stroke="#000000" stroke-width="2" stroke-linejoin="round" stroke-miterlimit="10" fill="#D9F2D0"/><text font-family="NVIDIA Sans,NVIDIA Sans_MSFontService,sans-serif" font-weight="400" font-size="13" transform="translate(772.407 127)">High</text><text font-family="NVIDIA Sans,NVIDIA Sans_MSFontService,sans-serif" font-weight="400" font-size="13" transform="translate(758.653 143)">precision</text><text font-family="NVIDIA Sans,NVIDIA Sans_MSFontService,sans-serif" font-weight="400" font-size="13" transform="translate(770.573 159)">input</text><rect x="735" y="231" width="103" height="70" stroke="#000000" stroke-width="2" stroke-linejoin="round" stroke-miterlimit="10" fill="#C1E5F5"/><text font-family="NVIDIA Sans,NVIDIA Sans_MSFontService,sans-serif" font-weight="400" font-size="13" transform="translate(772.407 254)">High</text><text font-family="NVIDIA Sans,NVIDIA Sans_MSFontService,sans-serif" font-weight="400" font-size="13" transform="translate(758.653 270)">precision</text><text font-family="NVIDIA Sans,NVIDIA Sans_MSFontService,sans-serif" font-weight="400" font-size="13" transform="translate(766.073 286)">GEMM</text><path d="M0.00641402-0.999979 93.1192-0.402739 93.1064 1.59722-0.00641402 0.999979ZM91.8051-3.41123 99.7793 0.64 91.7538 4.5886Z" transform="matrix(1 0 0 -1 636 266.64)"/><path d="M788 175 788 224.395 786 224.395 786 175ZM791 223.061 787 231.061 783 223.061Z"/><path d="M788.277 301.127 788.042 302.957 787.317 304.869 786.16 306.721 785.823 307.11 784.311 305.801 784.597 305.471 784.505 305.595 785.569 303.893 785.482 304.068 786.131 302.358 786.074 302.586 786.293 300.873ZM784.412 308.692 782.669 310.271 780.361 311.994 779.525 312.487 778.508 310.765 779.297 310.3 779.207 310.359 781.435 308.696 781.362 308.757 783.069 307.21ZM777.803 313.505 774.748 315.309 772.429 316.378 771.592 314.561 773.866 313.514 773.775 313.561 776.786 311.783ZM770.612 317.214 767.817 318.501 765.011 319.551 764.31 317.678 767.082 316.641 767.014 316.669 769.776 315.397ZM763.138 320.253 759.686 321.544 757.423 322.25 756.828 320.34 759.065 319.643 759.012 319.662 762.437 318.38ZM755.513 322.845 750.46 324.42 749.733 324.611 749.224 322.676 749.93 322.491 749.886 322.504 754.918 320.936ZM747.798 325.119 741.995 326.643 741.487 324.709 747.29 323.185ZM740.022 327.153 734.165 328.454 733.731 326.502 739.588 325.2ZM732.212 328.888 729.147 329.57 726.303 330.103 725.935 328.137 728.762 327.607 728.729 327.614 731.778 326.936ZM724.337 330.471 718.44 331.576 718.072 329.61 723.969 328.505ZM716.44 331.924 710.511 332.849 710.203 330.873 716.132 329.948ZM708.535 333.157 704.746 333.748 702.57 334.024 702.318 332.04 704.481 331.766 704.452 331.77 708.227 331.181ZM700.586 334.275 694.634 335.03 694.382 333.046 700.334 332.291ZM692.649 335.282 691.662 335.407 686.654 335.902 686.457 333.912 691.452 333.418 691.424 333.421 692.398 333.298ZM684.664 336.099 678.693 336.689 678.496 334.698 684.467 334.108ZM676.672 336.848 670.687 337.275 670.545 335.28 676.53 334.853ZM668.692 337.417 664.275 337.732 662.677 337.801 662.59 335.803 664.175 335.734 664.147 335.736 668.55 335.422ZM660.679 337.888 654.685 338.149 654.598 336.151 660.592 335.89ZM652.687 338.236 650.194 338.345 646.661 338.397 646.631 336.397 650.15 336.345 650.121 336.346 652.6 336.238ZM644.661 338.426 642.681 338.456 642.651 336.456 644.631 336.427ZM644.058 341.436 636 337.555 643.94 333.437Z"/><path d="M479 50 479 393.312" stroke="#000000" stroke-width="2" stroke-miterlimit="8" fill="none" fill-rule="evenodd"/><text font-family="NVIDIA Sans,NVIDIA Sans_MSFontService,sans-serif" font-weight="700" font-size="22" transform="translate(105.552 72)">FP8 with initial scaling factors</text><text font-family="NVIDIA Sans,NVIDIA Sans_MSFontService,sans-serif" font-weight="700" font-size="22" transform="translate(591.229 72)">Weight calibration</text></g></svg>