<svg width="960" height="480" xmlns="http://www.w3.org/2000/svg" xmlns:xlink="http://www.w3.org/1999/xlink" overflow="hidden"><g><rect x="0" y="0" width="960" height="480" fill="#FFFFFF"/><path d="M446 56 446 399.312" stroke="#000000" stroke-width="2" stroke-miterlimit="8" fill="none" fill-rule="evenodd"/><text font-family="NVIDIA Sans,NVIDIA Sans_MSFontService,sans-serif" font-weight="700" font-size="22" transform="translate(166.41 88)">Weight calibration</text><rect x="87" y="211" width="129" height="164" stroke="#042433" stroke-width="2" stroke-miterlimit="8" fill="#E8E8E8"/><rect x="102" y="236" width="103" height="71" stroke="#000000" stroke-width="2" stroke-linejoin="round" stroke-miterlimit="10" fill="#D9F2D0"/><text font-family="NVIDIA Sans,NVIDIA Sans_MSFontService,sans-serif" font-weight="400" font-size="13" transform="translate(138.558 260)">High</text><text font-family="NVIDIA Sans,NVIDIA Sans_MSFontService,sans-serif" font-weight="400" font-size="13" transform="translate(124.805 276)">precision</text><text font-family="NVIDIA Sans,NVIDIA Sans_MSFontService,sans-serif" font-weight="400" font-size="13" transform="translate(131.805 292)">weight</text><rect x="102" y="319" width="103" height="48" stroke="#000000" stroke-width="2" stroke-linejoin="round" stroke-miterlimit="10" fill="#FFFFFF"/><text font-family="NVIDIA Sans,NVIDIA Sans_MSFontService,sans-serif" font-weight="400" font-size="13" transform="translate(119.222 339)">FP8 scaling</text><text font-family="NVIDIA Sans,NVIDIA Sans_MSFontService,sans-serif" font-weight="400" font-size="13" transform="translate(130.388 355)">factors</text><rect x="304" y="109" width="103" height="71" stroke="#000000" stroke-width="2" stroke-linejoin="round" stroke-miterlimit="10" fill="#D9F2D0"/><text font-family="NVIDIA Sans,NVIDIA Sans_MSFontService,sans-serif" font-weight="400" font-size="13" transform="translate(341.349 132)">High</text><text font-family="NVIDIA Sans,NVIDIA Sans_MSFontService,sans-serif" font-weight="400" font-size="13" transform="translate(327.595 148)">precision</text><text font-family="NVIDIA Sans,NVIDIA Sans_MSFontService,sans-serif" font-weight="400" font-size="13" transform="translate(339.515 164)">input</text><rect x="304" y="236" width="103" height="70" stroke="#000000" stroke-width="2" stroke-linejoin="round" stroke-miterlimit="10" fill="#C1E5F5"/><text font-family="NVIDIA Sans,NVIDIA Sans_MSFontService,sans-serif" font-weight="400" font-size="13" transform="translate(341.348 259)">High</text><text font-family="NVIDIA Sans,NVIDIA Sans_MSFontService,sans-serif" font-weight="400" font-size="13" transform="translate(327.595 275)">precision</text><text font-family="NVIDIA Sans,NVIDIA Sans_MSFontService,sans-serif" font-weight="400" font-size="13" transform="translate(335.015 291)">GEMM</text><path d="M0.00641402-0.999979 93.1192-0.402739 93.1064 1.59722-0.00641402 0.999979ZM91.8051-3.41123 99.7793 0.64 91.7538 4.5886Z" transform="matrix(1 0 0 -1 205 271.64)"/><path d="M357 180 357 229.395 355 229.395 355 180ZM360 228.061 356 236.061 352 228.061Z"/><path d="M357.277 306.127 357.042 307.957 356.317 309.869 355.16 311.721 354.823 312.11 353.311 310.801 353.597 310.471 353.505 310.595 354.569 308.893 354.482 309.068 355.131 307.358 355.074 307.586 355.293 305.873ZM353.412 313.692 351.669 315.271 349.361 316.994 348.525 317.487 347.508 315.765 348.297 315.3 348.207 315.359 350.435 313.696 350.362 313.757 352.069 312.21ZM346.803 318.505 343.748 320.309 341.429 321.378 340.592 319.561 342.866 318.514 342.775 318.561 345.786 316.783ZM339.612 322.214 336.817 323.501 334.011 324.551 333.31 322.678 336.082 321.641 336.014 321.669 338.775 320.397ZM332.138 325.253 328.686 326.544 326.423 327.25 325.828 325.34 328.065 324.643 328.012 324.662 331.437 323.38ZM324.513 327.845 319.46 329.42 318.733 329.611 318.224 327.676 318.93 327.491 318.886 327.504 323.918 325.936ZM316.798 330.119 310.995 331.643 310.487 329.709 316.29 328.185ZM309.022 332.153 303.165 333.454 302.731 331.502 308.588 330.2ZM301.212 333.888 298.147 334.57 295.303 335.103 294.935 333.137 297.762 332.607 297.729 332.614 300.778 331.936ZM293.337 335.471 287.44 336.576 287.072 334.61 292.969 333.505ZM285.44 336.924 279.511 337.849 279.203 335.873 285.132 334.948ZM277.535 338.157 273.746 338.748 271.57 339.024 271.318 337.04 273.481 336.766 273.452 336.77 277.227 336.181ZM269.586 339.275 263.633 340.03 263.382 338.046 269.334 337.291ZM261.649 340.282 260.662 340.407 255.654 340.902 255.457 338.912 260.452 338.418 260.424 338.421 261.398 338.298ZM253.664 341.099 247.693 341.689 247.496 339.698 253.467 339.108ZM245.672 341.848 239.687 342.275 239.545 340.28 245.53 339.853ZM237.692 342.417 233.275 342.732 231.677 342.801 231.59 340.803 233.175 340.734 233.147 340.736 237.55 340.422ZM229.679 342.888 223.685 343.149 223.598 341.151 229.592 340.89ZM221.687 343.236 219.194 343.345 215.661 343.397 215.631 341.397 219.15 341.345 219.121 341.346 221.6 341.238ZM213.661 343.426 211.681 343.456 211.651 341.456 213.631 341.427ZM213.058 346.436 205 342.555 212.94 338.437Z"/><text font-family="NVIDIA Sans,NVIDIA Sans_MSFontService,sans-serif" font-weight="700" font-size="22" transform="translate(500.235 88)">FP8 with calibrated scaling factors</text><rect x="493" y="211" width="129" height="164" stroke="#042433" stroke-width="2" stroke-miterlimit="8" fill="#E8E8E8"/><rect x="508" y="236" width="103" height="71" stroke="#000000" stroke-width="2" stroke-linejoin="round" stroke-miterlimit="10" fill="#D9F2D0"/><text font-family="NVIDIA Sans,NVIDIA Sans_MSFontService,sans-serif" font-weight="400" font-size="13" transform="translate(545.009 260)">High</text><text font-family="NVIDIA Sans,NVIDIA Sans_MSFontService,sans-serif" font-weight="400" font-size="13" transform="translate(531.255 276)">precision</text><text font-family="NVIDIA Sans,NVIDIA Sans_MSFontService,sans-serif" font-weight="400" font-size="13" transform="translate(538.255 292)">weight</text><rect x="508" y="319" width="103" height="48" stroke="#000000" stroke-width="2" stroke-linejoin="round" stroke-miterlimit="10" fill="#92D050"/><text font-family="NVIDIA Sans,NVIDIA Sans_MSFontService,sans-serif" font-weight="400" font-size="13" transform="translate(527.509 331)">Calibrated</text><text font-family="NVIDIA Sans,NVIDIA Sans_MSFontService,sans-serif" font-weight="400" font-size="13" transform="translate(523.922 347)">FP8 scaling</text><text font-family="NVIDIA Sans,NVIDIA Sans_MSFontService,sans-serif" font-weight="400" font-size="13" transform="translate(536.842 363)">factors</text><rect x="652" y="249" width="82" height="44" stroke="#000000" stroke-width="2" stroke-linejoin="round" stroke-miterlimit="10" fill="#FBE3D6"/><text font-family="NVIDIA Sans,NVIDIA Sans_MSFontService,sans-serif" font-weight="400" font-size="13" transform="translate(680.458 267)">FP8</text><text font-family="NVIDIA Sans,NVIDIA Sans_MSFontService,sans-serif" font-weight="400" font-size="13" transform="translate(669.958 283)">Weight</text><rect x="756" y="192" width="82" height="45" stroke="#000000" stroke-width="2" stroke-linejoin="round" stroke-miterlimit="10" fill="#FBE3D6"/><text font-family="NVIDIA Sans,NVIDIA Sans_MSFontService,sans-serif" font-weight="400" font-size="13" transform="translate(784.81 210)">FP8</text><text font-family="NVIDIA Sans,NVIDIA Sans_MSFontService,sans-serif" font-weight="400" font-size="13" transform="translate(780.39 226)">Input</text><rect x="745" y="109" width="103" height="71" stroke="#000000" stroke-width="2" stroke-linejoin="round" stroke-miterlimit="10" fill="#D9F2D0"/><text font-family="NVIDIA Sans,NVIDIA Sans_MSFontService,sans-serif" font-weight="400" font-size="13" transform="translate(782.477 132)">High</text><text font-family="NVIDIA Sans,NVIDIA Sans_MSFontService,sans-serif" font-weight="400" font-size="13" transform="translate(768.723 148)">precision</text><text font-family="NVIDIA Sans,NVIDIA Sans_MSFontService,sans-serif" font-weight="400" font-size="13" transform="translate(780.643 164)">input</text><rect x="756" y="249" width="82" height="44" stroke="#000000" stroke-width="2" stroke-linejoin="round" stroke-miterlimit="10" fill="#C1E5F5"/><text font-family="NVIDIA Sans,NVIDIA Sans_MSFontService,sans-serif" font-weight="400" font-size="13" transform="translate(784.807 267)">FP8</text><text font-family="NVIDIA Sans,NVIDIA Sans_MSFontService,sans-serif" font-weight="400" font-size="13" transform="translate(776.14 283)">GEMM</text><path d="M0.015735-0.999876 34.0184-0.464776 33.987 1.53498-0.015735 0.999876ZM32.7325-3.48538 40.6686 0.64 32.6066 4.51362Z" transform="matrix(1 0 0 -1 611 271.64)"/><path d="M734 270 749.791 270 749.791 272 734 272ZM748.458 267 756.458 271 748.458 275Z"/><path d="M798 237 798 242.349 796 242.349 796 237ZM801 241.016 797 249.016 793 241.016Z"/><path d="M798 180 798 185.349 796 185.349 796 180ZM801 184.016 797 192.016 793 184.016Z"/><path d="M0.0369111-0.999319 6.03282-0.777852 5.959 1.22079-0.0369111 0.999319ZM8.10061-0.673792 14.0656-0.0265058 13.8498 1.96182 7.88485 1.31454ZM16.1141 0.247765 22.0214 1.2984 21.6712 3.2675 15.7639 2.21686ZM24.0392 1.73603 29.8647 3.17232 29.386 5.11418 23.5604 3.67789ZM31.84 3.77104 37.3437 5.51189 37.6161 5.61786 36.8909 7.48175 36.6487 7.38751 36.7097 7.40901 31.2368 5.67792ZM39.48 6.34307 44.1494 8.15988 45.1058 8.60687 44.259 10.4188 43.3326 9.98577 43.3934 10.0118 38.7547 8.20696ZM46.9177 9.45367 50.5967 11.1731 52.3529 12.1468 51.3831 13.896 49.6571 12.939 49.7186 12.9703 46.0709 11.2656ZM54.1021 13.1167 56.6269 14.5166 59.2925 16.2633 58.1963 17.9361 55.5616 16.2097 55.6248 16.2478 53.1322 14.8658ZM60.9653 17.3595 62.181 18.1561 65.8342 20.9962 64.6067 22.5752 60.9853 19.7599 61.051 19.8068 59.8691 19.0323ZM67.4635 22.304 71.6245 26.1896 71.8939 26.499 70.3854 27.8122 70.15 27.5418 70.2217 27.6161 66.0985 23.7658ZM73.2071 28.0075 75.3941 30.5196 76.9604 32.8279 75.3055 33.9509 73.7729 31.6924 73.8461 31.7875 71.6986 29.3207ZM78.0834 34.4828 78.4463 35.0176 80.7274 39.6775 80.8507 40.1892 78.9063 40.6576 78.8087 40.2527 78.8828 40.4582 76.681 35.9603 76.7517 36.0821 76.4285 35.6058ZM81.3191 42.1336 81.384 42.4029 79.4396 42.8713 79.3747 42.602ZM84.1057 40.6042 81.6141 49.1944 76.2369 42.047Z" transform="matrix(1 0 0 -1 611 342.194)"/><path d="M0.0162082-0.999869 6.01542-0.902619 5.983 1.09712-0.0162082 0.999869ZM8.01516-0.870203 14.0144-0.772953 13.982 1.22678 7.98274 1.12953ZM16.0141-0.740537 17.4432-0.717371 22.0401-0.498449 21.945 1.49929 17.3637 1.28111 17.3951 1.28211 15.9817 1.2592ZM24.0378-0.403308 30.031-0.117888 29.9359 1.87985 23.9427 1.59443ZM32.0288-0.0227477 34.7491 0.106806 38.046 0.364142 37.8903 2.35808 34.6086 2.10192 34.6388 2.10382 31.9336 1.97499ZM40.0399 0.519778 46.0217 0.986688 45.8661 2.98062 39.8843 2.51371ZM48.0156 1.14232 51.7818 1.43629 54.021 1.67858 53.8059 3.66698 51.5815 3.42629 51.6113 3.42907 47.86 3.13626ZM56.0094 1.89373 61.9746 2.53919 61.7594 4.52759 55.7943 3.88213ZM63.963 2.75434 68.4058 3.23507 69.9524 3.44977 69.6774 5.43077 68.1457 5.21815 68.1756 5.22184 63.7478 4.74274ZM71.9334 3.72477 77.8764 4.54976 77.6014 6.53077 71.6584 5.70577ZM79.8574 4.82476 84.4854 5.46721 85.8248 5.69593 85.4882 7.66739 84.1641 7.4413 84.195 7.44607 79.5824 6.80576ZM87.7963 6.03257 93.7107 7.0425 93.374 9.01397 87.4596 8.00403ZM95.6821 7.37915 99.8854 8.09689 101.618 8.45235 101.217 10.4116 99.4998 10.0594 99.5324 10.0656 95.3455 9.35061ZM103.578 8.8542 109.455 10.0598 109.053 12.019 103.176 10.8134ZM111.414 10.4616 114.471 11.0885 117.305 11.7781 116.832 13.7214 114.015 13.0361 114.051 13.044 111.013 12.4208ZM119.248 12.251 125.078 13.6696 124.605 15.6129 118.775 14.1943ZM127.021 14.1425 128.106 14.4065 132.839 15.7676 132.286 17.6897 127.573 16.3343 127.613 16.3449 126.548 16.0858ZM134.761 16.3204 140.527 17.9787 139.974 19.9008 134.208 18.2425ZM142.468 18.6339 148.147 20.5714 147.501 22.4643 141.822 20.5268ZM150.04 21.2172 151.991 21.883 155.691 23.3992 154.932 25.2498 151.26 23.745 151.317 23.7661 149.394 23.1101ZM157.541 24.1577 161.965 25.9705 163.116 26.5198 162.255 28.3249 161.129 27.7877 161.18 27.8105 156.783 26.0083ZM164.921 27.3811 166.417 28.0949 170.288 30.1608 169.346 31.9252 165.496 29.8699 165.536 29.8903 164.06 29.1862ZM172.051 31.2128 174.133 32.4706 177.115 34.5432 175.973 36.1855 173.017 34.1311 173.071 34.1659 171.017 32.9246ZM178.738 35.8386 180.177 37.0144 182.575 39.3924 183.152 40.3284 181.449 41.3778 180.935 40.5432 181.082 40.7285 178.803 38.4683 178.875 38.5326 177.473 37.3872ZM184.201 42.0309 184.451 42.436 182.748 43.4854 182.499 43.0804ZM186.867 40.296 185.963 49.1944 179.387 43.1319Z" transform="matrix(1 0 0 -1 611 342.194)"/><path d="M0.0156214-0.999878 6.01489-0.90615 5.98365 1.09361-0.0156214 0.999878ZM8.01465-0.874907 14.0139-0.781179 13.9827 1.21858 7.9834 1.12485ZM16.0137-0.749936 22.0129-0.656208 21.9817 1.34355 15.9824 1.24982ZM24.0425-0.610275 30.0362-0.33517 29.9445 1.66273 23.9508 1.38762ZM32.0341-0.243468 38.0278 0.0316382 37.9361 2.02953 31.9424 1.75443ZM40.0257 0.12334 46.0194 0.398446 45.9277 2.39634 39.934 2.12124ZM48.0445 0.523202 54.0276 0.973298 53.8776 2.96766 47.8945 2.51757ZM56.022 1.12333 62.0051 1.57343 61.855 3.56779 55.872 3.1177ZM63.9994 1.72346 69.9786 2.17326 70.0112 2.17666 69.8037 4.16587 69.7855 4.16396 69.8142 4.16654 63.8494 3.71782ZM72.0004 2.3841 77.968 3.00644 77.7606 4.99565 71.793 4.37332ZM79.9573 3.21389 85.9249 3.83622 85.7175 5.82544 79.7498 5.2031ZM87.9141 4.04367 92.4444 4.51611 93.9056 4.71161 93.6404 6.69394 92.1936 6.50038 92.2225 6.50382 87.7067 6.03288ZM95.8879 4.97682 101.835 5.77248 101.57 7.75481 95.6227 6.95916ZM103.817 6.03769 109.764 6.83334 109.499 8.81568 103.552 8.02003ZM111.747 7.09856 114.174 7.42333 117.708 8.00485 117.383 9.97831 113.864 9.39923 113.894 9.40367 111.481 9.0809ZM119.681 8.32963 125.601 9.30397 125.277 11.2774 119.356 10.3031ZM127.575 9.62875 133.495 10.6031 133.17 12.5765 127.25 11.6022ZM135.497 10.9496 141.383 12.1131 140.996 14.0752 135.109 12.9116ZM143.345 12.501 149.232 13.6646 148.844 15.6266 142.958 14.463ZM151.194 14.0524 154.692 14.744 157.096 15.3078 156.639 17.255 154.252 16.6952 154.287 16.7026 150.806 16.0145ZM159.043 15.7645 164.885 17.1344 164.428 19.0816 158.586 17.7116ZM166.832 17.5911 172.673 18.9611 172.217 20.9083 166.375 19.5383ZM174.638 19.4697 180.436 21.011 179.923 22.9439 174.124 21.4025ZM182.386 21.5434 188.15 23.2095 187.595 25.1309 181.831 23.4647ZM190.094 23.7721 195.817 25.5738 195.217 27.4815 189.494 25.6798ZM197.725 26.1743 197.937 26.241 203.426 28.1274 202.776 30.0188 197.299 28.1367 197.324 28.1448 197.125 28.082ZM205.317 28.7775 205.372 28.7962 210.96 30.9008 210.255 32.7724 204.681 30.673 204.708 30.6829 204.667 30.6689ZM212.856 31.6341 218.398 33.9327 217.632 35.7801 212.09 33.4815ZM220.257 34.7672 224.842 36.8757 225.729 37.3319 224.814 39.1104 223.947 38.6643 223.987 38.6836 219.421 36.5843ZM227.508 38.2468 230.314 39.6905 232.817 41.1479 231.81 42.8763 229.33 41.432 229.376 41.457 226.593 40.0253ZM234.545 42.1544 235.24 42.5592 239.599 45.4789 239.669 45.5339 238.432 47.1052 238.392 47.074 238.454 47.1192 234.153 44.2384 234.207 44.2717 233.539 43.8827ZM241.24 46.7714 243.37 48.4484 245.817 50.7879 244.435 52.2335 242.022 49.9271 242.095 49.9899 240.003 48.3426ZM247.249 52.3466 249.052 54.5432 250.739 57.3923 249.018 58.4114 247.37 55.6281 247.457 55.7529 245.703 53.6153ZM251.537 59.4264 252.056 60.8708 252.444 64.0697 252.369 65.7033 250.371 65.6112 250.443 64.0611 250.449 64.2276 250.085 61.2235 250.136 61.4415 249.655 60.1032ZM252.277 67.7012 252.001 73.6948 250.003 73.6028 250.279 67.6091ZM251.909 75.6927 251.888 76.1544 251.138 81.7297 249.156 81.4632 249.9 75.9313 249.892 76.0185 249.911 75.6006ZM250.871 83.7119 250.319 87.8223 249.896 89.7144 247.944 89.2783 248.357 87.4283 248.342 87.5131 248.889 83.4453ZM249.46 91.6663 248.152 97.5219 246.2 97.0858 247.508 91.2302ZM247.645 99.5265 246.377 103.802 245.848 105.302 243.962 104.638 244.482 103.161 244.466 103.209 245.728 98.9575ZM245.184 107.189 244.709 108.539 242.933 112.808 241.086 112.04 242.852 107.796 242.832 107.849 243.298 106.524ZM242.025 114.662 240.941 116.859 239.091 119.979 237.371 118.959 239.201 115.872 239.165 115.939 240.232 113.777ZM237.891 121.694 236.653 123.392 233.529 126.024 232.24 124.494 235.272 121.94 235.109 122.116 236.275 120.516ZM235.853 128.254 226.908 128.214 232.307 121.083Z" transform="matrix(1 0 0 -1 611 342.214)"/></g></svg>