<svg width="1280" height="720" xmlns="http://www.w3.org/2000/svg" xmlns:xlink="http://www.w3.org/1999/xlink" overflow="hidden"><g><rect x="0" y="0" width="1280" height="720" fill="#FFFFFF"/><text font-family="NVIDIA Sans,NVIDIA Sans_MSFontService,sans-serif" font-weight="700" font-size="24" transform="translate(39.6169 204)">FP8 with initial scaling factors</text><rect x="25" y="326" width="129" height="164" stroke="#042433" stroke-width="2" stroke-miterlimit="8" fill="#E8E8E8"/><rect x="40" y="351" width="103" height="71" stroke="#000000" stroke-width="2" stroke-linejoin="round" stroke-miterlimit="10" fill="#D9F2D0"/><text font-family="NVIDIA Sans,NVIDIA Sans_MSFontService,sans-serif" font-weight="400" font-size="13" transform="translate(76.8203 374)">High</text><text font-family="NVIDIA Sans,NVIDIA Sans_MSFontService,sans-serif" font-weight="400" font-size="13" transform="translate(63.067 390)">precision</text><text font-family="NVIDIA Sans,NVIDIA Sans_MSFontService,sans-serif" font-weight="400" font-size="13" transform="translate(70.067 406)">weight</text><rect x="40" y="433" width="103" height="48" stroke="#000000" stroke-width="2" stroke-linejoin="round" stroke-miterlimit="10" fill="#F7CBCB"/><text font-family="NVIDIA Sans,NVIDIA Sans_MSFontService,sans-serif" font-weight="400" font-size="13" transform="translate(74.3203 445)">Initial</text><text font-family="NVIDIA Sans,NVIDIA Sans_MSFontService,sans-serif" font-weight="400" font-size="13" transform="translate(55.7337 461)">FP8 scaling</text><text font-family="NVIDIA Sans,NVIDIA Sans_MSFontService,sans-serif" font-weight="400" font-size="13" transform="translate(68.6536 477)">factors</text><rect x="183" y="363" width="82" height="45" stroke="#000000" stroke-width="2" stroke-linejoin="round" stroke-miterlimit="10" fill="#FBE3D6"/><text font-family="NVIDIA Sans,NVIDIA Sans_MSFontService,sans-serif" font-weight="400" font-size="13" transform="translate(212.27 382)">FP8</text><text font-family="NVIDIA Sans,NVIDIA Sans_MSFontService,sans-serif" font-weight="400" font-size="13" transform="translate(201.77 398)">Weight</text><rect x="288" y="307" width="82" height="44" stroke="#000000" stroke-width="2" stroke-linejoin="round" stroke-miterlimit="10" fill="#FBE3D6"/><text font-family="NVIDIA Sans,NVIDIA Sans_MSFontService,sans-serif" font-weight="400" font-size="13" transform="translate(316.622 325)">FP8</text><text font-family="NVIDIA Sans,NVIDIA Sans_MSFontService,sans-serif" font-weight="400" font-size="13" transform="translate(312.202 341)">Input</text><rect x="277" y="224" width="103" height="71" stroke="#000000" stroke-width="2" stroke-linejoin="round" stroke-miterlimit="10" fill="#D9F2D0"/><text font-family="NVIDIA Sans,NVIDIA Sans_MSFontService,sans-serif" font-weight="400" font-size="13" transform="translate(314.289 247)">High</text><text font-family="NVIDIA Sans,NVIDIA Sans_MSFontService,sans-serif" font-weight="400" font-size="13" transform="translate(300.535 263)">precision</text><text font-family="NVIDIA Sans,NVIDIA Sans_MSFontService,sans-serif" font-weight="400" font-size="13" transform="translate(312.455 279)">input</text><rect x="288" y="363" width="82" height="45" stroke="#000000" stroke-width="2" stroke-linejoin="round" stroke-miterlimit="10" fill="#C1E5F5"/><text font-family="NVIDIA Sans,NVIDIA Sans_MSFontService,sans-serif" font-weight="400" font-size="13" transform="translate(316.619 382)">FP8</text><text font-family="NVIDIA Sans,NVIDIA Sans_MSFontService,sans-serif" font-weight="400" font-size="13" transform="translate(307.952 398)">GEMM</text><path d="M0.015735-0.999876 34.0184-0.464776 33.987 1.53498-0.015735 0.999876ZM32.7325-3.48538 40.6686 0.64 32.6066 4.51362Z" transform="matrix(1 0 0 -1 143 386.64)"/><path d="M265 385 280.791 385 280.791 387 265 387ZM279.458 382 287.458 386 279.458 390Z"/><path d="M330 351 330 356.349 328 356.349 328 351ZM333 355.016 329 363.016 325 355.016Z"/><path d="M330 295 330 300.349 328 300.349 328 295ZM333 299.016 329 307.016 325 299.016Z"/><path d="M246.452 367 250.312 372.911 248.72 373.608 253.582 378.673 251.989 379.519 258 388 247.807 381.501 249.751 380.598 243.417 376.435 245.687 375.149 239 370.782Z" fill="#FF0000" fill-rule="evenodd"/><path d="M351.844 310 355.907 315.63 354.231 316.294 359.349 321.118 357.673 321.923 364 330 353.27 323.81 355.317 322.951 348.65 318.986 351.039 317.761 344 313.602Z" fill="#FF0000" fill-rule="evenodd"/><path d="M353.452 367 357.312 372.63 355.72 373.294 360.582 378.118 358.99 378.923 365 387 354.807 380.81 356.751 379.951 350.418 375.986 352.687 374.761 346 370.602Z" fill="#FF0000" fill-rule="evenodd"/><path d="M0.0369111-0.999319 6.03282-0.777852 5.959 1.22079-0.0369111 0.999319ZM8.10061-0.673792 14.0656-0.0265058 13.8498 1.96182 7.88485 1.31454ZM16.1141 0.247765 22.0214 1.2984 21.6712 3.2675 15.7639 2.21686ZM24.0392 1.73603 29.8647 3.17232 29.386 5.11418 23.5604 3.67789ZM31.84 3.77104 37.3437 5.51189 37.6161 5.61786 36.8909 7.48175 36.6487 7.38751 36.7097 7.40901 31.2368 5.67792ZM39.48 6.34307 44.1494 8.15988 45.1058 8.60687 44.259 10.4188 43.3326 9.98577 43.3934 10.0118 38.7547 8.20696ZM46.9177 9.45367 50.5967 11.1731 52.3529 12.1468 51.3831 13.896 49.6571 12.939 49.7186 12.9703 46.0709 11.2656ZM54.1021 13.1167 56.6269 14.5166 59.2925 16.2633 58.1963 17.9361 55.5616 16.2097 55.6248 16.2478 53.1322 14.8658ZM60.9653 17.3595 62.181 18.1561 65.8342 20.9962 64.6067 22.5752 60.9853 19.7599 61.051 19.8068 59.8691 19.0323ZM67.4635 22.304 71.6245 26.1896 71.8939 26.499 70.3854 27.8122 70.15 27.5418 70.2217 27.6161 66.0985 23.7658ZM73.2071 28.0075 75.3941 30.5196 76.9604 32.8279 75.3055 33.9509 73.7729 31.6924 73.8461 31.7875 71.6986 29.3207ZM78.0834 34.4828 78.4463 35.0176 80.7274 39.6775 80.8507 40.1892 78.9063 40.6576 78.8087 40.2527 78.8828 40.4582 76.681 35.9603 76.7517 36.0821 76.4285 35.6058ZM81.3191 42.1336 81.384 42.4029 79.4396 42.8713 79.3747 42.602ZM84.1057 40.6042 81.6141 49.1944 76.2369 42.047Z" transform="matrix(1 0 0 -1 143 457.194)"/><path d="M0.0162082-0.999869 6.01542-0.902619 5.983 1.09712-0.0162082 0.999869ZM8.01516-0.870203 14.0144-0.772954 13.9819 1.22678 7.98274 1.12953ZM16.0141-0.740537 17.4432-0.717371 22.0401-0.498449 21.9449 1.49929 17.3637 1.28111 17.3951 1.28211 15.9817 1.2592ZM24.0378-0.403309 30.031-0.117889 29.9359 1.87985 23.9427 1.59443ZM32.0288-0.0227485 34.7491 0.106806 38.046 0.36414 37.8903 2.35808 34.6086 2.10192 34.6389 2.10382 31.9336 1.97499ZM40.0399 0.519777 46.0217 0.986686 45.8661 2.98062 39.8843 2.51371ZM48.0156 1.14232 51.7818 1.43629 54.021 1.67858 53.8059 3.66697 51.5816 3.42629 51.6113 3.42907 47.86 3.13626ZM56.0094 1.89373 61.9746 2.53919 61.7594 4.52758 55.7942 3.88213ZM63.963 2.75434 68.4058 3.23507 69.9524 3.44976 69.6774 5.43077 68.1457 5.21815 68.1756 5.22184 63.7478 4.74273ZM71.9334 3.72476 77.8764 4.54976 77.6014 6.53076 71.6584 5.70577ZM79.8574 4.82475 84.4855 5.46721 85.8248 5.69592 85.4882 7.66738 84.1642 7.4413 84.195 7.44607 79.5824 6.80576ZM87.7963 6.03256 93.7107 7.0425 93.374 9.01396 87.4596 8.00403ZM95.6821 7.37914 99.8855 8.09689 101.618 8.45234 101.217 10.4115 99.4998 10.0594 99.5324 10.0656 95.3455 9.35061ZM103.578 8.85419 109.455 10.0598 109.053 12.019 103.176 10.8134ZM111.414 10.4616 114.471 11.0885 117.305 11.7781 116.832 13.7214 114.015 13.0361 114.051 13.044 111.013 12.4208ZM119.248 12.251 125.078 13.6696 124.605 15.6129 118.775 14.1942ZM127.021 14.1425 128.106 14.4065 132.839 15.7676 132.286 17.6897 127.573 16.3343 127.613 16.3449 126.548 16.0858ZM134.761 16.3204 140.527 17.9787 139.974 19.9008 134.208 18.2425ZM142.468 18.6339 148.147 20.5714 147.501 22.4642 141.822 20.5268ZM150.04 21.2172 151.991 21.883 155.691 23.3992 154.932 25.2498 151.26 23.745 151.317 23.7661 149.394 23.1101ZM157.541 24.1576 161.965 25.9705 163.116 26.5198 162.255 28.3249 161.129 27.7877 161.181 27.8105 156.783 26.0083ZM164.921 27.3811 166.417 28.0949 170.288 30.1608 169.346 31.9252 165.496 29.8699 165.536 29.8903 164.06 29.1861ZM172.051 31.2128 174.133 32.4706 177.115 34.5431 175.973 36.1855 173.017 34.1311 173.071 34.1659 171.017 32.9246ZM178.738 35.8385 180.177 37.0144 182.575 39.3924 183.152 40.3283 181.449 41.3778 180.935 40.5432 181.082 40.7285 178.803 38.4683 178.875 38.5326 177.473 37.3872ZM184.201 42.0309 184.451 42.436 182.748 43.4854 182.499 43.0803ZM186.867 40.296 185.963 49.1944 179.387 43.132Z" transform="matrix(1 0 0 -1 143 457.194)"/><path d="M0.0156214-0.999878 6.01489-0.90615 5.98365 1.09361-0.0156214 0.999878ZM8.01465-0.874907 14.0139-0.781179 13.9827 1.21858 7.9834 1.12485ZM16.0137-0.749936 22.0129-0.656208 21.9817 1.34355 15.9824 1.24982ZM24.0425-0.610275 30.0362-0.33517 29.9445 1.66273 23.9508 1.38762ZM32.0341-0.243468 38.0278 0.0316382 37.9361 2.02953 31.9424 1.75443ZM40.0257 0.12334 46.0194 0.398446 45.9277 2.39634 39.934 2.12124ZM48.0445 0.523202 54.0276 0.973298 53.8776 2.96766 47.8945 2.51757ZM56.022 1.12333 62.0051 1.57343 61.855 3.56779 55.872 3.1177ZM63.9994 1.72346 69.9786 2.17326 70.0112 2.17666 69.8037 4.16587 69.7855 4.16396 69.8142 4.16654 63.8494 3.71782ZM72.0004 2.3841 77.968 3.00644 77.7606 4.99565 71.793 4.37332ZM79.9573 3.21389 85.9249 3.83622 85.7175 5.82544 79.7498 5.2031ZM87.9141 4.04367 92.4444 4.51611 93.9056 4.71161 93.6404 6.69394 92.1936 6.50038 92.2225 6.50382 87.7067 6.03288ZM95.8879 4.97682 101.835 5.77248 101.57 7.75481 95.6227 6.95916ZM103.817 6.03769 109.764 6.83334 109.499 8.81568 103.552 8.02003ZM111.747 7.09856 114.174 7.42333 117.708 8.00485 117.383 9.97831 113.864 9.39923 113.894 9.40367 111.481 9.0809ZM119.681 8.32963 125.601 9.30397 125.277 11.2774 119.356 10.3031ZM127.575 9.62875 133.495 10.6031 133.17 12.5765 127.25 11.6022ZM135.497 10.9496 141.383 12.1131 140.996 14.0752 135.109 12.9116ZM143.345 12.501 149.232 13.6646 148.844 15.6266 142.958 14.463ZM151.194 14.0524 154.692 14.744 157.096 15.3078 156.639 17.255 154.252 16.6952 154.287 16.7026 150.806 16.0145ZM159.043 15.7645 164.885 17.1344 164.428 19.0816 158.586 17.7116ZM166.832 17.5911 172.673 18.9611 172.217 20.9083 166.375 19.5383ZM174.638 19.4697 180.436 21.011 179.923 22.9439 174.124 21.4025ZM182.386 21.5434 188.15 23.2095 187.595 25.1309 181.831 23.4647ZM190.094 23.7721 195.817 25.5738 195.217 27.4815 189.494 25.6798ZM197.725 26.1743 197.937 26.241 203.426 28.1274 202.776 30.0188 197.299 28.1367 197.324 28.1448 197.125 28.082ZM205.317 28.7775 205.372 28.7962 210.96 30.9008 210.255 32.7724 204.681 30.673 204.708 30.6829 204.667 30.6689ZM212.856 31.6341 218.398 33.9327 217.632 35.7801 212.09 33.4815ZM220.257 34.7672 224.842 36.8757 225.729 37.3319 224.814 39.1104 223.947 38.6643 223.987 38.6836 219.421 36.5843ZM227.508 38.2468 230.314 39.6905 232.817 41.1479 231.81 42.8763 229.33 41.432 229.376 41.457 226.593 40.0253ZM234.545 42.1544 235.24 42.5592 239.599 45.4789 239.669 45.5339 238.432 47.1052 238.392 47.074 238.454 47.1192 234.153 44.2384 234.207 44.2717 233.539 43.8827ZM241.24 46.7714 243.37 48.4484 245.817 50.7879 244.435 52.2335 242.022 49.9271 242.095 49.9899 240.003 48.3426ZM247.249 52.3466 249.052 54.5432 250.739 57.3923 249.018 58.4114 247.37 55.6281 247.457 55.7529 245.703 53.6153ZM251.537 59.4264 252.056 60.8708 252.444 64.0697 252.369 65.7033 250.371 65.6112 250.443 64.0611 250.449 64.2276 250.085 61.2235 250.136 61.4415 249.655 60.1032ZM252.277 67.7012 252.001 73.6948 250.003 73.6028 250.279 67.6091ZM251.909 75.6927 251.888 76.1544 251.138 81.7297 249.156 81.4632 249.9 75.9313 249.892 76.0185 249.911 75.6006ZM250.871 83.7119 250.319 87.8223 249.896 89.7144 247.944 89.2783 248.357 87.4283 248.342 87.5131 248.889 83.4453ZM249.46 91.6663 248.152 97.5219 246.2 97.0858 247.508 91.2302ZM247.645 99.5265 246.377 103.802 245.848 105.302 243.962 104.638 244.482 103.161 244.466 103.209 245.728 98.9575ZM245.184 107.189 244.709 108.539 242.933 112.808 241.086 112.04 242.852 107.796 242.832 107.849 243.298 106.524ZM242.025 114.662 240.941 116.859 239.091 119.979 237.371 118.959 239.201 115.872 239.165 115.939 240.232 113.777ZM237.891 121.694 236.653 123.392 233.529 126.024 232.24 124.494 235.272 121.94 235.109 122.116 236.275 120.516ZM235.853 128.254 226.908 128.214 232.307 121.083Z" transform="matrix(1 0 0 -1 143 457.214)"/><path d="M821 170 821 513.312" stroke="#000000" stroke-width="2" stroke-miterlimit="8" fill="none" fill-rule="evenodd"/><text font-family="NVIDIA Sans,NVIDIA Sans_MSFontService,sans-serif" font-weight="700" font-size="24" transform="translate(531.587 204)">Weight calibration</text><rect x="461" y="326" width="129" height="164" stroke="#042433" stroke-width="2" stroke-miterlimit="8" fill="#E8E8E8"/><rect x="476" y="351" width="103" height="71" stroke="#000000" stroke-width="2" stroke-linejoin="round" stroke-miterlimit="10" fill="#D9F2D0"/><text font-family="NVIDIA Sans,NVIDIA Sans_MSFontService,sans-serif" font-weight="400" font-size="13" transform="translate(513.235 374)">High</text><text font-family="NVIDIA Sans,NVIDIA Sans_MSFontService,sans-serif" font-weight="400" font-size="13" transform="translate(499.482 390)">precision</text><text font-family="NVIDIA Sans,NVIDIA Sans_MSFontService,sans-serif" font-weight="400" font-size="13" transform="translate(506.482 406)">weight</text><rect x="476" y="433" width="103" height="48" stroke="#000000" stroke-width="2" stroke-linejoin="round" stroke-miterlimit="10" fill="#FFFFFF"/><text font-family="NVIDIA Sans,NVIDIA Sans_MSFontService,sans-serif" font-weight="400" font-size="13" transform="translate(493.898 453)">FP8 scaling</text><text font-family="NVIDIA Sans,NVIDIA Sans_MSFontService,sans-serif" font-weight="400" font-size="13" transform="translate(505.065 469)">factors</text><rect x="679" y="224" width="103" height="71" stroke="#000000" stroke-width="2" stroke-linejoin="round" stroke-miterlimit="10" fill="#D9F2D0"/><text font-family="NVIDIA Sans,NVIDIA Sans_MSFontService,sans-serif" font-weight="400" font-size="13" transform="translate(716.025 247)">High</text><text font-family="NVIDIA Sans,NVIDIA Sans_MSFontService,sans-serif" font-weight="400" font-size="13" transform="translate(702.272 263)">precision</text><text font-family="NVIDIA Sans,NVIDIA Sans_MSFontService,sans-serif" font-weight="400" font-size="13" transform="translate(714.192 279)">input</text><rect x="679" y="351" width="103" height="70" stroke="#000000" stroke-width="2" stroke-linejoin="round" stroke-miterlimit="10" fill="#C1E5F5"/><text font-family="NVIDIA Sans,NVIDIA Sans_MSFontService,sans-serif" font-weight="400" font-size="13" transform="translate(716.026 374)">High</text><text font-family="NVIDIA Sans,NVIDIA Sans_MSFontService,sans-serif" font-weight="400" font-size="13" transform="translate(702.272 390)">precision</text><text font-family="NVIDIA Sans,NVIDIA Sans_MSFontService,sans-serif" font-weight="400" font-size="13" transform="translate(709.692 406)">GEMM</text><path d="M0.00641402-0.999979 93.1192-0.402739 93.1064 1.59722-0.00641402 0.999979ZM91.8051-3.41123 99.7793 0.64 91.7538 4.5886Z" transform="matrix(1 0 0 -1 579 386.64)"/><path d="M732 295 732 344.395 730 344.395 730 295ZM735 343.061 731 351.061 727 343.061Z"/><path d="M731.277 421.127 731.042 422.957 730.317 424.869 729.159 426.721 728.823 427.11 727.311 425.801 727.597 425.471 727.505 425.596 728.569 423.893 728.482 424.068 729.131 422.358 729.074 422.586 729.293 420.873ZM727.412 428.692 725.669 430.271 723.36 431.994 722.525 432.487 721.508 430.766 722.297 430.3 722.207 430.359 724.435 428.696 724.362 428.757 726.069 427.21ZM720.803 433.505 717.748 435.309 715.429 436.378 714.592 434.561 716.865 433.514 716.775 433.561 719.786 431.783ZM713.612 437.214 710.817 438.501 708.011 439.551 707.31 437.678 710.082 436.641 710.014 436.669 712.775 435.397ZM706.138 440.253 702.686 441.544 700.423 442.25 699.828 440.34 702.065 439.643 702.012 439.662 705.437 438.38ZM698.513 442.845 693.46 444.42 692.733 444.611 692.224 442.676 692.93 442.491 692.886 442.504 697.918 440.936ZM690.798 445.119 684.995 446.643 684.487 444.709 690.29 443.185ZM683.022 447.153 677.165 448.454 676.731 446.502 682.588 445.2ZM675.212 448.888 672.147 449.57 669.303 450.103 668.935 448.137 671.762 447.607 671.729 447.614 674.778 446.936ZM667.337 450.471 661.44 451.576 661.072 449.61 666.969 448.505ZM659.44 451.924 653.511 452.849 653.203 450.873 659.131 449.948ZM651.535 453.157 647.746 453.748 645.57 454.024 645.318 452.04 647.48 451.766 647.452 451.77 651.227 451.181ZM643.586 454.275 637.633 455.03 637.382 453.046 643.334 452.291ZM635.649 455.282 634.662 455.407 629.654 455.902 629.457 453.912 634.451 453.418 634.424 453.421 635.398 453.298ZM627.664 456.099 621.693 456.689 621.496 454.698 627.467 454.108ZM619.672 456.848 613.687 457.275 613.545 455.28 619.53 454.853ZM611.692 457.417 607.275 457.732 605.677 457.801 605.59 455.803 607.175 455.734 607.147 455.736 611.55 455.422ZM603.679 457.888 597.685 458.149 597.598 456.151 603.592 455.89ZM595.687 458.236 593.193 458.344 589.661 458.397 589.631 456.397 593.15 456.345 593.121 456.346 595.6 456.238ZM587.661 458.426 585.681 458.456 585.651 456.456 587.631 456.427ZM587.058 461.436 579 457.555 586.94 453.436Z"/><text font-family="NVIDIA Sans,NVIDIA Sans_MSFontService,sans-serif" font-weight="700" font-size="24" transform="translate(857.055 204)">FP8 with calibrated scaling factors</text><rect x="868" y="326" width="129" height="164" stroke="#042433" stroke-width="2" stroke-miterlimit="8" fill="#E8E8E8"/><rect x="883" y="351" width="103" height="71" stroke="#000000" stroke-width="2" stroke-linejoin="round" stroke-miterlimit="10" fill="#D9F2D0"/><text font-family="NVIDIA Sans,NVIDIA Sans_MSFontService,sans-serif" font-weight="400" font-size="13" transform="translate(919.685 374)">High</text><text font-family="NVIDIA Sans,NVIDIA Sans_MSFontService,sans-serif" font-weight="400" font-size="13" transform="translate(905.932 390)">precision</text><text font-family="NVIDIA Sans,NVIDIA Sans_MSFontService,sans-serif" font-weight="400" font-size="13" transform="translate(912.932 406)">weight</text><rect x="883" y="433" width="103" height="48" stroke="#000000" stroke-width="2" stroke-linejoin="round" stroke-miterlimit="10" fill="#92D050"/><text font-family="NVIDIA Sans,NVIDIA Sans_MSFontService,sans-serif" font-weight="400" font-size="13" transform="translate(902.185 445)">Calibrated</text><text font-family="NVIDIA Sans,NVIDIA Sans_MSFontService,sans-serif" font-weight="400" font-size="13" transform="translate(898.599 461)">FP8 scaling</text><text font-family="NVIDIA Sans,NVIDIA Sans_MSFontService,sans-serif" font-weight="400" font-size="13" transform="translate(911.519 477)">factors</text><rect x="1026" y="363" width="82" height="45" stroke="#000000" stroke-width="2" stroke-linejoin="round" stroke-miterlimit="10" fill="#FBE3D6"/><text font-family="NVIDIA Sans,NVIDIA Sans_MSFontService,sans-serif" font-weight="400" font-size="13" transform="translate(1055.14 382)">FP8</text><text font-family="NVIDIA Sans,NVIDIA Sans_MSFontService,sans-serif" font-weight="400" font-size="13" transform="translate(1044.64 398)">Weight</text><rect x="1131" y="307" width="82" height="44" stroke="#000000" stroke-width="2" stroke-linejoin="round" stroke-miterlimit="10" fill="#FBE3D6"/><text font-family="NVIDIA Sans,NVIDIA Sans_MSFontService,sans-serif" font-weight="400" font-size="13" transform="translate(1159.49 325)">FP8</text><text font-family="NVIDIA Sans,NVIDIA Sans_MSFontService,sans-serif" font-weight="400" font-size="13" transform="translate(1155.07 341)">Input</text><rect x="1120" y="224" width="103" height="71" stroke="#000000" stroke-width="2" stroke-linejoin="round" stroke-miterlimit="10" fill="#D9F2D0"/><text font-family="NVIDIA Sans,NVIDIA Sans_MSFontService,sans-serif" font-weight="400" font-size="13" transform="translate(1157.15 247)">High</text><text font-family="NVIDIA Sans,NVIDIA Sans_MSFontService,sans-serif" font-weight="400" font-size="13" transform="translate(1143.4 263)">precision</text><text font-family="NVIDIA Sans,NVIDIA Sans_MSFontService,sans-serif" font-weight="400" font-size="13" transform="translate(1155.32 279)">input</text><rect x="1131" y="363" width="82" height="45" stroke="#000000" stroke-width="2" stroke-linejoin="round" stroke-miterlimit="10" fill="#C1E5F5"/><text font-family="NVIDIA Sans,NVIDIA Sans_MSFontService,sans-serif" font-weight="400" font-size="13" transform="translate(1159.48 382)">FP8</text><text font-family="NVIDIA Sans,NVIDIA Sans_MSFontService,sans-serif" font-weight="400" font-size="13" transform="translate(1150.82 398)">GEMM</text><path d="M0.015735-0.999876 34.0184-0.464776 33.987 1.53498-0.015735 0.999876ZM32.7325-3.48538 40.6686 0.64 32.6066 4.51362Z" transform="matrix(1 0 0 -1 986 386.64)"/><path d="M1108 385 1123.79 385 1123.79 387 1108 387ZM1122.46 382 1130.46 386 1122.46 390Z"/><path d="M1173 351 1173 356.349 1171 356.349 1171 351ZM1176 355.016 1172 363.016 1168 355.016Z"/><path d="M1173 295 1173 300.349 1171 300.349 1171 295ZM1176 299.016 1172 307.016 1168 299.016Z"/><path d="M0.0369111-0.999319 6.03282-0.777852 5.959 1.22079-0.0369111 0.999319ZM8.10061-0.673792 14.0656-0.0265058 13.8498 1.96182 7.88485 1.31454ZM16.1141 0.247765 22.0214 1.2984 21.6712 3.2675 15.7639 2.21686ZM24.0392 1.73603 29.8647 3.17232 29.386 5.11418 23.5604 3.67789ZM31.84 3.77104 37.3437 5.51189 37.6161 5.61786 36.8909 7.48175 36.6487 7.38751 36.7097 7.40901 31.2368 5.67792ZM39.48 6.34307 44.1494 8.15988 45.1058 8.60687 44.259 10.4188 43.3326 9.98577 43.3934 10.0118 38.7547 8.20696ZM46.9177 9.45367 50.5967 11.1731 52.3529 12.1468 51.3831 13.896 49.6571 12.939 49.7186 12.9703 46.0709 11.2656ZM54.1021 13.1167 56.6269 14.5166 59.2925 16.2633 58.1963 17.9361 55.5616 16.2097 55.6248 16.2478 53.1322 14.8658ZM60.9653 17.3595 62.181 18.1561 65.8342 20.9962 64.6067 22.5752 60.9853 19.7599 61.051 19.8068 59.8691 19.0323ZM67.4635 22.304 71.6245 26.1896 71.8939 26.499 70.3854 27.8122 70.15 27.5418 70.2217 27.6161 66.0985 23.7658ZM73.2071 28.0075 75.3941 30.5196 76.9604 32.8279 75.3055 33.9509 73.7729 31.6924 73.8461 31.7875 71.6986 29.3207ZM78.0834 34.4828 78.4463 35.0176 80.7274 39.6775 80.8507 40.1892 78.9063 40.6576 78.8087 40.2527 78.8828 40.4582 76.681 35.9603 76.7517 36.0821 76.4285 35.6058ZM81.3191 42.1336 81.384 42.4029 79.4396 42.8713 79.3747 42.602ZM84.1057 40.6042 81.6141 49.1944 76.2369 42.047Z" transform="matrix(1 0 0 -1 986 457.194)"/><path d="M0.0162082-0.999869 6.01542-0.902619 5.983 1.09712-0.0162082 0.999869ZM8.01516-0.870203 14.0144-0.772954 13.9819 1.22678 7.98274 1.12953ZM16.0141-0.740537 17.4432-0.717371 22.0401-0.498449 21.9449 1.49929 17.3637 1.28111 17.3951 1.28211 15.9817 1.2592ZM24.0378-0.403309 30.031-0.117889 29.9359 1.87985 23.9427 1.59443ZM32.0288-0.0227485 34.7491 0.106806 38.046 0.36414 37.8903 2.35808 34.6086 2.10192 34.6389 2.10382 31.9336 1.97499ZM40.0399 0.519777 46.0217 0.986686 45.8661 2.98062 39.8843 2.51371ZM48.0156 1.14232 51.7818 1.43629 54.021 1.67858 53.8059 3.66697 51.5816 3.42629 51.6113 3.42907 47.86 3.13626ZM56.0094 1.89373 61.9746 2.53919 61.7594 4.52758 55.7942 3.88213ZM63.963 2.75434 68.4058 3.23507 69.9524 3.44976 69.6774 5.43077 68.1457 5.21815 68.1756 5.22184 63.7478 4.74273ZM71.9334 3.72476 77.8764 4.54976 77.6014 6.53076 71.6584 5.70577ZM79.8574 4.82475 84.4855 5.46721 85.8248 5.69592 85.4882 7.66738 84.1642 7.4413 84.195 7.44607 79.5824 6.80576ZM87.7963 6.03256 93.7107 7.0425 93.374 9.01396 87.4596 8.00403ZM95.6821 7.37914 99.8855 8.09689 101.618 8.45234 101.217 10.4115 99.4998 10.0594 99.5324 10.0656 95.3455 9.35061ZM103.578 8.85419 109.455 10.0598 109.053 12.019 103.176 10.8134ZM111.414 10.4616 114.471 11.0885 117.305 11.7781 116.832 13.7214 114.015 13.0361 114.051 13.044 111.013 12.4208ZM119.248 12.251 125.078 13.6696 124.605 15.6129 118.775 14.1942ZM127.021 14.1425 128.106 14.4065 132.839 15.7676 132.286 17.6897 127.573 16.3343 127.613 16.3449 126.548 16.0858ZM134.761 16.3204 140.527 17.9787 139.974 19.9008 134.208 18.2425ZM142.468 18.6339 148.147 20.5714 147.501 22.4642 141.822 20.5268ZM150.04 21.2172 151.991 21.883 155.691 23.3992 154.932 25.2498 151.26 23.745 151.317 23.7661 149.394 23.1101ZM157.541 24.1576 161.965 25.9705 163.116 26.5198 162.255 28.3249 161.129 27.7877 161.181 27.8105 156.783 26.0083ZM164.921 27.3811 166.417 28.0949 170.288 30.1608 169.346 31.9252 165.496 29.8699 165.536 29.8903 164.06 29.1861ZM172.051 31.2128 174.133 32.4706 177.115 34.5431 175.973 36.1855 173.017 34.1311 173.071 34.1659 171.017 32.9246ZM178.738 35.8385 180.177 37.0144 182.575 39.3924 183.152 40.3283 181.449 41.3778 180.935 40.5432 181.082 40.7285 178.803 38.4683 178.875 38.5326 177.473 37.3872ZM184.201 42.0309 184.451 42.436 182.748 43.4854 182.499 43.0803ZM186.867 40.296 185.963 49.1944 179.387 43.132Z" transform="matrix(1 0 0 -1 986 457.194)"/><path d="M0.0156214-0.999878 6.01489-0.90615 5.98365 1.09361-0.0156214 0.999878ZM8.01465-0.874907 14.0139-0.781179 13.9827 1.21858 7.9834 1.12485ZM16.0137-0.749936 22.0129-0.656208 21.9817 1.34355 15.9824 1.24982ZM24.0425-0.610275 30.0362-0.33517 29.9445 1.66273 23.9508 1.38762ZM32.0341-0.243468 38.0278 0.0316382 37.9361 2.02953 31.9424 1.75443ZM40.0257 0.12334 46.0194 0.398446 45.9277 2.39634 39.934 2.12124ZM48.0445 0.523202 54.0276 0.973298 53.8776 2.96766 47.8945 2.51757ZM56.022 1.12333 62.0051 1.57343 61.855 3.56779 55.872 3.1177ZM63.9994 1.72346 69.9786 2.17326 70.0112 2.17666 69.8037 4.16587 69.7855 4.16396 69.8142 4.16654 63.8494 3.71782ZM72.0004 2.3841 77.968 3.00644 77.7606 4.99565 71.793 4.37332ZM79.9573 3.21389 85.9249 3.83622 85.7175 5.82544 79.7498 5.2031ZM87.9141 4.04367 92.4444 4.51611 93.9056 4.71161 93.6404 6.69394 92.1936 6.50038 92.2225 6.50382 87.7067 6.03288ZM95.8879 4.97682 101.835 5.77248 101.57 7.75481 95.6227 6.95916ZM103.817 6.03769 109.764 6.83334 109.499 8.81568 103.552 8.02003ZM111.747 7.09856 114.174 7.42333 117.708 8.00485 117.383 9.97831 113.864 9.39923 113.894 9.40367 111.481 9.0809ZM119.681 8.32963 125.601 9.30397 125.277 11.2774 119.356 10.3031ZM127.575 9.62875 133.495 10.6031 133.17 12.5765 127.25 11.6022ZM135.497 10.9496 141.383 12.1131 140.996 14.0752 135.109 12.9116ZM143.345 12.501 149.232 13.6646 148.844 15.6266 142.958 14.463ZM151.194 14.0524 154.692 14.744 157.096 15.3078 156.639 17.255 154.252 16.6952 154.287 16.7026 150.806 16.0145ZM159.043 15.7645 164.885 17.1344 164.428 19.0816 158.586 17.7116ZM166.832 17.5911 172.673 18.9611 172.217 20.9083 166.375 19.5383ZM174.638 19.4697 180.436 21.011 179.923 22.9439 174.124 21.4025ZM182.386 21.5434 188.15 23.2095 187.595 25.1309 181.831 23.4647ZM190.094 23.7721 195.817 25.5738 195.217 27.4815 189.494 25.6798ZM197.725 26.1743 197.937 26.241 203.426 28.1274 202.776 30.0188 197.299 28.1367 197.324 28.1448 197.125 28.082ZM205.317 28.7775 205.372 28.7962 210.96 30.9008 210.255 32.7724 204.681 30.673 204.708 30.6829 204.667 30.6689ZM212.856 31.6341 218.398 33.9327 217.632 35.7801 212.09 33.4815ZM220.257 34.7672 224.842 36.8757 225.729 37.3319 224.814 39.1104 223.947 38.6643 223.987 38.6836 219.421 36.5843ZM227.508 38.2468 230.314 39.6905 232.817 41.1479 231.81 42.8763 229.33 41.432 229.376 41.457 226.593 40.0253ZM234.545 42.1544 235.24 42.5592 239.599 45.4789 239.669 45.5339 238.432 47.1052 238.392 47.074 238.454 47.1192 234.153 44.2384 234.207 44.2717 233.539 43.8827ZM241.24 46.7714 243.37 48.4484 245.817 50.7879 244.435 52.2335 242.022 49.9271 242.095 49.9899 240.003 48.3426ZM247.249 52.3466 249.052 54.5432 250.739 57.3923 249.018 58.4114 247.37 55.6281 247.457 55.7529 245.703 53.6153ZM251.537 59.4264 252.056 60.8708 252.444 64.0697 252.369 65.7033 250.371 65.6112 250.443 64.0611 250.449 64.2276 250.085 61.2235 250.136 61.4415 249.655 60.1032ZM252.277 67.7012 252.001 73.6948 250.003 73.6028 250.279 67.6091ZM251.909 75.6927 251.888 76.1544 251.138 81.7297 249.156 81.4632 249.9 75.9313 249.892 76.0185 249.911 75.6006ZM250.871 83.7119 250.319 87.8223 249.896 89.7144 247.944 89.2783 248.357 87.4283 248.342 87.5131 248.889 83.4453ZM249.46 91.6663 248.152 97.5219 246.2 97.0858 247.508 91.2302ZM247.645 99.5265 246.377 103.802 245.848 105.302 243.962 104.638 244.482 103.161 244.466 103.209 245.728 98.9575ZM245.184 107.189 244.709 108.539 242.933 112.808 241.086 112.04 242.852 107.796 242.832 107.849 243.298 106.524ZM242.025 114.662 240.941 116.859 239.091 119.979 237.371 118.959 239.201 115.872 239.165 115.939 240.232 113.777ZM237.891 121.694 236.653 123.392 233.529 126.024 232.24 124.494 235.272 121.94 235.109 122.116 236.275 120.516ZM235.853 128.254 226.908 128.214 232.307 121.083Z" transform="matrix(1 0 0 -1 986 457.214)"/><path d="M422 170 422 513.312" stroke="#000000" stroke-width="2" stroke-miterlimit="8" fill="none" fill-rule="evenodd"/></g></svg>