<svg width="1280" height="720" xmlns="http://www.w3.org/2000/svg" xmlns:xlink="http://www.w3.org/1999/xlink" overflow="hidden"><g><rect x="0" y="0" width="1280" height="720" fill="#FFFFFF"/><text font-family="NVIDIA Sans,NVIDIA Sans_MSFontService,sans-serif" font-weight="700" font-size="24" transform="translate(151.097 204)">FP32/BF16</text><path d="M821 170 821 513.312" stroke="#000000" stroke-width="2" stroke-miterlimit="8" fill="none" fill-rule="evenodd"/><text font-family="NVIDIA Sans,NVIDIA Sans_MSFontService,sans-serif" font-weight="700" font-size="24" transform="translate(615.044 204)">FP8</text><text font-family="NVIDIA Sans,NVIDIA Sans_MSFontService,sans-serif" font-weight="700" font-size="24" transform="translate(908.732 204)">FP8 with fp8_model_init()</text><rect x="868" y="326" width="129" height="164" stroke="#042433" stroke-width="2" stroke-miterlimit="8" fill="#E8E8E8"/><rect x="883" y="363" width="101" height="45" stroke="#000000" stroke-width="2" stroke-linejoin="round" stroke-miterlimit="10" fill="#D9F2D0"/><text font-family="NVIDIA Sans,NVIDIA Sans_MSFontService,sans-serif" font-weight="400" font-size="13" transform="translate(920.957 382)">FP8</text><text font-family="NVIDIA Sans,NVIDIA Sans_MSFontService,sans-serif" font-weight="400" font-size="13" transform="translate(911.87 398)">weight</text><rect x="1079" y="363" width="82" height="45" stroke="#000000" stroke-width="2" stroke-linejoin="round" stroke-miterlimit="10" fill="#C1E5F5"/><text font-family="NVIDIA Sans,NVIDIA Sans_MSFontService,sans-serif" font-weight="400" font-size="13" transform="translate(1108.05 382)">FP8</text><text font-family="NVIDIA Sans,NVIDIA Sans_MSFontService,sans-serif" font-weight="400" font-size="13" transform="translate(1099.38 398)">GEMM</text><path d="M984 385 1073.04 385 1073.04 387 984 387ZM1071.71 382 1079.71 386 1071.71 390Z"/><path d="M1120 280.99 1120.73 356.404 1118.73 356.423 1118 281.01ZM1123.71 355.042 1119.79 363.08 1115.71 355.119Z"/><path d="M422 170 422 513.312" stroke="#000000" stroke-width="2" stroke-miterlimit="8" fill="none" fill-rule="evenodd"/><rect x="54" y="326" width="129" height="164" stroke="#042433" stroke-width="2" stroke-miterlimit="8" fill="#E8E8E8"/><rect x="68" y="351" width="103" height="71" stroke="#000000" stroke-width="2" stroke-linejoin="round" stroke-miterlimit="10" fill="#D9F2D0"/><text font-family="NVIDIA Sans,NVIDIA Sans_MSFontService,sans-serif" font-weight="400" font-size="13" transform="translate(105.39 374)">High</text><text font-family="NVIDIA Sans,NVIDIA Sans_MSFontService,sans-serif" font-weight="400" font-size="13" transform="translate(91.6367 390)">precision</text><text font-family="NVIDIA Sans,NVIDIA Sans_MSFontService,sans-serif" font-weight="400" font-size="13" transform="translate(98.6367 406)">weight</text><rect x="271" y="224" width="103" height="71" stroke="#000000" stroke-width="2" stroke-linejoin="round" stroke-miterlimit="10" fill="#D9F2D0"/><text font-family="NVIDIA Sans,NVIDIA Sans_MSFontService,sans-serif" font-weight="400" font-size="13" transform="translate(308.18 247)">High</text><text font-family="NVIDIA Sans,NVIDIA Sans_MSFontService,sans-serif" font-weight="400" font-size="13" transform="translate(294.427 263)">precision</text><text font-family="NVIDIA Sans,NVIDIA Sans_MSFontService,sans-serif" font-weight="400" font-size="13" transform="translate(306.347 279)">input</text><rect x="271" y="351" width="103" height="70" stroke="#000000" stroke-width="2" stroke-linejoin="round" stroke-miterlimit="10" fill="#C1E5F5"/><text font-family="NVIDIA Sans,NVIDIA Sans_MSFontService,sans-serif" font-weight="400" font-size="13" transform="translate(308.18 374)">High</text><text font-family="NVIDIA Sans,NVIDIA Sans_MSFontService,sans-serif" font-weight="400" font-size="13" transform="translate(294.427 390)">precision</text><text font-family="NVIDIA Sans,NVIDIA Sans_MSFontService,sans-serif" font-weight="400" font-size="13" transform="translate(301.847 406)">GEMM</text><path d="M0.00641402-0.999979 93.1192-0.402739 93.1064 1.59722-0.00641402 0.999979ZM91.8051-3.41123 99.7793 0.64 91.7538 4.5886Z" transform="matrix(1 0 0 -1 171 386.64)"/><path d="M324 295 324 344.395 322 344.395 322 295ZM327 343.061 323 351.061 319 343.061Z"/><rect x="447" y="326" width="129" height="164" stroke="#042433" stroke-width="2" stroke-miterlimit="8" fill="#E8E8E8"/><rect x="462" y="351" width="103" height="71" stroke="#000000" stroke-width="2" stroke-linejoin="round" stroke-miterlimit="10" fill="#D9F2D0"/><text font-family="NVIDIA Sans,NVIDIA Sans_MSFontService,sans-serif" font-weight="400" font-size="13" transform="translate(498.862 375)">High</text><text font-family="NVIDIA Sans,NVIDIA Sans_MSFontService,sans-serif" font-weight="400" font-size="13" transform="translate(485.109 391)">precision</text><text font-family="NVIDIA Sans,NVIDIA Sans_MSFontService,sans-serif" font-weight="400" font-size="13" transform="translate(492.109 407)">weight</text><rect x="606" y="364" width="81" height="44" stroke="#000000" stroke-width="2" stroke-linejoin="round" stroke-miterlimit="10" fill="#FBE3D6"/><text font-family="NVIDIA Sans,NVIDIA Sans_MSFontService,sans-serif" font-weight="400" font-size="13" transform="translate(634.312 382)">FP8</text><text font-family="NVIDIA Sans,NVIDIA Sans_MSFontService,sans-serif" font-weight="400" font-size="13" transform="translate(623.812 398)">Weight</text><rect x="703" y="234" width="96" height="45" stroke="#000000" stroke-width="2" stroke-linejoin="round" stroke-miterlimit="10" fill="#D9F2D0"/><text font-family="NVIDIA Sans,NVIDIA Sans_MSFontService,sans-serif" font-weight="400" font-size="13" transform="translate(738.66 252)">FP8</text><text font-family="NVIDIA Sans,NVIDIA Sans_MSFontService,sans-serif" font-weight="400" font-size="13" transform="translate(734.494 268)">input</text><rect x="710" y="364" width="82" height="44" stroke="#000000" stroke-width="2" stroke-linejoin="round" stroke-miterlimit="10" fill="#C1E5F5"/><text font-family="NVIDIA Sans,NVIDIA Sans_MSFontService,sans-serif" font-weight="400" font-size="13" transform="translate(738.66 382)">FP8</text><text font-family="NVIDIA Sans,NVIDIA Sans_MSFontService,sans-serif" font-weight="400" font-size="13" transform="translate(729.994 398)">GEMM</text><path d="M0.015735-0.999876 34.0184-0.464776 33.987 1.53498-0.015735 0.999876ZM32.7325-3.48538 40.6686 0.64 32.6066 4.51362Z" transform="matrix(1 0 0 -1 565 386.64)"/><path d="M687 385 702.791 385 702.791 387 687 387ZM701.458 382 709.458 386 701.458 390Z"/><path d="M752 279 752 357.156 750 357.156 750 279ZM755 355.822 751 363.822 747 355.822Z"/><rect x="1071" y="237" width="97" height="44" stroke="#000000" stroke-width="2" stroke-linejoin="round" stroke-miterlimit="10" fill="#D9F2D0"/><text font-family="NVIDIA Sans,NVIDIA Sans_MSFontService,sans-serif" font-weight="400" font-size="13" transform="translate(1107.26 255)">FP8</text><text font-family="NVIDIA Sans,NVIDIA Sans_MSFontService,sans-serif" font-weight="400" font-size="13" transform="translate(1103.09 271)">input</text></g></svg>