<svg width="4028" height="2326" xmlns="http://www.w3.org/2000/svg" xmlns:xlink="http://www.w3.org/1999/xlink" xml:space="preserve" overflow="hidden"><defs><clipPath id="clip0"><rect x="1883" y="405" width="4028" height="2326"/></clipPath><clipPath id="clip1"><rect x="2572" y="1344" width="2602" height="90"/></clipPath><clipPath id="clip2"><rect x="2572" y="1344" width="2602" height="90"/></clipPath></defs><g clip-path="url(#clip0)" transform="translate(-1883 -405)"><rect x="1884" y="406" width="4025" height="2323" fill="#FFFFFF"/><g><path d="M2317.5 2206.57 5858.5 2206.57M2317.5 2028.57 5858.5 2028.57M2317.5 1850.56 5858.5 1850.56M2317.5 1672.56 5858.5 1672.56M2317.5 1494.55 5858.5 1494.55M2317.5 1316.54 5858.5 1316.54M2317.5 1138.54 5858.5 1138.54M2317.5 960.532 5858.5 960.532M2317.5 782.526 5858.5 782.526M2317.5 604.5 5858.5 604.5" stroke="#D9D9D9" stroke-width="3.4375" stroke-linejoin="round" stroke-miterlimit="10" fill="none"/></g><g><rect x="2621" y="778" width="278" height="1606" fill="#FFC000"/></g><g><path d="M3507.11 1954.06 3784.12 1954.06 3784.12 2384 3507.11 2384ZM4392.14 2156.07 4669.15 2156.07 4669.15 2384 4392.14 2384ZM5277.17 2202.07 5555.18 2202.07 5555.18 2384 5277.17 2384Z" fill="#92D050"/></g><g><path d="M2317.5 2384.5 5858.5 2384.5" stroke="#D9D9D9" stroke-width="3.4375" stroke-linejoin="round" stroke-miterlimit="10" fill="none" fill-rule="evenodd"/></g><g><text fill="#404040" font-family="Calibri,Calibri_MSFontService,sans-serif" font-weight="700" font-size="64" transform="matrix(1 0 0 1 2686.52 860)">45.11</text></g><g><text fill="#404040" font-family="Calibri,Calibri_MSFontService,sans-serif" font-weight="700" font-size="64" transform="matrix(1 0 0 1 3588.07 2035)">12.1</text></g><g><text fill="#404040" font-family="Calibri,Calibri_MSFontService,sans-serif" font-weight="700" font-size="64" transform="matrix(1 0 0 1 4473.36 2238)">6.41</text></g><g><text fill="#404040" font-family="Calibri,Calibri_MSFontService,sans-serif" font-weight="700" font-size="64" transform="matrix(1 0 0 1 5358.65 2284)">5.11</text></g><g><text fill="#595959" font-family="Aptos Narrow,Aptos Narrow_MSFontService,sans-serif" font-weight="400" font-stretch="semi-condensed" font-size="55" transform="matrix(1 0 0 1 2238.82 2400)">0</text></g><g><text fill="#595959" font-family="Aptos Narrow,Aptos Narrow_MSFontService,sans-serif" font-weight="400" font-stretch="semi-condensed" font-size="55" transform="matrix(1 0 0 1 2238.82 2222)">5</text></g><g><text fill="#595959" font-family="Aptos Narrow,Aptos Narrow_MSFontService,sans-serif" font-weight="400" font-stretch="semi-condensed" font-size="55" transform="matrix(1 0 0 1 2210.95 2044)">10</text></g><g><text fill="#595959" font-family="Aptos Narrow,Aptos Narrow_MSFontService,sans-serif" font-weight="400" font-stretch="semi-condensed" font-size="55" transform="matrix(1 0 0 1 2210.95 1866)">15</text></g><g><text fill="#595959" font-family="Aptos Narrow,Aptos Narrow_MSFontService,sans-serif" font-weight="400" font-stretch="semi-condensed" font-size="55" transform="matrix(1 0 0 1 2210.95 1688)">20</text></g><g><text fill="#595959" font-family="Aptos Narrow,Aptos Narrow_MSFontService,sans-serif" font-weight="400" font-stretch="semi-condensed" font-size="55" transform="matrix(1 0 0 1 2210.95 1510)">25</text></g><g><text fill="#595959" font-family="Aptos Narrow,Aptos Narrow_MSFontService,sans-serif" font-weight="400" font-stretch="semi-condensed" font-size="55" transform="matrix(1 0 0 1 2210.95 1332)">30</text></g><g><text fill="#595959" font-family="Aptos Narrow,Aptos Narrow_MSFontService,sans-serif" font-weight="400" font-stretch="semi-condensed" font-size="55" transform="matrix(1 0 0 1 2210.95 1154)">35</text></g><g><text fill="#595959" font-family="Aptos Narrow,Aptos Narrow_MSFontService,sans-serif" font-weight="400" font-stretch="semi-condensed" font-size="55" transform="matrix(1 0 0 1 2210.95 976)">40</text></g><g><text fill="#595959" font-family="Aptos Narrow,Aptos Narrow_MSFontService,sans-serif" font-weight="400" font-stretch="semi-condensed" font-size="55" transform="matrix(1 0 0 1 2210.95 798)">45</text></g><g><text fill="#595959" font-family="Aptos Narrow,Aptos Narrow_MSFontService,sans-serif" font-weight="400" font-stretch="semi-condensed" font-size="55" transform="matrix(1 0 0 1 2210.95 619)">50</text></g><g><text fill="#595959" font-family="Calibri,Calibri_MSFontService,sans-serif" font-weight="700" font-size="73" transform="matrix(1 0 0 1 2562.01 2501)">HF (baseline)</text></g><g><text fill="#595959" font-family="Calibri,Calibri_MSFontService,sans-serif" font-weight="700" font-size="73" transform="matrix(1 0 0 1 3378.97 2501)">TE (subsitution of</text></g><g><text fill="#595959" font-family="Calibri,Calibri_MSFontService,sans-serif" font-weight="700" font-size="73" transform="matrix(1 0 0 1 3238.58 2591)">GemmaDecoderLayer with</text></g><g><text fill="#595959" font-family="Calibri,Calibri_MSFontService,sans-serif" font-weight="700" font-size="73" transform="matrix(1 0 0 1 3321.27 2680)">te.TransformerLayer)</text></g><g><text fill="#595959" font-family="Calibri,Calibri_MSFontService,sans-serif" font-weight="700" font-size="73" transform="matrix(1 0 0 1 4124.27 2501)">TE (te.TransformerLayer) +</text></g><g><text fill="#595959" font-family="Calibri,Calibri_MSFontService,sans-serif" font-weight="700" font-size="73" transform="matrix(1 0 0 1 4325.26 2591)">CUDA Graphs</text></g><g><text fill="#595959" font-family="Calibri,Calibri_MSFontService,sans-serif" font-weight="700" font-size="73" transform="matrix(1 0 0 1 5009.56 2501)">TE (te.TransformerLayer) +</text></g><g><text fill="#595959" font-family="Calibri,Calibri_MSFontService,sans-serif" font-weight="700" font-size="73" transform="matrix(1 0 0 1 5120.79 2591)">CUDA Graphs + FP8</text></g><g><text fill="#595959" font-family="Calibri,Calibri_MSFontService,sans-serif" font-weight="700" font-size="73" transform="matrix(1 0 0 1 1947.92 1520)">Time (s)</text></g><g><text fill="#595959" font-family="Calibri,Calibri_MSFontService,sans-serif" font-weight="400" font-size="83" transform="matrix(1 0 0 1 3273.16 519)">Time and Speedup Comparison Chart</text></g><rect x="1884.5" y="406.5" width="4025" height="2323" stroke="#000000" stroke-width="3.4375" stroke-linejoin="round" stroke-miterlimit="10" fill="none"/><g><g clip-path="url(#clip1)"><text font-family="Calibri,Calibri_MSFontService,sans-serif" font-weight="400" font-size="64" transform="matrix(1 0 0 1 3687.04 1422)">Speedup: </text></g></g><g><g clip-path="url(#clip2)"><text font-family="Calibri,Calibri_MSFontService,sans-serif" font-weight="700" font-size="64" transform="matrix(1 0 0 1 3946.89 1422)">3.7x</text></g></g><g><text font-family="Calibri,Calibri_MSFontService,sans-serif" font-weight="400" font-size="64" transform="matrix(1 0 0 1 4575.07 1433)">Speedup: </text></g><g><text font-family="Calibri,Calibri_MSFontService,sans-serif" font-weight="700" font-size="64" transform="matrix(1 0 0 1 4834.92 1433)">7x</text></g><g><text font-family="Calibri,Calibri_MSFontService,sans-serif" font-weight="400" font-size="64" transform="matrix(1 0 0 1 5477.98 1430)">Speedup: </text></g><g><text font-family="Calibri,Calibri_MSFontService,sans-serif" font-weight="700" font-size="64" transform="matrix(1 0 0 1 5737.84 1430)">8.8x</text></g><path d="M2626.5 773.5 5861.19 773.5" stroke="#E97132" stroke-width="6.875" stroke-linejoin="round" stroke-miterlimit="10" stroke-dasharray="27.5 20.625" fill="none" fill-rule="evenodd"/><path d="M3627 1904.5 3637.25 1904.5 3637.25 791 3657.75 791 3657.75 1904.5 3668 1904.5 3647.5 1925Z" fill="#92D050" fill-rule="evenodd"/><path d="M4489 2079.5 4509.75 2079.5 4509.75 780 4551.25 780 4551.25 2079.5 4572 2079.5 4530.5 2121Z" fill="#92D050" fill-rule="evenodd"/><path d="M5373 2125 5397 2125 5397 794 5445 794 5445 2125 5469 2125 5421 2173Z" fill="#92D050" fill-rule="evenodd"/></g></svg>