<svg width="3840" height="2160" xmlns="http://www.w3.org/2000/svg" xmlns:xlink="http://www.w3.org/1999/xlink" overflow="hidden"><g><rect x="0" y="0" width="3840" height="2160" fill="#FFFFFF"/><text font-family="NVIDIA Sans,NVIDIA Sans_MSFontService,sans-serif" font-weight="700" font-size="96" transform="translate(664.716 313)">BSHD Layout</text><path d="M1920 459 1920 1991.8" stroke="#000000" stroke-width="8" stroke-linejoin="round" stroke-miterlimit="10" fill="none" fill-rule="evenodd"/><rect x="128.5" y="1356.5" width="79" height="82" stroke="#003526" stroke-width="2.66667" stroke-linejoin="round" stroke-miterlimit="10" fill="#FFE893"/><rect x="365.5" y="1356.5" width="79" height="82" stroke="#003526" stroke-width="2.66667" stroke-linejoin="round" stroke-miterlimit="10" fill="#FFE893"/><rect x="246.5" y="1356.5" width="80" height="82" stroke="#003526" stroke-width="2.66667" stroke-linejoin="round" stroke-miterlimit="10" fill="#FFE893"/><rect x="484.5" y="1356.5" width="79" height="82" stroke="#003526" stroke-width="2.66667" stroke-linejoin="round" stroke-miterlimit="10" fill="#FFE893"/><rect x="128.5" y="1472.5" width="79" height="82" stroke="#003526" stroke-width="2.66667" stroke-linejoin="round" stroke-miterlimit="10" fill="#FFE893"/><rect x="365.5" y="1472.5" width="79" height="82" stroke="#003526" stroke-width="2.66667" stroke-linejoin="round" stroke-miterlimit="10" fill="#FFE893"/><rect x="246.5" y="1472.5" width="80" height="82" stroke="#003526" stroke-width="2.66667" stroke-linejoin="round" stroke-miterlimit="10" fill="#FFE893"/><rect x="484.5" y="1472.5" width="79" height="82" stroke="#003526" stroke-width="2.66667" stroke-linejoin="round" stroke-miterlimit="10" fill="#FFE893"/><rect x="128.5" y="1587.5" width="79" height="81" stroke="#003526" stroke-width="2.66667" stroke-linejoin="round" stroke-miterlimit="10" fill="#FFE893"/><rect x="365.5" y="1587.5" width="79" height="81" stroke="#003526" stroke-width="2.66667" stroke-linejoin="round" stroke-miterlimit="10" fill="#FFE893"/><rect x="246.5" y="1587.5" width="80" height="81" stroke="#003526" stroke-width="2.66667" stroke-linejoin="round" stroke-miterlimit="10" fill="#FFE893"/><rect x="484.5" y="1587.5" width="79" height="81" stroke="#003526" stroke-width="2.66667" stroke-linejoin="round" stroke-miterlimit="10" fill="#FFE893"/><rect x="128.5" y="1701.5" width="79" height="82" stroke="#003526" stroke-width="2.66667" stroke-linejoin="round" stroke-miterlimit="10" fill="#FFE893"/><rect x="365.5" y="1701.5" width="79" height="82" stroke="#003526" stroke-width="2.66667" stroke-linejoin="round" stroke-miterlimit="10" fill="#FFE893"/><rect x="246.5" y="1701.5" width="80" height="82" stroke="#003526" stroke-width="2.66667" stroke-linejoin="round" stroke-miterlimit="10" fill="#FFE893"/><rect x="484.5" y="1701.5" width="79" height="82" stroke="#003526" stroke-width="2.66667" stroke-linejoin="round" stroke-miterlimit="10" fill="#FFE893"/><text font-family="NVIDIA Sans,NVIDIA Sans_MSFontService,sans-serif" font-weight="700" font-size="96" transform="translate(294.581 1311)">Q</text><rect x="742.5" y="1356.5" width="79" height="82" stroke="#003526" stroke-width="2.66667" stroke-linejoin="round" stroke-miterlimit="10" fill="#FFE893"/><rect x="979.5" y="1356.5" width="78.9999" height="82" stroke="#003526" stroke-width="2.66667" stroke-linejoin="round" stroke-miterlimit="10" fill="#FFE893"/><rect x="860.5" y="1356.5" width="79" height="82" stroke="#003526" stroke-width="2.66667" stroke-linejoin="round" stroke-miterlimit="10" fill="#FFE893"/><rect x="1098.5" y="1356.5" width="79" height="82" stroke="#003526" stroke-width="2.66667" stroke-linejoin="round" stroke-miterlimit="10" fill="#FFE893"/><rect x="742.5" y="1472.5" width="79" height="82" stroke="#003526" stroke-width="2.66667" stroke-linejoin="round" stroke-miterlimit="10" fill="#FFE893"/><rect x="979.5" y="1472.5" width="78.9999" height="82" stroke="#003526" stroke-width="2.66667" stroke-linejoin="round" stroke-miterlimit="10" fill="#FFE893"/><rect x="860.5" y="1472.5" width="79" height="82" stroke="#003526" stroke-width="2.66667" stroke-linejoin="round" stroke-miterlimit="10" fill="#FFE893"/><rect x="1098.5" y="1472.5" width="79" height="82" stroke="#003526" stroke-width="2.66667" stroke-linejoin="round" stroke-miterlimit="10" fill="#FFE893"/><rect x="742.5" y="1587.5" width="79" height="81" stroke="#003526" stroke-width="2.66667" stroke-linejoin="round" stroke-miterlimit="10" fill="#FFE893"/><rect x="979.5" y="1587.5" width="78.9999" height="81" stroke="#003526" stroke-width="2.66667" stroke-linejoin="round" stroke-miterlimit="10" fill="#FFE893"/><rect x="860.5" y="1587.5" width="79" height="81" stroke="#003526" stroke-width="2.66667" stroke-linejoin="round" stroke-miterlimit="10" fill="#FFE893"/><rect x="1098.5" y="1587.5" width="79" height="81" stroke="#003526" stroke-width="2.66667" stroke-linejoin="round" stroke-miterlimit="10" fill="#FFE893"/><rect x="742.5" y="1701.5" width="79" height="82" stroke="#003526" stroke-width="2.66667" stroke-linejoin="round" stroke-miterlimit="10" fill="#FFE893"/><rect x="979.5" y="1701.5" width="78.9999" height="82" stroke="#003526" stroke-width="2.66667" stroke-linejoin="round" stroke-miterlimit="10" fill="#FFE893"/><rect x="860.5" y="1701.5" width="79" height="82" stroke="#003526" stroke-width="2.66667" stroke-linejoin="round" stroke-miterlimit="10" fill="#FFE893"/><rect x="1098.5" y="1701.5" width="79" height="82" stroke="#003526" stroke-width="2.66667" stroke-linejoin="round" stroke-miterlimit="10" fill="#FFE893"/><text font-family="NVIDIA Sans,NVIDIA Sans_MSFontService,sans-serif" font-weight="700" font-size="96" transform="translate(912.066 1311)">K</text><rect x="1306.5" y="1356.5" width="79" height="82" stroke="#003526" stroke-width="2.66667" stroke-linejoin="round" stroke-miterlimit="10" fill="#FFE893"/><rect x="1544.5" y="1356.5" width="79" height="82" stroke="#003526" stroke-width="2.66667" stroke-linejoin="round" stroke-miterlimit="10" fill="#FFE893"/><rect x="1425.5" y="1356.5" width="79" height="82" stroke="#003526" stroke-width="2.66667" stroke-linejoin="round" stroke-miterlimit="10" fill="#FFE893"/><rect x="1662.5" y="1356.5" width="80" height="82" stroke="#003526" stroke-width="2.66667" stroke-linejoin="round" stroke-miterlimit="10" fill="#FFE893"/><rect x="1306.5" y="1472.5" width="79" height="82" stroke="#003526" stroke-width="2.66667" stroke-linejoin="round" stroke-miterlimit="10" fill="#FFE893"/><rect x="1544.5" y="1472.5" width="79" height="82" stroke="#003526" stroke-width="2.66667" stroke-linejoin="round" stroke-miterlimit="10" fill="#FFE893"/><rect x="1425.5" y="1472.5" width="79" height="82" stroke="#003526" stroke-width="2.66667" stroke-linejoin="round" stroke-miterlimit="10" fill="#FFE893"/><rect x="1662.5" y="1472.5" width="80" height="82" stroke="#003526" stroke-width="2.66667" stroke-linejoin="round" stroke-miterlimit="10" fill="#FFE893"/><rect x="1306.5" y="1587.5" width="79" height="81" stroke="#003526" stroke-width="2.66667" stroke-linejoin="round" stroke-miterlimit="10" fill="#FFE893"/><rect x="1544.5" y="1587.5" width="79" height="81" stroke="#003526" stroke-width="2.66667" stroke-linejoin="round" stroke-miterlimit="10" fill="#FFE893"/><rect x="1425.5" y="1587.5" width="79" height="81" stroke="#003526" stroke-width="2.66667" stroke-linejoin="round" stroke-miterlimit="10" fill="#FFE893"/><rect x="1662.5" y="1587.5" width="80" height="81" stroke="#003526" stroke-width="2.66667" stroke-linejoin="round" stroke-miterlimit="10" fill="#FFE893"/><rect x="1306.5" y="1701.5" width="79" height="82" stroke="#003526" stroke-width="2.66667" stroke-linejoin="round" stroke-miterlimit="10" fill="#FFE893"/><rect x="1544.5" y="1701.5" width="79" height="82" stroke="#003526" stroke-width="2.66667" stroke-linejoin="round" stroke-miterlimit="10" fill="#FFE893"/><rect x="1425.5" y="1701.5" width="79" height="82" stroke="#003526" stroke-width="2.66667" stroke-linejoin="round" stroke-miterlimit="10" fill="#FFE893"/><rect x="1662.5" y="1701.5" width="80" height="82" stroke="#003526" stroke-width="2.66667" stroke-linejoin="round" stroke-miterlimit="10" fill="#FFE893"/><text font-family="NVIDIA Sans,NVIDIA Sans_MSFontService,sans-serif" font-weight="700" font-size="96" transform="translate(1477.22 1311)">V</text><rect x="2148.5" y="1292.5" width="52" height="63" stroke="#003526" stroke-width="2.66667" stroke-linejoin="round" stroke-miterlimit="10" fill="#FFE893"/><rect x="2326.5" y="1293.5" width="52" height="63" stroke="#003526" stroke-width="2.66667" stroke-linejoin="round" stroke-miterlimit="10" fill="#FFE893"/><rect x="2237.5" y="1293.5" width="52" height="63" stroke="#003526" stroke-width="2.66667" stroke-linejoin="round" stroke-miterlimit="10" fill="#FFE893"/><rect x="2414.5" y="1293.5" width="52" height="63" stroke="#003526" stroke-width="2.66667" stroke-linejoin="round" stroke-miterlimit="10" fill="#FFFFFF"/><text font-family="NVIDIA Sans,NVIDIA Sans_MSFontService,sans-serif" font-weight="700" font-size="96" transform="translate(2028.54 1358)">Q</text><rect x="2501.5" y="1292.5" width="52" height="63" stroke="#003526" stroke-width="2.66667" stroke-linejoin="round" stroke-miterlimit="10" fill="#FFE893"/><rect x="2678.5" y="1292.5" width="52" height="63" stroke="#003526" stroke-width="2.66667" stroke-linejoin="round" stroke-miterlimit="10" fill="#FFFFFF"/><rect x="2589.5" y="1292.5" width="52" height="63" stroke="#003526" stroke-width="2.66667" stroke-linejoin="round" stroke-miterlimit="10" fill="#FFFFFF"/><rect x="2767.5" y="1292.5" width="52" height="63" stroke="#003526" stroke-width="2.66667" stroke-linejoin="round" stroke-miterlimit="10" fill="#FFFFFF"/><rect x="2853.5" y="1293.5" width="52" height="63" stroke="#003526" stroke-width="2.66667" stroke-linejoin="round" stroke-miterlimit="10" fill="#FFE893"/><rect x="3031.5" y="1294.5" width="52" height="63" stroke="#003526" stroke-width="2.66667" stroke-linejoin="round" stroke-miterlimit="10" fill="#FFE893"/><rect x="2942.5" y="1294.5" width="52" height="63" stroke="#003526" stroke-width="2.66667" stroke-linejoin="round" stroke-miterlimit="10" fill="#FFE893"/><rect x="3119.5" y="1294.5" width="52" height="63" stroke="#003526" stroke-width="2.66667" stroke-linejoin="round" stroke-miterlimit="10" fill="#FFFFFF"/><rect x="3206.5" y="1292.5" width="52" height="63" stroke="#003526" stroke-width="2.66667" stroke-linejoin="round" stroke-miterlimit="10" fill="#FFE893"/><rect x="3383.5" y="1293.5" width="52" height="63" stroke="#003526" stroke-width="2.66667" stroke-linejoin="round" stroke-miterlimit="10" fill="#FFFFFF"/><rect x="3294.5" y="1293.5" width="52" height="63" stroke="#003526" stroke-width="2.66667" stroke-linejoin="round" stroke-miterlimit="10" fill="#FFFFFF"/><rect x="3472.5" y="1293.5" width="52" height="63" stroke="#003526" stroke-width="2.66667" stroke-linejoin="round" stroke-miterlimit="10" fill="#FFFFFF"/><rect x="2148.5" y="1418.5" width="52" height="63" stroke="#003526" stroke-width="2.66667" stroke-linejoin="round" stroke-miterlimit="10" fill="#FFE893"/><rect x="2326.5" y="1419.5" width="52" height="63" stroke="#003526" stroke-width="2.66667" stroke-linejoin="round" stroke-miterlimit="10" fill="#FFE893"/><rect x="2237.5" y="1419.5" width="52" height="63" stroke="#003526" stroke-width="2.66667" stroke-linejoin="round" stroke-miterlimit="10" fill="#FFE893"/><rect x="2414.5" y="1419.5" width="52" height="63" stroke="#003526" stroke-width="2.66667" stroke-linejoin="round" stroke-miterlimit="10" fill="#FFFFFF"/><text font-family="NVIDIA Sans,NVIDIA Sans_MSFontService,sans-serif" font-weight="700" font-size="96" transform="translate(2032.21 1484)">K</text><rect x="2501.5" y="1418.5" width="52" height="63" stroke="#003526" stroke-width="2.66667" stroke-linejoin="round" stroke-miterlimit="10" fill="#FFE893"/><rect x="2678.5" y="1418.5" width="52" height="63" stroke="#003526" stroke-width="2.66667" stroke-linejoin="round" stroke-miterlimit="10" fill="#FFFFFF"/><rect x="2589.5" y="1418.5" width="52" height="63" stroke="#003526" stroke-width="2.66667" stroke-linejoin="round" stroke-miterlimit="10" fill="#FFFFFF"/><rect x="2767.5" y="1418.5" width="52" height="63" stroke="#003526" stroke-width="2.66667" stroke-linejoin="round" stroke-miterlimit="10" fill="#FFFFFF"/><rect x="2853.5" y="1419.5" width="52" height="63" stroke="#003526" stroke-width="2.66667" stroke-linejoin="round" stroke-miterlimit="10" fill="#FFE893"/><rect x="3031.5" y="1420.5" width="52" height="63" stroke="#003526" stroke-width="2.66667" stroke-linejoin="round" stroke-miterlimit="10" fill="#FFE893"/><rect x="2942.5" y="1420.5" width="52" height="63" stroke="#003526" stroke-width="2.66667" stroke-linejoin="round" stroke-miterlimit="10" fill="#FFE893"/><rect x="3119.5" y="1420.5" width="52" height="63" stroke="#003526" stroke-width="2.66667" stroke-linejoin="round" stroke-miterlimit="10" fill="#FFFFFF"/><rect x="3206.5" y="1418.5" width="52" height="63" stroke="#003526" stroke-width="2.66667" stroke-linejoin="round" stroke-miterlimit="10" fill="#FFE893"/><rect x="3383.5" y="1419.5" width="52" height="63" stroke="#003526" stroke-width="2.66667" stroke-linejoin="round" stroke-miterlimit="10" fill="#FFFFFF"/><rect x="3294.5" y="1419.5" width="52" height="63" stroke="#003526" stroke-width="2.66667" stroke-linejoin="round" stroke-miterlimit="10" fill="#FFFFFF"/><rect x="3472.5" y="1419.5" width="52" height="63" stroke="#003526" stroke-width="2.66667" stroke-linejoin="round" stroke-miterlimit="10" fill="#FFFFFF"/><rect x="2148.5" y="1544.5" width="52" height="64" stroke="#003526" stroke-width="2.66667" stroke-linejoin="round" stroke-miterlimit="10" fill="#FFE893"/><rect x="2326.5" y="1545.5" width="52" height="63" stroke="#003526" stroke-width="2.66667" stroke-linejoin="round" stroke-miterlimit="10" fill="#FFE893"/><rect x="2237.5" y="1545.5" width="52" height="63" stroke="#003526" stroke-width="2.66667" stroke-linejoin="round" stroke-miterlimit="10" fill="#FFE893"/><rect x="2414.5" y="1545.5" width="52" height="63" stroke="#003526" stroke-width="2.66667" stroke-linejoin="round" stroke-miterlimit="10" fill="#FFFFFF"/><text font-family="NVIDIA Sans,NVIDIA Sans_MSFontService,sans-serif" font-weight="700" font-size="96" transform="translate(2032.71 1610)">V</text><rect x="2501.5" y="1544.5" width="52" height="63" stroke="#003526" stroke-width="2.66667" stroke-linejoin="round" stroke-miterlimit="10" fill="#FFE893"/><rect x="2678.5" y="1544.5" width="52" height="64" stroke="#003526" stroke-width="2.66667" stroke-linejoin="round" stroke-miterlimit="10" fill="#FFFFFF"/><rect x="2589.5" y="1544.5" width="52" height="64" stroke="#003526" stroke-width="2.66667" stroke-linejoin="round" stroke-miterlimit="10" fill="#FFFFFF"/><rect x="2767.5" y="1544.5" width="52" height="64" stroke="#003526" stroke-width="2.66667" stroke-linejoin="round" stroke-miterlimit="10" fill="#FFFFFF"/><rect x="2853.5" y="1545.5" width="52" height="63" stroke="#003526" stroke-width="2.66667" stroke-linejoin="round" stroke-miterlimit="10" fill="#FFE893"/><rect x="3031.5" y="1546.5" width="52" height="63" stroke="#003526" stroke-width="2.66667" stroke-linejoin="round" stroke-miterlimit="10" fill="#FFE893"/><rect x="2942.5" y="1546.5" width="52" height="63" stroke="#003526" stroke-width="2.66667" stroke-linejoin="round" stroke-miterlimit="10" fill="#FFE893"/><rect x="3119.5" y="1546.5" width="52" height="63" stroke="#003526" stroke-width="2.66667" stroke-linejoin="round" stroke-miterlimit="10" fill="#FFFFFF"/><rect x="3206.5" y="1544.5" width="52" height="64" stroke="#003526" stroke-width="2.66667" stroke-linejoin="round" stroke-miterlimit="10" fill="#FFE893"/><rect x="3383.5" y="1545.5" width="52" height="63" stroke="#003526" stroke-width="2.66667" stroke-linejoin="round" stroke-miterlimit="10" fill="#FFFFFF"/><rect x="3294.5" y="1545.5" width="52" height="63" stroke="#003526" stroke-width="2.66667" stroke-linejoin="round" stroke-miterlimit="10" fill="#FFFFFF"/><rect x="3472.5" y="1545.5" width="52" height="63" stroke="#003526" stroke-width="2.66667" stroke-linejoin="round" stroke-miterlimit="10" fill="#FFFFFF"/><text font-family="NVIDIA Sans,NVIDIA Sans_MSFontService,sans-serif" font-weight="700" font-size="53" transform="translate(2063.07 648)">Cumulative sequence lengths:</text><text font-family="NVIDIA Sans,NVIDIA Sans_MSFontService,sans-serif" font-weight="400" font-size="53" transform="translate(2841.94 648)">3, 3 + 1, 3 + 1 + 3, 3 + 1 + 3 + 1</text><text font-family="NVIDIA Sans,NVIDIA Sans_MSFontService,sans-serif" font-weight="700" font-size="53" transform="translate(2442.44 771)">Sequence offsets:</text><text font-family="NVIDIA Sans,NVIDIA Sans_MSFontService,sans-serif" font-weight="400" font-size="53" transform="translate(2916.28 771)">0, 4, 8, 12</text><text font-family="NVIDIA Sans,NVIDIA Sans_MSFontService,sans-serif" font-weight="400" font-size="80" transform="translate(318.26 1982)">[</text><text font-family="NVIDIA Sans,NVIDIA Sans_MSFontService,sans-serif" font-weight="700" font-size="80" transform="translate(348.26 1982)">b</text><text font-family="NVIDIA Sans,NVIDIA Sans_MSFontService,sans-serif" font-weight="400" font-size="80" transform="translate(397.093 1982)">atch_size,</text><text font-family="NVIDIA Sans,NVIDIA Sans_MSFontService,sans-serif" font-weight="700" font-size="80" transform="translate(781.793 1982)">s</text><text font-family="NVIDIA Sans,NVIDIA Sans_MSFontService,sans-serif" font-weight="400" font-size="80" transform="translate(823.293 1982)">eq_len,</text><text font-family="NVIDIA Sans,NVIDIA Sans_MSFontService,sans-serif" font-weight="700" font-size="80" transform="translate(1105.46 1982)">h</text><text font-family="NVIDIA Sans,NVIDIA Sans_MSFontService,sans-serif" font-weight="400" font-size="80" transform="translate(1153.79 1982)">ead_nr,</text><text font-family="NVIDIA Sans,NVIDIA Sans_MSFontService,sans-serif" font-weight="700" font-size="80" transform="translate(1444.04 1982)">d</text><text font-family="NVIDIA Sans,NVIDIA Sans_MSFontService,sans-serif" font-weight="400" font-size="80" transform="translate(1492.87 1982)">im]</text><text font-family="NVIDIA Sans,NVIDIA Sans_MSFontService,sans-serif" font-weight="400" font-size="80" transform="translate(2511.98 1982)">[</text><text font-family="NVIDIA Sans,NVIDIA Sans_MSFontService,sans-serif" font-weight="700" font-size="80" transform="translate(2541.98 1982)">t</text><text font-family="NVIDIA Sans,NVIDIA Sans_MSFontService,sans-serif" font-weight="400" font-size="80" transform="translate(2577.81 1982)">,</text><text font-family="NVIDIA Sans,NVIDIA Sans_MSFontService,sans-serif" font-weight="700" font-size="80" transform="translate(2616.48 1982)">h</text><text font-family="NVIDIA Sans,NVIDIA Sans_MSFontService,sans-serif" font-weight="400" font-size="80" transform="translate(2664.81 1982)">ead_nr,</text><text font-family="NVIDIA Sans,NVIDIA Sans_MSFontService,sans-serif" font-weight="700" font-size="80" transform="translate(2955.06 1982)">d</text><text font-family="NVIDIA Sans,NVIDIA Sans_MSFontService,sans-serif" font-weight="400" font-size="80" transform="translate(3003.89 1982)">im]</text><path d="M2142 1283C2142 1262.57 2142 1246 2142 1246L2268.96 1246C2268.96 1246 2268.96 1229.43 2268.96 1209 2268.96 1229.43 2268.96 1246 2268.96 1246L2383 1246C2383 1246 2383 1262.57 2383 1283" stroke="#000000" stroke-width="4" stroke-linejoin="round" stroke-miterlimit="10" fill="none" fill-rule="evenodd"/><path d="M2470 1617C2470 1637.43 2470 1654 2470 1654L2439.9 1654C2439.9 1654 2439.9 1670.57 2439.9 1691 2439.9 1670.57 2439.9 1654 2439.9 1654L2408 1654C2408 1654 2408 1637.43 2408 1617" stroke="#000000" stroke-width="4" stroke-linejoin="round" stroke-miterlimit="10" fill="none" fill-rule="evenodd"/><path d="M2848 1283C2848 1262.57 2848 1246 2848 1246L2974.96 1246C2974.96 1246 2974.96 1229.43 2974.96 1209 2974.96 1229.43 2974.96 1246 2974.96 1246L3089 1246C3089 1246 3089 1262.57 3089 1283" stroke="#000000" stroke-width="4" stroke-linejoin="round" stroke-miterlimit="10" fill="none" fill-rule="evenodd"/><path d="M3201 1283C3201 1262.57 3201 1246 3201 1246L3233.66 1246C3233.66 1246 3233.66 1229.43 3233.66 1209 3233.66 1229.43 3233.66 1246 3233.66 1246L3263 1246C3263 1246 3263 1262.57 3263 1283" stroke="#000000" stroke-width="4" stroke-linejoin="round" stroke-miterlimit="10" fill="none" fill-rule="evenodd"/><text font-family="NVIDIA Sans,NVIDIA Sans_MSFontService,sans-serif" font-weight="400" font-size="53" transform="translate(2199.97 1195)">Seq. 1</text><text font-family="NVIDIA Sans,NVIDIA Sans_MSFontService,sans-serif" font-weight="400" font-size="53" transform="translate(2457.48 1194)">Seq. 2</text><text font-family="NVIDIA Sans,NVIDIA Sans_MSFontService,sans-serif" font-weight="400" font-size="53" transform="translate(3162.02 1196)">Seq. 4</text><text font-family="NVIDIA Sans,NVIDIA Sans_MSFontService,sans-serif" font-weight="400" font-size="53" transform="translate(2904.51 1199)">Seq. 3</text><path d="M575 1778C575 1789.32 572.436 1798.5 569.274 1798.5L335.242 1798.5C332.079 1798.5 329.516 1807.68 329.516 1819 329.516 1807.68 326.952 1798.5 323.79 1798.5L114.726 1798.5C111.564 1798.5 109 1789.32 109 1778" stroke="#000000" stroke-width="4" stroke-linejoin="round" stroke-miterlimit="10" fill="none" fill-rule="evenodd"/><path d="M1749 1333C1760.32 1333 1769.5 1335.56 1769.5 1338.73L1769.5 1572.76C1769.5 1575.92 1778.68 1578.48 1790 1578.48 1778.68 1578.48 1769.5 1581.05 1769.5 1584.21L1769.5 1793.27C1769.5 1796.44 1760.32 1799 1749 1799" stroke="#000000" stroke-width="4" stroke-linejoin="round" stroke-miterlimit="10" fill="none" fill-rule="evenodd"/><text font-family="NVIDIA Sans,NVIDIA Sans_MSFontService,sans-serif" font-weight="700" font-size="53" transform="translate(317.331 1867)">s</text><text font-family="NVIDIA Sans,NVIDIA Sans_MSFontService,sans-serif" font-weight="700" font-size="53" transform="translate(1801.9 1594)">b</text><path d="M3531 1756C3531 1767.6 3528.37 1777 3525.13 1777L2796.2 1777C2792.96 1777 2790.33 1786.4 2790.33 1798 2790.33 1786.4 2787.71 1777 2784.47 1777L2130.87 1777C2127.63 1777 2125 1767.6 2125 1756" stroke="#000000" stroke-width="4" stroke-linejoin="round" stroke-miterlimit="10" fill="none" fill-rule="evenodd"/><text font-family="NVIDIA Sans,NVIDIA Sans_MSFontService,sans-serif" font-weight="700" font-size="53" transform="translate(2786.19 1862)">t</text><text font-family="NVIDIA Sans,NVIDIA Sans_MSFontService,sans-serif" font-weight="700" font-size="96" transform="translate(2550.83 313)">THD Layout</text><path d="M2497 1278C2497 1257.57 2497 1241 2497 1241L2529.66 1241C2529.66 1241 2529.66 1224.43 2529.66 1204 2529.66 1224.43 2529.66 1241 2529.66 1241L2559 1241C2559 1241 2559 1257.57 2559 1278" stroke="#000000" stroke-width="4" stroke-linejoin="round" stroke-miterlimit="10" fill="none" fill-rule="evenodd"/><text font-family="NVIDIA Sans,NVIDIA Sans_MSFontService,sans-serif" font-weight="400" font-size="53" transform="translate(2375.05 1738)">Pad. 1</text><path d="M2825 1617C2825 1636.33 2825 1652 2825 1652L2708.01 1652C2708.01 1652 2708.01 1667.67 2708.01 1687 2708.01 1667.67 2708.01 1652 2708.01 1652L2584 1652C2584 1652 2584 1636.33 2584 1617" stroke="#000000" stroke-width="4" stroke-linejoin="round" stroke-miterlimit="10" fill="none" fill-rule="evenodd"/><text font-family="NVIDIA Sans,NVIDIA Sans_MSFontService,sans-serif" font-weight="400" font-size="53" transform="translate(2638.24 1734)">Pad. 2</text><path d="M3531 1622C3531 1641.05 3531 1656.5 3531 1656.5L3414.01 1656.5C3414.01 1656.5 3414.01 1671.95 3414.01 1691 3414.01 1671.95 3414.01 1656.5 3414.01 1656.5L3290 1656.5C3290 1656.5 3290 1641.05 3290 1622" stroke="#000000" stroke-width="4" stroke-linejoin="round" stroke-miterlimit="10" fill="none" fill-rule="evenodd"/><text font-family="NVIDIA Sans,NVIDIA Sans_MSFontService,sans-serif" font-weight="400" font-size="53" transform="translate(3331.41 1741)">Pad. 4</text><path d="M3182 1618C3182 1636.5 3182 1651.5 3182 1651.5L3146.56 1651.5C3146.56 1651.5 3146.56 1666.5 3146.56 1685 3146.56 1666.5 3146.56 1651.5 3146.56 1651.5L3109 1651.5C3109 1651.5 3109 1636.5 3109 1618" stroke="#000000" stroke-width="4" stroke-linejoin="round" stroke-miterlimit="10" fill="none" fill-rule="evenodd"/><text font-family="NVIDIA Sans,NVIDIA Sans_MSFontService,sans-serif" font-weight="400" font-size="53" transform="translate(3071.62 1731)">Pad. 3</text><rect x="1382.5" y="464.5" width="428" height="354" stroke="#000000" stroke-width="2.66667" stroke-linecap="square" stroke-linejoin="round" stroke-miterlimit="10" stroke-dasharray="8 2.66667" fill="#FFFFFF"/><rect x="509.5" y="417.5" width="736" height="614" stroke="#000000" stroke-width="2.66667" stroke-linejoin="round" stroke-miterlimit="10" fill="#FFFFFF"/><text font-family="Trebuchet MS,Trebuchet MS_MSFontService,sans-serif" font-weight="400" font-size="64" transform="translate(658.871 507)">Attention mask</text><rect x="657.5" y="550.5" width="79" height="82" stroke="#003526" stroke-width="2.66667" stroke-linejoin="round" stroke-miterlimit="10" fill="#FFFFFF"/><rect x="895.5" y="550.5" width="79" height="82" stroke="#003526" stroke-width="2.66667" stroke-linejoin="round" stroke-miterlimit="10"/><rect x="776.5" y="550.5" width="79" height="82" stroke="#003526" stroke-width="2.66667" stroke-linejoin="round" stroke-miterlimit="10"/><rect x="1014.5" y="550.5" width="78.9999" height="82" stroke="#003526" stroke-width="2.66667" stroke-linejoin="round" stroke-miterlimit="10"/><rect x="657.5" y="666.5" width="79" height="82" stroke="#003526" stroke-width="2.66667" stroke-linejoin="round" stroke-miterlimit="10" fill="#FFFFFF"/><rect x="895.5" y="666.5" width="79" height="82" stroke="#003526" stroke-width="2.66667" stroke-linejoin="round" stroke-miterlimit="10" fill="#FFFFFF"/><rect x="776.5" y="666.5" width="79" height="82" stroke="#003526" stroke-width="2.66667" stroke-linejoin="round" stroke-miterlimit="10" fill="#FFFFFF"/><rect x="1014.5" y="666.5" width="78.9999" height="82" stroke="#003526" stroke-width="2.66667" stroke-linejoin="round" stroke-miterlimit="10"/><rect x="657.5" y="781.5" width="79" height="82" stroke="#003526" stroke-width="2.66667" stroke-linejoin="round" stroke-miterlimit="10"/><rect x="895.5" y="781.5" width="79" height="82" stroke="#003526" stroke-width="2.66667" stroke-linejoin="round" stroke-miterlimit="10"/><rect x="776.5" y="781.5" width="79" height="82" stroke="#003526" stroke-width="2.66667" stroke-linejoin="round" stroke-miterlimit="10"/><rect x="1014.5" y="781.5" width="78.9999" height="82" stroke="#003526" stroke-width="2.66667" stroke-linejoin="round" stroke-miterlimit="10"/><rect x="657.5" y="895.5" width="79" height="82" stroke="#003526" stroke-width="2.66667" stroke-linejoin="round" stroke-miterlimit="10" fill="#FFFFFF"/><rect x="895.5" y="895.5" width="79" height="82" stroke="#003526" stroke-width="2.66667" stroke-linejoin="round" stroke-miterlimit="10" fill="#FFFFFF"/><rect x="776.5" y="895.5" width="79" height="82" stroke="#003526" stroke-width="2.66667" stroke-linejoin="round" stroke-miterlimit="10" fill="#FFFFFF"/><rect x="1014.5" y="895.5" width="78.9999" height="82" stroke="#003526" stroke-width="2.66667" stroke-linejoin="round" stroke-miterlimit="10"/><rect x="1425.5" y="542.5" width="79" height="82" stroke="#003526" stroke-width="2.66667" stroke-linejoin="round" stroke-miterlimit="10"/><rect x="1425.5" y="666.5" width="79" height="82" stroke="#003526" stroke-width="2.66667" stroke-linejoin="round" stroke-miterlimit="10" fill="#FFFFFF"/><text font-family="NVIDIA Sans,NVIDIA Sans_MSFontService,sans-serif" font-weight="400" font-size="53" transform="translate(1555.66 601)">token</text><text font-family="NVIDIA Sans,NVIDIA Sans_MSFontService,sans-serif" font-weight="400" font-size="53" transform="translate(1546.62 725)">padding</text></g></svg>