<?xml version="1.0" encoding="UTF-8" standalone="no"?>
<svg xmlns="http://www.w3.org/2000/svg" viewBox="0 0 750 280" width="100%" style="max-width: 750px;">
  <defs>
    <style>
      .title { font: bold 14px sans-serif; fill: #333; text-anchor: middle; }
      .label { font: 12px sans-serif; fill: #333; text-anchor: middle; }
      .small-text { font: 11px sans-serif; fill: #555; }
      
      /* Matrix colors */
      .matrix-cell { fill: #bbdefb; stroke: #1565c0; stroke-width: 1; }
      .highlight-row { fill: #c8e6c9; stroke: #1565c0; stroke-width: 1; }
      .highlight-col { fill: #fff3e0; stroke: #1565c0; stroke-width: 1; }
      .highlight-result { fill: #ffcc80; stroke: #1565c0; stroke-width: 1; }
    </style>
  </defs>
  
  <!-- LEFT SIDE: A × B -->
  
  <!-- Title -->
  <text x="160" y="20" class="title">A × B</text>
  
  <!-- Matrix B (Second tensor) - on top -->
  <g id="matrix-b" transform="translate(125, 45)">
    <text x="50" y="-8" class="label">B</text>
    <text x="108" y="45" class="small-text" style="fill: #f57c00; font-weight: bold;">columnwise</text>
    
    <!-- Row 0 -->
    <rect x="0" y="0" width="20" height="20" class="matrix-cell"/>
    <rect x="20" y="0" width="20" height="20" class="matrix-cell"/>
    <rect x="40" y="0" width="20" height="20" class="highlight-col"/>
    <rect x="60" y="0" width="20" height="20" class="matrix-cell"/>
    <rect x="80" y="0" width="20" height="20" class="matrix-cell"/>
    
    <!-- Row 1 -->
    <rect x="0" y="20" width="20" height="20" class="matrix-cell"/>
    <rect x="20" y="20" width="20" height="20" class="matrix-cell"/>
    <rect x="40" y="20" width="20" height="20" class="highlight-col"/>
    <rect x="60" y="20" width="20" height="20" class="matrix-cell"/>
    <rect x="80" y="20" width="20" height="20" class="matrix-cell"/>
    
    <!-- Row 2 -->
    <rect x="0" y="40" width="20" height="20" class="matrix-cell"/>
    <rect x="20" y="40" width="20" height="20" class="matrix-cell"/>
    <rect x="40" y="40" width="20" height="20" class="highlight-col"/>
    <rect x="60" y="40" width="20" height="20" class="matrix-cell"/>
    <rect x="80" y="40" width="20" height="20" class="matrix-cell"/>
    
    <!-- Row 3 -->
    <rect x="0" y="60" width="20" height="20" class="matrix-cell"/>
    <rect x="20" y="60" width="20" height="20" class="matrix-cell"/>
    <rect x="40" y="60" width="20" height="20" class="highlight-col"/>
    <rect x="60" y="60" width="20" height="20" class="matrix-cell"/>
    <rect x="80" y="60" width="20" height="20" class="matrix-cell"/>
  </g>
  
  <!-- Matrix A (First tensor) - on left -->
  <g id="matrix-a" transform="translate(20, 145)">
    <text x="40" y="-8" class="label">A</text>
    
    <!-- Row 0 -->
    <rect x="0" y="0" width="20" height="20" class="matrix-cell"/>
    <rect x="20" y="0" width="20" height="20" class="matrix-cell"/>
    <rect x="40" y="0" width="20" height="20" class="matrix-cell"/>
    <rect x="60" y="0" width="20" height="20" class="matrix-cell"/>
    
    <!-- Row 1 (highlighted - row i) -->
    <rect x="0" y="20" width="20" height="20" class="highlight-row"/>
    <rect x="20" y="20" width="20" height="20" class="highlight-row"/>
    <rect x="40" y="20" width="20" height="20" class="highlight-row"/>
    <rect x="60" y="20" width="20" height="20" class="highlight-row"/>
    
    <!-- Row 2 -->
    <rect x="0" y="40" width="20" height="20" class="matrix-cell"/>
    <rect x="20" y="40" width="20" height="20" class="matrix-cell"/>
    <rect x="40" y="40" width="20" height="20" class="matrix-cell"/>
    <rect x="60" y="40" width="20" height="20" class="matrix-cell"/>
    
    <!-- Row 3 -->
    <rect x="0" y="60" width="20" height="20" class="matrix-cell"/>
    <rect x="20" y="60" width="20" height="20" class="matrix-cell"/>
    <rect x="40" y="60" width="20" height="20" class="matrix-cell"/>
    <rect x="60" y="60" width="20" height="20" class="matrix-cell"/>
    
    <!-- Label -->
    <text x="40" y="95" class="small-text" style="fill: #388e3c; font-weight: bold; text-anchor: middle;">rowwise</text>
  </g>
  
  <!-- Matrix result - bottom right -->
  <g id="matrix-c" transform="translate(125, 145)">
    <!-- Row 0 -->
    <rect x="0" y="0" width="20" height="20" class="matrix-cell"/>
    <rect x="20" y="0" width="20" height="20" class="matrix-cell"/>
    <rect x="40" y="0" width="20" height="20" class="matrix-cell"/>
    <rect x="60" y="0" width="20" height="20" class="matrix-cell"/>
    <rect x="80" y="0" width="20" height="20" class="matrix-cell"/>
    
    <!-- Row 1 -->
    <rect x="0" y="20" width="20" height="20" class="matrix-cell"/>
    <rect x="20" y="20" width="20" height="20" class="matrix-cell"/>
    <!-- Highlighted result cell -->
    <rect x="40" y="20" width="20" height="20" class="highlight-result"/>
    <rect x="60" y="20" width="20" height="20" class="matrix-cell"/>
    <rect x="80" y="20" width="20" height="20" class="matrix-cell"/>
    
    <!-- Row 2 -->
    <rect x="0" y="40" width="20" height="20" class="matrix-cell"/>
    <rect x="20" y="40" width="20" height="20" class="matrix-cell"/>
    <rect x="40" y="40" width="20" height="20" class="matrix-cell"/>
    <rect x="60" y="40" width="20" height="20" class="matrix-cell"/>
    <rect x="80" y="40" width="20" height="20" class="matrix-cell"/>
    
    <!-- Row 3 -->
    <rect x="0" y="60" width="20" height="20" class="matrix-cell"/>
    <rect x="20" y="60" width="20" height="20" class="matrix-cell"/>
    <rect x="40" y="60" width="20" height="20" class="matrix-cell"/>
    <rect x="60" y="60" width="20" height="20" class="matrix-cell"/>
    <rect x="80" y="60" width="20" height="20" class="matrix-cell"/>
  </g>
  
  <!-- RIGHT SIDE: A × B^T -->
  
  <!-- Title with superscript -->
  <text x="545" y="20" class="title">A × B<tspan baseline-shift="super" font-size="10">T</tspan></text>
  
  <!-- Matrix B^T (Second tensor) - on top, shown as B with rowwise access -->
  <g id="matrix-bt" transform="translate(500, 45)">
    <text x="50" y="-8" class="label">B</text>
    <text x="108" y="45" class="small-text" style="fill: #388e3c; font-weight: bold;">rowwise</text>
    
    <!-- Row 0 -->
    <rect x="0" y="0" width="20" height="20" class="matrix-cell"/>
    <rect x="20" y="0" width="20" height="20" class="matrix-cell"/>
    <rect x="40" y="0" width="20" height="20" class="matrix-cell"/>
    <rect x="60" y="0" width="20" height="20" class="matrix-cell"/>
    <rect x="80" y="0" width="20" height="20" class="matrix-cell"/>
    
    <!-- Row 1 (highlighted - rowwise access for transposed) -->
    <rect x="0" y="20" width="20" height="20" class="highlight-row"/>
    <rect x="20" y="20" width="20" height="20" class="highlight-row"/>
    <rect x="40" y="20" width="20" height="20" class="highlight-row"/>
    <rect x="60" y="20" width="20" height="20" class="highlight-row"/>
    <rect x="80" y="20" width="20" height="20" class="highlight-row"/>
    
    <!-- Row 2 -->
    <rect x="0" y="40" width="20" height="20" class="matrix-cell"/>
    <rect x="20" y="40" width="20" height="20" class="matrix-cell"/>
    <rect x="40" y="40" width="20" height="20" class="matrix-cell"/>
    <rect x="60" y="40" width="20" height="20" class="matrix-cell"/>
    <rect x="80" y="40" width="20" height="20" class="matrix-cell"/>
    
    <!-- Row 3 -->
    <rect x="0" y="60" width="20" height="20" class="matrix-cell"/>
    <rect x="20" y="60" width="20" height="20" class="matrix-cell"/>
    <rect x="40" y="60" width="20" height="20" class="matrix-cell"/>
    <rect x="60" y="60" width="20" height="20" class="matrix-cell"/>
    <rect x="80" y="60" width="20" height="20" class="matrix-cell"/>
  </g>
  
  <!-- Matrix A (First tensor) - on left -->
  <g id="matrix-a2" transform="translate(395, 145)">
    <text x="40" y="-8" class="label">A</text>
    
    <!-- Row 0 -->
    <rect x="0" y="0" width="20" height="20" class="matrix-cell"/>
    <rect x="20" y="0" width="20" height="20" class="matrix-cell"/>
    <rect x="40" y="0" width="20" height="20" class="matrix-cell"/>
    <rect x="60" y="0" width="20" height="20" class="matrix-cell"/>
    
    <!-- Row 1 (highlighted - row i) -->
    <rect x="0" y="20" width="20" height="20" class="highlight-row"/>
    <rect x="20" y="20" width="20" height="20" class="highlight-row"/>
    <rect x="40" y="20" width="20" height="20" class="highlight-row"/>
    <rect x="60" y="20" width="20" height="20" class="highlight-row"/>
    
    <!-- Row 2 -->
    <rect x="0" y="40" width="20" height="20" class="matrix-cell"/>
    <rect x="20" y="40" width="20" height="20" class="matrix-cell"/>
    <rect x="40" y="40" width="20" height="20" class="matrix-cell"/>
    <rect x="60" y="40" width="20" height="20" class="matrix-cell"/>
    
    <!-- Row 3 -->
    <rect x="0" y="60" width="20" height="20" class="matrix-cell"/>
    <rect x="20" y="60" width="20" height="20" class="matrix-cell"/>
    <rect x="40" y="60" width="20" height="20" class="matrix-cell"/>
    <rect x="60" y="60" width="20" height="20" class="matrix-cell"/>
    
    <!-- Label -->
    <text x="40" y="95" class="small-text" style="fill: #388e3c; font-weight: bold; text-anchor: middle;">rowwise</text>
  </g>
  
  <!-- Matrix result 4x4 - bottom right -->
  <g id="matrix-c1" transform="translate(500, 145)">
    <!-- Row 0 -->
    <rect x="0" y="0" width="20" height="20" class="matrix-cell"/>
    <rect x="20" y="0" width="20" height="20" class="matrix-cell"/>
    <rect x="40" y="0" width="20" height="20" class="matrix-cell"/>
    <rect x="60" y="0" width="20" height="20" class="matrix-cell"/>
    
    <!-- Row 1 -->
    <rect x="0" y="20" width="20" height="20" class="matrix-cell"/>
    <!-- Highlighted result cell -->
    <rect x="20" y="20" width="20" height="20" class="highlight-result"/>
    <rect x="40" y="20" width="20" height="20" class="matrix-cell"/>
    <rect x="60" y="20" width="20" height="20" class="matrix-cell"/>
    
    <!-- Row 2 -->
    <rect x="0" y="40" width="20" height="20" class="matrix-cell"/>
    <rect x="20" y="40" width="20" height="20" class="matrix-cell"/>
    <rect x="40" y="40" width="20" height="20" class="matrix-cell"/>
    <rect x="60" y="40" width="20" height="20" class="matrix-cell"/>
    
    <!-- Row 3 -->
    <rect x="0" y="60" width="20" height="20" class="matrix-cell"/>
    <rect x="20" y="60" width="20" height="20" class="matrix-cell"/>
    <rect x="40" y="60" width="20" height="20" class="matrix-cell"/>
    <rect x="60" y="60" width="20" height="20" class="matrix-cell"/>
  </g>
</svg>
