<svg xmlns="http://www.w3.org/2000/svg" viewBox="0 0 900 300" width="100%" style="max-width: 900px;">
  <defs>
    <style>
      .title { font: bold 16px sans-serif; fill: #333; text-anchor: middle; }
      .subtitle { font: bold 14px sans-serif; fill: #555; text-anchor: middle; }
      .label { font: 12px sans-serif; fill: #333; text-anchor: middle; }
      .memory-label { font: 12px sans-serif; fill: #333; text-anchor: middle; }
      .small-text { font: 11px sans-serif; fill: #555; text-anchor: middle; }
      .speed-text { font: bold 11px sans-serif; fill: #fff; text-anchor: middle; }
      
      .cpu-box { fill: #9db4d0; stroke: #444; stroke-width: 2; }
      .gpu-box { fill: #a8d99c; stroke: #444; stroke-width: 2; }
      .frame-box { fill: #f8f9fa; stroke: #aaa; stroke-width: 1.5; rx: 8; }
      .superchip-box { fill: none; stroke: #68d391; stroke-width: 2; stroke-dasharray: 6,3; rx: 10; }
      
      .memory-box { fill: #e2e8f0; stroke: #555; stroke-width: 1.5; }
      .hbm-box { fill: #c6f6d5; stroke: #38a169; stroke-width: 1.5; }
      
      .pcie-bar { fill: #d9a066; stroke: #444; stroke-width: 2; }
      .nvlink-bar { fill: #68d391; stroke: #444; stroke-width: 2; }
      .nvlink-gpu-bar { fill: #48bb78; stroke: #444; stroke-width: 2; }
      
      .connector { stroke: #555; stroke-width: 2; }
      .divider { stroke: #ccc; stroke-width: 1; stroke-dasharray: 6,4; }
    </style>
  </defs>

  <!-- Divider -->
  <line x1="370" y1="30" x2="370" y2="280" class="divider"/>

  <!-- ===== LEFT: Traditional PCIe System ===== -->
  <text x="185" y="28" class="title">Traditional PCIe System</text>

  <!-- Host Frame (CPU + RAM) -->
  <rect x="30" y="60" width="130" height="150" class="frame-box"/>
  
  <!-- CPU -->
  <rect x="45" y="75" width="100" height="50" rx="5" class="cpu-box"/>
  <text x="95" y="105" class="subtitle" fill="#333">CPU</text>

  <!-- System RAM -->
  <rect x="45" y="145" width="100" height="50" rx="5" class="memory-box"/>
  <text x="95" y="175" class="memory-label" fill="#333">RAM</text>
  
  <!-- CPU-RAM Link -->
  <line x1="95" y1="125" x2="95" y2="145" class="connector"/>

  <!-- Device Frame (GPU + HBM) -->
  <rect x="210" y="60" width="130" height="150" class="frame-box"/>

  <!-- GPU -->
  <rect x="225" y="75" width="100" height="50" rx="5" class="gpu-box"/>
  <text x="275" y="105" class="subtitle" fill="#333">GPU</text>

  <!-- HBM -->
  <rect x="225" y="145" width="100" height="50" rx="5" class="hbm-box"/>
  <text x="275" y="175" class="memory-label" fill="#333">HBM</text>

  <!-- GPU-HBM Link -->
  <line x1="275" y1="125" x2="275" y2="145" class="connector"/>

  <!-- PCIe Connection (between frames) -->
  <line x1="160" y1="135" x2="210" y2="135" class="connector"/>
  <rect x="165" y="120" width="40" height="30" rx="4" class="pcie-bar"/>
  <text x="185" y="139" class="speed-text">PCIe</text>
  
  <text x="185" y="240" class="small-text">128 GB/s</text>


  <!-- ===== RIGHT: GB200 Superchip ===== -->
  <text x="650" y="28" class="title">GB200 Superchip</text>
  <text x="650" y="45" class="small-text" fill="#38a169">NVIDIA Grace Blackwell</text>

  <!-- Superchip Boundary -->
  <rect x="395" y="55" width="510" height="180" class="superchip-box"/>

  <!-- Blackwell GPU 1 Frame -->
  <rect x="410" y="70" width="110" height="140" class="frame-box"/>
  
  <!-- GPU 1 -->
  <rect x="420" y="85" width="90" height="45" rx="5" class="gpu-box"/>
  <text x="465" y="105" class="subtitle" fill="#333" style="font-size: 12px;">Blackwell</text>
  <text x="465" y="120" class="subtitle" fill="#333" style="font-size: 12px;">GPU 1</text>

  <!-- HBM 1 -->
  <rect x="420" y="150" width="90" height="45" rx="5" class="hbm-box"/>
  <text x="465" y="177" class="memory-label" fill="#333">HBM</text>
  
  <line x1="465" y1="130" x2="465" y2="150" class="connector"/>

  <!-- NVLink-C2C Connection (GPU 1 to CPU) -->
  <line x1="520" y1="108" x2="575" y2="108" class="connector"/>
  <rect x="527" y="95" width="40" height="26" rx="4" class="nvlink-bar"/>
  <text x="547" y="108" class="speed-text" style="font-size: 9px;">NVLink</text>
  <text x="547" y="117" class="speed-text" style="font-size: 9px;">C2C</text>

  <!-- Grace CPU Frame (center) -->
  <rect x="575" y="70" width="110" height="140" class="frame-box"/>
  
  <!-- CPU -->
  <rect x="585" y="85" width="90" height="45" rx="5" class="cpu-box"/>
  <text x="630" y="112" class="subtitle" fill="#333">Grace CPU</text>

  <!-- RAM -->
  <rect x="585" y="150" width="90" height="45" rx="5" class="memory-box"/>
  <text x="630" y="177" class="memory-label" fill="#333">RAM</text>
  
  <line x1="630" y1="130" x2="630" y2="150" class="connector"/>

  <!-- NVLink-C2C Connection (CPU to GPU 2) -->
  <line x1="685" y1="108" x2="740" y2="108" class="connector"/>
  <rect x="692" y="95" width="40" height="26" rx="4" class="nvlink-bar"/>
  <text x="712" y="108" class="speed-text" style="font-size: 9px;">NVLink</text>
  <text x="712" y="117" class="speed-text" style="font-size: 9px;">C2C</text>

  <!-- Blackwell GPU 2 Frame -->
  <rect x="740" y="70" width="110" height="140" class="frame-box"/>
  
  <!-- GPU 2 -->
  <rect x="750" y="85" width="90" height="45" rx="5" class="gpu-box"/>
  <text x="795" y="105" class="subtitle" fill="#333" style="font-size: 12px;">Blackwell</text>
  <text x="795" y="120" class="subtitle" fill="#333" style="font-size: 12px;">GPU 2</text>

  <!-- HBM 2 -->
  <rect x="750" y="150" width="90" height="45" rx="5" class="hbm-box"/>
  <text x="795" y="177" class="memory-label" fill="#333">HBM</text>
  
  <line x1="795" y1="130" x2="795" y2="150" class="connector"/>

  <text x="650" y="255" class="small-text" fill="#68d391">900 GB/s per NVLink-C2C link</text>

</svg>
